  0
SECTION
  2
HEADER
  9
$ACADVER
  1
AC1009
  9
$INSBASE
 10
0.0
 20
0.0
 30
0.0
  9
$EXTMIN
 10
763.04808765353766
 20
484.9547516720192
 30
0.0
  9
$EXTMAX
 10
1183.0480876535371
 20
781.95475167201892
 30
0.0
  9
$LIMMIN
 10
0.0
 20
0.0
  9
$LIMMAX
 10
420.0
 20
297.0
  9
$ORTHOMODE
 70
     0
  9
$REGENMODE
 70
     1
  9
$FILLMODE
 70
     1
  9
$QTEXTMODE
 70
     0
  9
$MIRRTEXT
 70
     0
  9
$DRAGMODE
 70
     2
  9
$LTSCALE
 40
1.0
  9
$OSMODE
 70
   169
  9
$ATTMODE
 70
     1
  9
$TEXTSIZE
 40
2.5
  9
$TRACEWID
 40
1.0
  9
$TEXTSTYLE
  7
STANDARD
  9
$CLAYER
  8
0
  9
$CELTYPE
  6
BYLAYER
  9
$CECOLOR
 62
   256
  9
$DIMSCALE
 40
1.0
  9
$DIMASZ
 40
2.5
  9
$DIMEXO
 40
0.625
  9
$DIMDLI
 40
3.75
  9
$DIMRND
 40
0.0
  9
$DIMDLE
 40
0.0
  9
$DIMEXE
 40
1.25
  9
$DIMTP
 40
0.0
  9
$DIMTM
 40
0.0
  9
$DIMTXT
 40
2.5
  9
$DIMCEN
 40
2.5
  9
$DIMTSZ
 40
0.0
  9
$DIMTOL
 70
     0
  9
$DIMLIM
 70
     0
  9
$DIMTIH
 70
     0
  9
$DIMTOH
 70
     0
  9
$DIMSE1
 70
     0
  9
$DIMSE2
 70
     0
  9
$DIMTAD
 70
     1
  9
$DIMZIN
 70
     8
  9
$DIMBLK
  1

  9
$DIMASO
 70
     1
  9
$DIMSHO
 70
     1
  9
$DIMPOST
  1

  9
$DIMAPOST
  1

  9
$DIMALT
 70
     0
  9
$DIMALTD
 70
     3
  9
$DIMALTF
 40
0.03937007874016
  9
$DIMLFAC
 40
1.0
  9
$DIMTOFL
 70
     1
  9
$DIMTVP
 40
0.0
  9
$DIMTIX
 70
     0
  9
$DIMSOXD
 70
     0
  9
$DIMSAH
 70
     0
  9
$DIMBLK1
  1

  9
$DIMBLK2
  1

  9
$DIMSTYLE
  2
ISO-25
  9
$DIMCLRD
 70
     0
  9
$DIMCLRE
 70
     0
  9
$DIMCLRT
 70
     0
  9
$DIMTFAC
 40
1.0
  9
$DIMGAP
 40
0.625
  9
$LUNITS
 70
     2
  9
$LUPREC
 70
     4
  9
$SKETCHINC
 40
1.0
  9
$FILLETRAD
 40
0.0
  9
$AUNITS
 70
     0
  9
$AUPREC
 70
     0
  9
$MENU
  1
.
  9
$ELEVATION
 40
0.0
  9
$PELEVATION
 40
0.0
  9
$THICKNESS
 40
0.0
  9
$LIMCHECK
 70
     0
  9
$BLIPMODE
 70
     0
  9
$CHAMFERA
 40
0.0
  9
$CHAMFERB
 40
0.0
  9
$SKPOLY
 70
     0
  9
$TDCREATE
 40
2455455.6360761919
  9
$TDUPDATE
 40
2455455.6363299191
  9
$TDINDWG
 40
0.0002571528
  9
$TDUSRTIMER
 40
0.0002569792
  9
$USRTIMER
 70
     1
  9
$ANGBASE
 50
0.0
  9
$ANGDIR
 70
     0
  9
$PDMODE
 70
     0
  9
$PDSIZE
 40
0.0
  9
$PLINEWID
 40
0.0
  9
$COORDS
 70
     0
  9
$SPLFRAME
 70
     0
  9
$SPLINETYPE
 70
     6
  9
$SPLINESEGS
 70
     8
  9
$ATTDIA
 70
     0
  9
$ATTREQ
 70
     1
  9
$HANDLING
 70
     1
  9
$HANDSEED
  5
28D
  9
$SURFTAB1
 70
     6
  9
$SURFTAB2
 70
     6
  9
$SURFTYPE
 70
     6
  9
$SURFU
 70
     6
  9
$SURFV
 70
     6
  9
$UCSNAME
  2

  9
$UCSORG
 10
0.0
 20
0.0
 30
0.0
  9
$UCSXDIR
 10
1.0
 20
0.0
 30
0.0
  9
$UCSYDIR
 10
0.0
 20
1.0
 30
0.0
  9
$PUCSNAME
  2

  9
$PUCSORG
 10
0.0
 20
0.0
 30
0.0
  9
$PUCSXDIR
 10
1.0
 20
0.0
 30
0.0
  9
$PUCSYDIR
 10
0.0
 20
1.0
 30
0.0
  9
$USERI1
 70
     0
  9
$USERI2
 70
     0
  9
$USERI3
 70
     0
  9
$USERI4
 70
     0
  9
$USERI5
 70
     0
  9
$USERR1
 40
0.0
  9
$USERR2
 40
0.0
  9
$USERR3
 40
0.0
  9
$USERR4
 40
0.0
  9
$USERR5
 40
0.0
  9
$WORLDVIEW
 70
     1
  9
$SHADEDGE
 70
     3
  9
$SHADEDIF
 70
    70
  9
$TILEMODE
 70
     1
  9
$MAXACTVP
 70
    64
  9
$PLIMCHECK
 70
     0
  9
$PEXTMIN
 10
0.0
 20
0.0
 30
0.0
  9
$PEXTMAX
 10
0.0
 20
0.0
 30
0.0
  9
$PLIMMIN
 10
0.0
 20
0.0
  9
$PLIMMAX
 10
12.0
 20
9.0
  9
$UNITMODE
 70
     0
  9
$VISRETAIN
 70
     1
  9
$PLINEGEN
 70
     0
  9
$PSLTSCALE
 70
     1
  0
ENDSEC
  0
SECTION
  2
TABLES
  0
TABLE
  2
VPORT
 70
     2
  0
VPORT
  2
*ACTIVE
 70
     0
 10
0.0
 20
0.0
 11
1.0
 21
1.0
 12
979.8614606926385
 22
650.20557625511344
 13
0.0
 23
0.0
 14
10.0
 24
10.0
 15
10.0
 25
10.0
 16
0.0
 26
0.0
 36
1.0
 17
0.0
 27
0.0
 37
0.0
 40
270.4418094443152
 41
2.1822827938671199
 42
50.0
 43
0.0
 44
0.0
 50
0.0
 51
0.0
 71
     0
 72
  1000
 73
     1
 74
     3
 75
     0
 76
     0
 77
     0
 78
     0
  0
ENDTAB
  0
TABLE
  2
LTYPE
 70
     1
  0
LTYPE
  2
CONTINUOUS
 70
     0
  3
Solid line
 72
    65
 73
     0
 40
0.0
  0
ENDTAB
  0
TABLE
  2
LAYER
 70
     1
  0
LAYER
  2
0
 70
     0
 62
     7
  6
CONTINUOUS
  0
ENDTAB
  0
TABLE
  2
STYLE
 70
     2
  0
STYLE
  2
STANDARD
 70
     0
 40
0.0
 41
1.0
 50
0.0
 71
     0
 42
2.5
  3
txt
  4
gbcbig.shx
  0
STYLE
  2
TLCAD
 70
     0
 40
0.0
 41
1.0
 50
0.0
 71
     0
 42
2.5
  3
romanc.shx
  4
hztxt.shx
  0
ENDTAB
  0
TABLE
  2
VIEW
 70
     0
  0
ENDTAB
  0
TABLE
  2
UCS
 70
     0
  0
ENDTAB
  0
TABLE
  2
APPID
 70
     3
  0
APPID
  2
ACAD
 70
     0
  0
APPID
  2
ACAD_PSEXT
 70
     0
  0
APPID
  2
ACDBBLOCKREPETAG
 70
     0
  0
ENDTAB
  0
TABLE
  2
DIMSTYLE
 70
     1
  0
DIMSTYLE
  2
ISO-25
 70
     0
  3

  4

  5

  6

  7

 40
1.0
 41
2.5
 42
0.625
 43
3.75
 44
1.25
 45
0.0
 46
0.0
 47
0.0
 48
0.0
140
2.5
141
2.5
142
0.0
143
0.03937007874016
144
1.0
145
0.0
146
1.0
147
0.625
 71
     0
 72
     0
 73
     0
 74
     0
 75
     0
 76
     0
 77
     1
 78
     8
170
     0
171
     3
172
     1
173
     0
174
     0
175
     0
176
     0
177
     0
178
     0
  0
ENDTAB
  0
ENDSEC
  0
SECTION
  2
BLOCKS
  0
BLOCK
  8
0
  2
$MODEL_SPACE
 70
     0
 10
0.0
 20
0.0
 30
0.0
  3
$MODEL_SPACE
  1

  0
ENDBLK
  5
21
  8
0
  0
BLOCK
 67
     1
  8
0
  2
$PAPER_SPACE
 70
     0
 10
0.0
 20
0.0
 30
0.0
  3
$PAPER_SPACE
  1

  0
ENDBLK
  5
D5
 67
     1
  8
0
  0
BLOCK
  8
0
  2
四川院
 70
     0
 10
0.0
 20
0.0
 30
0.0
  3
四川院
  1

  0
LINE
  5
F4
  8
0
 10
25.000000317481181
 20
4.9999999308494694
 30
0.0
 11
25.000000317481181
 21
291.99999993084919
 31
0.0
1001
ACDBBLOCKREPETAG
1070
     1
1071
      297
1005
F4
  0
LINE
  5
F5
  8
0
 10
415.00000031748061
 20
4.9999999308494694
 30
0.0
 11
25.000000317481181
 21
4.9999999308494694
 31
0.0
1001
ACDBBLOCKREPETAG
1070
     1
1071
      298
1005
F5
  0
LINE
  5
F6
  8
0
 10
415.00000031748061
 20
291.99999993084919
 30
0.0
 11
415.00000031748061
 21
4.9999999308494694
 31
0.0
1001
ACDBBLOCKREPETAG
1070
     1
1071
      299
1005
F6
  0
LINE
  5
F7
  8
0
 10
25.000000317481181
 20
291.99999993084919
 30
0.0
 11
415.00000031748061
 21
291.99999993084919
 31
0.0
1001
ACDBBLOCKREPETAG
1070
     1
1071
      300
1005
F7
  0
LINE
  5
F8
  8
0
 10
420.00000031748039
 20
-0.0000000691505306
 30
0.0
 11
0.0000003174811809
 21
-0.0000000691505306
 31
0.0
1001
ACDBBLOCKREPETAG
1070
     1
1071
      301
1005
F8
  0
LINE
  5
F9
  8
0
 10
420.00000031748039
 20
296.99999993084919
 30
0.0
 11
420.00000031748039
 21
-0.0000000691505306
 31
0.0
1001
ACDBBLOCKREPETAG
1070
     1
1071
      302
1005
F9
  0
LINE
  5
FA
  8
0
 10
0.0000003174811809
 20
296.99999993084919
 30
0.0
 11
420.00000031748039
 21
296.99999993084919
 31
0.0
1001
ACDBBLOCKREPETAG
1070
     1
1071
      303
1005
FA
  0
LINE
  5
FB
  8
0
 10
0.0000003174811809
 20
296.99999993084919
 30
0.0
 11
0.0000003174811809
 21
-0.0000000691505306
 31
0.0
1001
ACDBBLOCKREPETAG
1070
     1
1071
      317
1005
FB
  0
LINE
  5
FC
  8
0
 10
38.000000317481181
 20
260.00000023050211
 30
0.0
 11
38.000000317481181
 21
4.9999999308494694
 31
0.0
  0
LINE
  5
FD
  8
0
 10
60.000000317481181
 20
291.99999993084919
 30
0.0
 11
60.000000317481181
 21
4.9999999308494694
 31
0.0
  0
LINE
  5
FE
  8
0
 10
407.00000031748061
 20
213.9999999308495
 30
0.0
 11
274.00000031748118
 21
213.9999999308495
 31
0.0
1001
ACDBBLOCKREPETAG
1070
     1
1071
      298
1005
F5
  0
LINE
  5
FF
  8
0
 10
274.00000031748118
 20
213.9999999308495
 30
0.0
 11
274.00000031748118
 21
213.9999999308495
 31
0.0
1001
ACDBBLOCKREPETAG
1070
     1
1071
      298
1005
F5
  0
LINE
  5
100
  8
0
 10
250.00000031748121
 20
213.9999999308495
 30
0.0
 11
181.00000031748121
 21
213.9999999308495
 31
0.0
1001
ACDBBLOCKREPETAG
1070
     1
1071
      298
1005
F5
  0
LINE
  5
101
  8
0
 10
150.00000031748121
 20
213.9999999308495
 30
0.0
 11
128.0000003174811
 21
213.9999999308495
 31
0.0
1001
ACDBBLOCKREPETAG
1070
     1
1071
      298
1005
F5
  0
LINE
  5
102
  8
0
 10
117.0000003174812
 20
213.9999999308495
 30
0.0
 11
38.000000317481181
 21
213.9999999308495
 31
0.0
1001
ACDBBLOCKREPETAG
1070
     1
1071
      298
1005
F5
  0
LINE
  5
103
  8
0
 10
415.00000031748061
 20
224.9999999308495
 30
0.0
 11
25.000000317481181
 21
224.9999999308495
 31
0.0
1001
ACDBBLOCKREPETAG
1070
     1
1071
      298
1005
F5
  0
LINE
  5
104
  8
0
 10
25.000000317481181
 20
260.00000023050211
 30
0.0
 11
415.00000031748061
 21
260.00000023050211
 31
0.0
  0
LINE
  5
105
  8
0
 10
48.000000317481181
 20
260.00000023050211
 30
0.0
 11
48.000000317481181
 21
4.9999999308494694
 31
0.0
  0
LINE
  5
106
  8
0
 10
73.000000317481181
 20
260.00000023050211
 30
0.0
 11
73.000000317481181
 21
4.9999999308494694
 31
0.0
  0
LINE
  5
107
  8
0
 10
85.000000317481181
 20
260.00000023050211
 30
0.0
 11
85.000000317481181
 21
4.9999999308494694
 31
0.0
  0
LINE
  5
108
  8
0
 10
104.0000003174812
 20
4.9999999308494694
 30
0.0
 11
104.0000003174812
 21
260.00000023050211
 31
0.0
  0
LINE
  5
109
  8
0
 10
117.0000003174812
 20
260.00000023050211
 30
0.0
 11
117.0000003174812
 21
4.9999999308494694
 31
0.0
  0
LINE
  5
10A
  8
0
 10
128.0000003174811
 20
4.9999999308494694
 30
0.0
 11
128.0000003174811
 21
260.00000023050211
 31
0.0
  0
LINE
  5
10B
  8
0
 10
128.0000003174811
 20
260.00000023050211
 30
0.0
 11
139.00000031748121
 21
260.00000023050211
 31
0.0
  0
LINE
  5
10C
  8
0
 10
139.00000031748121
 20
260.00000023050211
 30
0.0
 11
139.00000031748121
 21
4.9999999308494694
 31
0.0
  0
LINE
  5
10D
  8
0
 10
150.0000003174811
 20
4.9999999308494694
 30
0.0
 11
150.00000031748121
 21
260.00000023050211
 31
0.0
  0
LINE
  5
10E
  8
0
 10
164.00000031748121
 20
260.00000023050211
 30
0.0
 11
164.00000031748121
 21
4.9999999308494694
 31
0.0
  0
LINE
  5
10F
  8
0
 10
181.00000031748121
 20
4.9999999308494694
 30
0.0
 11
181.00000031748121
 21
260.00000023050211
 31
0.0
  0
LINE
  5
110
  8
0
 10
190.00000031748121
 20
260.00000023050211
 30
0.0
 11
190.00000031748121
 21
4.9999999308494694
 31
0.0
  0
LINE
  5
111
  8
0
 10
202.00000031748121
 20
235.9999999308495
 30
0.0
 11
202.00000031748121
 21
4.9999999308494694
 31
0.0
  0
LINE
  5
112
  8
0
 10
214.00000031748121
 20
235.9999999308495
 30
0.0
 11
214.00000031748121
 21
4.9999999308494694
 31
0.0
  0
LINE
  5
113
  8
0
 10
226.00000031748121
 20
260.00000023050211
 30
0.0
 11
226.00000031748129
 21
4.9999999308494694
 31
0.0
  0
LINE
  5
114
  8
0
 10
238.00000031748121
 20
235.9999999308495
 30
0.0
 11
238.00000031748121
 21
4.9999999308494694
 31
0.0
  0
LINE
  5
115
  8
0
 10
250.00000031748121
 20
260.00000023050211
 30
0.0
 11
250.00000031748121
 21
4.9999999308494694
 31
0.0
  0
LINE
  5
116
  8
0
 10
262.00000031748118
 20
246.9999999308495
 30
0.0
 11
262.00000031748118
 21
235.9999999308495
 31
0.0
  0
LINE
  5
117
  8
0
 10
262.00000031748118
 20
224.9999999308495
 30
0.0
 11
262.00000031748118
 21
4.9999999308494694
 31
0.0
  0
LINE
  5
118
  8
0
 10
274.00000031748118
 20
260.00000023050211
 30
0.0
 11
274.00000031748129
 21
4.9999999308494694
 31
0.0
  0
LINE
  5
119
  8
0
 10
286.00000031748118
 20
246.9999999308495
 30
0.0
 11
286.00000031748118
 21
4.9999999308494694
 31
0.0
  0
LINE
  5
11A
  8
0
 10
298.00000031748118
 20
260.00000023050211
 30
0.0
 11
298.00000031748118
 21
4.9999999308494694
 31
0.0
  0
LINE
  5
11B
  8
0
 10
313.00000031748118
 20
291.99999993084919
 30
0.0
 11
313.00000031748118
 21
4.9999999308494694
 31
0.0
  0
LINE
  5
11C
  8
0
 10
313.00000031748118
 20
235.9999999308495
 30
0.0
 11
190.00000031748121
 21
235.9999999308495
 31
0.0
1001
ACDBBLOCKREPETAG
1070
     1
1071
      298
1005
F5
  0
LINE
  5
11D
  8
0
 10
298.00000031748118
 20
246.9999999308495
 30
0.0
 11
250.00000031748121
 21
246.9999999308495
 31
0.0
1001
ACDBBLOCKREPETAG
1070
     1
1071
      298
1005
F5
  0
LINE
  5
11E
  8
0
 10
407.00000031748061
 20
260.00000023050211
 30
0.0
 11
407.00000031748061
 21
4.9999999308494694
 31
0.0
  0
INSERT
  5
11F
  8
0
  2
*U2
 10
0.0
 20
0.0
 30
0.0
  0
INSERT
  5
120
  8
0
  2
*U3
 10
0.0
 20
0.0
 30
0.0
  0
INSERT
  5
121
  8
0
  2
*U4
 10
0.0
 20
0.0
 30
0.0
  0
INSERT
  5
122
  8
0
  2
*U5
 10
0.0
 20
0.0
 30
0.0
  0
INSERT
  5
123
  8
0
  2
*U6
 10
0.0
 20
0.0
 30
0.0
  0
INSERT
  5
124
  8
0
  2
*U7
 10
0.0
 20
0.0
 30
0.0
  0
INSERT
  5
125
  8
0
  2
*U8
 10
0.0
 20
0.0
 30
0.0
  0
INSERT
  5
126
  8
0
  2
*U9
 10
0.0
 20
0.0
 30
0.0
  0
INSERT
  5
127
  8
0
  2
*U10
 10
0.0
 20
0.0
 30
0.0
  0
INSERT
  5
128
  8
0
  2
*U11
 10
0.0
 20
0.0
 30
0.0
  0
INSERT
  5
129
  8
0
  2
*U12
 10
0.0
 20
0.0
 30
0.0
  0
INSERT
  5
12A
  8
0
  2
*U13
 10
0.0
 20
0.0
 30
0.0
  0
INSERT
  5
12B
  8
0
  2
*U14
 10
0.0
 20
0.0
 30
0.0
  0
INSERT
  5
12C
  8
0
  2
*U15
 10
0.0
 20
0.0
 30
0.0
  0
INSERT
  5
12D
  8
0
  2
*U16
 10
0.0
 20
0.0
 30
0.0
  0
INSERT
  5
12E
  8
0
  2
*U17
 10
0.0
 20
0.0
 30
0.0
  0
INSERT
  5
12F
  8
0
  2
*U18
 10
0.0
 20
0.0
 30
0.0
  0
INSERT
  5
130
  8
0
  2
*U19
 10
0.0
 20
0.0
 30
0.0
  0
INSERT
  5
131
  8
0
  2
*U20
 10
0.0
 20
0.0
 30
0.0
  0
INSERT
  5
132
  8
0
  2
*U21
 10
0.0
 20
0.0
 30
0.0
  0
INSERT
  5
133
  8
0
  2
*U22
 10
0.0
 20
0.0
 30
0.0
  0
INSERT
  5
134
  8
0
  2
*U23
 10
0.0
 20
0.0
 30
0.0
  0
INSERT
  5
135
  8
0
  2
*U24
 10
0.0
 20
0.0
 30
0.0
  0
INSERT
  5
136
  8
0
  2
*U25
 10
0.0
 20
0.0
 30
0.0
  0
INSERT
  5
137
  8
0
  2
*U26
 10
0.0
 20
0.0
 30
0.0
  0
INSERT
  5
138
  8
0
  2
*U27
 10
0.0
 20
0.0
 30
0.0
  0
INSERT
  5
139
  8
0
  2
*U28
 10
0.0
 20
0.0
 30
0.0
  0
INSERT
  5
13A
  8
0
  2
*U29
 10
0.0
 20
0.0
 30
0.0
  0
INSERT
  5
13B
  8
0
  2
*U30
 10
0.0
 20
0.0
 30
0.0
  0
INSERT
  5
13C
  8
0
  2
*U31
 10
0.0
 20
0.0
 30
0.0
  0
INSERT
  5
13D
  8
0
  2
*U32
 10
0.0
 20
0.0
 30
0.0
  0
INSERT
  5
13E
  8
0
  2
*U33
 10
0.0
 20
0.0
 30
0.0
  0
INSERT
  5
13F
  8
0
  2
*U34
 10
0.0
 20
0.0
 30
0.0
  0
INSERT
  5
140
  8
0
  2
*U35
 10
0.0
 20
0.0
 30
0.0
  0
LINE
  5
141
  8
0
 10
117.0000003174812
 20
219.4999999308495
 30
0.0
 11
117.0000003174812
 21
219.4999999308495
 31
0.0
  0
LINE
  5
142
  8
0
 10
117.0000003174812
 20
219.4999999308495
 30
0.0
 11
128.0000003174811
 21
219.4999999308495
 31
0.0
  0
LINE
  5
143
  8
0
 10
407.00000031748061
 20
202.9999999308495
 30
0.0
 11
274.00000031748118
 21
202.9999999308495
 31
0.0
1001
ACDBBLOCKREPETAG
1070
     1
1071
      298
1005
F5
  0
LINE
  5
144
  8
0
 10
274.00000031748118
 20
202.9999999308495
 30
0.0
 11
274.00000031748118
 21
202.9999999308495
 31
0.0
1001
ACDBBLOCKREPETAG
1070
     1
1071
      298
1005
F5
  0
LINE
  5
145
  8
0
 10
250.00000031748121
 20
202.9999999308495
 30
0.0
 11
181.00000031748121
 21
202.9999999308495
 31
0.0
1001
ACDBBLOCKREPETAG
1070
     1
1071
      298
1005
F5
  0
LINE
  5
146
  8
0
 10
150.00000031748121
 20
202.9999999308495
 30
0.0
 11
128.0000003174811
 21
202.9999999308495
 31
0.0
1001
ACDBBLOCKREPETAG
1070
     1
1071
      298
1005
F5
  0
LINE
  5
147
  8
0
 10
117.0000003174812
 20
202.9999999308495
 30
0.0
 11
38.000000317481181
 21
202.9999999308495
 31
0.0
1001
ACDBBLOCKREPETAG
1070
     1
1071
      298
1005
F5
  0
LINE
  5
148
  8
0
 10
117.0000003174812
 20
208.4999999308495
 30
0.0
 11
117.0000003174812
 21
208.4999999308495
 31
0.0
  0
LINE
  5
149
  8
0
 10
117.0000003174812
 20
208.4999999308495
 30
0.0
 11
128.0000003174811
 21
208.4999999308495
 31
0.0
  0
LINE
  5
14A
  8
0
 10
407.00000031748061
 20
191.99999993084941
 30
0.0
 11
274.00000031748118
 21
191.99999993084941
 31
0.0
1001
ACDBBLOCKREPETAG
1070
     1
1071
      298
1005
F5
  0
LINE
  5
14B
  8
0
 10
274.00000031748118
 20
191.99999993084941
 30
0.0
 11
274.00000031748118
 21
191.99999993084941
 31
0.0
1001
ACDBBLOCKREPETAG
1070
     1
1071
      298
1005
F5
  0
LINE
  5
14C
  8
0
 10
250.00000031748121
 20
191.99999993084941
 30
0.0
 11
181.00000031748121
 21
191.99999993084941
 31
0.0
1001
ACDBBLOCKREPETAG
1070
     1
1071
      298
1005
F5
  0
LINE
  5
14D
  8
0
 10
150.00000031748121
 20
191.99999993084941
 30
0.0
 11
128.0000003174811
 21
191.99999993084941
 31
0.0
1001
ACDBBLOCKREPETAG
1070
     1
1071
      298
1005
F5
  0
LINE
  5
14E
  8
0
 10
117.0000003174812
 20
191.99999993084941
 30
0.0
 11
38.000000317481181
 21
191.99999993084941
 31
0.0
1001
ACDBBLOCKREPETAG
1070
     1
1071
      298
1005
F5
  0
LINE
  5
14F
  8
0
 10
117.0000003174812
 20
197.4999999308495
 30
0.0
 11
117.0000003174812
 21
197.4999999308495
 31
0.0
  0
LINE
  5
150
  8
0
 10
117.0000003174812
 20
197.4999999308495
 30
0.0
 11
128.0000003174811
 21
197.4999999308495
 31
0.0
  0
LINE
  5
151
  8
0
 10
407.00000031748061
 20
180.99999993084941
 30
0.0
 11
274.00000031748118
 21
180.99999993084941
 31
0.0
1001
ACDBBLOCKREPETAG
1070
     1
1071
      298
1005
F5
  0
LINE
  5
152
  8
0
 10
274.00000031748118
 20
180.99999993084941
 30
0.0
 11
274.00000031748118
 21
180.99999993084941
 31
0.0
1001
ACDBBLOCKREPETAG
1070
     1
1071
      298
1005
F5
  0
LINE
  5
153
  8
0
 10
250.00000031748121
 20
180.99999993084941
 30
0.0
 11
181.00000031748121
 21
180.99999993084941
 31
0.0
1001
ACDBBLOCKREPETAG
1070
     1
1071
      298
1005
F5
  0
LINE
  5
154
  8
0
 10
150.00000031748121
 20
180.99999993084941
 30
0.0
 11
128.0000003174811
 21
180.99999993084941
 31
0.0
1001
ACDBBLOCKREPETAG
1070
     1
1071
      298
1005
F5
  0
LINE
  5
155
  8
0
 10
117.0000003174812
 20
180.99999993084941
 30
0.0
 11
38.000000317481181
 21
180.99999993084941
 31
0.0
1001
ACDBBLOCKREPETAG
1070
     1
1071
      298
1005
F5
  0
LINE
  5
156
  8
0
 10
117.0000003174812
 20
186.49999993084941
 30
0.0
 11
117.0000003174812
 21
186.49999993084941
 31
0.0
  0
LINE
  5
157
  8
0
 10
117.0000003174812
 20
186.49999993084941
 30
0.0
 11
128.0000003174811
 21
186.49999993084941
 31
0.0
  0
LINE
  5
158
  8
0
 10
407.00000031748061
 20
169.99999993084941
 30
0.0
 11
274.00000031748118
 21
169.99999993084941
 31
0.0
1001
ACDBBLOCKREPETAG
1070
     1
1071
      298
1005
F5
  0
LINE
  5
159
  8
0
 10
274.00000031748118
 20
169.99999993084941
 30
0.0
 11
274.00000031748118
 21
169.99999993084941
 31
0.0
1001
ACDBBLOCKREPETAG
1070
     1
1071
      298
1005
F5
  0
LINE
  5
15A
  8
0
 10
250.00000031748121
 20
169.99999993084941
 30
0.0
 11
181.00000031748121
 21
169.99999993084941
 31
0.0
1001
ACDBBLOCKREPETAG
1070
     1
1071
      298
1005
F5
  0
LINE
  5
15B
  8
0
 10
150.00000031748121
 20
169.99999993084941
 30
0.0
 11
128.0000003174811
 21
169.99999993084941
 31
0.0
1001
ACDBBLOCKREPETAG
1070
     1
1071
      298
1005
F5
  0
LINE
  5
15C
  8
0
 10
117.0000003174812
 20
169.99999993084941
 30
0.0
 11
38.000000317481181
 21
169.99999993084941
 31
0.0
1001
ACDBBLOCKREPETAG
1070
     1
1071
      298
1005
F5
  0
LINE
  5
15D
  8
0
 10
117.0000003174812
 20
175.4999999308495
 30
0.0
 11
117.0000003174812
 21
175.4999999308495
 31
0.0
  0
LINE
  5
15E
  8
0
 10
117.0000003174812
 20
175.4999999308495
 30
0.0
 11
128.0000003174811
 21
175.4999999308495
 31
0.0
  0
LINE
  5
15F
  8
0
 10
407.00000031748061
 20
158.9999999308495
 30
0.0
 11
274.00000031748118
 21
158.9999999308495
 31
0.0
1001
ACDBBLOCKREPETAG
1070
     1
1071
      298
1005
F5
  0
LINE
  5
160
  8
0
 10
274.00000031748118
 20
158.9999999308495
 30
0.0
 11
274.00000031748118
 21
158.9999999308495
 31
0.0
1001
ACDBBLOCKREPETAG
1070
     1
1071
      298
1005
F5
  0
LINE
  5
161
  8
0
 10
250.00000031748121
 20
158.9999999308495
 30
0.0
 11
181.00000031748121
 21
158.9999999308495
 31
0.0
1001
ACDBBLOCKREPETAG
1070
     1
1071
      298
1005
F5
  0
LINE
  5
162
  8
0
 10
150.00000031748121
 20
158.9999999308495
 30
0.0
 11
128.0000003174811
 21
158.9999999308495
 31
0.0
1001
ACDBBLOCKREPETAG
1070
     1
1071
      298
1005
F5
  0
LINE
  5
163
  8
0
 10
117.0000003174812
 20
158.9999999308495
 30
0.0
 11
38.000000317481181
 21
158.9999999308495
 31
0.0
1001
ACDBBLOCKREPETAG
1070
     1
1071
      298
1005
F5
  0
LINE
  5
164
  8
0
 10
117.0000003174812
 20
164.49999993084941
 30
0.0
 11
117.0000003174812
 21
164.49999993084941
 31
0.0
  0
LINE
  5
165
  8
0
 10
117.0000003174812
 20
164.49999993084941
 30
0.0
 11
128.0000003174811
 21
164.49999993084941
 31
0.0
  0
LINE
  5
166
  8
0
 10
407.00000031748061
 20
147.99999993084941
 30
0.0
 11
274.00000031748118
 21
147.99999993084941
 31
0.0
1001
ACDBBLOCKREPETAG
1070
     1
1071
      298
1005
F5
  0
LINE
  5
167
  8
0
 10
274.00000031748118
 20
147.99999993084941
 30
0.0
 11
274.00000031748118
 21
147.99999993084941
 31
0.0
1001
ACDBBLOCKREPETAG
1070
     1
1071
      298
1005
F5
  0
LINE
  5
168
  8
0
 10
250.00000031748121
 20
147.99999993084941
 30
0.0
 11
181.00000031748121
 21
147.99999993084941
 31
0.0
1001
ACDBBLOCKREPETAG
1070
     1
1071
      298
1005
F5
  0
LINE
  5
169
  8
0
 10
150.00000031748121
 20
147.99999993084941
 30
0.0
 11
128.0000003174811
 21
147.99999993084941
 31
0.0
1001
ACDBBLOCKREPETAG
1070
     1
1071
      298
1005
F5
  0
LINE
  5
16A
  8
0
 10
117.0000003174812
 20
147.99999993084941
 30
0.0
 11
38.000000317481181
 21
147.99999993084941
 31
0.0
1001
ACDBBLOCKREPETAG
1070
     1
1071
      298
1005
F5
  0
LINE
  5
16B
  8
0
 10
117.0000003174812
 20
153.49999993084941
 30
0.0
 11
117.0000003174812
 21
153.49999993084941
 31
0.0
  0
LINE
  5
16C
  8
0
 10
117.0000003174812
 20
153.49999993084941
 30
0.0
 11
128.0000003174811
 21
153.49999993084941
 31
0.0
  0
LINE
  5
16D
  8
0
 10
407.00000031748061
 20
136.9999999308495
 30
0.0
 11
274.00000031748118
 21
136.9999999308495
 31
0.0
1001
ACDBBLOCKREPETAG
1070
     1
1071
      298
1005
F5
  0
LINE
  5
16E
  8
0
 10
274.00000031748118
 20
136.9999999308495
 30
0.0
 11
274.00000031748118
 21
136.9999999308495
 31
0.0
1001
ACDBBLOCKREPETAG
1070
     1
1071
      298
1005
F5
  0
LINE
  5
16F
  8
0
 10
250.00000031748121
 20
136.9999999308495
 30
0.0
 11
181.00000031748121
 21
136.9999999308495
 31
0.0
1001
ACDBBLOCKREPETAG
1070
     1
1071
      298
1005
F5
  0
LINE
  5
170
  8
0
 10
150.00000031748121
 20
136.9999999308495
 30
0.0
 11
128.0000003174811
 21
136.9999999308495
 31
0.0
1001
ACDBBLOCKREPETAG
1070
     1
1071
      298
1005
F5
  0
LINE
  5
171
  8
0
 10
117.0000003174812
 20
136.9999999308495
 30
0.0
 11
38.000000317481181
 21
136.9999999308495
 31
0.0
1001
ACDBBLOCKREPETAG
1070
     1
1071
      298
1005
F5
  0
LINE
  5
172
  8
0
 10
117.0000003174812
 20
142.4999999308495
 30
0.0
 11
117.0000003174812
 21
142.4999999308495
 31
0.0
  0
LINE
  5
173
  8
0
 10
117.0000003174812
 20
142.4999999308495
 30
0.0
 11
128.0000003174811
 21
142.4999999308495
 31
0.0
  0
LINE
  5
174
  8
0
 10
407.00000031748061
 20
125.9999999308494
 30
0.0
 11
274.00000031748118
 21
125.9999999308494
 31
0.0
1001
ACDBBLOCKREPETAG
1070
     1
1071
      298
1005
F5
  0
LINE
  5
175
  8
0
 10
274.00000031748118
 20
125.9999999308494
 30
0.0
 11
274.00000031748118
 21
125.9999999308494
 31
0.0
1001
ACDBBLOCKREPETAG
1070
     1
1071
      298
1005
F5
  0
LINE
  5
176
  8
0
 10
250.00000031748121
 20
125.9999999308494
 30
0.0
 11
181.00000031748121
 21
125.9999999308494
 31
0.0
1001
ACDBBLOCKREPETAG
1070
     1
1071
      298
1005
F5
  0
LINE
  5
177
  8
0
 10
150.00000031748121
 20
125.9999999308494
 30
0.0
 11
128.0000003174811
 21
125.9999999308494
 31
0.0
1001
ACDBBLOCKREPETAG
1070
     1
1071
      298
1005
F5
  0
LINE
  5
178
  8
0
 10
117.0000003174812
 20
125.9999999308494
 30
0.0
 11
38.000000317481181
 21
125.9999999308494
 31
0.0
1001
ACDBBLOCKREPETAG
1070
     1
1071
      298
1005
F5
  0
LINE
  5
179
  8
0
 10
117.0000003174812
 20
131.49999993084941
 30
0.0
 11
117.0000003174812
 21
131.49999993084941
 31
0.0
  0
LINE
  5
17A
  8
0
 10
117.0000003174812
 20
131.49999993084941
 30
0.0
 11
128.0000003174811
 21
131.49999993084941
 31
0.0
  0
LINE
  5
17B
  8
0
 10
407.00000031748061
 20
114.9999999308494
 30
0.0
 11
274.00000031748118
 21
114.9999999308494
 31
0.0
1001
ACDBBLOCKREPETAG
1070
     1
1071
      298
1005
F5
  0
LINE
  5
17C
  8
0
 10
274.00000031748118
 20
114.9999999308494
 30
0.0
 11
274.00000031748118
 21
114.9999999308494
 31
0.0
1001
ACDBBLOCKREPETAG
1070
     1
1071
      298
1005
F5
  0
LINE
  5
17D
  8
0
 10
250.00000031748121
 20
114.9999999308494
 30
0.0
 11
181.00000031748121
 21
114.9999999308494
 31
0.0
1001
ACDBBLOCKREPETAG
1070
     1
1071
      298
1005
F5
  0
LINE
  5
17E
  8
0
 10
150.00000031748121
 20
114.9999999308494
 30
0.0
 11
128.0000003174811
 21
114.9999999308494
 31
0.0
1001
ACDBBLOCKREPETAG
1070
     1
1071
      298
1005
F5
  0
LINE
  5
17F
  8
0
 10
117.0000003174812
 20
114.9999999308494
 30
0.0
 11
38.000000317481181
 21
114.9999999308494
 31
0.0
1001
ACDBBLOCKREPETAG
1070
     1
1071
      298
1005
F5
  0
LINE
  5
180
  8
0
 10
117.0000003174812
 20
120.4999999308494
 30
0.0
 11
117.0000003174812
 21
120.4999999308494
 31
0.0
  0
LINE
  5
181
  8
0
 10
117.0000003174812
 20
120.4999999308494
 30
0.0
 11
128.0000003174811
 21
120.4999999308494
 31
0.0
  0
LINE
  5
182
  8
0
 10
407.00000031748061
 20
103.9999999308494
 30
0.0
 11
274.00000031748118
 21
103.9999999308494
 31
0.0
1001
ACDBBLOCKREPETAG
1070
     1
1071
      298
1005
F5
  0
LINE
  5
183
  8
0
 10
274.00000031748118
 20
103.9999999308494
 30
0.0
 11
274.00000031748118
 21
103.9999999308494
 31
0.0
1001
ACDBBLOCKREPETAG
1070
     1
1071
      298
1005
F5
  0
LINE
  5
184
  8
0
 10
250.00000031748121
 20
103.9999999308494
 30
0.0
 11
181.00000031748121
 21
103.9999999308494
 31
0.0
1001
ACDBBLOCKREPETAG
1070
     1
1071
      298
1005
F5
  0
LINE
  5
185
  8
0
 10
150.00000031748121
 20
103.9999999308494
 30
0.0
 11
128.0000003174811
 21
103.9999999308494
 31
0.0
1001
ACDBBLOCKREPETAG
1070
     1
1071
      298
1005
F5
  0
LINE
  5
186
  8
0
 10
117.0000003174812
 20
103.9999999308494
 30
0.0
 11
38.000000317481181
 21
103.9999999308494
 31
0.0
1001
ACDBBLOCKREPETAG
1070
     1
1071
      298
1005
F5
  0
LINE
  5
187
  8
0
 10
117.0000003174812
 20
109.4999999308494
 30
0.0
 11
117.0000003174812
 21
109.4999999308494
 31
0.0
  0
LINE
  5
188
  8
0
 10
117.0000003174812
 20
109.4999999308494
 30
0.0
 11
128.0000003174811
 21
109.4999999308494
 31
0.0
  0
LINE
  5
189
  8
0
 10
407.00000031748061
 20
92.999999930849469
 30
0.0
 11
274.00000031748118
 21
92.999999930849469
 31
0.0
1001
ACDBBLOCKREPETAG
1070
     1
1071
      298
1005
F5
  0
LINE
  5
18A
  8
0
 10
274.00000031748118
 20
92.999999930849469
 30
0.0
 11
274.00000031748118
 21
92.999999930849469
 31
0.0
1001
ACDBBLOCKREPETAG
1070
     1
1071
      298
1005
F5
  0
LINE
  5
18B
  8
0
 10
250.00000031748121
 20
92.999999930849469
 30
0.0
 11
181.00000031748121
 21
92.999999930849469
 31
0.0
1001
ACDBBLOCKREPETAG
1070
     1
1071
      298
1005
F5
  0
LINE
  5
18C
  8
0
 10
150.00000031748121
 20
92.999999930849469
 30
0.0
 11
128.0000003174811
 21
92.999999930849469
 31
0.0
1001
ACDBBLOCKREPETAG
1070
     1
1071
      298
1005
F5
  0
LINE
  5
18D
  8
0
 10
117.0000003174812
 20
92.999999930849469
 30
0.0
 11
38.000000317481181
 21
92.999999930849469
 31
0.0
1001
ACDBBLOCKREPETAG
1070
     1
1071
      298
1005
F5
  0
LINE
  5
18E
  8
0
 10
117.0000003174812
 20
98.499999930849484
 30
0.0
 11
117.0000003174812
 21
98.499999930849484
 31
0.0
  0
LINE
  5
18F
  8
0
 10
117.0000003174812
 20
98.499999930849484
 30
0.0
 11
128.0000003174811
 21
98.499999930849484
 31
0.0
  0
LINE
  5
190
  8
0
 10
407.00000031748061
 20
81.999999930849469
 30
0.0
 11
274.00000031748118
 21
81.999999930849469
 31
0.0
1001
ACDBBLOCKREPETAG
1070
     1
1071
      298
1005
F5
  0
LINE
  5
191
  8
0
 10
274.00000031748118
 20
81.999999930849469
 30
0.0
 11
274.00000031748118
 21
81.999999930849469
 31
0.0
1001
ACDBBLOCKREPETAG
1070
     1
1071
      298
1005
F5
  0
LINE
  5
192
  8
0
 10
250.00000031748121
 20
81.999999930849469
 30
0.0
 11
181.00000031748121
 21
81.999999930849469
 31
0.0
1001
ACDBBLOCKREPETAG
1070
     1
1071
      298
1005
F5
  0
LINE
  5
193
  8
0
 10
150.00000031748121
 20
81.999999930849469
 30
0.0
 11
128.0000003174811
 21
81.999999930849469
 31
0.0
1001
ACDBBLOCKREPETAG
1070
     1
1071
      298
1005
F5
  0
LINE
  5
194
  8
0
 10
117.0000003174812
 20
81.999999930849469
 30
0.0
 11
38.000000317481181
 21
81.999999930849469
 31
0.0
1001
ACDBBLOCKREPETAG
1070
     1
1071
      298
1005
F5
  0
LINE
  5
195
  8
0
 10
117.0000003174812
 20
87.499999930849455
 30
0.0
 11
117.0000003174812
 21
87.499999930849455
 31
0.0
  0
LINE
  5
196
  8
0
 10
117.0000003174812
 20
87.499999930849455
 30
0.0
 11
128.0000003174811
 21
87.499999930849455
 31
0.0
  0
LINE
  5
197
  8
0
 10
407.00000031748061
 20
70.999999930849469
 30
0.0
 11
274.00000031748118
 21
70.999999930849469
 31
0.0
1001
ACDBBLOCKREPETAG
1070
     1
1071
      298
1005
F5
  0
LINE
  5
198
  8
0
 10
274.00000031748118
 20
70.999999930849469
 30
0.0
 11
274.00000031748118
 21
70.999999930849469
 31
0.0
1001
ACDBBLOCKREPETAG
1070
     1
1071
      298
1005
F5
  0
LINE
  5
199
  8
0
 10
250.00000031748121
 20
70.999999930849469
 30
0.0
 11
181.00000031748121
 21
70.999999930849469
 31
0.0
1001
ACDBBLOCKREPETAG
1070
     1
1071
      298
1005
F5
  0
LINE
  5
19A
  8
0
 10
150.00000031748121
 20
70.999999930849469
 30
0.0
 11
128.0000003174811
 21
70.999999930849469
 31
0.0
1001
ACDBBLOCKREPETAG
1070
     1
1071
      298
1005
F5
  0
LINE
  5
19B
  8
0
 10
117.0000003174812
 20
70.999999930849469
 30
0.0
 11
38.000000317481181
 21
70.999999930849469
 31
0.0
1001
ACDBBLOCKREPETAG
1070
     1
1071
      298
1005
F5
  0
LINE
  5
19C
  8
0
 10
117.0000003174812
 20
76.499999930849455
 30
0.0
 11
117.0000003174812
 21
76.499999930849455
 31
0.0
  0
LINE
  5
19D
  8
0
 10
117.0000003174812
 20
76.499999930849455
 30
0.0
 11
128.0000003174811
 21
76.499999930849455
 31
0.0
  0
LINE
  5
19E
  8
0
 10
407.00000031748061
 20
59.999999930849469
 30
0.0
 11
274.00000031748118
 21
59.999999930849469
 31
0.0
1001
ACDBBLOCKREPETAG
1070
     1
1071
      298
1005
F5
  0
LINE
  5
19F
  8
0
 10
274.00000031748118
 20
59.999999930849469
 30
0.0
 11
274.00000031748118
 21
59.999999930849469
 31
0.0
1001
ACDBBLOCKREPETAG
1070
     1
1071
      298
1005
F5
  0
LINE
  5
1A0
  8
0
 10
250.00000031748121
 20
59.999999930849469
 30
0.0
 11
181.00000031748121
 21
59.999999930849469
 31
0.0
1001
ACDBBLOCKREPETAG
1070
     1
1071
      298
1005
F5
  0
LINE
  5
1A1
  8
0
 10
150.00000031748121
 20
59.999999930849469
 30
0.0
 11
128.0000003174811
 21
59.999999930849469
 31
0.0
1001
ACDBBLOCKREPETAG
1070
     1
1071
      298
1005
F5
  0
LINE
  5
1A2
  8
0
 10
117.0000003174812
 20
59.999999930849469
 30
0.0
 11
38.000000317481181
 21
59.999999930849469
 31
0.0
1001
ACDBBLOCKREPETAG
1070
     1
1071
      298
1005
F5
  0
LINE
  5
1A3
  8
0
 10
117.0000003174812
 20
65.499999930849469
 30
0.0
 11
117.0000003174812
 21
65.499999930849469
 31
0.0
  0
LINE
  5
1A4
  8
0
 10
117.0000003174812
 20
65.499999930849469
 30
0.0
 11
128.0000003174811
 21
65.499999930849469
 31
0.0
  0
LINE
  5
1A5
  8
0
 10
407.00000031748061
 20
48.999999930849462
 30
0.0
 11
274.00000031748118
 21
48.999999930849462
 31
0.0
1001
ACDBBLOCKREPETAG
1070
     1
1071
      298
1005
F5
  0
LINE
  5
1A6
  8
0
 10
274.00000031748118
 20
48.999999930849462
 30
0.0
 11
274.00000031748118
 21
48.999999930849462
 31
0.0
1001
ACDBBLOCKREPETAG
1070
     1
1071
      298
1005
F5
  0
LINE
  5
1A7
  8
0
 10
250.00000031748121
 20
48.999999930849462
 30
0.0
 11
181.00000031748121
 21
48.999999930849462
 31
0.0
1001
ACDBBLOCKREPETAG
1070
     1
1071
      298
1005
F5
  0
LINE
  5
1A8
  8
0
 10
150.00000031748121
 20
48.999999930849462
 30
0.0
 11
128.0000003174811
 21
48.999999930849462
 31
0.0
1001
ACDBBLOCKREPETAG
1070
     1
1071
      298
1005
F5
  0
LINE
  5
1A9
  8
0
 10
117.0000003174812
 20
48.999999930849462
 30
0.0
 11
38.000000317481181
 21
48.999999930849462
 31
0.0
1001
ACDBBLOCKREPETAG
1070
     1
1071
      298
1005
F5
  0
LINE
  5
1AA
  8
0
 10
117.0000003174812
 20
54.499999930849469
 30
0.0
 11
117.0000003174812
 21
54.499999930849469
 31
0.0
  0
LINE
  5
1AB
  8
0
 10
117.0000003174812
 20
54.499999930849469
 30
0.0
 11
128.0000003174811
 21
54.499999930849469
 31
0.0
  0
LINE
  5
1AC
  8
0
 10
407.00000031748061
 20
37.999999930849469
 30
0.0
 11
274.00000031748118
 21
37.999999930849469
 31
0.0
1001
ACDBBLOCKREPETAG
1070
     1
1071
      298
1005
F5
  0
LINE
  5
1AD
  8
0
 10
274.00000031748118
 20
37.999999930849469
 30
0.0
 11
274.00000031748118
 21
37.999999930849469
 31
0.0
1001
ACDBBLOCKREPETAG
1070
     1
1071
      298
1005
F5
  0
LINE
  5
1AE
  8
0
 10
250.00000031748121
 20
37.999999930849469
 30
0.0
 11
181.00000031748121
 21
37.999999930849469
 31
0.0
1001
ACDBBLOCKREPETAG
1070
     1
1071
      298
1005
F5
  0
LINE
  5
1AF
  8
0
 10
150.00000031748121
 20
37.999999930849469
 30
0.0
 11
128.0000003174811
 21
37.999999930849469
 31
0.0
1001
ACDBBLOCKREPETAG
1070
     1
1071
      298
1005
F5
  0
LINE
  5
1B0
  8
0
 10
117.0000003174812
 20
37.999999930849469
 30
0.0
 11
38.000000317481181
 21
37.999999930849469
 31
0.0
1001
ACDBBLOCKREPETAG
1070
     1
1071
      298
1005
F5
  0
LINE
  5
1B1
  8
0
 10
117.0000003174812
 20
43.499999930849469
 30
0.0
 11
117.0000003174812
 21
43.499999930849469
 31
0.0
  0
LINE
  5
1B2
  8
0
 10
117.0000003174812
 20
43.499999930849469
 30
0.0
 11
128.0000003174811
 21
43.499999930849469
 31
0.0
  0
LINE
  5
1B3
  8
0
 10
407.00000031748061
 20
26.999999930849469
 30
0.0
 11
274.00000031748118
 21
26.999999930849469
 31
0.0
1001
ACDBBLOCKREPETAG
1070
     1
1071
      298
1005
F5
  0
LINE
  5
1B4
  8
0
 10
274.00000031748118
 20
26.999999930849469
 30
0.0
 11
274.00000031748118
 21
26.999999930849469
 31
0.0
1001
ACDBBLOCKREPETAG
1070
     1
1071
      298
1005
F5
  0
LINE
  5
1B5
  8
0
 10
250.00000031748121
 20
26.999999930849469
 30
0.0
 11
181.00000031748121
 21
26.999999930849469
 31
0.0
1001
ACDBBLOCKREPETAG
1070
     1
1071
      298
1005
F5
  0
LINE
  5
1B6
  8
0
 10
150.00000031748121
 20
26.999999930849469
 30
0.0
 11
128.0000003174811
 21
26.999999930849469
 31
0.0
1001
ACDBBLOCKREPETAG
1070
     1
1071
      298
1005
F5
  0
LINE
  5
1B7
  8
0
 10
117.0000003174812
 20
26.999999930849469
 30
0.0
 11
38.000000317481181
 21
26.999999930849469
 31
0.0
1001
ACDBBLOCKREPETAG
1070
     1
1071
      298
1005
F5
  0
LINE
  5
1B8
  8
0
 10
117.0000003174812
 20
32.499999930849469
 30
0.0
 11
117.0000003174812
 21
32.499999930849469
 31
0.0
  0
LINE
  5
1B9
  8
0
 10
117.0000003174812
 20
32.499999930849469
 30
0.0
 11
128.0000003174811
 21
32.499999930849469
 31
0.0
  0
LINE
  5
1BA
  8
0
 10
407.00000031748061
 20
15.999999930849469
 30
0.0
 11
274.00000031748118
 21
15.999999930849469
 31
0.0
1001
ACDBBLOCKREPETAG
1070
     1
1071
      298
1005
F5
  0
LINE
  5
1BB
  8
0
 10
274.00000031748118
 20
15.999999930849469
 30
0.0
 11
274.00000031748118
 21
15.999999930849469
 31
0.0
1001
ACDBBLOCKREPETAG
1070
     1
1071
      298
1005
F5
  0
LINE
  5
1BC
  8
0
 10
250.00000031748121
 20
15.999999930849469
 30
0.0
 11
181.00000031748121
 21
15.999999930849469
 31
0.0
1001
ACDBBLOCKREPETAG
1070
     1
1071
      298
1005
F5
  0
LINE
  5
1BD
  8
0
 10
150.00000031748121
 20
15.999999930849469
 30
0.0
 11
128.0000003174811
 21
15.999999930849469
 31
0.0
1001
ACDBBLOCKREPETAG
1070
     1
1071
      298
1005
F5
  0
LINE
  5
1BE
  8
0
 10
117.0000003174812
 20
15.999999930849469
 30
0.0
 11
38.000000317481181
 21
15.999999930849469
 31
0.0
1001
ACDBBLOCKREPETAG
1070
     1
1071
      298
1005
F5
  0
LINE
  5
1BF
  8
0
 10
117.0000003174812
 20
21.499999930849469
 30
0.0
 11
117.0000003174812
 21
21.499999930849469
 31
0.0
  0
LINE
  5
1C0
  8
0
 10
117.0000003174812
 20
21.499999930849469
 30
0.0
 11
128.0000003174811
 21
21.499999930849469
 31
0.0
  0
LINE
  5
1C1
  8
0
 10
407.00000031748061
 20
4.9999999308494694
 30
0.0
 11
274.00000031748118
 21
4.9999999308494694
 31
0.0
1001
ACDBBLOCKREPETAG
1070
     1
1071
      298
1005
F5
  0
LINE
  5
1C2
  8
0
 10
274.00000031748118
 20
4.9999999308494694
 30
0.0
 11
274.00000031748118
 21
4.9999999308494694
 31
0.0
1001
ACDBBLOCKREPETAG
1070
     1
1071
      298
1005
F5
  0
LINE
  5
1C3
  8
0
 10
250.00000031748121
 20
4.9999999308494694
 30
0.0
 11
181.00000031748121
 21
4.9999999308494694
 31
0.0
1001
ACDBBLOCKREPETAG
1070
     1
1071
      298
1005
F5
  0
LINE
  5
1C4
  8
0
 10
150.00000031748121
 20
4.9999999308494694
 30
0.0
 11
128.0000003174811
 21
4.9999999308494694
 31
0.0
1001
ACDBBLOCKREPETAG
1070
     1
1071
      298
1005
F5
  0
LINE
  5
1C5
  8
0
 10
117.0000003174812
 20
4.9999999308494694
 30
0.0
 11
38.000000317481181
 21
4.9999999308494694
 31
0.0
1001
ACDBBLOCKREPETAG
1070
     1
1071
      298
1005
F5
  0
LINE
  5
1C6
  8
0
 10
117.0000003174812
 20
10.499999930849469
 30
0.0
 11
117.0000003174812
 21
10.499999930849469
 31
0.0
  0
LINE
  5
1C7
  8
0
 10
117.0000003174812
 20
10.499999930849469
 30
0.0
 11
128.0000003174811
 21
10.499999930849469
 31
0.0
  0
LINE
  5
1C8
  8
0
 10
313.00000031748118
 20
286.99999993084919
 30
0.0
 11
415.00000031748061
 21
286.99999993084919
 31
0.0
  0
INSERT
  5
1C9
  8
0
  2
*U36
 10
0.0
 20
0.0
 30
0.0
  0
ENDBLK
  5
1CD
  8
0
  0
BLOCK
  8
0
  2
*U2
 70
     1
 10
0.0
 20
0.0
 30
0.0
  3
*U2
  1

  0
TEXT
  5
1E3
  8
0
 10
28.60629953007961
 20
250.7008885957309
 30
0.0
 40
3.0
  1
冰厚
  7
TLCAD
  0
TEXT
  5
1E4
  8
0
 10
25.465129676311332
 20
246.36755526239759
 30
0.0
 40
2.5
  1
（mm）
  7
TLCAD
  0
TEXT
  5
1E5
  8
0
 10
29.078740474961499
 20
242.2008885957309
 30
0.0
 40
2.5
  1
风速
  7
TLCAD
  0
TEXT
  5
1E6
  8
0
 10
25.10798681916847
 20
237.55803145287379
 30
0.0
 40
2.5
  1
（m/s）
  7
TLCAD
  0
ENDBLK
  5
1E8
  8
0
  0
BLOCK
  8
0
  2
*U3
 70
     1
 10
0.0
 20
0.0
 30
0.0
  3
*U3
  1

  0
TEXT
  5
1EA
  8
0
 10
42.032404324349351
 20
251.5727444170721
 30
0.0
 40
2.5
  1
序
  7
TLCAD
  0
TEXT
  5
1EB
  8
0
 10
42.022561804664321
 20
234.90607775040539
 30
0.0
 40
2.5
  1
号
  7
TLCAD
  0
ENDBLK
  5
1ED
  8
0
  0
BLOCK
  8
0
  2
*U4
 70
     1
 10
0.0
 20
0.0
 30
0.0
  3
*U4
  1

  0
TEXT
  5
1EF
  8
0
 10
51.894173962910671
 20
251.58970155202761
 30
0.0
 40
2.5
  1
运行
  7
TLCAD
  0
TEXT
  5
1F0
  8
0
 10
51.943386561335863
 20
234.92303488536089
 30
0.0
 40
2.5
  1
编号
  7
TLCAD
  0
ENDBLK
  5
1F2
  8
0
  0
BLOCK
  8
0
  2
*U5
 70
     1
 10
0.0
 20
0.0
 30
0.0
  3
*U5
  1

  0
TEXT
  5
1F4
  8
0
 10
64.133342096464915
 20
251.805005717841
 30
0.0
 40
2.5
  1
塔位
  7
TLCAD
  0
TEXT
  5
1F5
  8
0
 10
64.162869655520041
 20
235.1383390511744
 30
0.0
 40
2.5
  1
编号
  7
TLCAD
  0
ENDBLK
  5
1F7
  8
0
  0
BLOCK
  8
0
  2
*U6
 70
     1
 10
0.0
 20
0.0
 30
0.0
  3
*U6
  1

  0
TEXT
  5
1F9
  8
0
 10
75.692838976587794
 20
251.68812651111571
 30
0.0
 40
2.5
  1
塔型及
  7
TLCAD
  0
TEXT
  5
1FA
  8
0
 10
75.742051575012994
 20
243.35479317778231
 30
0.0
 40
2.5
  1
呼称高
  7
TLCAD
  0
TEXT
  5
1FB
  8
0
 10
75.74298895784014
 20
234.54526936825849
 30
0.0
 40
2.5
  1
(m)
  7
TLCAD
  0
ENDBLK
  5
1FD
  8
0
  0
BLOCK
  8
0
  2
*U7
 70
     1
 10
0.0
 20
0.0
 30
0.0
  3
*U7
  1

  0
TEXT
  5
1FF
  8
0
 10
91.428012278256077
 20
251.8190453847117
 30
0.0
 40
2.5
  1
塔位桩
  7
TLCAD
  0
TEXT
  5
200
  8
0
 10
91.487067396366314
 20
243.4857120513783
 30
0.0
 40
2.5
  1
顶高程
  7
TLCAD
  0
TEXT
  5
201
  8
0
 10
91.478162259508423
 20
234.6761882418545
 30
0.0
 40
2.5
  1
(m)
  7
TLCAD
  0
ENDBLK
  5
203
  8
0
  0
BLOCK
  8
0
  2
*U8
 70
     1
 10
0.0
 20
0.0
 30
0.0
  3
*U8
  1

  0
TEXT
  5
205
  8
0
 10
108.1736632481516
 20
251.60764477598261
 30
0.0
 40
2.5
  1
定位
  7
TLCAD
  0
TEXT
  5
206
  8
0
 10
108.262245925317
 20
243.27431144264929
 30
0.0
 40
2.5
  1
高差
  7
TLCAD
  0
TEXT
  5
207
  8
0
 10
106.9541281900339
 20
234.4647876331255
 30
0.0
 40
2.5
  1
(m)
  7
TLCAD
  0
ENDBLK
  5
209
  8
0
  0
BLOCK
  8
0
  2
*U9
 70
     1
 10
0.0
 20
0.0
 30
0.0
  3
*U9
  1

  0
TEXT
  5
20B
  8
0
 10
121.70793538603689
 20
251.48658471786101
 30
0.0
 40
2.5
  1
档
  7
TLCAD
  0
TEXT
  5
20C
  8
0
 10
121.7276204254069
 20
243.15325138452761
 30
0.0
 40
2.5
  1
距
  7
TLCAD
  0
TEXT
  5
20D
  8
0
 10
119.2285578082341
 20
234.3437275750039
 30
0.0
 40
2.5
  1
(m)
  7
TLCAD
  0
ENDBLK
  5
20F
  8
0
  0
BLOCK
  8
0
  2
*U10
 70
     1
 10
0.0
 20
0.0
 30
0.0
  3
*U10
  1

  0
TEXT
  5
211
  8
0
 10
131.50278750224621
 20
251.60346323307931
 30
0.0
 40
2.5
  1
水平
  7
TLCAD
  0
TEXT
  5
212
  8
0
 10
131.5716851400415
 20
243.270129899746
 30
0.0
 40
2.5
  1
档距
  7
TLCAD
  0
TEXT
  5
213
  8
0
 10
130.34230756223869
 20
234.4606060902222
 30
0.0
 40
2.5
  1
(m)
  7
TLCAD
  0
ENDBLK
  5
215
  8
0
  0
BLOCK
  8
0
  2
*U11
 70
     1
 10
0.0
 20
0.0
 30
0.0
  3
*U11
  1

  0
TEXT
  5
217
  8
0
 10
142.5586052171478
 20
251.36970551113569
 30
0.0
 40
2.5
  1
垂直
  7
TLCAD
  0
TEXT
  5
218
  8
0
 10
142.56844773683281
 20
243.03637217780241
 30
0.0
 40
2.5
  1
档距
  7
TLCAD
  0
TEXT
  5
219
  8
0
 10
141.33907015903
 20
234.22684836827861
 30
0.0
 40
2.5
  1
(m)
  7
TLCAD
  0
ENDBLK
  5
21B
  8
0
  0
BLOCK
  8
0
  2
*U12
 70
     1
 10
0.0
 20
0.0
 30
0.0
  3
*U12
  1

  0
TEXT
  5
21D
  8
0
 10
152.25936877943749
 20
251.9527067751184
 30
0.0
 40
2.5
  1
耐张段长
  7
TLCAD
  0
TEXT
  5
21E
  8
0
 10
152.22984122038241
 20
243.619373441785
 30
0.0
 40
2.5
  1
代表档距
  7
TLCAD
  0
TEXT
  5
21F
  8
0
 10
153.52999120163469
 20
234.80984963226129
 30
0.0
 40
2.5
  1
(m)
  7
TLCAD
  0
ENDBLK
  5
221
  8
0
  0
BLOCK
  8
0
  2
*U13
 70
     1
 10
0.0
 20
0.0
 30
0.0
  3
*U13
  1

  0
TEXT
  5
223
  8
0
 10
167.44886501366221
 20
252.3039411658458
 30
0.0
 40
2.5
  1
转角度数
  7
TLCAD
  0
TEXT
  5
224
  8
0
 10
166.23823509240231
 20
243.97060783251251
 30
0.0
 40
2.5
  1
中心桩位移
  7
TLCAD
  0
TEXT
  5
225
  8
0
 10
168.6801173571192
 20
235.1610840229886
 30
0.0
 40
2.5
  1
(m)
  7
TLCAD
  0
ENDBLK
  5
227
  8
0
  0
BLOCK
  8
0
  2
*U14
 70
     1
 10
0.0
 20
0.0
 30
0.0
  3
*U14
  1

  0
TEXT
  5
229
  8
0
 10
184.4261562511509
 20
253.8004142034803
 30
0.0
 40
2.5
  1
接
  7
TLCAD
  0
TEXT
  5
22A
  8
0
 10
184.43599877083599
 20
245.4670808701469
 30
0.0
 40
2.5
  1
地
  7
TLCAD
  0
TEXT
  5
22B
  8
0
 10
184.43599877083599
 20
237.13374753681359
 30
0.0
 40
2.5
  1
装
  7
TLCAD
  0
TEXT
  5
22C
  8
0
 10
184.46552632989111
 20
228.8004142034803
 30
0.0
 40
2.5
  1
置
  7
TLCAD
  0
ENDBLK
  5
22E
  8
0
  0
BLOCK
  8
0
  2
*U15
 70
     1
 10
0.0
 20
0.0
 30
0.0
  3
*U15
  1

  0
TEXT
  5
230
  8
0
 10
204.4915993342473
 20
252.0458340989853
 30
0.0
 40
2.5
  1
导 线
  7
TLCAD
  0
TEXT
  5
231
  8
0
 10
202.6215205940899
 20
243.71250076565201
 30
0.0
 40
2.5
  1
绝缘子串
  7
TLCAD
  0
ENDBLK
  5
233
  8
0
  0
BLOCK
  8
0
  2
*U16
 70
     1
 10
0.0
 20
0.0
 30
0.0
  3
*U16
  1

  0
TEXT
  5
235
  8
0
 10
235.52707999856079
 20
251.89253736696449
 30
0.0
 40
2.5
  1
地 线
  7
TLCAD
  0
TEXT
  5
236
  8
0
 10
232.4070012584034
 20
243.55920403363109
 30
0.0
 40
2.5
  1
地线金具串
  7
TLCAD
  0
ENDBLK
  5
238
  8
0
  0
BLOCK
  8
0
  2
*U17
 70
     1
 10
0.0
 20
0.0
 30
0.0
  3
*U17
  1

  0
TEXT
  5
23A
  8
0
 10
256.55789717703152
 20
252.51076192363229
 30
0.0
 40
2.5
  1
挂板倾角
  7
TLCAD
  0
ENDBLK
  5
23C
  8
0
  0
BLOCK
  8
0
  2
*U18
 70
     1
 10
0.0
 20
0.0
 30
0.0
  3
*U18
  1

  0
TEXT
  5
23E
  8
0
 10
282.3818217825015
 20
252.49724711058411
 30
0.0
 40
2.5
  1
防振锤
  7
TLCAD
  0
ENDBLK
  5
240
  8
0
  0
BLOCK
  8
0
  2
*U19
 70
     1
 10
0.0
 20
0.0
 30
0.0
  3
*U19
  1

  0
TEXT
  5
242
  8
0
 10
303.64853044709298
 20
250.87525172007761
 30
0.0
 40
2.5
  1
相间
  7
TLCAD
  0
TEXT
  5
243
  8
0
 10
302.51664068331348
 20
246.7085850534109
 30
0.0
 40
2.5
  1
间隔棒
  7
TLCAD
  0
ENDBLK
  5
245
  8
0
  0
BLOCK
  8
0
  2
*U20
 70
     1
 10
0.0
 20
0.0
 30
0.0
  3
*U20
  1

  0
TEXT
  5
247
  8
0
 10
348.453912548527
 20
245.05892262101079
 30
0.0
 40
2.5
  1
交叉跨越处理意见
  7
TLCAD
  0
ENDBLK
  5
249
  8
0
  0
BLOCK
  8
0
  2
*U21
 70
     1
 10
0.0
 20
0.0
 30
0.0
  3
*U21
  1

  0
TEXT
  5
24B
  8
0
 10
409.71382881920329
 20
248.87894911587151
 30
0.0
 40
2.5
  1
经
  7
TLCAD
  0
TEXT
  5
24C
  8
0
 10
409.65477370109312
 20
244.71228244920479
 30
0.0
 40
2.5
  1
过
  7
TLCAD
  0
TEXT
  5
24D
  8
0
 10
409.67445874046308
 20
240.54561578253811
 30
0.0
 40
2.5
  1
地
  7
TLCAD
  0
TEXT
  5
24E
  8
0
 10
409.76304141762847
 20
236.37894911587151
 30
0.0
 40
2.5
  1
名
  7
TLCAD
  0
ENDBLK
  5
250
  8
0
  0
BLOCK
  8
0
  2
*U22
 70
     1
 10
0.0
 20
0.0
 30
0.0
  3
*U22
  1

  0
TEXT
  5
252
  8
0
 10
252.56409179472149
 20
240.57897577116171
 30
0.0
 40
2.5
  1
导线
  7
TLCAD
  0
ENDBLK
  5
254
  8
0
  0
BLOCK
  8
0
  2
*U23
 70
     1
 10
0.0
 20
0.0
 30
0.0
  3
*U23
  1

  0
TEXT
  5
256
  8
0
 10
264.34530601089
 20
240.86748010326869
 30
0.0
 40
2.5
  1
地线
  7
TLCAD
  0
ENDBLK
  5
258
  8
0
  0
BLOCK
  8
0
  2
*U24
 70
     1
 10
0.0
 20
0.0
 30
0.0
  3
*U24
  1

  0
TEXT
  5
25A
  8
0
 10
277.85399796390169
 20
240.9889191072331
 30
0.0
 40
2.5
  1
导线
  7
TLCAD
  0
ENDBLK
  5
25C
  8
0
  0
BLOCK
  8
0
  2
*U25
 70
     1
 10
0.0
 20
0.0
 30
0.0
  3
*U25
  1

  0
TEXT
  5
25E
  8
0
 10
289.63521218007031
 20
241.27742343934
 30
0.0
 40
2.5
  1
地线
  7
TLCAD
  0
ENDBLK
  5
260
  8
0
  0
BLOCK
  8
0
  2
*U26
 70
     1
 10
0.0
 20
0.0
 30
0.0
  3
*U26
  1

  0
TEXT
  5
262
  8
0
 10
194.32706037293281
 20
228.4011604133072
 30
0.0
 40
2.5
  1
型号
  7
TLCAD
  0
ENDBLK
  5
264
  8
0
  0
BLOCK
  8
0
  2
*U27
 70
     1
 10
0.0
 20
0.0
 30
0.0
  3
*U27
  1

  0
TEXT
  5
266
  8
0
 10
205.05645266696669
 20
228.24858907214229
 30
0.0
 40
2.5
  1
数量
  7
TLCAD
  0
ENDBLK
  5
268
  8
0
  0
BLOCK
  8
0
  2
*U28
 70
     1
 10
0.0
 20
0.0
 30
0.0
  3
*U28
  1

  0
TEXT
  5
26A
  8
0
 10
230.1066640658706
 20
228.14029907401681
 30
0.0
 40
2.5
  1
型号
  7
TLCAD
  0
ENDBLK
  5
26C
  8
0
  0
BLOCK
  8
0
  2
*U29
 70
     1
 10
0.0
 20
0.0
 30
0.0
  3
*U29
  1

  0
TEXT
  5
26E
  8
0
 10
240.83605635990449
 20
227.98772773285179
 30
0.0
 40
2.5
  1
数量
  7
TLCAD
  0
ENDBLK
  5
270
  8
0
  0
BLOCK
  8
0
  2
*U30
 70
     1
 10
0.0
 20
0.0
 30
0.0
  3
*U30
  1

  0
TEXT
  5
272
  8
0
 10
216.9200554385956
 20
228.66693076087799
 30
0.0
 40
2.5
  1
串数量
  7
TLCAD
  0
ENDBLK
  5
274
  8
0
  0
BLOCK
  8
0
  2
*U31
 70
     1
 10
0.0
 20
0.0
 30
0.0
  3
*U31
  1

  0
TEXT
  5
276
  8
0
 10
259.44718315971159
 20
228.4167552026143
 30
0.0
 40
2.5
  1
(度)
  7
TLCAD
  0
ENDBLK
  5
278
  8
0
  0
BLOCK
  8
0
  2
*U32
 70
     1
 10
0.0
 20
0.0
 30
0.0
  3
*U32
  1

  0
TEXT
  5
27A
  8
0
 10
274.37690679380802
 20
228.18533961492139
 30
0.0
 40
2.5
  1
数量(个)
  7
TLCAD
  0
ENDBLK
  5
27C
  8
0
  0
BLOCK
  8
0
  2
*U33
 70
     1
 10
0.0
 20
0.0
 30
0.0
  3
*U33
  1

  0
TEXT
  5
27E
  8
0
 10
285.842520676856
 20
228.7705357221611
 30
0.0
 40
2.5
  1
数量(个)
  7
TLCAD
  0
ENDBLK
  5
280
  8
0
  0
BLOCK
  8
0
  2
*U34
 70
     1
 10
0.0
 20
0.0
 30
0.0
  3
*U34
  1

  0
TEXT
  5
282
  8
0
 10
300.43661510752088
 20
228.9516178974429
 30
0.0
 40
2.5
  1
数量(套)
  7
TLCAD
  0
ENDBLK
  5
284
  8
0
  0
BLOCK
  8
0
  2
*U35
 70
     1
 10
0.0
 20
0.0
 30
0.0
  3
*U35
  1

  0
TEXT
  5
286
  8
0
 10
27.139933843394669
 20
286.44240456534772
 30
0.0
 40
2.5
  1
本页说明
  7
TLCAD
  0
ENDBLK
  5
288
  8
0
  0
BLOCK
  8
0
  2
*U36
 70
     1
 10
0.0
 20
0.0
 30
0.0
  3
*U36
  1

  0
TEXT
  5
28A
  8
0
 10
314.85512377597371
 20
287.88749655744761
 30
0.0
 40
2.5
  1
图号
  7
TLCAD
  0
ENDBLK
  5
28C
  8
0
  0
ENDSEC
  0
SECTION
  2
ENTITIES
  0
INSERT
  5
1D0
  8
0
  2
四川院
 10
763.0480873360566
 20
484.95475174116967
 30
0.0
  0
ENDSEC
  0
EOF
