  0
SECTION
  2
HEADER
  9
$ACADVER
  1
AC1009
  9
$INSBASE
 10
0.0
 20
0.0
 30
0.0
  9
$EXTMIN
 10
49.714285714285708
 20
-40.0
 30
0.0
  9
$EXTMAX
 10
1420.285714285714
 20
806.0
 30
0.0
  9
$LIMMIN
 10
0.0
 20
0.0
  9
$LIMMAX
 10
12.0
 20
9.0
  9
$ORTHOMODE
 70
     0
  9
$REGENMODE
 70
     1
  9
$FILLMODE
 70
     1
  9
$QTEXTMODE
 70
     0
  9
$MIRRTEXT
 70
     0
  9
$DRAGMODE
 70
     2
  9
$LTSCALE
 40
1.0
  9
$OSMODE
 70
   173
  9
$ATTMODE
 70
     1
  9
$TEXTSIZE
 40
0.2
  9
$TRACEWID
 40
0.05
  9
$TEXTSTYLE
  7
STANDARD
  9
$CLAYER
  8
0
  9
$CELTYPE
  6
CONTINUOUS
  9
$CECOLOR
 62
   256
  9
$DIMSCALE
 40
1.0
  9
$DIMASZ
 40
0.18
  9
$DIMEXO
 40
0.0625
  9
$DIMDLI
 40
0.38
  9
$DIMRND
 40
0.0
  9
$DIMDLE
 40
0.0
  9
$DIMEXE
 40
0.18
  9
$DIMTP
 40
0.0
  9
$DIMTM
 40
0.0
  9
$DIMTXT
 40
0.18
  9
$DIMCEN
 40
0.09
  9
$DIMTSZ
 40
0.0
  9
$DIMTOL
 70
     0
  9
$DIMLIM
 70
     0
  9
$DIMTIH
 70
     1
  9
$DIMTOH
 70
     1
  9
$DIMSE1
 70
     0
  9
$DIMSE2
 70
     0
  9
$DIMTAD
 70
     0
  9
$DIMZIN
 70
     0
  9
$DIMBLK
  1

  9
$DIMASO
 70
     1
  9
$DIMSHO
 70
     1
  9
$DIMPOST
  1

  9
$DIMAPOST
  1

  9
$DIMALT
 70
     0
  9
$DIMALTD
 70
     2
  9
$DIMALTF
 40
25.399999999999999
  9
$DIMLFAC
 40
1.0
  9
$DIMTOFL
 70
     0
  9
$DIMTVP
 40
0.0
  9
$DIMTIX
 70
     0
  9
$DIMSOXD
 70
     0
  9
$DIMSAH
 70
     0
  9
$DIMBLK1
  1

  9
$DIMBLK2
  1

  9
$DIMSTYLE
  2
STANDARD
  9
$DIMCLRD
 70
     0
  9
$DIMCLRE
 70
     0
  9
$DIMCLRT
 70
     0
  9
$DIMTFAC
 40
1.0
  9
$DIMGAP
 40
0.09
  9
$LUNITS
 70
     2
  9
$LUPREC
 70
     4
  9
$SKETCHINC
 40
0.1
  9
$FILLETRAD
 40
0.0
  9
$AUNITS
 70
     0
  9
$AUPREC
 70
     0
  9
$MENU
  1
.
  9
$ELEVATION
 40
0.0
  9
$PELEVATION
 40
0.0
  9
$THICKNESS
 40
0.0
  9
$LIMCHECK
 70
     0
  9
$BLIPMODE
 70
     0
  9
$CHAMFERA
 40
0.0
  9
$CHAMFERB
 40
0.0
  9
$SKPOLY
 70
     0
  9
$TDCREATE
 40
2455313.5930604292
  9
$TDUPDATE
 40
2455313.5936852549
  9
$TDINDWG
 40
0.0006275347
  9
$TDUSRTIMER
 40
0.0006275347
  9
$USRTIMER
 70
     1
  9
$ANGBASE
 50
0.0
  9
$ANGDIR
 70
     0
  9
$PDMODE
 70
     0
  9
$PDSIZE
 40
0.0
  9
$PLINEWID
 40
0.0
  9
$COORDS
 70
     1
  9
$SPLFRAME
 70
     0
  9
$SPLINETYPE
 70
     6
  9
$SPLINESEGS
 70
     8
  9
$ATTDIA
 70
     0
  9
$ATTREQ
 70
     1
  9
$HANDLING
 70
     1
  9
$HANDSEED
  5
462
  9
$SURFTAB1
 70
     6
  9
$SURFTAB2
 70
     6
  9
$SURFTYPE
 70
     6
  9
$SURFU
 70
     6
  9
$SURFV
 70
     6
  9
$UCSNAME
  2

  9
$UCSORG
 10
0.0
 20
0.0
 30
0.0
  9
$UCSXDIR
 10
1.0
 20
0.0
 30
0.0
  9
$UCSYDIR
 10
0.0
 20
1.0
 30
0.0
  9
$PUCSNAME
  2

  9
$PUCSORG
 10
0.0
 20
0.0
 30
0.0
  9
$PUCSXDIR
 10
1.0
 20
0.0
 30
0.0
  9
$PUCSYDIR
 10
0.0
 20
1.0
 30
0.0
  9
$USERI1
 70
     0
  9
$USERI2
 70
     0
  9
$USERI3
 70
     0
  9
$USERI4
 70
     0
  9
$USERI5
 70
     0
  9
$USERR1
 40
0.0
  9
$USERR2
 40
0.0
  9
$USERR3
 40
0.0
  9
$USERR4
 40
0.0
  9
$USERR5
 40
0.0
  9
$WORLDVIEW
 70
     1
  9
$SHADEDGE
 70
     3
  9
$SHADEDIF
 70
    70
  9
$TILEMODE
 70
     1
  9
$MAXACTVP
 70
    64
  9
$PLIMCHECK
 70
     0
  9
$PEXTMIN
 10
1.0000000000000000E+020
 20
1.0000000000000000E+020
 30
1.0000000000000000E+020
  9
$PEXTMAX
 10
-1.0000000000000000E+020
 20
-1.0000000000000000E+020
 30
-1.0000000000000000E+020
  9
$PLIMMIN
 10
0.0
 20
0.0
  9
$PLIMMAX
 10
12.0
 20
9.0
  9
$UNITMODE
 70
     0
  9
$VISRETAIN
 70
     1
  9
$PLINEGEN
 70
     0
  9
$PSLTSCALE
 70
     1
  0
ENDSEC
  0
SECTION
  2
TABLES
  0
TABLE
  2
VPORT
 70
     2
  0
VPORT
  2
*ACTIVE
 70
     0
 10
0.0
 20
0.0
 11
1.0
 21
1.0
 12
803.5201788441691
 22
171.3334760975896
 13
0.0
 23
0.0
 14
1.0
 24
1.0
 15
0.0
 25
0.0
 16
0.0
 26
0.0
 36
1.0
 17
0.0
 27
0.0
 37
0.0
 40
1670.818510874748
 41
2.1641791044776109
 42
50.0
 43
0.0
 44
0.0
 50
0.0
 51
0.0
 71
     0
 72
   100
 73
     1
 74
     1
 75
     0
 76
     0
 77
     0
 78
     0
  0
ENDTAB
  0
TABLE
  2
LTYPE
 70
     2
  0
LTYPE
  2
CONTINUOUS
 70
     0
  3
Solid line
 72
    65
 73
     0
 40
0.0
  0
ENDTAB
  0
TABLE
  2
LAYER
 70
     4
  0
LAYER
  2
0
 70
     0
 62
     7
  6
CONTINUOUS
  0
LAYER
  2
CURVE
 70
     0
 62
     7
  6
CONTINUOUS
  0
LAYER
  2
LINE
 70
     0
 62
     1
  6
CONTINUOUS
  0
LAYER
  2
GRID
 70
     0
 62
     3
  6
CONTINUOUS
  0
ENDTAB
  0
TABLE
  2
STYLE
 70
     2
  0
STYLE
  2
STANDARD
 70
     0
 40
0.0
 41
1.0
 50
0.0
 71
     0
 42
0.2
  3
txt
  4

  0
STYLE
  2
TLCAD
 70
     0
 40
0.0
 41
0.7
 50
0.0
 71
     0
 42
0.3
  3
romanc.shx
  4
hztxt.shx
  0
ENDTAB
  0
TABLE
  2
VIEW
 70
     0
  0
ENDTAB
  0
TABLE
  2
UCS
 70
     0
  0
ENDTAB
  0
TABLE
  2
APPID
 70
     1
  0
APPID
  2
ACAD
 70
     0
  0
ENDTAB
  0
TABLE
  2
DIMSTYLE
 70
     2
  0
DIMSTYLE
  2
STANDARD
 70
     0
  3

  4

  5

  6

  7

 40
1.0
 41
0.18
 42
0.0625
 43
0.38
 44
0.18
 45
0.0
 46
0.0
 47
0.0
 48
0.0
140
0.18
141
0.09
142
0.0
143
25.399999999999999
144
1.0
145
0.0
146
1.0
147
0.09
 71
     0
 72
     0
 73
     1
 74
     1
 75
     0
 76
     0
 77
     0
 78
     0
170
     0
171
     2
172
     0
173
     0
174
     0
175
     0
176
     0
177
     0
178
     0
  0
ENDTAB
  0
ENDSEC
  0
SECTION
  2
BLOCKS
  0
BLOCK
  8
0
  2
$MODEL_SPACE
 70
     0
 10
0.0
 20
0.0
 30
0.0
  3
$MODEL_SPACE
  1

  0
ENDBLK
  5
24
  8
0
  0
BLOCK
 67
     1
  8
0
  2
$PAPER_SPACE
 70
     0
 10
0.0
 20
0.0
 30
0.0
  3
$PAPER_SPACE
  1

  0
ENDBLK
  5
20
 67
     1
  8
0
  0
ENDSEC
  0
SECTION
  2
ENTITIES
  0
TEXT
  5
2E
  8
GRID
 62
     1
 10
83.714285714285708
 20
-18.0
 30
0.0
 40
12.0
  1
100
  7
TLCAD
 72
     1
 11
100.0
 21
-12.0
 31
0.0
 73
     2
  0
LINE
  5
2F
  8
GRID
 62
     1
 10
100.0
 20
0.0
 30
0.0
 11
100.0
 21
800.0
 31
0.0
  0
LINE
  5
30
  8
GRID
 62
     3
 10
110.0
 20
0.0
 30
0.0
 11
110.0
 21
800.0
 31
0.0
  0
LINE
  5
31
  8
GRID
 62
     3
 10
120.0
 20
0.0
 30
0.0
 11
120.0
 21
800.0
 31
0.0
  0
LINE
  5
32
  8
GRID
 62
     3
 10
130.0
 20
0.0
 30
0.0
 11
130.0
 21
800.0
 31
0.0
  0
LINE
  5
33
  8
GRID
 62
     3
 10
140.0
 20
0.0
 30
0.0
 11
140.0
 21
800.0
 31
0.0
  0
TEXT
  5
34
  8
GRID
 62
     1
 10
133.71428571428569
 20
-18.0
 30
0.0
 40
12.0
  1
150
  7
TLCAD
 72
     1
 11
150.0
 21
-12.0
 31
0.0
 73
     2
  0
LINE
  5
35
  8
GRID
 62
     1
 10
150.0
 20
0.0
 30
0.0
 11
150.0
 21
800.0
 31
0.0
  0
LINE
  5
36
  8
GRID
 62
     3
 10
160.0
 20
0.0
 30
0.0
 11
160.0
 21
800.0
 31
0.0
  0
LINE
  5
37
  8
GRID
 62
     3
 10
170.0
 20
0.0
 30
0.0
 11
170.0
 21
800.0
 31
0.0
  0
LINE
  5
38
  8
GRID
 62
     3
 10
180.0
 20
0.0
 30
0.0
 11
180.0
 21
800.0
 31
0.0
  0
LINE
  5
39
  8
GRID
 62
     3
 10
190.0
 20
0.0
 30
0.0
 11
190.0
 21
800.0
 31
0.0
  0
TEXT
  5
3A
  8
GRID
 62
     1
 10
182.85714285714289
 20
-18.0
 30
0.0
 40
12.0
  1
200
  7
TLCAD
 72
     1
 11
200.0
 21
-12.0
 31
0.0
 73
     2
  0
LINE
  5
3B
  8
GRID
 62
     1
 10
200.0
 20
0.0
 30
0.0
 11
200.0
 21
800.0
 31
0.0
  0
LINE
  5
3C
  8
GRID
 62
     3
 10
210.0
 20
0.0
 30
0.0
 11
210.0
 21
800.0
 31
0.0
  0
LINE
  5
3D
  8
GRID
 62
     3
 10
220.0
 20
0.0
 30
0.0
 11
220.0
 21
800.0
 31
0.0
  0
LINE
  5
3E
  8
GRID
 62
     3
 10
230.0
 20
0.0
 30
0.0
 11
230.0
 21
800.0
 31
0.0
  0
LINE
  5
3F
  8
GRID
 62
     3
 10
240.0
 20
0.0
 30
0.0
 11
240.0
 21
800.0
 31
0.0
  0
TEXT
  5
40
  8
GRID
 62
     1
 10
232.85714285714289
 20
-18.0
 30
0.0
 40
12.0
  1
250
  7
TLCAD
 72
     1
 11
250.0
 21
-12.0
 31
0.0
 73
     2
  0
LINE
  5
41
  8
GRID
 62
     1
 10
250.0
 20
0.0
 30
0.0
 11
250.0
 21
800.0
 31
0.0
  0
LINE
  5
42
  8
GRID
 62
     3
 10
260.0
 20
0.0
 30
0.0
 11
260.0
 21
800.0
 31
0.0
  0
LINE
  5
43
  8
GRID
 62
     3
 10
270.0
 20
0.0
 30
0.0
 11
270.0
 21
800.0
 31
0.0
  0
LINE
  5
44
  8
GRID
 62
     3
 10
280.0
 20
0.0
 30
0.0
 11
280.0
 21
800.0
 31
0.0
  0
LINE
  5
45
  8
GRID
 62
     3
 10
290.0
 20
0.0
 30
0.0
 11
290.0
 21
800.0
 31
0.0
  0
TEXT
  5
46
  8
GRID
 62
     1
 10
282.85714285714278
 20
-18.0
 30
0.0
 40
12.0
  1
300
  7
TLCAD
 72
     1
 11
300.0
 21
-12.0
 31
0.0
 73
     2
  0
LINE
  5
47
  8
GRID
 62
     1
 10
300.0
 20
0.0
 30
0.0
 11
300.0
 21
800.0
 31
0.0
  0
LINE
  5
48
  8
GRID
 62
     3
 10
310.0
 20
0.0
 30
0.0
 11
310.0
 21
800.0
 31
0.0
  0
LINE
  5
49
  8
GRID
 62
     3
 10
320.0
 20
0.0
 30
0.0
 11
320.0
 21
800.0
 31
0.0
  0
LINE
  5
4A
  8
GRID
 62
     3
 10
330.0
 20
0.0
 30
0.0
 11
330.0
 21
800.0
 31
0.0
  0
LINE
  5
4B
  8
GRID
 62
     3
 10
340.0
 20
0.0
 30
0.0
 11
340.0
 21
800.0
 31
0.0
  0
TEXT
  5
4C
  8
GRID
 62
     1
 10
332.85714285714278
 20
-18.0
 30
0.0
 40
12.0
  1
350
  7
TLCAD
 72
     1
 11
350.0
 21
-12.0
 31
0.0
 73
     2
  0
LINE
  5
4D
  8
GRID
 62
     1
 10
350.0
 20
0.0
 30
0.0
 11
350.0
 21
800.0
 31
0.0
  0
LINE
  5
4E
  8
GRID
 62
     3
 10
360.0
 20
0.0
 30
0.0
 11
360.0
 21
800.0
 31
0.0
  0
LINE
  5
4F
  8
GRID
 62
     3
 10
370.0
 20
0.0
 30
0.0
 11
370.0
 21
800.0
 31
0.0
  0
LINE
  5
50
  8
GRID
 62
     3
 10
380.0
 20
0.0
 30
0.0
 11
380.0
 21
800.0
 31
0.0
  0
LINE
  5
51
  8
GRID
 62
     3
 10
390.0
 20
0.0
 30
0.0
 11
390.0
 21
800.0
 31
0.0
  0
TEXT
  5
52
  8
GRID
 62
     1
 10
383.14285714285722
 20
-18.0
 30
0.0
 40
12.0
  1
400
  7
TLCAD
 72
     1
 11
400.0
 21
-12.0
 31
0.0
 73
     2
  0
LINE
  5
53
  8
GRID
 62
     1
 10
400.0
 20
0.0
 30
0.0
 11
400.0
 21
800.0
 31
0.0
  0
LINE
  5
54
  8
GRID
 62
     3
 10
410.0
 20
0.0
 30
0.0
 11
410.0
 21
800.0
 31
0.0
  0
LINE
  5
55
  8
GRID
 62
     3
 10
420.0
 20
0.0
 30
0.0
 11
420.0
 21
800.0
 31
0.0
  0
LINE
  5
56
  8
GRID
 62
     3
 10
430.0
 20
0.0
 30
0.0
 11
430.0
 21
800.0
 31
0.0
  0
LINE
  5
57
  8
GRID
 62
     3
 10
440.0
 20
0.0
 30
0.0
 11
440.0
 21
800.0
 31
0.0
  0
TEXT
  5
58
  8
GRID
 62
     1
 10
433.14285714285711
 20
-18.0
 30
0.0
 40
12.0
  1
450
  7
TLCAD
 72
     1
 11
450.0
 21
-12.0
 31
0.0
 73
     2
  0
LINE
  5
59
  8
GRID
 62
     1
 10
450.0
 20
0.0
 30
0.0
 11
450.0
 21
800.0
 31
0.0
  0
LINE
  5
5A
  8
GRID
 62
     3
 10
460.0
 20
0.0
 30
0.0
 11
460.0
 21
800.0
 31
0.0
  0
LINE
  5
5B
  8
GRID
 62
     3
 10
470.0
 20
0.0
 30
0.0
 11
470.0
 21
800.0
 31
0.0
  0
LINE
  5
5C
  8
GRID
 62
     3
 10
480.0
 20
0.0
 30
0.0
 11
480.0
 21
800.0
 31
0.0
  0
LINE
  5
5D
  8
GRID
 62
     3
 10
490.0
 20
0.0
 30
0.0
 11
490.0
 21
800.0
 31
0.0
  0
TEXT
  5
5E
  8
GRID
 62
     1
 10
482.85714285714278
 20
-18.0
 30
0.0
 40
12.0
  1
500
  7
TLCAD
 72
     1
 11
500.0
 21
-12.0
 31
0.0
 73
     2
  0
LINE
  5
5F
  8
GRID
 62
     1
 10
500.0
 20
0.0
 30
0.0
 11
500.0
 21
800.0
 31
0.0
  0
LINE
  5
60
  8
GRID
 62
     3
 10
510.0
 20
0.0
 30
0.0
 11
510.0
 21
800.0
 31
0.0
  0
LINE
  5
61
  8
GRID
 62
     3
 10
520.0
 20
0.0
 30
0.0
 11
520.0
 21
800.0
 31
0.0
  0
LINE
  5
62
  8
GRID
 62
     3
 10
530.0
 20
0.0
 30
0.0
 11
530.0
 21
800.0
 31
0.0
  0
LINE
  5
63
  8
GRID
 62
     3
 10
540.0
 20
0.0
 30
0.0
 11
540.0
 21
800.0
 31
0.0
  0
TEXT
  5
64
  8
GRID
 62
     1
 10
532.85714285714289
 20
-18.0
 30
0.0
 40
12.0
  1
550
  7
TLCAD
 72
     1
 11
550.0
 21
-12.0
 31
0.0
 73
     2
  0
LINE
  5
65
  8
GRID
 62
     1
 10
550.0
 20
0.0
 30
0.0
 11
550.0
 21
800.0
 31
0.0
  0
LINE
  5
66
  8
GRID
 62
     3
 10
560.0
 20
0.0
 30
0.0
 11
560.0
 21
800.0
 31
0.0
  0
LINE
  5
67
  8
GRID
 62
     3
 10
570.0
 20
0.0
 30
0.0
 11
570.0
 21
800.0
 31
0.0
  0
LINE
  5
68
  8
GRID
 62
     3
 10
580.0
 20
0.0
 30
0.0
 11
580.0
 21
800.0
 31
0.0
  0
LINE
  5
69
  8
GRID
 62
     3
 10
590.0
 20
0.0
 30
0.0
 11
590.0
 21
800.0
 31
0.0
  0
TEXT
  5
6A
  8
GRID
 62
     1
 10
582.85714285714289
 20
-18.0
 30
0.0
 40
12.0
  1
600
  7
TLCAD
 72
     1
 11
600.0
 21
-12.0
 31
0.0
 73
     2
  0
LINE
  5
6B
  8
GRID
 62
     1
 10
600.0
 20
0.0
 30
0.0
 11
600.0
 21
800.0
 31
0.0
  0
LINE
  5
6C
  8
GRID
 62
     3
 10
610.0
 20
0.0
 30
0.0
 11
610.0
 21
800.0
 31
0.0
  0
LINE
  5
6D
  8
GRID
 62
     3
 10
620.0
 20
0.0
 30
0.0
 11
620.0
 21
800.0
 31
0.0
  0
LINE
  5
6E
  8
GRID
 62
     3
 10
630.0
 20
0.0
 30
0.0
 11
630.0
 21
800.0
 31
0.0
  0
LINE
  5
6F
  8
GRID
 62
     3
 10
640.0
 20
0.0
 30
0.0
 11
640.0
 21
800.0
 31
0.0
  0
TEXT
  5
70
  8
GRID
 62
     1
 10
632.85714285714289
 20
-18.0
 30
0.0
 40
12.0
  1
650
  7
TLCAD
 72
     1
 11
650.0
 21
-12.0
 31
0.0
 73
     2
  0
LINE
  5
71
  8
GRID
 62
     1
 10
650.0
 20
0.0
 30
0.0
 11
650.0
 21
800.0
 31
0.0
  0
LINE
  5
72
  8
GRID
 62
     3
 10
660.0
 20
0.0
 30
0.0
 11
660.0
 21
800.0
 31
0.0
  0
LINE
  5
73
  8
GRID
 62
     3
 10
670.0
 20
0.0
 30
0.0
 11
670.0
 21
800.0
 31
0.0
  0
LINE
  5
74
  8
GRID
 62
     3
 10
680.0
 20
0.0
 30
0.0
 11
680.0
 21
800.0
 31
0.0
  0
LINE
  5
75
  8
GRID
 62
     3
 10
690.0
 20
0.0
 30
0.0
 11
690.0
 21
800.0
 31
0.0
  0
TEXT
  5
76
  8
GRID
 62
     1
 10
682.85714285714289
 20
-18.0
 30
0.0
 40
12.0
  1
700
  7
TLCAD
 72
     1
 11
700.0
 21
-12.0
 31
0.0
 73
     2
  0
LINE
  5
77
  8
GRID
 62
     1
 10
700.0
 20
0.0
 30
0.0
 11
700.0
 21
800.0
 31
0.0
  0
LINE
  5
78
  8
GRID
 62
     3
 10
710.0
 20
0.0
 30
0.0
 11
710.0
 21
800.0
 31
0.0
  0
LINE
  5
79
  8
GRID
 62
     3
 10
720.0
 20
0.0
 30
0.0
 11
720.0
 21
800.0
 31
0.0
  0
LINE
  5
7A
  8
GRID
 62
     3
 10
730.0
 20
0.0
 30
0.0
 11
730.0
 21
800.0
 31
0.0
  0
LINE
  5
7B
  8
GRID
 62
     3
 10
740.0
 20
0.0
 30
0.0
 11
740.0
 21
800.0
 31
0.0
  0
TEXT
  5
7C
  8
GRID
 62
     1
 10
732.85714285714289
 20
-18.0
 30
0.0
 40
12.0
  1
750
  7
TLCAD
 72
     1
 11
750.0
 21
-12.0
 31
0.0
 73
     2
  0
LINE
  5
7D
  8
GRID
 62
     1
 10
750.0
 20
0.0
 30
0.0
 11
750.0
 21
800.0
 31
0.0
  0
LINE
  5
7E
  8
GRID
 62
     3
 10
760.0
 20
0.0
 30
0.0
 11
760.0
 21
800.0
 31
0.0
  0
LINE
  5
7F
  8
GRID
 62
     3
 10
770.0
 20
0.0
 30
0.0
 11
770.0
 21
800.0
 31
0.0
  0
LINE
  5
80
  8
GRID
 62
     3
 10
780.0
 20
0.0
 30
0.0
 11
780.0
 21
800.0
 31
0.0
  0
LINE
  5
81
  8
GRID
 62
     3
 10
790.0
 20
0.0
 30
0.0
 11
790.0
 21
800.0
 31
0.0
  0
TEXT
  5
82
  8
GRID
 62
     1
 10
782.85714285714289
 20
-18.0
 30
0.0
 40
12.0
  1
800
  7
TLCAD
 72
     1
 11
800.0
 21
-12.0
 31
0.0
 73
     2
  0
LINE
  5
83
  8
GRID
 62
     1
 10
800.0
 20
0.0
 30
0.0
 11
800.0
 21
800.0
 31
0.0
  0
LINE
  5
84
  8
GRID
 62
     3
 10
810.0
 20
0.0
 30
0.0
 11
810.0
 21
800.0
 31
0.0
  0
LINE
  5
85
  8
GRID
 62
     3
 10
820.0
 20
0.0
 30
0.0
 11
820.0
 21
800.0
 31
0.0
  0
LINE
  5
86
  8
GRID
 62
     3
 10
830.0
 20
0.0
 30
0.0
 11
830.0
 21
800.0
 31
0.0
  0
LINE
  5
87
  8
GRID
 62
     3
 10
840.0
 20
0.0
 30
0.0
 11
840.0
 21
800.0
 31
0.0
  0
TEXT
  5
88
  8
GRID
 62
     1
 10
832.85714285714289
 20
-18.0
 30
0.0
 40
12.0
  1
850
  7
TLCAD
 72
     1
 11
850.0
 21
-12.0
 31
0.0
 73
     2
  0
LINE
  5
89
  8
GRID
 62
     1
 10
850.0
 20
0.0
 30
0.0
 11
850.0
 21
800.0
 31
0.0
  0
LINE
  5
8A
  8
GRID
 62
     3
 10
860.0
 20
0.0
 30
0.0
 11
860.0
 21
800.0
 31
0.0
  0
LINE
  5
8B
  8
GRID
 62
     3
 10
870.0
 20
0.0
 30
0.0
 11
870.0
 21
800.0
 31
0.0
  0
LINE
  5
8C
  8
GRID
 62
     3
 10
880.0
 20
0.0
 30
0.0
 11
880.0
 21
800.0
 31
0.0
  0
LINE
  5
8D
  8
GRID
 62
     3
 10
890.0
 20
0.0
 30
0.0
 11
890.0
 21
800.0
 31
0.0
  0
TEXT
  5
8E
  8
GRID
 62
     1
 10
882.85714285714289
 20
-18.0
 30
0.0
 40
12.0
  1
900
  7
TLCAD
 72
     1
 11
900.0
 21
-12.0
 31
0.0
 73
     2
  0
LINE
  5
8F
  8
GRID
 62
     1
 10
900.0
 20
0.0
 30
0.0
 11
900.0
 21
800.0
 31
0.0
  0
LINE
  5
90
  8
GRID
 62
     3
 10
910.0
 20
0.0
 30
0.0
 11
910.0
 21
800.0
 31
0.0
  0
LINE
  5
91
  8
GRID
 62
     3
 10
920.0
 20
0.0
 30
0.0
 11
920.0
 21
800.0
 31
0.0
  0
LINE
  5
92
  8
GRID
 62
     3
 10
930.0
 20
0.0
 30
0.0
 11
930.0
 21
800.0
 31
0.0
  0
LINE
  5
93
  8
GRID
 62
     3
 10
940.0
 20
0.0
 30
0.0
 11
940.0
 21
800.0
 31
0.0
  0
TEXT
  5
94
  8
GRID
 62
     1
 10
932.85714285714289
 20
-18.0
 30
0.0
 40
12.0
  1
950
  7
TLCAD
 72
     1
 11
950.0
 21
-12.0
 31
0.0
 73
     2
  0
LINE
  5
95
  8
GRID
 62
     1
 10
950.0
 20
0.0
 30
0.0
 11
950.0
 21
800.0
 31
0.0
  0
LINE
  5
96
  8
GRID
 62
     3
 10
960.0
 20
0.0
 30
0.0
 11
960.0
 21
800.0
 31
0.0
  0
LINE
  5
97
  8
GRID
 62
     3
 10
970.0
 20
0.0
 30
0.0
 11
970.0
 21
800.0
 31
0.0
  0
LINE
  5
98
  8
GRID
 62
     3
 10
980.0
 20
0.0
 30
0.0
 11
980.0
 21
800.0
 31
0.0
  0
LINE
  5
99
  8
GRID
 62
     3
 10
990.0
 20
0.0
 30
0.0
 11
990.0
 21
800.0
 31
0.0
  0
TEXT
  5
9A
  8
GRID
 62
     1
 10
978.0
 20
-18.0
 30
0.0
 40
12.0
  1
1000
  7
TLCAD
 72
     1
 11
1000.0
 21
-12.0
 31
0.0
 73
     2
  0
LINE
  5
9B
  8
GRID
 62
     1
 10
1000.0
 20
0.0
 30
0.0
 11
1000.0
 21
800.0
 31
0.0
  0
LINE
  5
9C
  8
GRID
 62
     3
 10
1010.0
 20
0.0
 30
0.0
 11
1010.0
 21
800.0
 31
0.0
  0
LINE
  5
9D
  8
GRID
 62
     3
 10
1020.0
 20
0.0
 30
0.0
 11
1020.0
 21
800.0
 31
0.0
  0
LINE
  5
9E
  8
GRID
 62
     3
 10
1030.0
 20
0.0
 30
0.0
 11
1030.0
 21
800.0
 31
0.0
  0
LINE
  5
9F
  8
GRID
 62
     3
 10
1040.0
 20
0.0
 30
0.0
 11
1040.0
 21
800.0
 31
0.0
  0
TEXT
  5
A0
  8
GRID
 62
     1
 10
1028.0
 20
-18.0
 30
0.0
 40
12.0
  1
1050
  7
TLCAD
 72
     1
 11
1050.0
 21
-12.0
 31
0.0
 73
     2
  0
LINE
  5
A1
  8
GRID
 62
     1
 10
1050.0
 20
0.0
 30
0.0
 11
1050.0
 21
800.0
 31
0.0
  0
LINE
  5
A2
  8
GRID
 62
     3
 10
1060.0
 20
0.0
 30
0.0
 11
1060.0
 21
800.0
 31
0.0
  0
LINE
  5
A3
  8
GRID
 62
     3
 10
1070.0
 20
0.0
 30
0.0
 11
1070.0
 21
800.0
 31
0.0
  0
LINE
  5
A4
  8
GRID
 62
     3
 10
1080.0
 20
0.0
 30
0.0
 11
1080.0
 21
800.0
 31
0.0
  0
LINE
  5
A5
  8
GRID
 62
     3
 10
1090.0
 20
0.0
 30
0.0
 11
1090.0
 21
800.0
 31
0.0
  0
TEXT
  5
A6
  8
GRID
 62
     1
 10
1078.8571428571429
 20
-18.0
 30
0.0
 40
12.0
  1
1100
  7
TLCAD
 72
     1
 11
1100.0
 21
-12.0
 31
0.0
 73
     2
  0
LINE
  5
A7
  8
GRID
 62
     1
 10
1100.0
 20
0.0
 30
0.0
 11
1100.0
 21
800.0
 31
0.0
  0
LINE
  5
A8
  8
GRID
 62
     3
 10
1110.0
 20
0.0
 30
0.0
 11
1110.0
 21
800.0
 31
0.0
  0
LINE
  5
A9
  8
GRID
 62
     3
 10
1120.0
 20
0.0
 30
0.0
 11
1120.0
 21
800.0
 31
0.0
  0
LINE
  5
AA
  8
GRID
 62
     3
 10
1130.0
 20
0.0
 30
0.0
 11
1130.0
 21
800.0
 31
0.0
  0
LINE
  5
AB
  8
GRID
 62
     3
 10
1140.0
 20
0.0
 30
0.0
 11
1140.0
 21
800.0
 31
0.0
  0
TEXT
  5
AC
  8
GRID
 62
     1
 10
1128.8571428571429
 20
-18.0
 30
0.0
 40
12.0
  1
1150
  7
TLCAD
 72
     1
 11
1150.0
 21
-12.0
 31
0.0
 73
     2
  0
LINE
  5
AD
  8
GRID
 62
     1
 10
1150.0
 20
0.0
 30
0.0
 11
1150.0
 21
800.0
 31
0.0
  0
LINE
  5
AE
  8
GRID
 62
     3
 10
1160.0
 20
0.0
 30
0.0
 11
1160.0
 21
800.0
 31
0.0
  0
LINE
  5
AF
  8
GRID
 62
     3
 10
1170.0
 20
0.0
 30
0.0
 11
1170.0
 21
800.0
 31
0.0
  0
LINE
  5
B0
  8
GRID
 62
     3
 10
1180.0
 20
0.0
 30
0.0
 11
1180.0
 21
800.0
 31
0.0
  0
LINE
  5
B1
  8
GRID
 62
     3
 10
1190.0
 20
0.0
 30
0.0
 11
1190.0
 21
800.0
 31
0.0
  0
TEXT
  5
B2
  8
GRID
 62
     1
 10
1178.0
 20
-18.0
 30
0.0
 40
12.0
  1
1200
  7
TLCAD
 72
     1
 11
1200.0
 21
-12.0
 31
0.0
 73
     2
  0
LINE
  5
B3
  8
GRID
 62
     1
 10
1200.0
 20
0.0
 30
0.0
 11
1200.0
 21
800.0
 31
0.0
  0
LINE
  5
B4
  8
GRID
 62
     3
 10
1210.0
 20
0.0
 30
0.0
 11
1210.0
 21
800.0
 31
0.0
  0
LINE
  5
B5
  8
GRID
 62
     3
 10
1220.0
 20
0.0
 30
0.0
 11
1220.0
 21
800.0
 31
0.0
  0
LINE
  5
B6
  8
GRID
 62
     3
 10
1230.0
 20
0.0
 30
0.0
 11
1230.0
 21
800.0
 31
0.0
  0
LINE
  5
B7
  8
GRID
 62
     3
 10
1240.0
 20
0.0
 30
0.0
 11
1240.0
 21
800.0
 31
0.0
  0
TEXT
  5
B8
  8
GRID
 62
     1
 10
1228.0
 20
-18.0
 30
0.0
 40
12.0
  1
1250
  7
TLCAD
 72
     1
 11
1250.0
 21
-12.0
 31
0.0
 73
     2
  0
LINE
  5
B9
  8
GRID
 62
     1
 10
1250.0
 20
0.0
 30
0.0
 11
1250.0
 21
800.0
 31
0.0
  0
LINE
  5
BA
  8
GRID
 62
     3
 10
1260.0
 20
0.0
 30
0.0
 11
1260.0
 21
800.0
 31
0.0
  0
LINE
  5
BB
  8
GRID
 62
     3
 10
1270.0
 20
0.0
 30
0.0
 11
1270.0
 21
800.0
 31
0.0
  0
LINE
  5
BC
  8
GRID
 62
     3
 10
1280.0
 20
0.0
 30
0.0
 11
1280.0
 21
800.0
 31
0.0
  0
LINE
  5
BD
  8
GRID
 62
     3
 10
1290.0
 20
0.0
 30
0.0
 11
1290.0
 21
800.0
 31
0.0
  0
TEXT
  5
BE
  8
GRID
 62
     1
 10
1278.0
 20
-18.0
 30
0.0
 40
12.0
  1
1300
  7
TLCAD
 72
     1
 11
1300.0
 21
-12.0
 31
0.0
 73
     2
  0
LINE
  5
BF
  8
GRID
 62
     1
 10
1300.0
 20
0.0
 30
0.0
 11
1300.0
 21
800.0
 31
0.0
  0
LINE
  5
C0
  8
GRID
 62
     3
 10
1310.0
 20
0.0
 30
0.0
 11
1310.0
 21
800.0
 31
0.0
  0
LINE
  5
C1
  8
GRID
 62
     3
 10
1320.0
 20
0.0
 30
0.0
 11
1320.0
 21
800.0
 31
0.0
  0
LINE
  5
C2
  8
GRID
 62
     3
 10
1330.0
 20
0.0
 30
0.0
 11
1330.0
 21
800.0
 31
0.0
  0
LINE
  5
C3
  8
GRID
 62
     3
 10
1340.0
 20
0.0
 30
0.0
 11
1340.0
 21
800.0
 31
0.0
  0
TEXT
  5
C4
  8
GRID
 62
     1
 10
1328.0
 20
-18.0
 30
0.0
 40
12.0
  1
1350
  7
TLCAD
 72
     1
 11
1350.0
 21
-12.0
 31
0.0
 73
     2
  0
LINE
  5
C5
  8
GRID
 62
     1
 10
1350.0
 20
0.0
 30
0.0
 11
1350.0
 21
800.0
 31
0.0
  0
LINE
  5
C6
  8
GRID
 62
     3
 10
1360.0
 20
0.0
 30
0.0
 11
1360.0
 21
800.0
 31
0.0
  0
LINE
  5
C7
  8
GRID
 62
     3
 10
1370.0
 20
0.0
 30
0.0
 11
1370.0
 21
800.0
 31
0.0
  0
LINE
  5
C8
  8
GRID
 62
     3
 10
1380.0
 20
0.0
 30
0.0
 11
1380.0
 21
800.0
 31
0.0
  0
LINE
  5
C9
  8
GRID
 62
     3
 10
1390.0
 20
0.0
 30
0.0
 11
1390.0
 21
800.0
 31
0.0
  0
TEXT
  5
CA
  8
GRID
 62
     1
 10
1378.0
 20
-18.0
 30
0.0
 40
12.0
  1
1400
  7
TLCAD
 72
     1
 11
1400.0
 21
-12.0
 31
0.0
 73
     2
  0
LINE
  5
CB
  8
GRID
 62
     1
 10
1400.0
 20
0.0
 30
0.0
 11
1400.0
 21
800.0
 31
0.0
  0
LINE
  5
CF
  8
GRID
 62
     1
 10
100.0
 20
0.0
 30
0.0
 11
1400.0
 21
0.0
 31
0.0
  0
TEXT
  5
D0
  8
GRID
 62
     1
 10
90.285714285714306
 20
-6.0
 30
0.0
 40
12.0
  1
0
  7
TLCAD
 72
     2
 11
100.0
 21
0.0
 31
0.0
 73
     2
  0
LINE
  5
D1
  8
GRID
 62
     3
 10
100.0
 20
10.0
 30
0.0
 11
1400.0
 21
10.0
 31
0.0
  0
LINE
  5
D2
  8
GRID
 62
     3
 10
100.0
 20
20.0
 30
0.0
 11
1400.0
 21
20.0
 31
0.0
  0
LINE
  5
D3
  8
GRID
 62
     3
 10
100.0
 20
30.0
 30
0.0
 11
1400.0
 21
30.0
 31
0.0
  0
LINE
  5
D4
  8
GRID
 62
     3
 10
100.0
 20
40.0
 30
0.0
 11
1400.0
 21
40.0
 31
0.0
  0
LINE
  5
D5
  8
GRID
 62
     1
 10
100.0
 20
50.0
 30
0.0
 11
1400.0
 21
50.0
 31
0.0
  0
TEXT
  5
D6
  8
GRID
 62
     1
 10
78.857142857142861
 20
44.0
 30
0.0
 40
12.0
  1
25
  7
TLCAD
 72
     2
 11
100.0
 21
50.0
 31
0.0
 73
     2
  0
LINE
  5
D7
  8
GRID
 62
     3
 10
100.0
 20
60.0
 30
0.0
 11
1400.0
 21
60.0
 31
0.0
  0
LINE
  5
D8
  8
GRID
 62
     3
 10
100.0
 20
70.0
 30
0.0
 11
1400.0
 21
70.0
 31
0.0
  0
LINE
  5
D9
  8
GRID
 62
     3
 10
100.0
 20
80.0
 30
0.0
 11
1400.0
 21
80.0
 31
0.0
  0
LINE
  5
DA
  8
GRID
 62
     3
 10
100.0
 20
90.0
 30
0.0
 11
1400.0
 21
90.0
 31
0.0
  0
LINE
  5
DB
  8
GRID
 62
     1
 10
100.0
 20
100.0
 30
0.0
 11
1400.0
 21
100.0
 31
0.0
  0
TEXT
  5
DC
  8
GRID
 62
     1
 10
78.857142857142861
 20
94.0
 30
0.0
 40
12.0
  1
50
  7
TLCAD
 72
     2
 11
100.0
 21
100.0
 31
0.0
 73
     2
  0
LINE
  5
DD
  8
GRID
 62
     3
 10
100.0
 20
110.0
 30
0.0
 11
1400.0
 21
110.0
 31
0.0
  0
LINE
  5
DE
  8
GRID
 62
     3
 10
100.0
 20
120.0
 30
0.0
 11
1400.0
 21
120.0
 31
0.0
  0
LINE
  5
DF
  8
GRID
 62
     3
 10
100.0
 20
130.0
 30
0.0
 11
1400.0
 21
130.0
 31
0.0
  0
LINE
  5
E0
  8
GRID
 62
     3
 10
100.0
 20
140.0
 30
0.0
 11
1400.0
 21
140.0
 31
0.0
  0
LINE
  5
E1
  8
GRID
 62
     1
 10
100.0
 20
150.0
 30
0.0
 11
1400.0
 21
150.0
 31
0.0
  0
TEXT
  5
E2
  8
GRID
 62
     1
 10
78.857142857142861
 20
144.0
 30
0.0
 40
12.0
  1
75
  7
TLCAD
 72
     2
 11
100.0
 21
150.0
 31
0.0
 73
     2
  0
LINE
  5
E3
  8
GRID
 62
     3
 10
100.0
 20
160.0
 30
0.0
 11
1400.0
 21
160.0
 31
0.0
  0
LINE
  5
E4
  8
GRID
 62
     3
 10
100.0
 20
170.0
 30
0.0
 11
1400.0
 21
170.0
 31
0.0
  0
LINE
  5
E5
  8
GRID
 62
     3
 10
100.0
 20
180.0
 30
0.0
 11
1400.0
 21
180.0
 31
0.0
  0
LINE
  5
E6
  8
GRID
 62
     3
 10
100.0
 20
190.0
 30
0.0
 11
1400.0
 21
190.0
 31
0.0
  0
LINE
  5
E7
  8
GRID
 62
     1
 10
100.0
 20
200.0
 30
0.0
 11
1400.0
 21
200.0
 31
0.0
  0
TEXT
  5
E8
  8
GRID
 62
     1
 10
69.142857142857139
 20
194.0
 30
0.0
 40
12.0
  1
100
  7
TLCAD
 72
     2
 11
100.0
 21
200.0
 31
0.0
 73
     2
  0
LINE
  5
E9
  8
GRID
 62
     3
 10
100.0
 20
210.0
 30
0.0
 11
1400.0
 21
210.0
 31
0.0
  0
LINE
  5
EA
  8
GRID
 62
     3
 10
100.0
 20
220.0
 30
0.0
 11
1400.0
 21
220.0
 31
0.0
  0
LINE
  5
EB
  8
GRID
 62
     3
 10
100.0
 20
230.0
 30
0.0
 11
1400.0
 21
230.0
 31
0.0
  0
LINE
  5
EC
  8
GRID
 62
     3
 10
100.0
 20
240.0
 30
0.0
 11
1400.0
 21
240.0
 31
0.0
  0
LINE
  5
ED
  8
GRID
 62
     1
 10
100.0
 20
250.0
 30
0.0
 11
1400.0
 21
250.0
 31
0.0
  0
TEXT
  5
EE
  8
GRID
 62
     1
 10
69.142857142857139
 20
244.0
 30
0.0
 40
12.0
  1
125
  7
TLCAD
 72
     2
 11
100.0
 21
250.0
 31
0.0
 73
     2
  0
LINE
  5
EF
  8
GRID
 62
     3
 10
100.0
 20
260.0
 30
0.0
 11
1400.0
 21
260.0
 31
0.0
  0
LINE
  5
F0
  8
GRID
 62
     3
 10
100.0
 20
270.0
 30
0.0
 11
1400.0
 21
270.0
 31
0.0
  0
LINE
  5
F1
  8
GRID
 62
     3
 10
100.0
 20
280.0
 30
0.0
 11
1400.0
 21
280.0
 31
0.0
  0
LINE
  5
F2
  8
GRID
 62
     3
 10
100.0
 20
290.0
 30
0.0
 11
1400.0
 21
290.0
 31
0.0
  0
LINE
  5
F3
  8
GRID
 62
     1
 10
100.0
 20
300.0
 30
0.0
 11
1400.0
 21
300.0
 31
0.0
  0
TEXT
  5
F4
  8
GRID
 62
     1
 10
69.142857142857139
 20
294.0
 30
0.0
 40
12.0
  1
150
  7
TLCAD
 72
     2
 11
100.0
 21
300.0
 31
0.0
 73
     2
  0
LINE
  5
F5
  8
GRID
 62
     3
 10
100.0
 20
310.0
 30
0.0
 11
1400.0
 21
310.0
 31
0.0
  0
LINE
  5
F6
  8
GRID
 62
     3
 10
100.0
 20
320.0
 30
0.0
 11
1400.0
 21
320.0
 31
0.0
  0
LINE
  5
F7
  8
GRID
 62
     3
 10
100.0
 20
330.0
 30
0.0
 11
1400.0
 21
330.0
 31
0.0
  0
LINE
  5
F8
  8
GRID
 62
     3
 10
100.0
 20
340.0
 30
0.0
 11
1400.0
 21
340.0
 31
0.0
  0
LINE
  5
F9
  8
GRID
 62
     1
 10
100.0
 20
350.0
 30
0.0
 11
1400.0
 21
350.0
 31
0.0
  0
TEXT
  5
FA
  8
GRID
 62
     1
 10
69.142857142857139
 20
344.0
 30
0.0
 40
12.0
  1
175
  7
TLCAD
 72
     2
 11
100.0
 21
350.0
 31
0.0
 73
     2
  0
LINE
  5
FB
  8
GRID
 62
     3
 10
100.0
 20
360.0
 30
0.0
 11
1400.0
 21
360.0
 31
0.0
  0
LINE
  5
FC
  8
GRID
 62
     3
 10
100.0
 20
370.0
 30
0.0
 11
1400.0
 21
370.0
 31
0.0
  0
LINE
  5
FD
  8
GRID
 62
     3
 10
100.0
 20
380.0
 30
0.0
 11
1400.0
 21
380.0
 31
0.0
  0
LINE
  5
FE
  8
GRID
 62
     3
 10
100.0
 20
390.0
 30
0.0
 11
1400.0
 21
390.0
 31
0.0
  0
LINE
  5
FF
  8
GRID
 62
     1
 10
100.0
 20
400.0
 30
0.0
 11
1400.0
 21
400.0
 31
0.0
  0
TEXT
  5
100
  8
GRID
 62
     1
 10
67.428571428571431
 20
394.0
 30
0.0
 40
12.0
  1
200
  7
TLCAD
 72
     2
 11
100.0
 21
400.0
 31
0.0
 73
     2
  0
LINE
  5
101
  8
GRID
 62
     3
 10
100.0
 20
410.0
 30
0.0
 11
1400.0
 21
410.0
 31
0.0
  0
LINE
  5
102
  8
GRID
 62
     3
 10
100.0
 20
420.0
 30
0.0
 11
1400.0
 21
420.0
 31
0.0
  0
LINE
  5
103
  8
GRID
 62
     3
 10
100.0
 20
430.0
 30
0.0
 11
1400.0
 21
430.0
 31
0.0
  0
LINE
  5
104
  8
GRID
 62
     3
 10
100.0
 20
440.0
 30
0.0
 11
1400.0
 21
440.0
 31
0.0
  0
LINE
  5
105
  8
GRID
 62
     1
 10
100.0
 20
450.0
 30
0.0
 11
1400.0
 21
450.0
 31
0.0
  0
TEXT
  5
106
  8
GRID
 62
     1
 10
67.428571428571416
 20
444.0
 30
0.0
 40
12.0
  1
225
  7
TLCAD
 72
     2
 11
100.0
 21
450.0
 31
0.0
 73
     2
  0
LINE
  5
107
  8
GRID
 62
     3
 10
100.0
 20
460.0
 30
0.0
 11
1400.0
 21
460.0
 31
0.0
  0
LINE
  5
108
  8
GRID
 62
     3
 10
100.0
 20
470.0
 30
0.0
 11
1400.0
 21
470.0
 31
0.0
  0
LINE
  5
109
  8
GRID
 62
     3
 10
100.0
 20
480.0
 30
0.0
 11
1400.0
 21
480.0
 31
0.0
  0
LINE
  5
10A
  8
GRID
 62
     3
 10
100.0
 20
490.0
 30
0.0
 11
1400.0
 21
490.0
 31
0.0
  0
LINE
  5
10B
  8
GRID
 62
     1
 10
100.0
 20
500.0
 30
0.0
 11
1400.0
 21
500.0
 31
0.0
  0
TEXT
  5
10C
  8
GRID
 62
     1
 10
67.428571428571431
 20
494.0
 30
0.0
 40
12.0
  1
250
  7
TLCAD
 72
     2
 11
100.0
 21
500.0
 31
0.0
 73
     2
  0
LINE
  5
10D
  8
GRID
 62
     3
 10
100.0
 20
510.0
 30
0.0
 11
1400.0
 21
510.0
 31
0.0
  0
LINE
  5
10E
  8
GRID
 62
     3
 10
100.0
 20
520.0
 30
0.0
 11
1400.0
 21
520.0
 31
0.0
  0
LINE
  5
10F
  8
GRID
 62
     3
 10
100.0
 20
530.0
 30
0.0
 11
1400.0
 21
530.0
 31
0.0
  0
LINE
  5
110
  8
GRID
 62
     3
 10
100.0
 20
540.0
 30
0.0
 11
1400.0
 21
540.0
 31
0.0
  0
LINE
  5
111
  8
GRID
 62
     1
 10
100.0
 20
550.0
 30
0.0
 11
1400.0
 21
550.0
 31
0.0
  0
TEXT
  5
112
  8
GRID
 62
     1
 10
67.428571428571445
 20
544.0
 30
0.0
 40
12.0
  1
275
  7
TLCAD
 72
     2
 11
100.0
 21
550.0
 31
0.0
 73
     2
  0
LINE
  5
113
  8
GRID
 62
     3
 10
100.0
 20
560.0
 30
0.0
 11
1400.0
 21
560.0
 31
0.0
  0
LINE
  5
114
  8
GRID
 62
     3
 10
100.0
 20
570.0
 30
0.0
 11
1400.0
 21
570.0
 31
0.0
  0
LINE
  5
115
  8
GRID
 62
     3
 10
100.0
 20
580.0
 30
0.0
 11
1400.0
 21
580.0
 31
0.0
  0
LINE
  5
116
  8
GRID
 62
     3
 10
100.0
 20
590.0
 30
0.0
 11
1400.0
 21
590.0
 31
0.0
  0
LINE
  5
117
  8
GRID
 62
     1
 10
100.0
 20
600.0
 30
0.0
 11
1400.0
 21
600.0
 31
0.0
  0
TEXT
  5
118
  8
GRID
 62
     1
 10
67.428571428571431
 20
594.0
 30
0.0
 40
12.0
  1
300
  7
TLCAD
 72
     2
 11
100.0
 21
600.0
 31
0.0
 73
     2
  0
LINE
  5
119
  8
GRID
 62
     3
 10
100.0
 20
610.0
 30
0.0
 11
1400.0
 21
610.0
 31
0.0
  0
LINE
  5
11A
  8
GRID
 62
     3
 10
100.0
 20
620.0
 30
0.0
 11
1400.0
 21
620.0
 31
0.0
  0
LINE
  5
11B
  8
GRID
 62
     3
 10
100.0
 20
630.0
 30
0.0
 11
1400.0
 21
630.0
 31
0.0
  0
LINE
  5
11C
  8
GRID
 62
     3
 10
100.0
 20
640.0
 30
0.0
 11
1400.0
 21
640.0
 31
0.0
  0
LINE
  5
11D
  8
GRID
 62
     1
 10
100.0
 20
650.0
 30
0.0
 11
1400.0
 21
650.0
 31
0.0
  0
TEXT
  5
11E
  8
GRID
 62
     1
 10
67.428571428571416
 20
644.0
 30
0.0
 40
12.0
  1
325
  7
TLCAD
 72
     2
 11
100.0
 21
650.0
 31
0.0
 73
     2
  0
LINE
  5
11F
  8
GRID
 62
     3
 10
100.0
 20
660.0
 30
0.0
 11
1400.0
 21
660.0
 31
0.0
  0
LINE
  5
120
  8
GRID
 62
     3
 10
100.0
 20
670.0
 30
0.0
 11
1400.0
 21
670.0
 31
0.0
  0
LINE
  5
121
  8
GRID
 62
     3
 10
100.0
 20
680.0
 30
0.0
 11
1400.0
 21
680.0
 31
0.0
  0
LINE
  5
122
  8
GRID
 62
     3
 10
100.0
 20
690.0
 30
0.0
 11
1400.0
 21
690.0
 31
0.0
  0
LINE
  5
123
  8
GRID
 62
     1
 10
100.0
 20
700.0
 30
0.0
 11
1400.0
 21
700.0
 31
0.0
  0
TEXT
  5
124
  8
GRID
 62
     1
 10
67.428571428571431
 20
694.0
 30
0.0
 40
12.0
  1
350
  7
TLCAD
 72
     2
 11
100.0
 21
700.0
 31
0.0
 73
     2
  0
LINE
  5
125
  8
GRID
 62
     3
 10
100.0
 20
710.0
 30
0.0
 11
1400.0
 21
710.0
 31
0.0
  0
LINE
  5
126
  8
GRID
 62
     3
 10
100.0
 20
720.0
 30
0.0
 11
1400.0
 21
720.0
 31
0.0
  0
LINE
  5
127
  8
GRID
 62
     3
 10
100.0
 20
730.0
 30
0.0
 11
1400.0
 21
730.0
 31
0.0
  0
LINE
  5
128
  8
GRID
 62
     3
 10
100.0
 20
740.0
 30
0.0
 11
1400.0
 21
740.0
 31
0.0
  0
LINE
  5
129
  8
GRID
 62
     1
 10
100.0
 20
750.0
 30
0.0
 11
1400.0
 21
750.0
 31
0.0
  0
TEXT
  5
12A
  8
GRID
 62
     1
 10
67.428571428571445
 20
744.0
 30
0.0
 40
12.0
  1
375
  7
TLCAD
 72
     2
 11
100.0
 21
750.0
 31
0.0
 73
     2
  0
LINE
  5
12B
  8
GRID
 62
     3
 10
100.0
 20
760.0
 30
0.0
 11
1400.0
 21
760.0
 31
0.0
  0
LINE
  5
12C
  8
GRID
 62
     3
 10
100.0
 20
770.0
 30
0.0
 11
1400.0
 21
770.0
 31
0.0
  0
LINE
  5
12D
  8
GRID
 62
     3
 10
100.0
 20
780.0
 30
0.0
 11
1400.0
 21
780.0
 31
0.0
  0
LINE
  5
12E
  8
GRID
 62
     3
 10
100.0
 20
790.0
 30
0.0
 11
1400.0
 21
790.0
 31
0.0
  0
LINE
  5
12F
  8
GRID
 62
     1
 10
100.0
 20
800.0
 30
0.0
 11
1400.0
 21
800.0
 31
0.0
  0
TEXT
  5
130
  8
GRID
 62
     1
 10
67.428571428571431
 20
794.0
 30
0.0
 40
12.0
  1
400
  7
TLCAD
 72
     2
 11
100.0
 21
800.0
 31
0.0
 73
     2
  0
TEXT
  5
131
  8
GRID
 62
     1
 10
64.0
 20
400.0
 30
0.0
 40
12.0
  1
Ðüµã¸ß²î(m)
 50
90.0
  7
TLCAD
  0
ENDSEC
  0
EOF
