  0
SECTION
  2
HEADER
  9
$ACADVER
  1
AC1009
  9
$INSBASE
 10
0.0
 20
0.0
 30
0.0
  9
$EXTMIN
 10
0.000000699289167
 20
0.0000000738340304
 30
0.0
  9
$EXTMAX
 10
390.09381569928911
 20
287.00000007383397
 30
0.0
  9
$LIMMIN
 10
0.0
 20
0.0
  9
$LIMMAX
 10
420.0
 20
297.0
  9
$ORTHOMODE
 70
     0
  9
$REGENMODE
 70
     1
  9
$FILLMODE
 70
     1
  9
$QTEXTMODE
 70
     0
  9
$MIRRTEXT
 70
     0
  9
$DRAGMODE
 70
     2
  9
$LTSCALE
 40
1.0
  9
$OSMODE
 70
    33
  9
$ATTMODE
 70
     1
  9
$TEXTSIZE
 40
2.5
  9
$TRACEWID
 40
1.0
  9
$TEXTSTYLE
  7
STANDARD
  9
$CLAYER
  8
0
  9
$CELTYPE
  6
BYLAYER
  9
$CECOLOR
 62
   256
  9
$DIMSCALE
 40
1.0
  9
$DIMASZ
 40
2.5
  9
$DIMEXO
 40
0.625
  9
$DIMDLI
 40
3.75
  9
$DIMRND
 40
0.0
  9
$DIMDLE
 40
0.0
  9
$DIMEXE
 40
1.25
  9
$DIMTP
 40
0.0
  9
$DIMTM
 40
0.0
  9
$DIMTXT
 40
2.5
  9
$DIMCEN
 40
2.5
  9
$DIMTSZ
 40
0.0
  9
$DIMTOL
 70
     0
  9
$DIMLIM
 70
     0
  9
$DIMTIH
 70
     0
  9
$DIMTOH
 70
     0
  9
$DIMSE1
 70
     0
  9
$DIMSE2
 70
     0
  9
$DIMTAD
 70
     1
  9
$DIMZIN
 70
     8
  9
$DIMBLK
  1

  9
$DIMASO
 70
     1
  9
$DIMSHO
 70
     1
  9
$DIMPOST
  1

  9
$DIMAPOST
  1

  9
$DIMALT
 70
     0
  9
$DIMALTD
 70
     3
  9
$DIMALTF
 40
0.03937007874016
  9
$DIMLFAC
 40
1.0
  9
$DIMTOFL
 70
     1
  9
$DIMTVP
 40
0.0
  9
$DIMTIX
 70
     0
  9
$DIMSOXD
 70
     0
  9
$DIMSAH
 70
     0
  9
$DIMBLK1
  1

  9
$DIMBLK2
  1

  9
$DIMSTYLE
  2
ISO-25
  9
$DIMCLRD
 70
     0
  9
$DIMCLRE
 70
     0
  9
$DIMCLRT
 70
     0
  9
$DIMTFAC
 40
1.0
  9
$DIMGAP
 40
0.625
  9
$LUNITS
 70
     2
  9
$LUPREC
 70
     4
  9
$SKETCHINC
 40
1.0
  9
$FILLETRAD
 40
0.0
  9
$AUNITS
 70
     0
  9
$AUPREC
 70
     0
  9
$MENU
  1
.
  9
$ELEVATION
 40
0.0
  9
$PELEVATION
 40
0.0
  9
$THICKNESS
 40
0.0
  9
$LIMCHECK
 70
     0
  9
$BLIPMODE
 70
     0
  9
$CHAMFERA
 40
0.0
  9
$CHAMFERB
 40
0.0
  9
$SKPOLY
 70
     0
  9
$TDCREATE
 40
2454910.604842477
  9
$TDUPDATE
 40
2455203.5146936462
  9
$TDINDWG
 40
0.0034763889
  9
$TDUSRTIMER
 40
0.0034762037
  9
$USRTIMER
 70
     1
  9
$ANGBASE
 50
0.0
  9
$ANGDIR
 70
     0
  9
$PDMODE
 70
     0
  9
$PDSIZE
 40
0.0
  9
$PLINEWID
 40
0.0
  9
$COORDS
 70
     1
  9
$SPLFRAME
 70
     0
  9
$SPLINETYPE
 70
     6
  9
$SPLINESEGS
 70
     8
  9
$ATTDIA
 70
     0
  9
$ATTREQ
 70
     1
  9
$HANDLING
 70
     1
  9
$HANDSEED
  5
33E
  9
$SURFTAB1
 70
     6
  9
$SURFTAB2
 70
     6
  9
$SURFTYPE
 70
     6
  9
$SURFU
 70
     6
  9
$SURFV
 70
     6
  9
$UCSNAME
  2

  9
$UCSORG
 10
0.0
 20
0.0
 30
0.0
  9
$UCSXDIR
 10
1.0
 20
0.0
 30
0.0
  9
$UCSYDIR
 10
0.0
 20
1.0
 30
0.0
  9
$PUCSNAME
  2

  9
$PUCSORG
 10
0.0
 20
0.0
 30
0.0
  9
$PUCSXDIR
 10
1.0
 20
0.0
 30
0.0
  9
$PUCSYDIR
 10
0.0
 20
1.0
 30
0.0
  9
$USERI1
 70
     0
  9
$USERI2
 70
     0
  9
$USERI3
 70
     0
  9
$USERI4
 70
     0
  9
$USERI5
 70
     0
  9
$USERR1
 40
0.0
  9
$USERR2
 40
0.0
  9
$USERR3
 40
0.0
  9
$USERR4
 40
0.0
  9
$USERR5
 40
0.0
  9
$WORLDVIEW
 70
     1
  9
$SHADEDGE
 70
     3
  9
$SHADEDIF
 70
    70
  9
$TILEMODE
 70
     1
  9
$MAXACTVP
 70
    64
  9
$PLIMCHECK
 70
     0
  9
$PEXTMIN
 10
0.0
 20
0.0
 30
0.0
  9
$PEXTMAX
 10
0.0
 20
0.0
 30
0.0
  9
$PLIMMIN
 10
0.0
 20
0.0
  9
$PLIMMAX
 10
12.0
 20
9.0
  9
$UNITMODE
 70
     0
  9
$VISRETAIN
 70
     1
  9
$PLINEGEN
 70
     0
  9
$PSLTSCALE
 70
     1
  0
ENDSEC
  0
SECTION
  2
TABLES
  0
TABLE
  2
VPORT
 70
     2
  0
VPORT
  2
*ACTIVE
 70
     0
 10
0.0
 20
0.0
 11
1.0
 21
1.0
 12
114.2301774069504
 22
58.230292558911131
 13
0.0
 23
0.0
 14
10.0
 24
10.0
 15
10.0
 25
10.0
 16
0.0
 26
0.0
 36
1.0
 17
0.0
 27
0.0
 37
0.0
 40
88.767383772663294
 41
2.1268533772652378
 42
50.0
 43
0.0
 44
0.0
 50
0.0
 51
0.0
 71
     0
 72
  1000
 73
     1
 74
     3
 75
     0
 76
     0
 77
     0
 78
     0
  0
ENDTAB
  0
TABLE
  2
LTYPE
 70
     1
  0
LTYPE
  2
CONTINUOUS
 70
     0
  3
Solid line
 72
    65
 73
     0
 40
0.0
  0
ENDTAB
  0
TABLE
  2
LAYER
 70
     2
  0
LAYER
  2
0
 70
     0
 62
     7
  6
CONTINUOUS
  0
LAYER
  2
FRAME
 70
     0
 62
     7
  6
CONTINUOUS
  0
ENDTAB
  0
TABLE
  2
STYLE
 70
     2
  0
STYLE
  2
STANDARD
 70
     0
 40
0.0
 41
1.0
 50
0.0
 71
     0
 42
2.5
  3
txt
  4
gbcbig.shx
  0
STYLE
  2
TLCAD
 70
     0
 40
0.0
 41
1.0
 50
0.0
 71
     0
 42
0.3
  3
romanc.shx
  4
hztxt.shx
  0
ENDTAB
  0
TABLE
  2
VIEW
 70
     0
  0
ENDTAB
  0
TABLE
  2
UCS
 70
     0
  0
ENDTAB
  0
TABLE
  2
APPID
 70
     2
  0
APPID
  2
ACAD
 70
     0
  0
APPID
  2
ACAD_PSEXT
 70
     0
  0
ENDTAB
  0
TABLE
  2
DIMSTYLE
 70
     2
  0
DIMSTYLE
  2
ISO-25
 70
     0
  3

  4

  5

  6

  7

 40
1.0
 41
2.5
 42
0.625
 43
3.75
 44
1.25
 45
0.0
 46
0.0
 47
0.0
 48
0.0
140
2.5
141
2.5
142
0.0
143
0.03937007874016
144
1.0
145
0.0
146
1.0
147
0.625
 71
     0
 72
     0
 73
     0
 74
     0
 75
     0
 76
     0
 77
     1
 78
     8
170
     0
171
     3
172
     1
173
     0
174
     0
175
     0
176
     0
177
     0
178
     0
  0
DIMSTYLE
  2
STANDARD
 70
     0
  3

  4

  5

  6

  7

 40
1.0
 41
0.18
 42
0.0625
 43
0.38
 44
0.18
 45
0.0
 46
0.0
 47
0.0
 48
0.0
140
0.18
141
0.09
142
0.0
143
25.399999999999999
144
1.0
145
0.0
146
1.0
147
0.09
 71
     0
 72
     0
 73
     1
 74
     1
 75
     0
 76
     0
 77
     0
 78
     0
170
     0
171
     2
172
     0
173
     0
174
     0
175
     0
176
     0
177
     0
178
     0
  0
ENDTAB
  0
ENDSEC
  0
SECTION
  2
BLOCKS
  0
BLOCK
  8
0
  2
$MODEL_SPACE
 70
     0
 10
0.0
 20
0.0
 30
0.0
  3
$MODEL_SPACE
  1

  0
ENDBLK
  5
313
  8
0
  0
BLOCK
 67
     1
  8
0
  2
$PAPER_SPACE
 70
     0
 10
0.0
 20
0.0
 30
0.0
  3
$PAPER_SPACE
  1

  0
ENDBLK
  5
30F
 67
     1
  8
0
  0
ENDSEC
  0
SECTION
  2
ENTITIES
  0
LINE
  5
1E7
  8
0
 10
161.05760426363801
 20
90.06588648043234
 30
0.0
 11
161.05760426363801
 21
30.065886480432361
 31
0.0
  0
LINE
  5
1E8
  8
0
 10
115.0938146992891
 20
36.00000007383403
 30
0.0
 11
192.09381469928911
 21
36.00000007383403
 31
0.0
  0
LINE
  5
1E9
  8
0
 10
115.0938146992891
 20
42.00000007383403
 30
0.0
 11
192.09381469928911
 21
42.00000007383403
 31
0.0
  0
LINE
  5
1EA
  8
0
 10
115.0938146992891
 20
48.00000007383403
 30
0.0
 11
192.09381469928911
 21
48.00000007383403
 31
0.0
  0
LINE
  5
1EB
  8
0
 10
115.0938146992891
 20
54.00000007383403
 30
0.0
 11
192.09381469928911
 21
54.00000007383403
 31
0.0
  0
LINE
  5
1EC
  8
0
 10
115.0938146992891
 20
60.00000007383403
 30
0.0
 11
192.09381469928911
 21
60.00000007383403
 31
0.0
  0
LINE
  5
1ED
  8
0
 10
115.0938146992891
 20
66.00000007383403
 30
0.0
 11
192.09381469928911
 21
66.00000007383403
 31
0.0
  0
LINE
  5
1EE
  8
0
 10
115.0938146992891
 20
72.00000007383403
 30
0.0
 11
192.09381469928911
 21
72.00000007383403
 31
0.0
  0
LINE
  5
1EF
  8
0
 10
115.0938146992891
 20
78.00000007383403
 30
0.0
 11
192.09381469928911
 21
78.00000007383403
 31
0.0
  0
LINE
  5
1F0
  8
0
 10
115.0938146992891
 20
84.000000073834016
 30
0.0
 11
192.09381469928911
 21
84.000000073834016
 31
0.0
  0
LINE
  5
1F1
  8
0
 10
93.093814699289155
 20
84.000000073834016
 30
0.0
 11
93.093814699289155
 21
0.0000000738340304
 31
0.0
  0
LINE
  5
1F2
  8
0
 10
82.093814699289169
 20
84.000000073834016
 30
0.0
 11
82.093814699289169
 21
0.0000000738340304
 31
0.0
  0
LINE
  5
1F3
  8
0
 10
71.093814699289169
 20
90.000000073834045
 30
0.0
 11
71.093814699289169
 21
0.0000000738340304
 31
0.0
  0
LINE
  5
1F4
  8
0
 10
60.093814699289169
 20
90.000000073834045
 30
0.0
 11
60.093814699289169
 21
0.0000000738340304
 31
0.0
  0
LINE
  5
1F5
  8
0
 10
49.093814699289162
 20
90.000000073834045
 30
0.0
 11
49.093814699289162
 21
0.0000000738340304
 31
0.0
  0
LINE
  5
1F6
  8
0
 10
38.093814699289183
 20
90.000000073834045
 30
0.0
 11
38.093814699289183
 21
0.0000000738340304
 31
0.0
  0
LINE
  5
1F7
  8
0
 10
16.093814699289162
 20
90.000000073834045
 30
0.0
 11
16.093814699289162
 21
0.0000000738340304
 31
0.0
  0
LINE
  5
1F8
  8
0
 10
0.0938146992891689
 20
18.00000007383403
 30
0.0
 11
104.0938146992891
 21
18.00000007383403
 31
0.0
  0
LINE
  5
1F9
  8
0
 10
0.0938146992891689
 20
24.000000073834041
 30
0.0
 11
104.0938146992891
 21
24.000000073834041
 31
0.0
  0
LINE
  5
1FA
  8
0
 10
0.0938146992891689
 20
30.000000073834041
 30
0.0
 11
104.0938146992891
 21
30.000000073834041
 31
0.0
  0
LINE
  5
1FB
  8
0
 10
0.0938146992891689
 20
36.00000007383403
 30
0.0
 11
104.0938146992891
 21
36.00000007383403
 31
0.0
  0
LINE
  5
1FC
  8
0
 10
0.0938146992891689
 20
42.00000007383403
 30
0.0
 11
104.0938146992891
 21
42.00000007383403
 31
0.0
  0
LINE
  5
1FD
  8
0
 10
0.0938146992891689
 20
48.00000007383403
 30
0.0
 11
104.0938146992891
 21
48.00000007383403
 31
0.0
  0
LINE
  5
1FE
  8
0
 10
0.0938146992891689
 20
54.00000007383403
 30
0.0
 11
104.0938146992891
 21
54.00000007383403
 31
0.0
  0
LINE
  5
1FF
  8
0
 10
0.0938146992891689
 20
60.00000007383403
 30
0.0
 11
104.0938146992891
 21
60.00000007383403
 31
0.0
  0
LINE
  5
200
  8
0
 10
0.0938146992891689
 20
66.00000007383403
 30
0.0
 11
104.0938146992891
 21
66.00000007383403
 31
0.0
  0
LINE
  5
201
  8
0
 10
0.0938146992891689
 20
72.00000007383403
 30
0.0
 11
104.0938146992891
 21
72.00000007383403
 31
0.0
  0
LINE
  5
202
  8
0
 10
0.0938146992891689
 20
78.00000007383403
 30
0.0
 11
104.0938146992891
 21
78.00000007383403
 31
0.0
  0
LINE
  5
203
  8
0
 10
71.093814699289169
 20
84.000000073834016
 30
0.0
 11
104.0938146992891
 21
84.000000073834016
 31
0.0
  0
LINE
  5
204
  8
0
 10
379.09381469928923
 20
185.000000073834
 30
0.0
 11
379.09381469928923
 21
101.000000073834
 31
0.0
  0
LINE
  5
205
  8
0
 10
368.09381469928923
 20
185.000000073834
 30
0.0
 11
368.09381469928923
 21
101.000000073834
 31
0.0
  0
LINE
  5
206
  8
0
 10
357.09381469928923
 20
185.000000073834
 30
0.0
 11
357.09381469928923
 21
101.000000073834
 31
0.0
  0
LINE
  5
207
  8
0
 10
346.09381469928923
 20
185.000000073834
 30
0.0
 11
346.09381469928923
 21
101.000000073834
 31
0.0
  0
LINE
  5
208
  8
0
 10
335.09381469928923
 20
185.000000073834
 30
0.0
 11
335.09381469928923
 21
101.000000073834
 31
0.0
  0
LINE
  5
209
  8
0
 10
324.09381469928923
 20
185.000000073834
 30
0.0
 11
324.09381469928923
 21
101.000000073834
 31
0.0
  0
LINE
  5
20A
  8
0
 10
313.09381469928923
 20
185.000000073834
 30
0.0
 11
313.09381469928923
 21
101.000000073834
 31
0.0
  0
LINE
  5
20B
  8
0
 10
302.09381469928923
 20
185.000000073834
 30
0.0
 11
302.09381469928923
 21
101.000000073834
 31
0.0
  0
LINE
  5
20C
  8
0
 10
291.09381469928923
 20
185.000000073834
 30
0.0
 11
291.09381469928923
 21
101.000000073834
 31
0.0
  0
LINE
  5
20D
  8
0
 10
280.09381469928923
 20
185.000000073834
 30
0.0
 11
280.09381469928923
 21
101.000000073834
 31
0.0
  0
LINE
  5
20E
  8
0
 10
269.09381469928923
 20
185.000000073834
 30
0.0
 11
269.09381469928923
 21
101.000000073834
 31
0.0
  0
LINE
  5
20F
  8
0
 10
258.09381469928923
 20
185.000000073834
 30
0.0
 11
258.09381469928923
 21
101.000000073834
 31
0.0
  0
LINE
  5
210
  8
0
 10
247.0938146992892
 20
185.000000073834
 30
0.0
 11
247.0938146992892
 21
101.000000073834
 31
0.0
  0
LINE
  5
211
  8
0
 10
236.0938146992892
 20
185.000000073834
 30
0.0
 11
236.0938146992892
 21
101.000000073834
 31
0.0
  0
LINE
  5
212
  8
0
 10
225.0938146992892
 20
185.000000073834
 30
0.0
 11
225.0938146992892
 21
101.000000073834
 31
0.0
  0
LINE
  5
213
  8
0
 10
214.0938146992892
 20
185.000000073834
 30
0.0
 11
214.0938146992892
 21
101.000000073834
 31
0.0
  0
LINE
  5
214
  8
0
 10
203.09381469928911
 20
185.000000073834
 30
0.0
 11
203.09381469928911
 21
101.000000073834
 31
0.0
  0
LINE
  5
215
  8
0
 10
192.09381469928911
 20
185.000000073834
 30
0.0
 11
192.09381469928911
 21
101.000000073834
 31
0.0
  0
LINE
  5
216
  8
0
 10
181.09381469928911
 20
185.000000073834
 30
0.0
 11
181.09381469928911
 21
101.000000073834
 31
0.0
  0
LINE
  5
217
  8
0
 10
170.09381469928911
 20
185.000000073834
 30
0.0
 11
170.09381469928911
 21
101.000000073834
 31
0.0
  0
LINE
  5
218
  8
0
 10
159.0938146992892
 20
185.000000073834
 30
0.0
 11
159.0938146992892
 21
101.000000073834
 31
0.0
  0
LINE
  5
219
  8
0
 10
148.09381469928911
 20
185.000000073834
 30
0.0
 11
148.09381469928911
 21
101.000000073834
 31
0.0
  0
LINE
  5
21A
  8
0
 10
137.09381469928911
 20
185.000000073834
 30
0.0
 11
137.09381469928911
 21
101.000000073834
 31
0.0
  0
LINE
  5
21B
  8
0
 10
126.0938146992891
 20
185.000000073834
 30
0.0
 11
126.0938146992891
 21
101.000000073834
 31
0.0
  0
LINE
  5
21C
  8
0
 10
115.0938146992891
 20
185.000000073834
 30
0.0
 11
115.0938146992891
 21
101.000000073834
 31
0.0
  0
LINE
  5
21D
  8
0
 10
104.0938146992891
 20
185.000000073834
 30
0.0
 11
104.0938146992891
 21
101.000000073834
 31
0.0
  0
LINE
  5
21E
  8
0
 10
93.093814699289155
 20
185.000000073834
 30
0.0
 11
93.093814699289155
 21
101.000000073834
 31
0.0
  0
LINE
  5
21F
  8
0
 10
82.093814699289169
 20
185.000000073834
 30
0.0
 11
82.093814699289169
 21
101.000000073834
 31
0.0
  0
LINE
  5
220
  8
0
 10
71.093814699289169
 20
185.000000073834
 30
0.0
 11
71.093814699289169
 21
101.000000073834
 31
0.0
  0
LINE
  5
221
  8
0
 10
60.093814699289169
 20
191.000000073834
 30
0.0
 11
60.093814699289169
 21
101.000000073834
 31
0.0
  0
LINE
  5
222
  8
0
 10
38.093814699289183
 20
191.000000073834
 30
0.0
 11
38.093814699289183
 21
101.000000073834
 31
0.0
  0
LINE
  5
223
  8
0
 10
16.093814699289162
 20
191.000000073834
 30
0.0
 11
16.093814699289162
 21
101.000000073834
 31
0.0
  0
LINE
  5
224
  8
0
 10
38.093814699289183
 20
107.000000073834
 30
0.0
 11
390.09381469928923
 21
107.000000073834
 31
0.0
  0
LINE
  5
225
  8
0
 10
0.0938146992891689
 20
113.000000073834
 30
0.0
 11
390.09381469928923
 21
113.000000073834
 31
0.0
  0
LINE
  5
226
  8
0
 10
38.093814699289183
 20
119.000000073834
 30
0.0
 11
390.09381469928923
 21
119.000000073834
 31
0.0
  0
LINE
  5
227
  8
0
 10
0.0938146992891689
 20
125.000000073834
 30
0.0
 11
390.09381469928923
 21
125.000000073834
 31
0.0
  0
LINE
  5
228
  8
0
 10
38.093814699289183
 20
131.000000073834
 30
0.0
 11
390.09381469928923
 21
131.000000073834
 31
0.0
  0
LINE
  5
229
  8
0
 10
0.0938146992891689
 20
137.000000073834
 30
0.0
 11
390.09381469928923
 21
137.000000073834
 31
0.0
  0
LINE
  5
22A
  8
0
 10
0.0938146992891689
 20
143.000000073834
 30
0.0
 11
390.09381469928923
 21
143.000000073834
 31
0.0
  0
LINE
  5
22B
  8
0
 10
0.0938146992891689
 20
149.000000073834
 30
0.0
 11
390.09381469928923
 21
149.000000073834
 31
0.0
  0
LINE
  5
22C
  8
0
 10
0.0938146992891689
 20
155.000000073834
 30
0.0
 11
390.09381469928923
 21
155.000000073834
 31
0.0
  0
LINE
  5
22D
  8
0
 10
0.0938146992891689
 20
161.000000073834
 30
0.0
 11
390.09381469928923
 21
161.000000073834
 31
0.0
  0
LINE
  5
22E
  8
0
 10
0.0938146992891689
 20
167.000000073834
 30
0.0
 11
390.09381469928923
 21
167.000000073834
 31
0.0
  0
LINE
  5
22F
  8
0
 10
0.0938146992891689
 20
173.000000073834
 30
0.0
 11
390.09381469928923
 21
173.000000073834
 31
0.0
  0
LINE
  5
230
  8
0
 10
0.0938146992891689
 20
179.000000073834
 30
0.0
 11
390.09381469928923
 21
179.000000073834
 31
0.0
  0
LINE
  5
231
  8
0
 10
60.093814699289169
 20
185.000000073834
 30
0.0
 11
390.09381469928923
 21
185.000000073834
 31
0.0
  0
LINE
  5
232
  8
0
 10
379.09381469928923
 20
281.00000007383409
 30
0.0
 11
379.09381469928923
 21
197.000000073834
 31
0.0
  0
LINE
  5
233
  8
0
 10
368.09381469928923
 20
281.00000007383409
 30
0.0
 11
368.09381469928923
 21
197.000000073834
 31
0.0
  0
LINE
  5
234
  8
0
 10
357.09381469928923
 20
281.00000007383409
 30
0.0
 11
357.09381469928923
 21
197.000000073834
 31
0.0
  0
LINE
  5
235
  8
0
 10
346.09381469928923
 20
281.00000007383409
 30
0.0
 11
346.09381469928923
 21
197.000000073834
 31
0.0
  0
LINE
  5
236
  8
0
 10
335.09381469928923
 20
281.00000007383409
 30
0.0
 11
335.09381469928923
 21
197.000000073834
 31
0.0
  0
LINE
  5
237
  8
0
 10
324.09381469928923
 20
281.00000007383409
 30
0.0
 11
324.09381469928923
 21
197.000000073834
 31
0.0
  0
LINE
  5
238
  8
0
 10
313.09381469928923
 20
281.00000007383409
 30
0.0
 11
313.09381469928923
 21
197.000000073834
 31
0.0
  0
LINE
  5
239
  8
0
 10
302.09381469928923
 20
281.00000007383409
 30
0.0
 11
302.09381469928923
 21
197.000000073834
 31
0.0
  0
LINE
  5
23A
  8
0
 10
291.09381469928923
 20
281.00000007383409
 30
0.0
 11
291.09381469928923
 21
197.000000073834
 31
0.0
  0
LINE
  5
23B
  8
0
 10
280.09381469928923
 20
281.00000007383409
 30
0.0
 11
280.09381469928923
 21
197.000000073834
 31
0.0
  0
LINE
  5
23C
  8
0
 10
269.09381469928923
 20
281.00000007383409
 30
0.0
 11
269.09381469928923
 21
197.000000073834
 31
0.0
  0
LINE
  5
23D
  8
0
 10
258.09381469928923
 20
281.00000007383409
 30
0.0
 11
258.09381469928923
 21
197.000000073834
 31
0.0
  0
LINE
  5
23E
  8
0
 10
247.0938146992892
 20
281.00000007383409
 30
0.0
 11
247.0938146992892
 21
197.000000073834
 31
0.0
  0
LINE
  5
23F
  8
0
 10
236.0938146992892
 20
281.00000007383409
 30
0.0
 11
236.0938146992892
 21
197.000000073834
 31
0.0
  0
LINE
  5
240
  8
0
 10
225.0938146992892
 20
281.00000007383409
 30
0.0
 11
225.0938146992892
 21
197.000000073834
 31
0.0
  0
LINE
  5
241
  8
0
 10
214.0938146992892
 20
281.00000007383409
 30
0.0
 11
214.0938146992892
 21
197.000000073834
 31
0.0
  0
LINE
  5
242
  8
0
 10
203.09381469928911
 20
281.00000007383409
 30
0.0
 11
203.09381469928911
 21
197.000000073834
 31
0.0
  0
LINE
  5
243
  8
0
 10
192.09381469928911
 20
281.00000007383409
 30
0.0
 11
192.09381469928911
 21
197.000000073834
 31
0.0
  0
LINE
  5
244
  8
0
 10
181.09381469928911
 20
281.00000007383409
 30
0.0
 11
181.09381469928911
 21
197.000000073834
 31
0.0
  0
LINE
  5
245
  8
0
 10
170.09381469928911
 20
281.00000007383409
 30
0.0
 11
170.09381469928911
 21
197.000000073834
 31
0.0
  0
LINE
  5
246
  8
0
 10
159.0938146992892
 20
281.00000007383409
 30
0.0
 11
159.0938146992892
 21
197.000000073834
 31
0.0
  0
LINE
  5
247
  8
0
 10
148.09381469928911
 20
281.00000007383409
 30
0.0
 11
148.09381469928911
 21
197.000000073834
 31
0.0
  0
LINE
  5
248
  8
0
 10
137.09381469928911
 20
281.00000007383409
 30
0.0
 11
137.09381469928911
 21
197.000000073834
 31
0.0
  0
LINE
  5
249
  8
0
 10
126.0938146992891
 20
281.00000007383409
 30
0.0
 11
126.0938146992891
 21
197.000000073834
 31
0.0
  0
LINE
  5
24A
  8
0
 10
115.0938146992891
 20
281.00000007383409
 30
0.0
 11
115.0938146992891
 21
197.000000073834
 31
0.0
  0
LINE
  5
24B
  8
0
 10
104.0938146992891
 20
281.00000007383409
 30
0.0
 11
104.0938146992891
 21
197.000000073834
 31
0.0
  0
LINE
  5
24C
  8
0
 10
93.093814699289155
 20
281.00000007383409
 30
0.0
 11
93.093814699289155
 21
197.000000073834
 31
0.0
  0
LINE
  5
24D
  8
0
 10
82.093814699289169
 20
281.00000007383409
 30
0.0
 11
82.093814699289169
 21
197.000000073834
 31
0.0
  0
LINE
  5
24E
  8
0
 10
71.093814699289169
 20
281.00000007383409
 30
0.0
 11
71.093814699289169
 21
197.000000073834
 31
0.0
  0
LINE
  5
24F
  8
0
 10
60.093814699289169
 20
287.00000007383397
 30
0.0
 11
60.093814699289169
 21
197.000000073834
 31
0.0
  0
LINE
  5
250
  8
0
 10
38.093814699289183
 20
287.00000007383397
 30
0.0
 11
38.093814699289183
 21
197.000000073834
 31
0.0
  0
LINE
  5
251
  8
0
 10
16.093814699289162
 20
287.00000007383397
 30
0.0
 11
16.093814699289162
 21
197.000000073834
 31
0.0
  0
LINE
  5
252
  8
0
 10
38.093814699289183
 20
203.000000073834
 30
0.0
 11
390.09381469928923
 21
203.000000073834
 31
0.0
  0
LINE
  5
253
  8
0
 10
0.0938146992891689
 20
209.000000073834
 30
0.0
 11
390.09381469928923
 21
209.000000073834
 31
0.0
  0
LINE
  5
254
  8
0
 10
38.093814699289183
 20
215.000000073834
 30
0.0
 11
390.09381469928923
 21
215.000000073834
 31
0.0
  0
LINE
  5
255
  8
0
 10
0.0938146992891689
 20
221.000000073834
 30
0.0
 11
390.09381469928923
 21
221.000000073834
 31
0.0
  0
LINE
  5
256
  8
0
 10
38.093814699289183
 20
227.000000073834
 30
0.0
 11
390.09381469928923
 21
227.000000073834
 31
0.0
  0
LINE
  5
257
  8
0
 10
0.0938146992891689
 20
233.00000007383409
 30
0.0
 11
390.09381469928923
 21
233.00000007383409
 31
0.0
  0
LINE
  5
258
  8
0
 10
0.0938146992891689
 20
239.000000073834
 30
0.0
 11
390.09381469928923
 21
239.000000073834
 31
0.0
  0
LINE
  5
259
  8
0
 10
0.0938146992891689
 20
245.000000073834
 30
0.0
 11
390.09381469928923
 21
245.000000073834
 31
0.0
  0
LINE
  5
25A
  8
0
 10
0.0938146992891689
 20
251.000000073834
 30
0.0
 11
390.09381469928923
 21
251.000000073834
 31
0.0
  0
LINE
  5
25B
  8
0
 10
0.0938146992891689
 20
257.00000007383397
 30
0.0
 11
390.09381469928923
 21
257.00000007383397
 31
0.0
  0
LINE
  5
25C
  8
0
 10
0.0938146992891689
 20
263.00000007383397
 30
0.0
 11
390.09381469928923
 21
263.00000007383397
 31
0.0
  0
LINE
  5
25D
  8
0
 10
0.0938146992891689
 20
269.00000007383397
 30
0.0
 11
390.09381469928923
 21
269.00000007383397
 31
0.0
  0
LINE
  5
25E
  8
0
 10
0.0938146992891689
 20
275.00000007383397
 30
0.0
 11
390.09381469928923
 21
275.00000007383397
 31
0.0
  0
LINE
  5
25F
  8
0
 10
60.093814699289169
 20
281.00000007383409
 30
0.0
 11
390.09381469928923
 21
281.00000007383409
 31
0.0
  0
LINE
  5
260
  8
0
 10
0.000000699289167
 20
11.87970207383403
 30
0.0
 11
104.0000006992892
 21
11.87970207383403
 31
0.0
  0
LINE
  5
261
  8
0
 10
0.0938146992891689
 20
6.0126130738340304
 30
0.0
 11
104.0938146992891
 21
6.0126130738340304
 31
0.0
  0
LINE
  5
262
  8
FRAME
 10
0.0938146992891689
 20
287.00000007383397
 30
0.0
 11
390.09381469928923
 21
287.00000007383397
 31
0.0
  0
LINE
  5
263
  8
FRAME
 10
390.09381469928923
 20
287.00000007383397
 30
0.0
 11
390.09381569928911
 21
0.0000010738340306
 31
0.0
  0
LINE
  5
264
  8
FRAME
 10
0.0938146992891689
 20
0.0000010738340306
 30
0.0
 11
0.0938146992891689
 21
287.00000007383397
 31
0.0
  0
LINE
  5
265
  8
FRAME
 10
0.0938146992891689
 20
191.000000073834
 30
0.0
 11
390.09381469928923
 21
191.000000073834
 31
0.0
  0
LINE
  5
266
  8
FRAME
 10
0.0938146992891689
 20
101.000000073834
 30
0.0
 11
390.09381469928923
 21
101.000000073834
 31
0.0
  0
LINE
  5
267
  8
FRAME
 10
0.0938146992891689
 20
90.000000073834045
 30
0.0
 11
104.0938146992891
 21
90.000000073834045
 31
0.0
  0
LINE
  5
268
  8
FRAME
 10
104.0938146992891
 20
90.000000073834045
 30
0.0
 11
104.0938146992891
 21
0.0000010738340306
 31
0.0
  0
LINE
  5
269
  8
FRAME
 10
115.0938146992891
 20
90.000000073834045
 30
0.0
 11
192.09381469928911
 21
90.000000073834045
 31
0.0
  0
LINE
  5
26A
  8
FRAME
 10
192.09381469928911
 20
90.000000073834045
 30
0.0
 11
192.09381469928911
 21
30.000000073834041
 31
0.0
  0
LINE
  5
26B
  8
FRAME
 10
192.09381469928911
 20
30.000000073834041
 30
0.0
 11
115.0938146992891
 21
30.000000073834041
 31
0.0
  0
LINE
  5
26C
  8
FRAME
 10
115.0938146992891
 20
30.000000073834041
 30
0.0
 11
115.0938146992891
 21
90.000000073834045
 31
0.0
  0
LINE
  5
26D
  8
FRAME
 10
0.0938146992891689
 20
0.0000010738340306
 30
0.0
 11
104.0938146992891
 21
0.0000010738340306
 31
0.0
  0
LINE
  5
26E
  8
FRAME
 10
0.0938146992891689
 20
197.000000073834
 30
0.0
 11
390.09381469928923
 21
197.000000073834
 31
0.0
  0
TEXT
  5
26F
  8
0
 10
245.09381419718471
 20
84.000000291708616
 30
0.0
 40
4.0
  1
注:安装张力已考虑降温   %%DC
  7
TLCAD
  0
TEXT
  5
270
  8
0
 10
117.0938141971845
 20
49.500000291708602
 30
0.0
 40
3.0
  1
试验保证拉断力
  7
TLCAD
  0
TEXT
  5
271
  8
0
 10
151.37952848289891
 20
43.500000291708602
 30
0.0
 40
3.0
  1
(N)
  7
TLCAD
 72
     2
 11
158.0938141971846
 21
43.500000291708602
 31
0.0
  0
TEXT
  5
272
  8
0
 10
151.37952848289891
 20
49.500000291708602
 30
0.0
 40
3.0
  1
(N)
  7
TLCAD
 72
     2
 11
158.0938141971846
 21
49.500000291708602
 31
0.0
  0
TEXT
  5
273
  8
0
 10
137.37952848289879
 20
55.500000291708602
 30
0.0
 40
3.0
  1
(E-6/%%DC)
  7
TLCAD
 72
     2
 11
158.0938141971846
 21
55.500000291708602
 31
0.0
  0
TEXT
  5
274
  8
0
 10
155.87952848289891
 20
64.000000291708602
 30
0.0
 40
1.5
  1
2
  7
TLCAD
 72
     2
 11
157.09381419718471
 21
64.000000291708602
 31
0.0
  0
TEXT
  5
275
  8
0
 10
138.80809991147029
 20
61.500000291708602
 30
0.0
 40
3.0
  1
(N/mm)
  7
TLCAD
 72
     2
 11
158.0938141971846
 21
61.500000291708602
 31
0.0
  0
TEXT
  5
276
  8
0
 10
141.0938141971846
 20
67.500000291708602
 30
0.0
 40
3.0
  1
(kg/m)
  7
TLCAD
 72
     2
 11
158.0938141971846
 21
67.500000291708602
 31
0.0
  0
TEXT
  5
277
  8
0
 10
145.23667134004171
 20
73.500000291708616
 30
0.0
 40
3.0
  1
(mm)
  7
TLCAD
 72
     2
 11
158.0938141971846
 21
73.500000291708616
 31
0.0
  0
TEXT
  5
278
  8
0
 10
155.87952848289891
 20
82.000000291708616
 30
0.0
 40
1.5
  1
2
  7
TLCAD
 72
     2
 11
157.09381419718471
 21
82.000000291708616
 31
0.0
  0
TEXT
  5
279
  8
0
 10
145.23667134004171
 20
79.500000291708616
 30
0.0
 40
3.0
  1
(mm)
  7
TLCAD
 72
     2
 11
158.0938141971846
 21
79.500000291708616
 31
0.0
  0
TEXT
  5
27A
  8
0
 10
117.0938141971845
 20
31.500000291708599
 30
0.0
 40
3.0
  1
平均运行张力安全系数
  7
TLCAD
  0
TEXT
  5
27B
  8
0
 10
117.0938141971845
 20
37.500000291708602
 30
0.0
 40
3.0
  1
最大使用张力安全系数
  7
TLCAD
  0
TEXT
  5
27C
  8
0
 10
117.0938141971845
 20
43.500000291708602
 30
0.0
 40
3.0
  1
最大使用张力
  7
TLCAD
  0
TEXT
  5
27D
  8
0
 10
117.0938141971845
 20
55.500000291708602
 30
0.0
 40
3.0
  1
温度线膨胀系数
  7
TLCAD
  0
TEXT
  5
27E
  8
0
 10
117.0938141971845
 20
61.500000291708602
 30
0.0
 40
3.0
  1
弹性系数
  7
TLCAD
  0
TEXT
  5
27F
  8
0
 10
117.0938141971845
 20
67.500000291708602
 30
0.0
 40
3.0
  1
单位质量
  7
TLCAD
  0
TEXT
  5
280
  8
0
 10
117.0938141971845
 20
73.500000291708616
 30
0.0
 40
3.0
  1
外径
  7
TLCAD
  0
TEXT
  5
281
  8
0
 10
117.0938141971845
 20
79.500000291708616
 30
0.0
 40
3.0
  1
综合截面
  7
TLCAD
  0
TEXT
  5
282
  8
0
 10
117.0938141971845
 20
85.500000291708616
 30
0.0
 40
3.0
  1
电线牌号
  7
TLCAD
  0
TEXT
  5
283
  8
0
 10
96.034759079074476
 20
79.500000291708616
 30
0.0
 40
3.0
  1
综合
  7
TLCAD
 72
     1
 11
99.093814197184713
 21
79.500000291708616
 31
0.0
  0
TEXT
  5
284
  8
0
 10
85.152869315294936
 20
79.500000291708616
 30
0.0
 40
3.0
  1
风压
  7
TLCAD
 72
     1
 11
88.093814197184685
 21
79.500000291708616
 31
0.0
  0
TEXT
  5
285
  8
0
 10
74.176491362538997
 20
79.500000291708616
 30
0.0
 40
3.0
  1
重力
  7
TLCAD
 72
     1
 11
77.09381419718467
 21
79.500000291708616
 31
0.0
  0
TEXT
  5
286
  8
0
 10
88.046195149565648
 20
85.500000291708616
 30
0.0
 40
2.0
  1
(N/m)
  7
TLCAD
 72
     1
 11
93.093814197184685
 21
85.500000291708616
 31
0.0
  0
TEXT
  5
287
  8
0
 10
79.152869315294893
 20
85.500000291708616
 30
0.0
 40
3.0
  1
荷载
  7
TLCAD
 72
     1
 11
82.093814197184656
 21
85.500000291708616
 31
0.0
  0
TEXT
  5
288
  8
0
 10
61.617623720994182
 20
79.500000291708616
 30
0.0
 40
2.0
  1
(mm)
  7
TLCAD
 72
     1
 11
66.093814197184656
 21
79.500000291708616
 31
0.0
  0
TEXT
  5
289
  8
0
 10
63.117436244428752
 20
85.500000291708616
 30
0.0
 40
3.0
  1
冰厚
  7
TLCAD
 72
     1
 11
66.093814197184656
 21
85.500000291708616
 31
0.0
  0
TEXT
  5
28A
  8
0
 10
50.33190943527989
 20
79.500000291708616
 30
0.0
 40
2.0
  1
(m/s)
  7
TLCAD
 72
     1
 11
55.093814197184649
 21
79.500000291708616
 31
0.0
  0
TEXT
  5
28B
  8
0
 10
52.093814197184642
 20
85.500000291708616
 30
0.0
 40
3.0
  1
风速
  7
TLCAD
 72
     1
 11
55.093814197184649
 21
85.500000291708616
 31
0.0
  0
TEXT
  5
28C
  8
0
 10
41.236671340041788
 20
79.500000291708616
 30
0.0
 40
2.0
  1
(%%dC)
  7
TLCAD
 72
     1
 11
44.093814197184649
 21
79.500000291708616
 31
0.0
  0
TEXT
  5
28D
  8
0
 10
41.082003173562597
 20
85.500000291708616
 30
0.0
 40
3.0
  1
气温
  7
TLCAD
 72
     1
 11
44.093814197184649
 21
85.500000291708616
 31
0.0
  0
TEXT
  5
28E
  8
0
 10
21.09381419718466
 20
82.500000291708616
 30
0.0
 40
3.0
  1
气象名称
  7
TLCAD
 72
     1
 11
27.09381419718466
 21
82.500000291708616
 31
0.0
  0
TEXT
  5
28F
  8
0
 10
5.450957054327513
 20
19.500000291708599
 30
0.0
 40
3.0
  1
10
  7
TLCAD
 72
     1
 11
8.0938141971846562
 21
19.500000291708599
 31
0.0
  0
TEXT
  5
290
  8
0
 10
6.6652427686132274
 20
25.500000291708599
 30
0.0
 40
3.0
  1
9
  7
TLCAD
 72
     1
 11
8.0938141971846562
 21
25.500000291708599
 31
0.0
  0
TEXT
  5
291
  8
0
 10
6.6652427686132274
 20
31.500000291708599
 30
0.0
 40
3.0
  1
8
  7
TLCAD
 72
     1
 11
8.0938141971846562
 21
31.500000291708599
 31
0.0
  0
TEXT
  5
292
  8
0
 10
6.6652427686132274
 20
37.500000291708602
 30
0.0
 40
3.0
  1
7
  7
TLCAD
 72
     1
 11
8.0938141971846562
 21
37.500000291708602
 31
0.0
  0
TEXT
  5
293
  8
0
 10
6.6652427686132283
 20
43.500000291708602
 30
0.0
 40
3.0
  1
6
  7
TLCAD
 72
     1
 11
8.0938141971846562
 21
43.500000291708602
 31
0.0
  0
TEXT
  5
294
  8
0
 10
6.6652427686132274
 20
49.500000291708602
 30
0.0
 40
3.0
  1
5
  7
TLCAD
 72
     1
 11
8.0938141971846562
 21
49.500000291708602
 31
0.0
  0
TEXT
  5
295
  8
0
 10
6.6652427686132274
 20
55.500000291708602
 30
0.0
 40
3.0
  1
4
  7
TLCAD
 72
     1
 11
8.0938141971846562
 21
55.500000291708602
 31
0.0
  0
TEXT
  5
296
  8
0
 10
6.6652427686132274
 20
61.500000291708602
 30
0.0
 40
3.0
  1
3
  7
TLCAD
 72
     1
 11
8.0938141971846562
 21
61.500000291708602
 31
0.0
  0
TEXT
  5
297
  8
0
 10
6.6652427686132274
 20
67.500000291708602
 30
0.0
 40
3.0
  1
2
  7
TLCAD
 72
     1
 11
8.0938141971846562
 21
67.500000291708602
 31
0.0
  0
TEXT
  5
298
  8
0
 10
7.022385625756085
 20
73.500000291708616
 30
0.0
 40
3.0
  1
1
  7
TLCAD
 72
     1
 11
8.0938141971846562
 21
73.500000291708616
 31
0.0
  0
TEXT
  5
299
  8
0
 10
5.0820031735626081
 20
82.500000291708616
 30
0.0
 40
3.0
  1
序号
  7
TLCAD
 72
     1
 11
8.0938141971846562
 21
82.500000291708616
 31
0.0
  0
TEXT
  5
29A
  8
0
 10
211.89246436591361
 20
186.5000002917084
 30
0.0
 40
3.0
  1
规 律 档 距 (m)
  7
TLCAD
 72
     1
 11
225.09381419718471
 21
186.5000002917084
 31
0.0
  0
TEXT
  5
29B
  8
0
 10
41.171991924968673
 20
102.5000002917086
 30
0.0
 40
3.0
  1
弧垂 (m)
  7
TLCAD
 72
     1
 11
49.093814197184649
 21
102.5000002917086
 31
0.0
  0
TEXT
  5
29C
  8
0
 10
41.839033544766203
 20
108.5000002917085
 30
0.0
 40
3.0
  1
张力 (N)
  7
TLCAD
 72
     1
 11
49.093814197184649
 21
108.5000002917085
 31
0.0
  0
TEXT
  5
29D
  8
0
 10
41.171991924968673
 20
114.5000002917085
 30
0.0
 40
3.0
  1
弧垂 (m)
  7
TLCAD
 72
     1
 11
49.093814197184649
 21
114.5000002917085
 31
0.0
  0
TEXT
  5
29E
  8
0
 10
41.839033544766203
 20
120.5000002917085
 30
0.0
 40
3.0
  1
张力 (N)
  7
TLCAD
 72
     1
 11
49.093814197184649
 21
120.5000002917085
 31
0.0
  0
TEXT
  5
29F
  8
0
 10
41.171991924968673
 20
126.5000002917086
 30
0.0
 40
3.0
  1
弧垂 (m)
  7
TLCAD
 72
     1
 11
49.093814197184649
 21
126.5000002917086
 31
0.0
  0
TEXT
  5
2A0
  8
0
 10
41.839033544766203
 20
132.5000002917086
 30
0.0
 40
3.0
  1
张力 (N)
  7
TLCAD
 72
     1
 11
49.093814197184649
 21
132.5000002917086
 31
0.0
  0
TEXT
  5
2A1
  8
0
 10
41.839033544766203
 20
138.5000002917084
 30
0.0
 40
3.0
  1
张力 (N)
  7
TLCAD
 72
     1
 11
49.093814197184649
 21
138.5000002917084
 31
0.0
  0
TEXT
  5
2A2
  8
0
 10
41.839033544766203
 20
144.5000002917086
 30
0.0
 40
3.0
  1
张力 (N)
  7
TLCAD
 72
     1
 11
49.093814197184649
 21
144.5000002917086
 31
0.0
  0
TEXT
  5
2A3
  8
0
 10
41.839033544766203
 20
150.5000002917084
 30
0.0
 40
3.0
  1
张力 (N)
  7
TLCAD
 72
     1
 11
49.093814197184649
 21
150.5000002917084
 31
0.0
  0
TEXT
  5
2A4
  8
0
 10
41.839033544766203
 20
156.5000002917086
 30
0.0
 40
3.0
  1
张力 (N)
  7
TLCAD
 72
     1
 11
49.093814197184649
 21
156.5000002917086
 31
0.0
  0
TEXT
  5
2A5
  8
0
 10
41.839033544766203
 20
162.5000002917084
 30
0.0
 40
3.0
  1
张力 (N)
  7
TLCAD
 72
     1
 11
49.093814197184649
 21
162.5000002917084
 31
0.0
  0
TEXT
  5
2A6
  8
0
 10
41.839033544766203
 20
168.5000002917084
 30
0.0
 40
3.0
  1
张力 (N)
  7
TLCAD
 72
     1
 11
49.093814197184649
 21
168.5000002917084
 31
0.0
  0
TEXT
  5
2A7
  8
0
 10
41.839033544766203
 20
174.5000002917086
 30
0.0
 40
3.0
  1
张力 (N)
  7
TLCAD
 72
     1
 11
49.093814197184649
 21
174.5000002917086
 31
0.0
  0
TEXT
  5
2A8
  8
0
 10
43.070192149940553
 20
183.5000002917086
 30
0.0
 40
3.0
  1
张力弧垂
  7
TLCAD
 72
     1
 11
49.093814197184649
 21
183.5000002917086
 31
0.0
  0
TEXT
  5
2A9
  8
0
 10
21.09381419718466
 20
183.5000002917086
 30
0.0
 40
3.0
  1
气象名称
  7
TLCAD
 72
     1
 11
27.09381419718466
 21
183.5000002917086
 31
0.0
  0
TEXT
  5
2AA
  8
0
 10
5.450957054327513
 20
105.5000002917086
 30
0.0
 40
3.0
  1
10
  7
TLCAD
 72
     1
 11
8.0938141971846562
 21
105.5000002917086
 31
0.0
  0
TEXT
  5
2AB
  8
0
 10
6.6652427686132274
 20
117.5000002917085
 30
0.0
 40
3.0
  1
9
  7
TLCAD
 72
     1
 11
8.0938141971846562
 21
117.5000002917085
 31
0.0
  0
TEXT
  5
2AC
  8
0
 10
6.6652427686132274
 20
129.5000002917086
 30
0.0
 40
3.0
  1
8
  7
TLCAD
 72
     1
 11
8.0938141971846562
 21
129.5000002917086
 31
0.0
  0
TEXT
  5
2AD
  8
0
 10
6.6652427686132274
 20
138.5000002917084
 30
0.0
 40
3.0
  1
7
  7
TLCAD
 72
     1
 11
8.0938141971846562
 21
138.5000002917084
 31
0.0
  0
TEXT
  5
2AE
  8
0
 10
6.6652427686132283
 20
144.5000002917086
 30
0.0
 40
3.0
  1
6
  7
TLCAD
 72
     1
 11
8.0938141971846562
 21
144.5000002917086
 31
0.0
  0
TEXT
  5
2AF
  8
0
 10
6.6652427686132274
 20
150.5000002917084
 30
0.0
 40
3.0
  1
5
  7
TLCAD
 72
     1
 11
8.0938141971846562
 21
150.5000002917084
 31
0.0
  0
TEXT
  5
2B0
  8
0
 10
6.6652427686132274
 20
156.5000002917086
 30
0.0
 40
3.0
  1
4
  7
TLCAD
 72
     1
 11
8.0938141971846562
 21
156.5000002917086
 31
0.0
  0
TEXT
  5
2B1
  8
0
 10
6.6652427686132274
 20
162.5000002917084
 30
0.0
 40
3.0
  1
3
  7
TLCAD
 72
     1
 11
8.0938141971846562
 21
162.5000002917084
 31
0.0
  0
TEXT
  5
2B2
  8
0
 10
6.6652427686132274
 20
168.5000002917084
 30
0.0
 40
3.0
  1
2
  7
TLCAD
 72
     1
 11
8.0938141971846562
 21
168.5000002917084
 31
0.0
  0
TEXT
  5
2B3
  8
0
 10
7.022385625756085
 20
174.5000002917086
 30
0.0
 40
3.0
  1
1
  7
TLCAD
 72
     1
 11
8.0938141971846562
 21
174.5000002917086
 31
0.0
  0
TEXT
  5
2B4
  8
0
 10
5.0820031735626081
 20
183.5000002917086
 30
0.0
 40
3.0
  1
序号
  7
TLCAD
 72
     1
 11
8.0938141971846562
 21
183.5000002917086
 31
0.0
  0
TEXT
  5
2B5
  8
0
 10
211.89246436591361
 20
282.50000029170877
 30
0.0
 40
3.0
  1
规 律 档 距 (m)
  7
TLCAD
 72
     1
 11
225.09381419718471
 21
282.50000029170877
 31
0.0
  0
TEXT
  5
2B6
  8
0
 10
41.171991924968673
 20
198.5000002917086
 30
0.0
 40
3.0
  1
弧垂 (m)
  7
TLCAD
 72
     1
 11
49.093814197184649
 21
198.5000002917086
 31
0.0
  0
TEXT
  5
2B7
  8
0
 10
41.839033544766203
 20
204.5000002917086
 30
0.0
 40
3.0
  1
张力 (N)
  7
TLCAD
 72
     1
 11
49.093814197184649
 21
204.5000002917086
 31
0.0
  0
TEXT
  5
2B8
  8
0
 10
41.171991924968673
 20
210.5000002917086
 30
0.0
 40
3.0
  1
弧垂 (m)
  7
TLCAD
 72
     1
 11
49.093814197184649
 21
210.5000002917086
 31
0.0
  0
TEXT
  5
2B9
  8
0
 10
41.839033544766203
 20
216.5000002917086
 30
0.0
 40
3.0
  1
张力 (N)
  7
TLCAD
 72
     1
 11
49.093814197184649
 21
216.5000002917086
 31
0.0
  0
TEXT
  5
2BA
  8
0
 10
41.171991924968673
 20
222.5000002917086
 30
0.0
 40
3.0
  1
弧垂 (m)
  7
TLCAD
 72
     1
 11
49.093814197184649
 21
222.5000002917086
 31
0.0
  0
TEXT
  5
2BB
  8
0
 10
41.839033544766203
 20
228.5000002917086
 30
0.0
 40
3.0
  1
张力 (N)
  7
TLCAD
 72
     1
 11
49.093814197184649
 21
228.5000002917086
 31
0.0
  0
TEXT
  5
2BC
  8
0
 10
41.839033544766203
 20
234.5000002917086
 30
0.0
 40
3.0
  1
张力 (N)
  7
TLCAD
 72
     1
 11
49.093814197184649
 21
234.5000002917086
 31
0.0
  0
TEXT
  5
2BD
  8
0
 10
41.839033544766203
 20
240.5000002917086
 30
0.0
 40
3.0
  1
张力 (N)
  7
TLCAD
 72
     1
 11
49.093814197184649
 21
240.5000002917086
 31
0.0
  0
TEXT
  5
2BE
  8
0
 10
41.839033544766203
 20
246.5000002917086
 30
0.0
 40
3.0
  1
张力 (N)
  7
TLCAD
 72
     1
 11
49.093814197184649
 21
246.5000002917086
 31
0.0
  0
TEXT
  5
2BF
  8
0
 10
41.839033544766203
 20
252.5000002917086
 30
0.0
 40
3.0
  1
张力 (N)
  7
TLCAD
 72
     1
 11
49.093814197184649
 21
252.5000002917086
 31
0.0
  0
TEXT
  5
2C0
  8
0
 10
41.839033544766203
 20
258.5000002917086
 30
0.0
 40
3.0
  1
张力 (N)
  7
TLCAD
 72
     1
 11
49.093814197184649
 21
258.5000002917086
 31
0.0
  0
TEXT
  5
2C1
  8
0
 10
41.839033544766203
 20
264.50000029170872
 30
0.0
 40
3.0
  1
张力 (N)
  7
TLCAD
 72
     1
 11
49.093814197184649
 21
264.50000029170872
 31
0.0
  0
TEXT
  5
2C2
  8
0
 10
41.839033544766203
 20
270.50000029170872
 30
0.0
 40
3.0
  1
张力 (N)
  7
TLCAD
 72
     1
 11
49.093814197184649
 21
270.50000029170872
 31
0.0
  0
TEXT
  5
2C3
  8
0
 10
43.070192149940553
 20
279.5000002917086
 30
0.0
 40
3.0
  1
张力弧垂
  7
TLCAD
 72
     1
 11
49.093814197184649
 21
279.5000002917086
 31
0.0
  0
TEXT
  5
2C4
  8
0
 10
21.09381419718466
 20
279.5000002917086
 30
0.0
 40
3.0
  1
气象名称
  7
TLCAD
 72
     1
 11
27.09381419718466
 21
279.5000002917086
 31
0.0
  0
TEXT
  5
2C5
  8
0
 10
5.450957054327513
 20
201.5000002917086
 30
0.0
 40
3.0
  1
10
  7
TLCAD
 72
     1
 11
8.0938141971846562
 21
201.5000002917086
 31
0.0
  0
TEXT
  5
2C6
  8
0
 10
6.6652427686132274
 20
213.5000002917086
 30
0.0
 40
3.0
  1
9
  7
TLCAD
 72
     1
 11
8.0938141971846562
 21
213.5000002917086
 31
0.0
  0
TEXT
  5
2C7
  8
0
 10
6.6652427686132274
 20
225.5000002917086
 30
0.0
 40
3.0
  1
8
  7
TLCAD
 72
     1
 11
8.0938141971846562
 21
225.5000002917086
 31
0.0
  0
TEXT
  5
2C8
  8
0
 10
6.6652427686132274
 20
234.5000002917086
 30
0.0
 40
3.0
  1
7
  7
TLCAD
 72
     1
 11
8.0938141971846562
 21
234.5000002917086
 31
0.0
  0
TEXT
  5
2C9
  8
0
 10
6.6652427686132283
 20
240.5000002917086
 30
0.0
 40
3.0
  1
6
  7
TLCAD
 72
     1
 11
8.0938141971846562
 21
240.5000002917086
 31
0.0
  0
TEXT
  5
2CA
  8
0
 10
6.6652427686132274
 20
246.5000002917086
 30
0.0
 40
3.0
  1
5
  7
TLCAD
 72
     1
 11
8.0938141971846562
 21
246.5000002917086
 31
0.0
  0
TEXT
  5
2CB
  8
0
 10
6.6652427686132274
 20
252.5000002917086
 30
0.0
 40
3.0
  1
4
  7
TLCAD
 72
     1
 11
8.0938141971846562
 21
252.5000002917086
 31
0.0
  0
TEXT
  5
2CC
  8
0
 10
6.6652427686132274
 20
258.5000002917086
 30
0.0
 40
3.0
  1
3
  7
TLCAD
 72
     1
 11
8.0938141971846562
 21
258.5000002917086
 31
0.0
  0
TEXT
  5
2CD
  8
0
 10
6.6652427686132274
 20
264.50000029170872
 30
0.0
 40
3.0
  1
2
  7
TLCAD
 72
     1
 11
8.0938141971846562
 21
264.50000029170872
 31
0.0
  0
TEXT
  5
2CE
  8
0
 10
7.022385625756085
 20
270.50000029170872
 30
0.0
 40
3.0
  1
1
  7
TLCAD
 72
     1
 11
8.0938141971846562
 21
270.50000029170872
 31
0.0
  0
TEXT
  5
2CF
  8
0
 10
5.0820031735626081
 20
279.5000002917086
 30
0.0
 40
3.0
  1
序号
  7
TLCAD
 72
     1
 11
8.0938141971846562
 21
279.5000002917086
 31
0.0
  0
TEXT
  5
2D0
  8
0
 10
5.8886547215649214
 20
13.12691952305067
 30
0.0
 40
3.0
  1
11
  7
TLCAD
 72
     1
 11
8.174369007279207
 21
13.12691952305067
 31
0.0
  0
TEXT
  5
2D1
  8
0
 10
5.5315118644220629
 20
7.142488195283927
 30
0.0
 40
3.0
  1
12
  7
TLCAD
 72
     1
 11
8.174369007279207
 21
7.142488195283927
 31
0.0
  0
TEXT
  5
2D2
  8
0
 10
5.5315118644220638
 20
1.275401061149749
 30
0.0
 40
3.0
  1
13
  7
TLCAD
 72
     1
 11
8.174369007279207
 21
1.275401061149749
 31
0.0
  0
LINE
  5
2D9
  8
FRAME
 10
104.0938146992891
 20
0.0000010738340306
 30
0.0
 11
390.09381569928911
 21
0.0000010738340306
 31
0.0
  0
ENDSEC
  0
EOF
