  0
SECTION
  2
HEADER
  9
$ACADVER
  1
AC1009
  9
$INSBASE
 10
0.0
 20
0.0
 30
0.0
  9
$EXTMIN
 10
100.0
 20
200.0
 30
0.0
  9
$EXTMAX
 10
456.0
 20
472.99999999999977
 30
0.0
  9
$LIMMIN
 10
0.0
 20
0.0
  9
$LIMMAX
 10
420.0
 20
297.0
  9
$ORTHOMODE
 70
     0
  9
$REGENMODE
 70
     1
  9
$FILLMODE
 70
     1
  9
$QTEXTMODE
 70
     0
  9
$MIRRTEXT
 70
     0
  9
$DRAGMODE
 70
     2
  9
$LTSCALE
 40
1.0
  9
$OSMODE
 70
    37
  9
$ATTMODE
 70
     1
  9
$TEXTSIZE
 40
2.5
  9
$TRACEWID
 40
1.0
  9
$TEXTSTYLE
  7
STANDARD
  9
$CLAYER
  8
0
  9
$CELTYPE
  6
BYLAYER
  9
$CECOLOR
 62
   256
  9
$DIMSCALE
 40
1.0
  9
$DIMASZ
 40
2.5
  9
$DIMEXO
 40
0.625
  9
$DIMDLI
 40
3.75
  9
$DIMRND
 40
0.0
  9
$DIMDLE
 40
0.0
  9
$DIMEXE
 40
1.25
  9
$DIMTP
 40
0.0
  9
$DIMTM
 40
0.0
  9
$DIMTXT
 40
2.5
  9
$DIMCEN
 40
2.5
  9
$DIMTSZ
 40
0.0
  9
$DIMTOL
 70
     0
  9
$DIMLIM
 70
     0
  9
$DIMTIH
 70
     0
  9
$DIMTOH
 70
     0
  9
$DIMSE1
 70
     0
  9
$DIMSE2
 70
     0
  9
$DIMTAD
 70
     1
  9
$DIMZIN
 70
     8
  9
$DIMBLK
  1

  9
$DIMASO
 70
     1
  9
$DIMSHO
 70
     1
  9
$DIMPOST
  1

  9
$DIMAPOST
  1

  9
$DIMALT
 70
     0
  9
$DIMALTD
 70
     3
  9
$DIMALTF
 40
0.03937007874016
  9
$DIMLFAC
 40
1.0
  9
$DIMTOFL
 70
     1
  9
$DIMTVP
 40
0.0
  9
$DIMTIX
 70
     0
  9
$DIMSOXD
 70
     0
  9
$DIMSAH
 70
     0
  9
$DIMBLK1
  1

  9
$DIMBLK2
  1

  9
$DIMSTYLE
  2
ISO-25
  9
$DIMCLRD
 70
     0
  9
$DIMCLRE
 70
     0
  9
$DIMCLRT
 70
     0
  9
$DIMTFAC
 40
1.0
  9
$DIMGAP
 40
0.625
  9
$LUNITS
 70
     2
  9
$LUPREC
 70
     4
  9
$SKETCHINC
 40
1.0
  9
$FILLETRAD
 40
0.0
  9
$AUNITS
 70
     0
  9
$AUPREC
 70
     0
  9
$MENU
  1
.
  9
$ELEVATION
 40
0.0
  9
$PELEVATION
 40
0.0
  9
$THICKNESS
 40
0.0
  9
$LIMCHECK
 70
     0
  9
$BLIPMODE
 70
     0
  9
$CHAMFERA
 40
0.0
  9
$CHAMFERB
 40
0.0
  9
$SKPOLY
 70
     0
  9
$TDCREATE
 40
2455446.450466759
  9
$TDUPDATE
 40
2455446.5546598262
  9
$TDINDWG
 40
0.0013601273
  9
$TDUSRTIMER
 40
0.0013599537
  9
$USRTIMER
 70
     1
  9
$ANGBASE
 50
0.0
  9
$ANGDIR
 70
     0
  9
$PDMODE
 70
     0
  9
$PDSIZE
 40
0.0
  9
$PLINEWID
 40
0.0
  9
$COORDS
 70
     0
  9
$SPLFRAME
 70
     0
  9
$SPLINETYPE
 70
     6
  9
$SPLINESEGS
 70
     8
  9
$ATTDIA
 70
     0
  9
$ATTREQ
 70
     1
  9
$HANDLING
 70
     1
  9
$HANDSEED
  5
5F6
  9
$SURFTAB1
 70
     6
  9
$SURFTAB2
 70
     6
  9
$SURFTYPE
 70
     6
  9
$SURFU
 70
     6
  9
$SURFV
 70
     6
  9
$UCSNAME
  2

  9
$UCSORG
 10
0.0
 20
0.0
 30
0.0
  9
$UCSXDIR
 10
1.0
 20
0.0
 30
0.0
  9
$UCSYDIR
 10
0.0
 20
1.0
 30
0.0
  9
$PUCSNAME
  2

  9
$PUCSORG
 10
0.0
 20
0.0
 30
0.0
  9
$PUCSXDIR
 10
1.0
 20
0.0
 30
0.0
  9
$PUCSYDIR
 10
0.0
 20
1.0
 30
0.0
  9
$USERI1
 70
     0
  9
$USERI2
 70
     0
  9
$USERI3
 70
     0
  9
$USERI4
 70
     0
  9
$USERI5
 70
     0
  9
$USERR1
 40
0.0
  9
$USERR2
 40
0.0
  9
$USERR3
 40
0.0
  9
$USERR4
 40
0.0
  9
$USERR5
 40
0.0
  9
$WORLDVIEW
 70
     1
  9
$SHADEDGE
 70
     3
  9
$SHADEDIF
 70
    70
  9
$TILEMODE
 70
     1
  9
$MAXACTVP
 70
    64
  9
$PLIMCHECK
 70
     0
  9
$PEXTMIN
 10
0.0
 20
0.0
 30
0.0
  9
$PEXTMAX
 10
0.0
 20
0.0
 30
0.0
  9
$PLIMMIN
 10
0.0
 20
0.0
  9
$PLIMMAX
 10
12.0
 20
9.0
  9
$UNITMODE
 70
     0
  9
$VISRETAIN
 70
     1
  9
$PLINEGEN
 70
     0
  9
$PSLTSCALE
 70
     1
  0
ENDSEC
  0
SECTION
  2
TABLES
  0
TABLE
  2
VPORT
 70
     2
  0
VPORT
  2
*ACTIVE
 70
     0
 10
0.0
 20
0.0
 11
1.0
 21
1.0
 12
351.91169013509989
 22
246.8201101127176
 13
0.0
 23
0.0
 14
10.0
 24
10.0
 15
10.0
 25
10.0
 16
0.0
 26
0.0
 36
1.0
 17
0.0
 27
0.0
 37
0.0
 40
351.56918371115239
 41
2.1822827938671199
 42
50.0
 43
0.0
 44
0.0
 50
0.0
 51
0.0
 71
     0
 72
  1000
 73
     1
 74
     3
 75
     0
 76
     0
 77
     0
 78
     0
  0
ENDTAB
  0
TABLE
  2
LTYPE
 70
     1
  0
LTYPE
  2
CONTINUOUS
 70
     0
  3
Solid line
 72
    65
 73
     0
 40
0.0
  0
ENDTAB
  0
TABLE
  2
LAYER
 70
     2
  0
LAYER
  2
0
 70
     0
 62
     7
  6
CONTINUOUS
  0
LAYER
  2
FRAME
 70
     0
 62
     8
  6
CONTINUOUS
  0
ENDTAB
  0
TABLE
  2
STYLE
 70
     2
  0
STYLE
  2
STANDARD
 70
     0
 40
0.0
 41
1.0
 50
0.0
 71
     0
 42
2.5
  3
txt
  4
gbcbig.shx
  0
STYLE
  2
HZ
 70
     0
 40
5.0
 41
1.0
 50
0.0
 71
     0
 42
0.2
  3
txt
  4
仿宋_GB2312
  0
ENDTAB
  0
TABLE
  2
VIEW
 70
     0
  0
ENDTAB
  0
TABLE
  2
UCS
 70
     0
  0
ENDTAB
  0
TABLE
  2
APPID
 70
     6
  0
APPID
  2
ACAD
 70
     0
  0
APPID
  2
ACAD_PSEXT
 70
     0
  0
APPID
  2
ACAUTHENVIRON
 70
     0
  0
APPID
  2
ACDBDYNAMICBLOCKTRUENAME
 70
     0
  0
APPID
  2
ACDBDYNAMICBLOCKGUID
 70
     0
  0
APPID
  2
ACDBBLOCKREPETAG
 70
     0
  0
ENDTAB
  0
TABLE
  2
DIMSTYLE
 70
     2
  0
DIMSTYLE
  2
ISO-25
 70
     0
  3

  4

  5

  6

  7

 40
1.0
 41
2.5
 42
0.625
 43
3.75
 44
1.25
 45
0.0
 46
0.0
 47
0.0
 48
0.0
140
2.5
141
2.5
142
0.0
143
0.03937007874016
144
1.0
145
0.0
146
1.0
147
0.625
 71
     0
 72
     0
 73
     0
 74
     0
 75
     0
 76
     0
 77
     1
 78
     8
170
     0
171
     3
172
     1
173
     0
174
     0
175
     0
176
     0
177
     0
178
     0
  0
DIMSTYLE
  2
STANDARD
 70
     0
  3

  4

  5

  6

  7

 40
1.0
 41
0.18
 42
0.0625
 43
0.38
 44
0.18
 45
0.0
 46
0.0
 47
0.0
 48
0.0
140
0.18
141
0.09
142
0.0
143
25.399999999999999
144
1.0
145
0.0
146
1.0
147
0.09
 71
     0
 72
     0
 73
     1
 74
     1
 75
     0
 76
     0
 77
     0
 78
     0
170
     0
171
     2
172
     0
173
     0
174
     0
175
     0
176
     0
177
     0
178
     0
  0
ENDTAB
  0
ENDSEC
  0
SECTION
  2
BLOCKS
  0
BLOCK
  8
0
  2
$MODEL_SPACE
 70
     0
 10
0.0
 20
0.0
 30
0.0
  3
$MODEL_SPACE
  1

  0
ENDBLK
  5
2A3
  8
0
  0
BLOCK
 67
     1
  8
0
  2
$PAPER_SPACE
 70
     0
 10
0.0
 20
0.0
 30
0.0
  3
$PAPER_SPACE
  1

  0
ENDBLK
  5
29F
 67
     1
  8
0
  0
BLOCK
  8
0
  2
中南院
 70
     0
 10
0.0
 20
0.0
 30
0.0
  3
中南院
  1

  0
POLYLINE
  5
404
  8
0
 66
     1
 10
0.0
 20
0.0
 30
0.0
1001
ACDBBLOCKREPETAG
1070
     1
1071
        0
1005
404
  0
VERTEX
  5
5C0
  8
0
 10
0.0000014551728782
 20
0.0000001629798589
 30
0.0
  0
VERTEX
  5
5C1
  8
0
 10
0.0000014551728782
 20
273.0000001629798
 30
0.0
  0
VERTEX
  5
5C2
  8
0
 10
356.00000145517288
 20
273.0000001629798
 30
0.0
  0
VERTEX
  5
5C3
  8
0
 10
356.00000145517288
 20
0.0000001629798589
 30
0.0
  0
VERTEX
  5
5C4
  8
0
 10
0.0000014551728782
 20
0.0000001629798589
 30
0.0
  0
SEQEND
  5
5C5
  8
0
  0
POLYLINE
  5
405
  8
0
 66
     1
 10
0.0
 20
0.0
 30
0.0
1001
ACDBBLOCKREPETAG
1070
     1
1071
        1
1005
405
  0
VERTEX
  5
5C6
  8
0
 10
9.0000014551728782
 20
32.000000162979859
 30
0.0
  0
VERTEX
  5
5C7
  8
0
 10
9.0000014551728782
 20
253.00000016297989
 30
0.0
  0
VERTEX
  5
5C8
  8
0
 10
349.00000145517288
 20
253.00000016297989
 30
0.0
  0
VERTEX
  5
5C9
  8
0
 10
349.00000145517288
 20
32.000000162979859
 30
0.0
  0
VERTEX
  5
5CA
  8
0
 10
9.0000014551728782
 20
32.000000162979859
 30
0.0
  0
SEQEND
  5
5CB
  8
0
  0
POLYLINE
  5
406
  8
0
 66
     1
 10
0.0
 20
0.0
 30
0.0
1001
ACDBBLOCKREPETAG
1070
     1
1071
        2
1005
406
  0
VERTEX
  5
5CC
  8
0
 10
9.1000014551728761
 20
32.100000162979882
 30
0.0
  0
VERTEX
  5
5CD
  8
0
 10
9.1000014551728761
 20
252.90000016297981
 30
0.0
  0
VERTEX
  5
5CE
  8
0
 10
348.90000145517291
 20
252.90000016297981
 30
0.0
  0
VERTEX
  5
5CF
  8
0
 10
348.90000145517291
 20
32.100000162979882
 30
0.0
  0
VERTEX
  5
5D0
  8
0
 10
9.1000014551728761
 20
32.100000162979882
 30
0.0
  0
SEQEND
  5
5D1
  8
0
  0
POLYLINE
  5
407
  8
0
 66
     1
 10
0.0
 20
0.0
 30
0.0
1001
ACDBBLOCKREPETAG
1070
     1
1071
        3
1005
407
  0
VERTEX
  5
5D2
  8
0
 10
9.2000014551728775
 20
32.200000162979912
 30
0.0
  0
VERTEX
  5
5D3
  8
0
 10
9.2000014551728775
 20
252.80000016297981
 30
0.0
  0
VERTEX
  5
5D4
  8
0
 10
348.80000145517289
 20
252.80000016297981
 30
0.0
  0
VERTEX
  5
5D5
  8
0
 10
348.80000145517289
 20
32.200000162979912
 30
0.0
  0
VERTEX
  5
5D6
  8
0
 10
9.2000014551728775
 20
32.200000162979912
 30
0.0
  0
SEQEND
  5
5D7
  8
0
  0
POLYLINE
  5
408
  8
0
 66
     1
 10
0.0
 20
0.0
 30
0.0
1001
ACDBBLOCKREPETAG
1070
     1
1071
        4
1005
408
  0
VERTEX
  5
5D8
  8
0
 10
9.3000014551728771
 20
32.300000162979821
 30
0.0
  0
VERTEX
  5
5D9
  8
0
 10
9.3000014551728771
 20
252.7000001629799
 30
0.0
  0
VERTEX
  5
5DA
  8
0
 10
348.70000145517292
 20
252.7000001629799
 30
0.0
  0
VERTEX
  5
5DB
  8
0
 10
348.70000145517292
 20
32.300000162979821
 30
0.0
  0
VERTEX
  5
5DC
  8
0
 10
9.3000014551728771
 20
32.300000162979821
 30
0.0
  0
SEQEND
  5
5DD
  8
0
  0
POLYLINE
  5
409
  8
0
 66
     1
 10
0.0
 20
0.0
 30
0.0
1001
ACDBBLOCKREPETAG
1070
     1
1071
        5
1005
409
  0
VERTEX
  5
5DE
  8
0
 10
260.00000145517288
 20
252.7000001629799
 30
0.0
  0
VERTEX
  5
5DF
  8
0
 10
260.00000145517288
 20
261.00000016297992
 30
0.0
  0
VERTEX
  5
5E0
  8
0
 10
349.00000145517288
 20
261.00000016297992
 30
0.0
  0
VERTEX
  5
5E1
  8
0
 10
349.00000145517288
 20
252.7000001629799
 30
0.0
  0
VERTEX
  5
5E2
  8
0
 10
260.00000145517288
 20
252.7000001629799
 30
0.0
  0
SEQEND
  5
5E3
  8
0
  0
POLYLINE
  5
40A
  8
0
 66
     1
 10
0.0
 20
0.0
 30
0.0
1001
ACDBBLOCKREPETAG
1070
     1
1071
        6
1005
40A
  0
VERTEX
  5
5E4
  8
0
 10
260.1000014551729
 20
252.80000016297981
 30
0.0
  0
VERTEX
  5
5E5
  8
0
 10
260.1000014551729
 20
260.90000016297972
 30
0.0
  0
VERTEX
  5
5E6
  8
0
 10
348.90000145517291
 20
260.90000016297972
 30
0.0
  0
VERTEX
  5
5E7
  8
0
 10
348.90000145517291
 20
252.80000016297981
 30
0.0
  0
VERTEX
  5
5E8
  8
0
 10
260.1000014551729
 20
252.80000016297981
 30
0.0
  0
SEQEND
  5
5E9
  8
0
  0
POLYLINE
  5
40B
  8
0
 66
     1
 10
0.0
 20
0.0
 30
0.0
1001
ACDBBLOCKREPETAG
1070
     1
1071
        7
1005
40B
  0
VERTEX
  5
5EA
  8
0
 10
260.20000145517292
 20
252.90000016297981
 30
0.0
  0
VERTEX
  5
5EB
  8
0
 10
260.20000145517292
 20
260.80000016297981
 30
0.0
  0
VERTEX
  5
5EC
  8
0
 10
348.80000145517289
 20
260.80000016297981
 30
0.0
  0
VERTEX
  5
5ED
  8
0
 10
348.80000145517289
 20
252.90000016297981
 30
0.0
  0
VERTEX
  5
5EE
  8
0
 10
260.20000145517292
 20
252.90000016297981
 30
0.0
  0
SEQEND
  5
5EF
  8
0
  0
POLYLINE
  5
40C
  8
0
 66
     1
 10
0.0
 20
0.0
 30
0.0
1001
ACDBBLOCKREPETAG
1070
     1
1071
        8
1005
40C
  0
VERTEX
  5
5F0
  8
0
 10
260.30000145517289
 20
253.00000016297989
 30
0.0
  0
VERTEX
  5
5F1
  8
0
 10
260.30000145517289
 20
260.7000001629799
 30
0.0
  0
VERTEX
  5
5F2
  8
0
 10
348.70000145517292
 20
260.7000001629799
 30
0.0
  0
VERTEX
  5
5F3
  8
0
 10
348.70000145517292
 20
253.00000016297989
 30
0.0
  0
VERTEX
  5
5F4
  8
0
 10
260.30000145517289
 20
253.00000016297989
 30
0.0
  0
SEQEND
  5
5F5
  8
0
  0
LINE
  5
40D
  8
0
 62
     1
 10
272.00000145517288
 20
253.00000016297989
 30
0.0
 11
272.00000145517288
 21
261.00000016297992
 31
0.0
1001
ACDBBLOCKREPETAG
1070
     1
1071
        9
1005
40D
  0
LINE
  5
40E
  8
0
 62
     1
 10
313.00000145517288
 20
253.00000016297989
 30
0.0
 11
313.00000145517288
 21
261.00000016297992
 31
0.0
1001
ACDBBLOCKREPETAG
1070
     1
1071
       10
1005
40E
  0
LINE
  5
40F
  8
0
 62
     1
 10
331.00000145517288
 20
253.00000016297989
 30
0.0
 11
331.00000145517288
 21
261.00000016297992
 31
0.0
1001
ACDBBLOCKREPETAG
1070
     1
1071
       11
1005
40F
  0
TEXT
  5
410
  8
0
 10
262.00000145517288
 20
255.30000016297981
 30
0.0
 40
3.0
  1
图号
  7
HZ
1001
ACDBBLOCKREPETAG
1070
     1
1071
       12
1005
410
  0
TEXT
  5
411
  8
0
 10
313.50000145517288
 20
255.30000016297981
 30
0.0
 40
3.0
  1
第    页
  7
HZ
1001
ACDBBLOCKREPETAG
1070
     1
1071
       13
1005
411
  0
TEXT
  5
412
  8
0
 10
331.50000145517288
 20
255.30000016297981
 30
0.0
 40
3.0
  1
共    页
  7
HZ
1001
ACDBBLOCKREPETAG
1070
     1
1071
       14
1005
412
  0
LINE
  5
416
  8
0
 62
     1
 10
9.0000014551728782
 20
222.50000016297989
 30
0.0
 11
349.00000145517288
 21
222.50000016297989
 31
0.0
1001
ACDBBLOCKREPETAG
1070
     1
1071
       18
1005
416
  0
LINE
  5
417
  8
0
 62
     1
 10
9.0000014551728782
 20
222.60000016297991
 30
0.0
 11
349.00000145517288
 21
222.60000016297991
 31
0.0
1001
ACDBBLOCKREPETAG
1070
     1
1071
       19
1005
417
  0
LINE
  5
418
  8
0
 62
     1
 10
9.0000014551728782
 20
222.40000016297981
 30
0.0
 11
349.00000145517288
 21
222.40000016297981
 31
0.0
1001
ACDBBLOCKREPETAG
1070
     1
1071
       20
1005
418
  0
LINE
  5
419
  8
0
 62
     1
 10
9.0000014551728782
 20
39.000000162979852
 30
0.0
 11
51.500001455172892
 21
39.000000162979852
 31
0.0
1001
ACDBBLOCKREPETAG
1070
     1
1071
       21
1005
419
  0
LINE
  5
41A
  8
0
 62
     1
 10
51.500001455172892
 20
35.250000162979852
 30
0.0
 11
63.000001455172857
 21
35.250000162979852
 31
0.0
1001
ACDBBLOCKREPETAG
1070
     1
1071
       22
1005
41A
  0
LINE
  5
41B
  8
0
 62
     1
 10
93.000001455172864
 20
39.000000162979852
 30
0.0
 11
183.50000145517291
 21
39.000000162979852
 31
0.0
1001
ACDBBLOCKREPETAG
1070
     1
1071
       23
1005
41B
  0
LINE
  5
41C
  8
0
 62
     1
 10
183.50000145517291
 20
35.250000162979852
 30
0.0
 11
316.00000145517288
 21
35.250000162979852
 31
0.0
1001
ACDBBLOCKREPETAG
1070
     1
1071
       24
1005
41C
  0
LINE
  5
41D
  8
0
 62
     1
 10
316.00000145517288
 20
39.000000162979852
 30
0.0
 11
349.00000145517288
 21
39.000000162979852
 31
0.0
1001
ACDBBLOCKREPETAG
1070
     1
1071
       25
1005
41D
  0
LINE
  5
41E
  8
0
 62
     1
 10
9.0000014551728782
 20
46.500000162979859
 30
0.0
 11
51.500001455172892
 21
46.500000162979859
 31
0.0
1001
ACDBBLOCKREPETAG
1070
     1
1071
       26
1005
41E
  0
LINE
  5
41F
  8
0
 62
     1
 10
51.500001455172892
 20
42.750000162979852
 30
0.0
 11
63.000001455172857
 21
42.750000162979852
 31
0.0
1001
ACDBBLOCKREPETAG
1070
     1
1071
       27
1005
41F
  0
LINE
  5
420
  8
0
 62
     1
 10
93.000001455172864
 20
46.500000162979859
 30
0.0
 11
183.50000145517291
 21
46.500000162979859
 31
0.0
1001
ACDBBLOCKREPETAG
1070
     1
1071
       28
1005
420
  0
LINE
  5
421
  8
0
 62
     1
 10
183.50000145517291
 20
42.750000162979852
 30
0.0
 11
316.00000145517288
 21
42.750000162979852
 31
0.0
1001
ACDBBLOCKREPETAG
1070
     1
1071
       29
1005
421
  0
LINE
  5
422
  8
0
 62
     1
 10
316.00000145517288
 20
46.500000162979859
 30
0.0
 11
349.00000145517288
 21
46.500000162979859
 31
0.0
1001
ACDBBLOCKREPETAG
1070
     1
1071
       30
1005
422
  0
LINE
  5
423
  8
0
 62
     1
 10
9.0000014551728782
 20
54.000000162979859
 30
0.0
 11
51.500001455172892
 21
54.000000162979859
 31
0.0
1001
ACDBBLOCKREPETAG
1070
     1
1071
       31
1005
423
  0
LINE
  5
424
  8
0
 62
     1
 10
51.500001455172892
 20
50.250000162979859
 30
0.0
 11
63.000001455172857
 21
50.250000162979859
 31
0.0
1001
ACDBBLOCKREPETAG
1070
     1
1071
       32
1005
424
  0
LINE
  5
425
  8
0
 62
     1
 10
93.000001455172864
 20
54.000000162979859
 30
0.0
 11
183.50000145517291
 21
54.000000162979859
 31
0.0
1001
ACDBBLOCKREPETAG
1070
     1
1071
       33
1005
425
  0
LINE
  5
426
  8
0
 62
     1
 10
183.50000145517291
 20
50.250000162979859
 30
0.0
 11
316.00000145517288
 21
50.250000162979859
 31
0.0
1001
ACDBBLOCKREPETAG
1070
     1
1071
       34
1005
426
  0
LINE
  5
427
  8
0
 62
     1
 10
316.00000145517288
 20
54.000000162979859
 30
0.0
 11
349.00000145517288
 21
54.000000162979859
 31
0.0
1001
ACDBBLOCKREPETAG
1070
     1
1071
       35
1005
427
  0
LINE
  5
428
  8
0
 62
     1
 10
9.0000014551728782
 20
61.500000162979859
 30
0.0
 11
51.500001455172892
 21
61.500000162979859
 31
0.0
1001
ACDBBLOCKREPETAG
1070
     1
1071
       36
1005
428
  0
LINE
  5
429
  8
0
 62
     1
 10
51.500001455172892
 20
57.750000162979859
 30
0.0
 11
63.000001455172857
 21
57.750000162979859
 31
0.0
1001
ACDBBLOCKREPETAG
1070
     1
1071
       37
1005
429
  0
LINE
  5
42A
  8
0
 62
     1
 10
93.000001455172864
 20
61.500000162979859
 30
0.0
 11
183.50000145517291
 21
61.500000162979859
 31
0.0
1001
ACDBBLOCKREPETAG
1070
     1
1071
       38
1005
42A
  0
LINE
  5
42B
  8
0
 62
     1
 10
183.50000145517291
 20
57.750000162979859
 30
0.0
 11
316.00000145517288
 21
57.750000162979859
 31
0.0
1001
ACDBBLOCKREPETAG
1070
     1
1071
       39
1005
42B
  0
LINE
  5
42C
  8
0
 62
     1
 10
316.00000145517288
 20
61.500000162979859
 30
0.0
 11
349.00000145517288
 21
61.500000162979859
 31
0.0
1001
ACDBBLOCKREPETAG
1070
     1
1071
       40
1005
42C
  0
LINE
  5
42D
  8
0
 62
     1
 10
9.0000014551728782
 20
69.000000162979859
 30
0.0
 11
51.500001455172892
 21
69.000000162979859
 31
0.0
1001
ACDBBLOCKREPETAG
1070
     1
1071
       41
1005
42D
  0
LINE
  5
42E
  8
0
 62
     1
 10
51.500001455172892
 20
65.250000162979859
 30
0.0
 11
63.000001455172857
 21
65.250000162979859
 31
0.0
1001
ACDBBLOCKREPETAG
1070
     1
1071
       42
1005
42E
  0
LINE
  5
42F
  8
0
 62
     1
 10
93.000001455172864
 20
69.000000162979859
 30
0.0
 11
183.50000145517291
 21
69.000000162979859
 31
0.0
1001
ACDBBLOCKREPETAG
1070
     1
1071
       43
1005
42F
  0
LINE
  5
430
  8
0
 62
     1
 10
183.50000145517291
 20
65.250000162979859
 30
0.0
 11
316.00000145517288
 21
65.250000162979859
 31
0.0
1001
ACDBBLOCKREPETAG
1070
     1
1071
       44
1005
430
  0
LINE
  5
431
  8
0
 62
     1
 10
316.00000145517288
 20
69.000000162979859
 30
0.0
 11
349.00000145517288
 21
69.000000162979859
 31
0.0
1001
ACDBBLOCKREPETAG
1070
     1
1071
       45
1005
431
  0
LINE
  5
432
  8
0
 62
     2
 10
9.0000014551728782
 20
69.100000162979882
 30
0.0
 11
51.500001455172892
 21
69.100000162979882
 31
0.0
1001
ACDBBLOCKREPETAG
1070
     1
1071
       46
1005
432
  0
LINE
  5
433
  8
0
 62
     2
 10
9.0000014551728782
 20
68.900000162979836
 30
0.0
 11
51.500001455172892
 21
68.900000162979836
 31
0.0
1001
ACDBBLOCKREPETAG
1070
     1
1071
       47
1005
433
  0
LINE
  5
434
  8
0
 62
     2
 10
316.00000145517288
 20
68.900000162979836
 30
0.0
 11
349.00000145517288
 21
68.900000162979836
 31
0.0
1001
ACDBBLOCKREPETAG
1070
     1
1071
       48
1005
434
  0
LINE
  5
435
  8
0
 62
     2
 10
316.00000145517288
 20
69.100000162979882
 30
0.0
 11
349.00000145517288
 21
69.100000162979882
 31
0.0
1001
ACDBBLOCKREPETAG
1070
     1
1071
       49
1005
435
  0
LINE
  5
436
  8
0
 62
     2
 10
93.000001455172864
 20
69.100000162979882
 30
0.0
 11
183.50000145517291
 21
69.100000162979882
 31
0.0
1001
ACDBBLOCKREPETAG
1070
     1
1071
       50
1005
436
  0
LINE
  5
437
  8
0
 62
     2
 10
93.000001455172864
 20
68.900000162979836
 30
0.0
 11
183.50000145517291
 21
68.900000162979836
 31
0.0
1001
ACDBBLOCKREPETAG
1070
     1
1071
       51
1005
437
  0
LINE
  5
438
  8
0
 62
     1
 10
9.0000014551728782
 20
76.500000162979873
 30
0.0
 11
51.500001455172892
 21
76.500000162979873
 31
0.0
1001
ACDBBLOCKREPETAG
1070
     1
1071
       52
1005
438
  0
LINE
  5
439
  8
0
 62
     1
 10
51.500001455172892
 20
72.750000162979873
 30
0.0
 11
63.000001455172857
 21
72.750000162979873
 31
0.0
1001
ACDBBLOCKREPETAG
1070
     1
1071
       53
1005
439
  0
LINE
  5
43A
  8
0
 62
     1
 10
93.000001455172864
 20
76.500000162979873
 30
0.0
 11
183.50000145517291
 21
76.500000162979873
 31
0.0
1001
ACDBBLOCKREPETAG
1070
     1
1071
       54
1005
43A
  0
LINE
  5
43B
  8
0
 62
     1
 10
183.50000145517291
 20
72.750000162979873
 30
0.0
 11
316.00000145517288
 21
72.750000162979873
 31
0.0
1001
ACDBBLOCKREPETAG
1070
     1
1071
       55
1005
43B
  0
LINE
  5
43C
  8
0
 62
     1
 10
316.00000145517288
 20
76.500000162979873
 30
0.0
 11
349.00000145517288
 21
76.500000162979873
 31
0.0
1001
ACDBBLOCKREPETAG
1070
     1
1071
       56
1005
43C
  0
LINE
  5
43D
  8
0
 62
     2
 10
51.500001455172892
 20
72.850000162979882
 30
0.0
 11
63.000001455172857
 21
72.850000162979882
 31
0.0
1001
ACDBBLOCKREPETAG
1070
     1
1071
       57
1005
43D
  0
LINE
  5
43E
  8
0
 62
     1
 10
93.000001455172864
 20
76.500000162979873
 30
0.0
 11
183.50000145517291
 21
76.500000162979873
 31
0.0
1001
ACDBBLOCKREPETAG
1070
     1
1071
       58
1005
43E
  0
LINE
  5
43F
  8
0
 62
     2
 10
51.500001455172892
 20
72.650000162979808
 30
0.0
 11
63.000001455172857
 21
72.650000162979808
 31
0.0
1001
ACDBBLOCKREPETAG
1070
     1
1071
       59
1005
43F
  0
LINE
  5
440
  8
0
 62
     1
 10
93.000001455172864
 20
76.500000162979873
 30
0.0
 11
183.50000145517291
 21
76.500000162979873
 31
0.0
1001
ACDBBLOCKREPETAG
1070
     1
1071
       60
1005
440
  0
LINE
  5
441
  8
0
 62
     2
 10
183.50000145517291
 20
72.850000162979882
 30
0.0
 11
316.00000145517288
 21
72.850000162979882
 31
0.0
1001
ACDBBLOCKREPETAG
1070
     1
1071
       61
1005
441
  0
LINE
  5
442
  8
0
 62
     2
 10
183.50000145517291
 20
72.650000162979808
 30
0.0
 11
316.00000145517288
 21
72.650000162979808
 31
0.0
1001
ACDBBLOCKREPETAG
1070
     1
1071
       62
1005
442
  0
LINE
  5
443
  8
0
 62
     1
 10
9.0000014551728782
 20
84.000000162979845
 30
0.0
 11
51.500001455172892
 21
84.000000162979845
 31
0.0
1001
ACDBBLOCKREPETAG
1070
     1
1071
       63
1005
443
  0
LINE
  5
444
  8
0
 62
     1
 10
51.500001455172892
 20
80.250000162979845
 30
0.0
 11
63.000001455172857
 21
80.250000162979845
 31
0.0
1001
ACDBBLOCKREPETAG
1070
     1
1071
       64
1005
444
  0
LINE
  5
445
  8
0
 62
     1
 10
93.000001455172864
 20
84.000000162979845
 30
0.0
 11
183.50000145517291
 21
84.000000162979845
 31
0.0
1001
ACDBBLOCKREPETAG
1070
     1
1071
       65
1005
445
  0
LINE
  5
446
  8
0
 62
     1
 10
183.50000145517291
 20
80.250000162979845
 30
0.0
 11
316.00000145517288
 21
80.250000162979845
 31
0.0
1001
ACDBBLOCKREPETAG
1070
     1
1071
       66
1005
446
  0
LINE
  5
447
  8
0
 62
     1
 10
316.00000145517288
 20
84.000000162979845
 30
0.0
 11
349.00000145517288
 21
84.000000162979845
 31
0.0
1001
ACDBBLOCKREPETAG
1070
     1
1071
       67
1005
447
  0
LINE
  5
448
  8
0
 62
     1
 10
9.0000014551728782
 20
91.500000162979845
 30
0.0
 11
51.500001455172892
 21
91.500000162979845
 31
0.0
1001
ACDBBLOCKREPETAG
1070
     1
1071
       68
1005
448
  0
LINE
  5
449
  8
0
 62
     1
 10
51.500001455172892
 20
87.750000162979845
 30
0.0
 11
63.000001455172857
 21
87.750000162979845
 31
0.0
1001
ACDBBLOCKREPETAG
1070
     1
1071
       69
1005
449
  0
LINE
  5
44A
  8
0
 62
     1
 10
93.000001455172864
 20
91.500000162979845
 30
0.0
 11
183.50000145517291
 21
91.500000162979845
 31
0.0
1001
ACDBBLOCKREPETAG
1070
     1
1071
       70
1005
44A
  0
LINE
  5
44B
  8
0
 62
     1
 10
183.50000145517291
 20
87.750000162979845
 30
0.0
 11
316.00000145517288
 21
87.750000162979845
 31
0.0
1001
ACDBBLOCKREPETAG
1070
     1
1071
       71
1005
44B
  0
LINE
  5
44C
  8
0
 62
     1
 10
316.00000145517288
 20
91.500000162979845
 30
0.0
 11
349.00000145517288
 21
91.500000162979845
 31
0.0
1001
ACDBBLOCKREPETAG
1070
     1
1071
       72
1005
44C
  0
LINE
  5
44D
  8
0
 62
     1
 10
9.0000014551728782
 20
99.000000162979873
 30
0.0
 11
51.500001455172892
 21
99.000000162979873
 31
0.0
1001
ACDBBLOCKREPETAG
1070
     1
1071
       73
1005
44D
  0
LINE
  5
44E
  8
0
 62
     1
 10
51.500001455172892
 20
95.250000162979845
 30
0.0
 11
63.000001455172857
 21
95.250000162979845
 31
0.0
1001
ACDBBLOCKREPETAG
1070
     1
1071
       74
1005
44E
  0
LINE
  5
44F
  8
0
 62
     1
 10
93.000001455172864
 20
99.000000162979873
 30
0.0
 11
183.50000145517291
 21
99.000000162979873
 31
0.0
1001
ACDBBLOCKREPETAG
1070
     1
1071
       75
1005
44F
  0
LINE
  5
450
  8
0
 62
     1
 10
183.50000145517291
 20
95.250000162979845
 30
0.0
 11
316.00000145517288
 21
95.250000162979845
 31
0.0
1001
ACDBBLOCKREPETAG
1070
     1
1071
       76
1005
450
  0
LINE
  5
451
  8
0
 62
     1
 10
316.00000145517288
 20
99.000000162979873
 30
0.0
 11
349.00000145517288
 21
99.000000162979873
 31
0.0
1001
ACDBBLOCKREPETAG
1070
     1
1071
       77
1005
451
  0
LINE
  5
452
  8
0
 62
     1
 10
9.0000014551728782
 20
106.5000001629798
 30
0.0
 11
51.500001455172892
 21
106.5000001629798
 31
0.0
1001
ACDBBLOCKREPETAG
1070
     1
1071
       78
1005
452
  0
LINE
  5
453
  8
0
 62
     1
 10
51.500001455172892
 20
102.7500001629798
 30
0.0
 11
63.000001455172857
 21
102.7500001629798
 31
0.0
1001
ACDBBLOCKREPETAG
1070
     1
1071
       79
1005
453
  0
LINE
  5
454
  8
0
 62
     1
 10
93.000001455172864
 20
106.5000001629798
 30
0.0
 11
183.50000145517291
 21
106.5000001629798
 31
0.0
1001
ACDBBLOCKREPETAG
1070
     1
1071
       80
1005
454
  0
LINE
  5
455
  8
0
 62
     1
 10
183.50000145517291
 20
102.7500001629798
 30
0.0
 11
316.00000145517288
 21
102.7500001629798
 31
0.0
1001
ACDBBLOCKREPETAG
1070
     1
1071
       81
1005
455
  0
LINE
  5
456
  8
0
 62
     1
 10
316.00000145517288
 20
106.5000001629798
 30
0.0
 11
349.00000145517288
 21
106.5000001629798
 31
0.0
1001
ACDBBLOCKREPETAG
1070
     1
1071
       82
1005
456
  0
LINE
  5
457
  8
0
 62
     2
 10
9.0000014551728782
 20
106.6000001629799
 30
0.0
 11
51.500001455172892
 21
106.6000001629799
 31
0.0
1001
ACDBBLOCKREPETAG
1070
     1
1071
       83
1005
457
  0
LINE
  5
458
  8
0
 62
     2
 10
9.0000014551728782
 20
106.40000016297979
 30
0.0
 11
51.500001455172892
 21
106.40000016297979
 31
0.0
1001
ACDBBLOCKREPETAG
1070
     1
1071
       84
1005
458
  0
LINE
  5
459
  8
0
 62
     2
 10
316.00000145517288
 20
106.40000016297979
 30
0.0
 11
349.00000145517288
 21
106.40000016297979
 31
0.0
1001
ACDBBLOCKREPETAG
1070
     1
1071
       85
1005
459
  0
LINE
  5
45A
  8
0
 62
     2
 10
316.00000145517288
 20
106.6000001629799
 30
0.0
 11
349.00000145517288
 21
106.6000001629799
 31
0.0
1001
ACDBBLOCKREPETAG
1070
     1
1071
       86
1005
45A
  0
LINE
  5
45B
  8
0
 62
     2
 10
93.000001455172864
 20
106.6000001629799
 30
0.0
 11
183.50000145517291
 21
106.6000001629799
 31
0.0
1001
ACDBBLOCKREPETAG
1070
     1
1071
       87
1005
45B
  0
LINE
  5
45C
  8
0
 62
     2
 10
93.000001455172864
 20
106.40000016297979
 30
0.0
 11
183.50000145517291
 21
106.40000016297979
 31
0.0
1001
ACDBBLOCKREPETAG
1070
     1
1071
       88
1005
45C
  0
LINE
  5
45D
  8
0
 62
     1
 10
9.0000014551728782
 20
114.0000001629798
 30
0.0
 11
51.500001455172892
 21
114.0000001629798
 31
0.0
1001
ACDBBLOCKREPETAG
1070
     1
1071
       89
1005
45D
  0
LINE
  5
45E
  8
0
 62
     1
 10
51.500001455172892
 20
110.2500001629798
 30
0.0
 11
63.000001455172857
 21
110.2500001629798
 31
0.0
1001
ACDBBLOCKREPETAG
1070
     1
1071
       90
1005
45E
  0
LINE
  5
45F
  8
0
 62
     1
 10
93.000001455172864
 20
114.0000001629798
 30
0.0
 11
183.50000145517291
 21
114.0000001629798
 31
0.0
1001
ACDBBLOCKREPETAG
1070
     1
1071
       91
1005
45F
  0
LINE
  5
460
  8
0
 62
     1
 10
183.50000145517291
 20
110.2500001629798
 30
0.0
 11
316.00000145517288
 21
110.2500001629798
 31
0.0
1001
ACDBBLOCKREPETAG
1070
     1
1071
       92
1005
460
  0
LINE
  5
461
  8
0
 62
     1
 10
316.00000145517288
 20
114.0000001629798
 30
0.0
 11
349.00000145517288
 21
114.0000001629798
 31
0.0
1001
ACDBBLOCKREPETAG
1070
     1
1071
       93
1005
461
  0
LINE
  5
462
  8
0
 62
     2
 10
51.500001455172892
 20
110.3500001629799
 30
0.0
 11
63.000001455172857
 21
110.3500001629799
 31
0.0
1001
ACDBBLOCKREPETAG
1070
     1
1071
       94
1005
462
  0
LINE
  5
463
  8
0
 62
     1
 10
93.000001455172864
 20
114.0000001629798
 30
0.0
 11
183.50000145517291
 21
114.0000001629798
 31
0.0
1001
ACDBBLOCKREPETAG
1070
     1
1071
       95
1005
463
  0
LINE
  5
464
  8
0
 62
     2
 10
51.500001455172892
 20
110.15000016297979
 30
0.0
 11
63.000001455172857
 21
110.15000016297979
 31
0.0
1001
ACDBBLOCKREPETAG
1070
     1
1071
       96
1005
464
  0
LINE
  5
465
  8
0
 62
     1
 10
93.000001455172864
 20
114.0000001629798
 30
0.0
 11
183.50000145517291
 21
114.0000001629798
 31
0.0
1001
ACDBBLOCKREPETAG
1070
     1
1071
       97
1005
465
  0
LINE
  5
466
  8
0
 62
     2
 10
183.50000145517291
 20
110.3500001629799
 30
0.0
 11
316.00000145517288
 21
110.3500001629799
 31
0.0
1001
ACDBBLOCKREPETAG
1070
     1
1071
       98
1005
466
  0
LINE
  5
467
  8
0
 62
     2
 10
183.50000145517291
 20
110.15000016297979
 30
0.0
 11
316.00000145517288
 21
110.15000016297979
 31
0.0
1001
ACDBBLOCKREPETAG
1070
     1
1071
       99
1005
467
  0
LINE
  5
468
  8
0
 62
     1
 10
9.0000014551728782
 20
121.5000001629798
 30
0.0
 11
51.500001455172892
 21
121.5000001629798
 31
0.0
1001
ACDBBLOCKREPETAG
1070
     1
1071
      100
1005
468
  0
LINE
  5
469
  8
0
 62
     1
 10
51.500001455172892
 20
117.7500001629798
 30
0.0
 11
63.000001455172857
 21
117.7500001629798
 31
0.0
1001
ACDBBLOCKREPETAG
1070
     1
1071
      101
1005
469
  0
LINE
  5
46A
  8
0
 62
     1
 10
93.000001455172864
 20
121.5000001629798
 30
0.0
 11
183.50000145517291
 21
121.5000001629798
 31
0.0
1001
ACDBBLOCKREPETAG
1070
     1
1071
      102
1005
46A
  0
LINE
  5
46B
  8
0
 62
     1
 10
183.50000145517291
 20
117.7500001629798
 30
0.0
 11
316.00000145517288
 21
117.7500001629798
 31
0.0
1001
ACDBBLOCKREPETAG
1070
     1
1071
      103
1005
46B
  0
LINE
  5
46C
  8
0
 62
     1
 10
316.00000145517288
 20
121.5000001629798
 30
0.0
 11
349.00000145517288
 21
121.5000001629798
 31
0.0
1001
ACDBBLOCKREPETAG
1070
     1
1071
      104
1005
46C
  0
LINE
  5
46D
  8
0
 62
     1
 10
9.0000014551728782
 20
129.0000001629798
 30
0.0
 11
51.500001455172892
 21
129.0000001629798
 31
0.0
1001
ACDBBLOCKREPETAG
1070
     1
1071
      105
1005
46D
  0
LINE
  5
46E
  8
0
 62
     1
 10
51.500001455172892
 20
125.2500001629798
 30
0.0
 11
63.000001455172857
 21
125.2500001629798
 31
0.0
1001
ACDBBLOCKREPETAG
1070
     1
1071
      106
1005
46E
  0
LINE
  5
46F
  8
0
 62
     1
 10
93.000001455172864
 20
129.0000001629798
 30
0.0
 11
183.50000145517291
 21
129.0000001629798
 31
0.0
1001
ACDBBLOCKREPETAG
1070
     1
1071
      107
1005
46F
  0
LINE
  5
470
  8
0
 62
     1
 10
183.50000145517291
 20
125.2500001629798
 30
0.0
 11
316.00000145517288
 21
125.2500001629798
 31
0.0
1001
ACDBBLOCKREPETAG
1070
     1
1071
      108
1005
470
  0
LINE
  5
471
  8
0
 62
     1
 10
316.00000145517288
 20
129.0000001629798
 30
0.0
 11
349.00000145517288
 21
129.0000001629798
 31
0.0
1001
ACDBBLOCKREPETAG
1070
     1
1071
      109
1005
471
  0
LINE
  5
472
  8
0
 62
     1
 10
9.0000014551728782
 20
136.5000001629798
 30
0.0
 11
51.500001455172892
 21
136.5000001629798
 31
0.0
1001
ACDBBLOCKREPETAG
1070
     1
1071
      110
1005
472
  0
LINE
  5
473
  8
0
 62
     1
 10
51.500001455172892
 20
132.7500001629798
 30
0.0
 11
63.000001455172857
 21
132.7500001629798
 31
0.0
1001
ACDBBLOCKREPETAG
1070
     1
1071
      111
1005
473
  0
LINE
  5
474
  8
0
 62
     1
 10
93.000001455172864
 20
136.5000001629798
 30
0.0
 11
183.50000145517291
 21
136.5000001629798
 31
0.0
1001
ACDBBLOCKREPETAG
1070
     1
1071
      112
1005
474
  0
LINE
  5
475
  8
0
 62
     1
 10
183.50000145517291
 20
132.7500001629798
 30
0.0
 11
316.00000145517288
 21
132.7500001629798
 31
0.0
1001
ACDBBLOCKREPETAG
1070
     1
1071
      113
1005
475
  0
LINE
  5
476
  8
0
 62
     1
 10
316.00000145517288
 20
136.5000001629798
 30
0.0
 11
349.00000145517288
 21
136.5000001629798
 31
0.0
1001
ACDBBLOCKREPETAG
1070
     1
1071
      114
1005
476
  0
LINE
  5
477
  8
0
 62
     1
 10
9.0000014551728782
 20
144.0000001629798
 30
0.0
 11
51.500001455172892
 21
144.0000001629798
 31
0.0
1001
ACDBBLOCKREPETAG
1070
     1
1071
      115
1005
477
  0
LINE
  5
478
  8
0
 62
     1
 10
51.500001455172892
 20
140.2500001629798
 30
0.0
 11
63.000001455172857
 21
140.2500001629798
 31
0.0
1001
ACDBBLOCKREPETAG
1070
     1
1071
      116
1005
478
  0
LINE
  5
479
  8
0
 62
     1
 10
93.000001455172864
 20
144.0000001629798
 30
0.0
 11
183.50000145517291
 21
144.0000001629798
 31
0.0
1001
ACDBBLOCKREPETAG
1070
     1
1071
      117
1005
479
  0
LINE
  5
47A
  8
0
 62
     1
 10
183.50000145517291
 20
140.2500001629798
 30
0.0
 11
316.00000145517288
 21
140.2500001629798
 31
0.0
1001
ACDBBLOCKREPETAG
1070
     1
1071
      118
1005
47A
  0
LINE
  5
47B
  8
0
 62
     1
 10
316.00000145517288
 20
144.0000001629798
 30
0.0
 11
349.00000145517288
 21
144.0000001629798
 31
0.0
1001
ACDBBLOCKREPETAG
1070
     1
1071
      119
1005
47B
  0
LINE
  5
47C
  8
0
 62
     2
 10
9.0000014551728782
 20
144.10000016297991
 30
0.0
 11
51.500001455172892
 21
144.10000016297991
 31
0.0
1001
ACDBBLOCKREPETAG
1070
     1
1071
      120
1005
47C
  0
LINE
  5
47D
  8
0
 62
     2
 10
9.0000014551728782
 20
143.90000016297981
 30
0.0
 11
51.500001455172892
 21
143.90000016297981
 31
0.0
1001
ACDBBLOCKREPETAG
1070
     1
1071
      121
1005
47D
  0
LINE
  5
47E
  8
0
 62
     2
 10
316.00000145517288
 20
143.90000016297981
 30
0.0
 11
349.00000145517288
 21
143.90000016297981
 31
0.0
1001
ACDBBLOCKREPETAG
1070
     1
1071
      122
1005
47E
  0
LINE
  5
47F
  8
0
 62
     2
 10
316.00000145517288
 20
144.10000016297991
 30
0.0
 11
349.00000145517288
 21
144.10000016297991
 31
0.0
1001
ACDBBLOCKREPETAG
1070
     1
1071
      123
1005
47F
  0
LINE
  5
480
  8
0
 62
     2
 10
93.000001455172864
 20
144.10000016297991
 30
0.0
 11
183.50000145517291
 21
144.10000016297991
 31
0.0
1001
ACDBBLOCKREPETAG
1070
     1
1071
      124
1005
480
  0
LINE
  5
481
  8
0
 62
     2
 10
93.000001455172864
 20
143.90000016297981
 30
0.0
 11
183.50000145517291
 21
143.90000016297981
 31
0.0
1001
ACDBBLOCKREPETAG
1070
     1
1071
      125
1005
481
  0
LINE
  5
482
  8
0
 62
     1
 10
9.0000014551728782
 20
151.5000001629798
 30
0.0
 11
51.500001455172892
 21
151.5000001629798
 31
0.0
1001
ACDBBLOCKREPETAG
1070
     1
1071
      126
1005
482
  0
LINE
  5
483
  8
0
 62
     1
 10
51.500001455172892
 20
147.7500001629798
 30
0.0
 11
63.000001455172857
 21
147.7500001629798
 31
0.0
1001
ACDBBLOCKREPETAG
1070
     1
1071
      127
1005
483
  0
LINE
  5
484
  8
0
 62
     1
 10
93.000001455172864
 20
151.5000001629798
 30
0.0
 11
183.50000145517291
 21
151.5000001629798
 31
0.0
1001
ACDBBLOCKREPETAG
1070
     1
1071
      128
1005
484
  0
LINE
  5
485
  8
0
 62
     1
 10
183.50000145517291
 20
147.7500001629798
 30
0.0
 11
316.00000145517288
 21
147.7500001629798
 31
0.0
1001
ACDBBLOCKREPETAG
1070
     1
1071
      129
1005
485
  0
LINE
  5
486
  8
0
 62
     1
 10
316.00000145517288
 20
151.5000001629798
 30
0.0
 11
349.00000145517288
 21
151.5000001629798
 31
0.0
1001
ACDBBLOCKREPETAG
1070
     1
1071
      130
1005
486
  0
LINE
  5
487
  8
0
 62
     2
 10
51.500001455172892
 20
147.85000016297991
 30
0.0
 11
63.000001455172857
 21
147.85000016297991
 31
0.0
1001
ACDBBLOCKREPETAG
1070
     1
1071
      131
1005
487
  0
LINE
  5
488
  8
0
 62
     1
 10
93.000001455172864
 20
151.5000001629798
 30
0.0
 11
183.50000145517291
 21
151.5000001629798
 31
0.0
1001
ACDBBLOCKREPETAG
1070
     1
1071
      132
1005
488
  0
LINE
  5
489
  8
0
 62
     2
 10
51.500001455172892
 20
147.65000016297981
 30
0.0
 11
63.000001455172857
 21
147.65000016297981
 31
0.0
1001
ACDBBLOCKREPETAG
1070
     1
1071
      133
1005
489
  0
LINE
  5
48A
  8
0
 62
     1
 10
93.000001455172864
 20
151.5000001629798
 30
0.0
 11
183.50000145517291
 21
151.5000001629798
 31
0.0
1001
ACDBBLOCKREPETAG
1070
     1
1071
      134
1005
48A
  0
LINE
  5
48B
  8
0
 62
     2
 10
183.50000145517291
 20
147.85000016297991
 30
0.0
 11
316.00000145517288
 21
147.85000016297991
 31
0.0
1001
ACDBBLOCKREPETAG
1070
     1
1071
      135
1005
48B
  0
LINE
  5
48C
  8
0
 62
     2
 10
183.50000145517291
 20
147.65000016297981
 30
0.0
 11
316.00000145517288
 21
147.65000016297981
 31
0.0
1001
ACDBBLOCKREPETAG
1070
     1
1071
      136
1005
48C
  0
LINE
  5
48D
  8
0
 62
     1
 10
9.0000014551728782
 20
159.0000001629798
 30
0.0
 11
51.500001455172892
 21
159.0000001629798
 31
0.0
1001
ACDBBLOCKREPETAG
1070
     1
1071
      137
1005
48D
  0
LINE
  5
48E
  8
0
 62
     1
 10
51.500001455172892
 20
155.2500001629798
 30
0.0
 11
63.000001455172857
 21
155.2500001629798
 31
0.0
1001
ACDBBLOCKREPETAG
1070
     1
1071
      138
1005
48E
  0
LINE
  5
48F
  8
0
 62
     1
 10
93.000001455172864
 20
159.0000001629798
 30
0.0
 11
183.50000145517291
 21
159.0000001629798
 31
0.0
1001
ACDBBLOCKREPETAG
1070
     1
1071
      139
1005
48F
  0
LINE
  5
490
  8
0
 62
     1
 10
183.50000145517291
 20
155.2500001629798
 30
0.0
 11
316.00000145517288
 21
155.2500001629798
 31
0.0
1001
ACDBBLOCKREPETAG
1070
     1
1071
      140
1005
490
  0
LINE
  5
491
  8
0
 62
     1
 10
316.00000145517288
 20
159.0000001629798
 30
0.0
 11
349.00000145517288
 21
159.0000001629798
 31
0.0
1001
ACDBBLOCKREPETAG
1070
     1
1071
      141
1005
491
  0
LINE
  5
492
  8
0
 62
     1
 10
9.0000014551728782
 20
166.5000001629798
 30
0.0
 11
51.500001455172892
 21
166.5000001629798
 31
0.0
1001
ACDBBLOCKREPETAG
1070
     1
1071
      142
1005
492
  0
LINE
  5
493
  8
0
 62
     1
 10
51.500001455172892
 20
162.7500001629798
 30
0.0
 11
63.000001455172857
 21
162.7500001629798
 31
0.0
1001
ACDBBLOCKREPETAG
1070
     1
1071
      143
1005
493
  0
LINE
  5
494
  8
0
 62
     1
 10
93.000001455172864
 20
166.5000001629798
 30
0.0
 11
183.50000145517291
 21
166.5000001629798
 31
0.0
1001
ACDBBLOCKREPETAG
1070
     1
1071
      144
1005
494
  0
LINE
  5
495
  8
0
 62
     1
 10
183.50000145517291
 20
162.7500001629798
 30
0.0
 11
316.00000145517288
 21
162.7500001629798
 31
0.0
1001
ACDBBLOCKREPETAG
1070
     1
1071
      145
1005
495
  0
LINE
  5
496
  8
0
 62
     1
 10
316.00000145517288
 20
166.5000001629798
 30
0.0
 11
349.00000145517288
 21
166.5000001629798
 31
0.0
1001
ACDBBLOCKREPETAG
1070
     1
1071
      146
1005
496
  0
LINE
  5
497
  8
0
 62
     1
 10
9.0000014551728782
 20
174.0000001629798
 30
0.0
 11
51.500001455172892
 21
174.0000001629798
 31
0.0
1001
ACDBBLOCKREPETAG
1070
     1
1071
      147
1005
497
  0
LINE
  5
498
  8
0
 62
     1
 10
51.500001455172892
 20
170.2500001629798
 30
0.0
 11
63.000001455172857
 21
170.2500001629798
 31
0.0
1001
ACDBBLOCKREPETAG
1070
     1
1071
      148
1005
498
  0
LINE
  5
499
  8
0
 62
     1
 10
93.000001455172864
 20
174.0000001629798
 30
0.0
 11
183.50000145517291
 21
174.0000001629798
 31
0.0
1001
ACDBBLOCKREPETAG
1070
     1
1071
      149
1005
499
  0
LINE
  5
49A
  8
0
 62
     1
 10
183.50000145517291
 20
170.2500001629798
 30
0.0
 11
316.00000145517288
 21
170.2500001629798
 31
0.0
1001
ACDBBLOCKREPETAG
1070
     1
1071
      150
1005
49A
  0
LINE
  5
49B
  8
0
 62
     1
 10
316.00000145517288
 20
174.0000001629798
 30
0.0
 11
349.00000145517288
 21
174.0000001629798
 31
0.0
1001
ACDBBLOCKREPETAG
1070
     1
1071
      151
1005
49B
  0
LINE
  5
49C
  8
0
 62
     1
 10
9.0000014551728782
 20
181.5000001629798
 30
0.0
 11
51.500001455172892
 21
181.5000001629798
 31
0.0
1001
ACDBBLOCKREPETAG
1070
     1
1071
      152
1005
49C
  0
LINE
  5
49D
  8
0
 62
     1
 10
51.500001455172892
 20
177.7500001629798
 30
0.0
 11
63.000001455172857
 21
177.7500001629798
 31
0.0
1001
ACDBBLOCKREPETAG
1070
     1
1071
      153
1005
49D
  0
LINE
  5
49E
  8
0
 62
     1
 10
93.000001455172864
 20
181.5000001629798
 30
0.0
 11
183.50000145517291
 21
181.5000001629798
 31
0.0
1001
ACDBBLOCKREPETAG
1070
     1
1071
      154
1005
49E
  0
LINE
  5
49F
  8
0
 62
     1
 10
183.50000145517291
 20
177.7500001629798
 30
0.0
 11
316.00000145517288
 21
177.7500001629798
 31
0.0
1001
ACDBBLOCKREPETAG
1070
     1
1071
      155
1005
49F
  0
LINE
  5
4A0
  8
0
 62
     1
 10
316.00000145517288
 20
181.5000001629798
 30
0.0
 11
349.00000145517288
 21
181.5000001629798
 31
0.0
1001
ACDBBLOCKREPETAG
1070
     1
1071
      156
1005
4A0
  0
LINE
  5
4A1
  8
0
 62
     2
 10
9.0000014551728782
 20
181.60000016297991
 30
0.0
 11
51.500001455172892
 21
181.60000016297991
 31
0.0
1001
ACDBBLOCKREPETAG
1070
     1
1071
      157
1005
4A1
  0
LINE
  5
4A2
  8
0
 62
     2
 10
9.0000014551728782
 20
181.40000016297981
 30
0.0
 11
51.500001455172892
 21
181.40000016297981
 31
0.0
1001
ACDBBLOCKREPETAG
1070
     1
1071
      158
1005
4A2
  0
LINE
  5
4A3
  8
0
 62
     2
 10
316.00000145517288
 20
181.40000016297981
 30
0.0
 11
349.00000145517288
 21
181.40000016297981
 31
0.0
1001
ACDBBLOCKREPETAG
1070
     1
1071
      159
1005
4A3
  0
LINE
  5
4A4
  8
0
 62
     2
 10
316.00000145517288
 20
181.60000016297991
 30
0.0
 11
349.00000145517288
 21
181.60000016297991
 31
0.0
1001
ACDBBLOCKREPETAG
1070
     1
1071
      160
1005
4A4
  0
LINE
  5
4A5
  8
0
 62
     2
 10
93.000001455172864
 20
181.60000016297991
 30
0.0
 11
183.50000145517291
 21
181.60000016297991
 31
0.0
1001
ACDBBLOCKREPETAG
1070
     1
1071
      161
1005
4A5
  0
LINE
  5
4A6
  8
0
 62
     2
 10
93.000001455172864
 20
181.40000016297981
 30
0.0
 11
183.50000145517291
 21
181.40000016297981
 31
0.0
1001
ACDBBLOCKREPETAG
1070
     1
1071
      162
1005
4A6
  0
LINE
  5
4A7
  8
0
 62
     1
 10
9.0000014551728782
 20
189.0000001629798
 30
0.0
 11
51.500001455172892
 21
189.0000001629798
 31
0.0
1001
ACDBBLOCKREPETAG
1070
     1
1071
      163
1005
4A7
  0
LINE
  5
4A8
  8
0
 62
     1
 10
51.500001455172892
 20
185.2500001629798
 30
0.0
 11
63.000001455172857
 21
185.2500001629798
 31
0.0
1001
ACDBBLOCKREPETAG
1070
     1
1071
      164
1005
4A8
  0
LINE
  5
4A9
  8
0
 62
     1
 10
93.000001455172864
 20
189.0000001629798
 30
0.0
 11
183.50000145517291
 21
189.0000001629798
 31
0.0
1001
ACDBBLOCKREPETAG
1070
     1
1071
      165
1005
4A9
  0
LINE
  5
4AA
  8
0
 62
     1
 10
183.50000145517291
 20
185.2500001629798
 30
0.0
 11
316.00000145517288
 21
185.2500001629798
 31
0.0
1001
ACDBBLOCKREPETAG
1070
     1
1071
      166
1005
4AA
  0
LINE
  5
4AB
  8
0
 62
     1
 10
316.00000145517288
 20
189.0000001629798
 30
0.0
 11
349.00000145517288
 21
189.0000001629798
 31
0.0
1001
ACDBBLOCKREPETAG
1070
     1
1071
      167
1005
4AB
  0
LINE
  5
4AC
  8
0
 62
     2
 10
51.500001455172892
 20
185.35000016297991
 30
0.0
 11
63.000001455172857
 21
185.35000016297991
 31
0.0
1001
ACDBBLOCKREPETAG
1070
     1
1071
      168
1005
4AC
  0
LINE
  5
4AD
  8
0
 62
     1
 10
93.000001455172864
 20
189.0000001629798
 30
0.0
 11
183.50000145517291
 21
189.0000001629798
 31
0.0
1001
ACDBBLOCKREPETAG
1070
     1
1071
      169
1005
4AD
  0
LINE
  5
4AE
  8
0
 62
     2
 10
51.500001455172892
 20
185.15000016297981
 30
0.0
 11
63.000001455172857
 21
185.15000016297981
 31
0.0
1001
ACDBBLOCKREPETAG
1070
     1
1071
      170
1005
4AE
  0
LINE
  5
4AF
  8
0
 62
     1
 10
93.000001455172864
 20
189.0000001629798
 30
0.0
 11
183.50000145517291
 21
189.0000001629798
 31
0.0
1001
ACDBBLOCKREPETAG
1070
     1
1071
      171
1005
4AF
  0
LINE
  5
4B0
  8
0
 62
     2
 10
183.50000145517291
 20
185.35000016297991
 30
0.0
 11
316.00000145517288
 21
185.35000016297991
 31
0.0
1001
ACDBBLOCKREPETAG
1070
     1
1071
      172
1005
4B0
  0
LINE
  5
4B1
  8
0
 62
     2
 10
183.50000145517291
 20
185.15000016297981
 30
0.0
 11
316.00000145517288
 21
185.15000016297981
 31
0.0
1001
ACDBBLOCKREPETAG
1070
     1
1071
      173
1005
4B1
  0
LINE
  5
4B2
  8
0
 62
     1
 10
9.0000014551728782
 20
196.5000001629798
 30
0.0
 11
51.500001455172892
 21
196.5000001629798
 31
0.0
1001
ACDBBLOCKREPETAG
1070
     1
1071
      174
1005
4B2
  0
LINE
  5
4B3
  8
0
 62
     1
 10
51.500001455172892
 20
192.7500001629798
 30
0.0
 11
63.000001455172857
 21
192.7500001629798
 31
0.0
1001
ACDBBLOCKREPETAG
1070
     1
1071
      175
1005
4B3
  0
LINE
  5
4B4
  8
0
 62
     1
 10
93.000001455172864
 20
196.5000001629798
 30
0.0
 11
183.50000145517291
 21
196.5000001629798
 31
0.0
1001
ACDBBLOCKREPETAG
1070
     1
1071
      176
1005
4B4
  0
LINE
  5
4B5
  8
0
 62
     1
 10
183.50000145517291
 20
192.7500001629798
 30
0.0
 11
316.00000145517288
 21
192.7500001629798
 31
0.0
1001
ACDBBLOCKREPETAG
1070
     1
1071
      177
1005
4B5
  0
LINE
  5
4B6
  8
0
 62
     1
 10
316.00000145517288
 20
196.5000001629798
 30
0.0
 11
349.00000145517288
 21
196.5000001629798
 31
0.0
1001
ACDBBLOCKREPETAG
1070
     1
1071
      178
1005
4B6
  0
LINE
  5
4B7
  8
0
 62
     1
 10
9.0000014551728782
 20
204.0000001629798
 30
0.0
 11
51.500001455172892
 21
204.0000001629798
 31
0.0
1001
ACDBBLOCKREPETAG
1070
     1
1071
      179
1005
4B7
  0
LINE
  5
4B8
  8
0
 62
     1
 10
51.500001455172892
 20
200.2500001629798
 30
0.0
 11
63.000001455172857
 21
200.2500001629798
 31
0.0
1001
ACDBBLOCKREPETAG
1070
     1
1071
      180
1005
4B8
  0
LINE
  5
4B9
  8
0
 62
     1
 10
93.000001455172864
 20
204.0000001629798
 30
0.0
 11
183.50000145517291
 21
204.0000001629798
 31
0.0
1001
ACDBBLOCKREPETAG
1070
     1
1071
      181
1005
4B9
  0
LINE
  5
4BA
  8
0
 62
     1
 10
183.50000145517291
 20
200.2500001629798
 30
0.0
 11
316.00000145517288
 21
200.2500001629798
 31
0.0
1001
ACDBBLOCKREPETAG
1070
     1
1071
      182
1005
4BA
  0
LINE
  5
4BB
  8
0
 62
     1
 10
316.00000145517288
 20
204.0000001629798
 30
0.0
 11
349.00000145517288
 21
204.0000001629798
 31
0.0
1001
ACDBBLOCKREPETAG
1070
     1
1071
      183
1005
4BB
  0
LINE
  5
4BC
  8
0
 62
     1
 10
9.0000014551728782
 20
211.50000016297989
 30
0.0
 11
51.500001455172892
 21
211.50000016297989
 31
0.0
1001
ACDBBLOCKREPETAG
1070
     1
1071
      184
1005
4BC
  0
LINE
  5
4BD
  8
0
 62
     1
 10
51.500001455172892
 20
207.75000016297989
 30
0.0
 11
63.000001455172857
 21
207.75000016297989
 31
0.0
1001
ACDBBLOCKREPETAG
1070
     1
1071
      185
1005
4BD
  0
LINE
  5
4BE
  8
0
 62
     1
 10
93.000001455172864
 20
211.50000016297989
 30
0.0
 11
183.50000145517291
 21
211.50000016297989
 31
0.0
1001
ACDBBLOCKREPETAG
1070
     1
1071
      186
1005
4BE
  0
LINE
  5
4BF
  8
0
 62
     1
 10
183.50000145517291
 20
207.75000016297989
 30
0.0
 11
316.00000145517288
 21
207.75000016297989
 31
0.0
1001
ACDBBLOCKREPETAG
1070
     1
1071
      187
1005
4BF
  0
LINE
  5
4C0
  8
0
 62
     1
 10
316.00000145517288
 20
211.50000016297989
 30
0.0
 11
349.00000145517288
 21
211.50000016297989
 31
0.0
1001
ACDBBLOCKREPETAG
1070
     1
1071
      188
1005
4C0
  0
LINE
  5
4C1
  8
0
 62
     1
 10
9.0000014551728782
 20
219.0000001629798
 30
0.0
 11
51.500001455172892
 21
219.0000001629798
 31
0.0
1001
ACDBBLOCKREPETAG
1070
     1
1071
      189
1005
4C1
  0
LINE
  5
4C2
  8
0
 62
     1
 10
51.500001455172892
 20
215.25000016297989
 30
0.0
 11
63.000001455172857
 21
215.25000016297989
 31
0.0
1001
ACDBBLOCKREPETAG
1070
     1
1071
      190
1005
4C2
  0
LINE
  5
4C3
  8
0
 62
     1
 10
93.000001455172864
 20
219.0000001629798
 30
0.0
 11
183.50000145517291
 21
219.0000001629798
 31
0.0
1001
ACDBBLOCKREPETAG
1070
     1
1071
      191
1005
4C3
  0
LINE
  5
4C4
  8
0
 62
     1
 10
183.50000145517291
 20
215.25000016297989
 30
0.0
 11
316.00000145517288
 21
215.25000016297989
 31
0.0
1001
ACDBBLOCKREPETAG
1070
     1
1071
      192
1005
4C4
  0
LINE
  5
4C5
  8
0
 62
     1
 10
316.00000145517288
 20
219.0000001629798
 30
0.0
 11
349.00000145517288
 21
219.0000001629798
 31
0.0
1001
ACDBBLOCKREPETAG
1070
     1
1071
      193
1005
4C5
  0
LINE
  5
4C6
  8
0
 62
     1
 10
17.000001455172882
 20
32.000000162979859
 30
0.0
 11
17.000001455172882
 21
253.00000016297989
 31
0.0
1001
ACDBBLOCKREPETAG
1070
     1
1071
      194
1005
4C6
  0
LINE
  5
4C7
  8
0
 62
     1
 10
28.000001455172882
 20
32.000000162979859
 30
0.0
 11
28.000001455172882
 21
253.00000016297989
 31
0.0
1001
ACDBBLOCKREPETAG
1070
     1
1071
      195
1005
4C7
  0
LINE
  5
4C8
  8
0
 62
     1
 10
51.500001455172892
 20
32.000000162979859
 30
0.0
 11
51.500001455172892
 21
253.00000016297989
 31
0.0
1001
ACDBBLOCKREPETAG
1070
     1
1071
      196
1005
4C8
  0
LINE
  5
4C9
  8
0
 62
     1
 10
63.000001455172857
 20
32.000000162979859
 30
0.0
 11
63.000001455172857
 21
253.00000016297989
 31
0.0
1001
ACDBBLOCKREPETAG
1070
     1
1071
      197
1005
4C9
  0
LINE
  5
4CA
  8
0
 62
     1
 10
78.000001455172864
 20
32.000000162979859
 30
0.0
 11
78.000001455172864
 21
253.00000016297989
 31
0.0
1001
ACDBBLOCKREPETAG
1070
     1
1071
      198
1005
4CA
  0
LINE
  5
4CB
  8
0
 62
     1
 10
93.000001455172864
 20
32.000000162979859
 30
0.0
 11
93.000001455172864
 21
253.00000016297989
 31
0.0
1001
ACDBBLOCKREPETAG
1070
     1
1071
      199
1005
4CB
  0
LINE
  5
4CC
  8
0
 62
     1
 10
116.00000145517291
 20
32.000000162979859
 30
0.0
 11
116.00000145517291
 21
253.00000016297989
 31
0.0
1001
ACDBBLOCKREPETAG
1070
     1
1071
      200
1005
4CC
  0
LINE
  5
4CD
  8
0
 62
     1
 10
127.00000145517279
 20
32.000000162979859
 30
0.0
 11
127.00000145517279
 21
253.00000016297989
 31
0.0
1001
ACDBBLOCKREPETAG
1070
     1
1071
      201
1005
4CD
  0
LINE
  5
4CE
  8
0
 62
     1
 10
138.50000145517279
 20
32.000000162979859
 30
0.0
 11
138.50000145517279
 21
241.00000016297989
 31
0.0
1001
ACDBBLOCKREPETAG
1070
     1
1071
      202
1005
4CE
  0
LINE
  5
4CF
  8
0
 62
     1
 10
146.00000145517291
 20
32.000000162979859
 30
0.0
 11
146.00000145517291
 21
247.00000016297989
 31
0.0
1001
ACDBBLOCKREPETAG
1070
     1
1071
      203
1005
4CF
  0
LINE
  5
4D0
  8
0
 62
     1
 10
153.50000145517291
 20
32.000000162979859
 30
0.0
 11
153.50000145517291
 21
247.00000016297989
 31
0.0
1001
ACDBBLOCKREPETAG
1070
     1
1071
      204
1005
4D0
  0
LINE
  5
4D1
  8
0
 62
     1
 10
161.00000145517291
 20
32.000000162979859
 30
0.0
 11
161.00000145517291
 21
253.00000016297989
 31
0.0
1001
ACDBBLOCKREPETAG
1070
     1
1071
      205
1005
4D1
  0
LINE
  5
4D2
  8
0
 62
     1
 10
168.50000145517291
 20
32.000000162979859
 30
0.0
 11
168.50000145517291
 21
253.00000016297989
 31
0.0
1001
ACDBBLOCKREPETAG
1070
     1
1071
      206
1005
4D2
  0
LINE
  5
4D3
  8
0
 62
     1
 10
176.00000145517279
 20
32.000000162979859
 30
0.0
 11
176.00000145517279
 21
253.00000016297989
 31
0.0
1001
ACDBBLOCKREPETAG
1070
     1
1071
      207
1005
4D3
  0
LINE
  5
4D4
  8
0
 62
     1
 10
183.50000145517291
 20
32.000000162979859
 30
0.0
 11
183.50000145517291
 21
253.00000016297989
 31
0.0
1001
ACDBBLOCKREPETAG
1070
     1
1071
      208
1005
4D4
  0
LINE
  5
4D5
  8
0
 62
     1
 10
191.00000145517291
 20
32.000000162979859
 30
0.0
 11
191.00000145517291
 21
253.00000016297989
 31
0.0
1001
ACDBBLOCKREPETAG
1070
     1
1071
      209
1005
4D5
  0
LINE
  5
4D6
  8
0
 62
     1
 10
198.50000145517291
 20
32.000000162979859
 30
0.0
 11
198.50000145517291
 21
238.00000016297989
 31
0.0
1001
ACDBBLOCKREPETAG
1070
     1
1071
      210
1005
4D6
  0
LINE
  5
4D7
  8
0
 62
     1
 10
191.00000145517291
 20
238.00000016297989
 30
0.0
 11
206.00000145517291
 21
238.00000016297989
 31
0.0
1001
ACDBBLOCKREPETAG
1070
     1
1071
      211
1005
4D7
  0
LINE
  5
4D8
  8
0
 62
     1
 10
206.00000145517291
 20
32.000000162979859
 30
0.0
 11
206.00000145517291
 21
253.00000016297989
 31
0.0
1001
ACDBBLOCKREPETAG
1070
     1
1071
      212
1005
4D8
  0
LINE
  5
4D9
  8
0
 62
     1
 10
213.00000145517291
 20
32.000000162979859
 30
0.0
 11
213.00000145517291
 21
253.00000016297989
 31
0.0
1001
ACDBBLOCKREPETAG
1070
     1
1071
      213
1005
4D9
  0
LINE
  5
4DA
  8
0
 62
     1
 10
282.00000145517288
 20
32.000000162979859
 30
0.0
 11
282.00000145517288
 21
238.00000016297989
 31
0.0
1001
ACDBBLOCKREPETAG
1070
     1
1071
      214
1005
4DA
  0
LINE
  5
4DB
  8
0
 62
     1
 10
213.00000145517291
 20
238.00000016297989
 30
0.0
 11
316.00000145517288
 21
238.00000016297989
 31
0.0
1001
ACDBBLOCKREPETAG
1070
     1
1071
      215
1005
4DB
  0
LINE
  5
4DC
  8
0
 62
     1
 10
316.00000145517288
 20
32.000000162979859
 30
0.0
 11
316.00000145517288
 21
253.00000016297989
 31
0.0
1001
ACDBBLOCKREPETAG
1070
     1
1071
      216
1005
4DC
  0
TEXT
  5
4DD
  8
0
 10
28.000001455172882
 20
23.000000162979848
 30
0.0
 40
3.0
  1
注:
  7
HZ
1001
ACDBBLOCKREPETAG
1070
     1
1071
      217
1005
4DD
  0
TEXT
  5
4DE
  8
0
 10
40.000001455172871
 20
23.000000162979848
 30
0.0
 40
3.0
  1
1.走廊内的谷场, 砖瓦窑全部拆除
  7
HZ
1001
ACDBBLOCKREPETAG
1070
     1
1071
      218
1005
4DE
  0
TEXT
  5
4DF
  8
0
 10
40.000001455172871
 20
18.000000162979859
 30
0.0
 40
3.0
  1
2.间隔棒个数为每档一相的间隔棒数
  7
HZ
1001
ACDBBLOCKREPETAG
1070
     1
1071
      219
1005
4DF
  0
TEXT
  5
4E0
  8
0
 10
40.000001455172871
 20
13.000000162979861
 30
0.0
 40
3.0
  1
3.防振锤数为一根子导线的每侧安装数量
  7
HZ
1001
ACDBBLOCKREPETAG
1070
     1
1071
      220
1005
4E0
  0
TEXT
  5
4E1
  8
0
 10
40.000001455172871
 20
8.0000001629798572
 30
0.0
 40
3.0
  1
4.X表示导地线不允许接头
  7
HZ
1001
ACDBBLOCKREPETAG
1070
     1
1071
      221
1005
4E1
  0
TEXT
  5
4E2
  8
0
 10
11.10000145517288
 20
247.00000016297989
 30
0.0
 40
3.0
  1
杆
  7
HZ
1001
ACDBBLOCKREPETAG
1070
     1
1071
      222
1005
4E2
  0
TEXT
  5
4E3
  8
0
 10
11.10000145517288
 20
241.5000001629798
 30
0.0
 40
3.0
  1
塔
  7
HZ
1001
ACDBBLOCKREPETAG
1070
     1
1071
      223
1005
4E3
  0
TEXT
  5
4E4
  8
0
 10
11.10000145517288
 20
236.00000016297989
 30
0.0
 40
3.0
  1
顺
  7
HZ
1001
ACDBBLOCKREPETAG
1070
     1
1071
      224
1005
4E4
  0
TEXT
  5
4E5
  8
0
 10
11.10000145517288
 20
230.50000016297989
 30
0.0
 40
3.0
  1
序
  7
HZ
1001
ACDBBLOCKREPETAG
1070
     1
1071
      225
1005
4E5
  0
TEXT
  5
4E6
  8
0
 10
11.10000145517288
 20
225.0000001629798
 30
0.0
 40
3.0
  1
号
  7
HZ
1001
ACDBBLOCKREPETAG
1070
     1
1071
      226
1005
4E6
  0
TEXT
  5
4E7
  8
0
 10
20.300001455172879
 20
247.00000016297989
 30
0.0
 40
3.0
  1
杆
  7
HZ
1001
ACDBBLOCKREPETAG
1070
     1
1071
      227
1005
4E7
  0
TEXT
  5
4E8
  8
0
 10
20.300001455172879
 20
236.00000016297989
 30
0.0
 40
3.0
  1
塔
  7
HZ
1001
ACDBBLOCKREPETAG
1070
     1
1071
      228
1005
4E8
  0
TEXT
  5
4E9
  8
0
 10
20.300001455172879
 20
225.0000001629798
 30
0.0
 40
3.0
  1
号
  7
HZ
1001
ACDBBLOCKREPETAG
1070
     1
1071
      229
1005
4E9
  0
TEXT
  5
4EA
  8
0
 10
32.400001455172877
 20
241.5000001629798
 30
0.0
 40
3.0
  1
杆
  7
HZ
1001
ACDBBLOCKREPETAG
1070
     1
1071
      230
1005
4EA
  0
TEXT
  5
4EB
  8
0
 10
43.400001455172863
 20
241.5000001629798
 30
0.0
 40
3.0
  1
塔
  7
HZ
1001
ACDBBLOCKREPETAG
1070
     1
1071
      231
1005
4EB
  0
TEXT
  5
4EC
  8
0
 10
32.400001455172877
 20
230.50000016297989
 30
0.0
 40
3.0
  1
位
  7
HZ
1001
ACDBBLOCKREPETAG
1070
     1
1071
      232
1005
4EC
  0
TEXT
  5
4ED
  8
0
 10
43.400001455172863
 20
230.50000016297989
 30
0.0
 40
3.0
  1
置
  7
HZ
1001
ACDBBLOCKREPETAG
1070
     1
1071
      233
1005
4ED
  0
TEXT
  5
4EE
  8
0
 10
55.200001455172881
 20
241.5000001629798
 30
0.0
 40
3.0
  1
档
  7
HZ
1001
ACDBBLOCKREPETAG
1070
     1
1071
      234
1005
4EE
  0
TEXT
  5
4EF
  8
0
 10
55.200001455172881
 20
230.50000016297989
 30
0.0
 40
3.0
  1
距
  7
HZ
1001
ACDBBLOCKREPETAG
1070
     1
1071
      235
1005
4EF
  0
LINE
  5
4F0
  8
0
 62
     1
 10
63.000001455172857
 20
247.00000016297989
 30
0.0
 11
93.000001455172864
 21
247.00000016297989
 31
0.0
1001
ACDBBLOCKREPETAG
1070
     1
1071
      236
1005
4F0
  0
LINE
  5
4F1
  8
0
 62
     1
 10
63.000001455172857
 20
227.0000001629798
 30
0.0
 11
93.000001455172864
 21
227.0000001629798
 31
0.0
1001
ACDBBLOCKREPETAG
1070
     1
1071
      237
1005
4F1
  0
LINE
  5
4F2
  8
0
 62
     1
 10
70.500001455172864
 20
227.0000001629798
 30
0.0
 11
70.500001455172864
 21
247.00000016297989
 31
0.0
1001
ACDBBLOCKREPETAG
1070
     1
1071
      238
1005
4F2
  0
LINE
  5
4F3
  8
0
 62
     1
 10
85.500001455172864
 20
227.0000001629798
 30
0.0
 11
85.500001455172864
 21
247.00000016297989
 31
0.0
1001
ACDBBLOCKREPETAG
1070
     1
1071
      239
1005
4F3
  0
TEXT
  5
4F4
  8
0
 10
63.200001455172881
 20
248.2000001629799
 30
0.0
 40
3.0
  1
导.地线
  7
HZ
1001
ACDBBLOCKREPETAG
1070
     1
1071
      240
1005
4F4
  0
TEXT
  5
4F5
  8
0
 10
79.500001455172864
 20
248.2000001629799
 30
0.0
 40
3.0
  1
 OPGW
  7
HZ
1001
ACDBBLOCKREPETAG
1070
     1
1071
      241
1005
4F5
  0
TEXT
  5
4F6
  8
0
 10
64.500001455172878
 20
223.50000016297989
 30
0.0
 40
3.0
  1
转
  7
HZ
1001
ACDBBLOCKREPETAG
1070
     1
1071
      242
1005
4F6
  0
TEXT
  5
4F7
  8
0
 10
79.500001455172864
 20
223.50000016297989
 30
0.0
 40
3.0
  1
盘
  7
HZ
1001
ACDBBLOCKREPETAG
1070
     1
1071
      243
1005
4F7
  0
TEXT
  5
4F8
  8
0
 10
72.000001455172878
 20
223.50000016297989
 30
0.0
 40
3.0
  1
角
  7
HZ
1001
ACDBBLOCKREPETAG
1070
     1
1071
      244
1005
4F8
  0
TEXT
  5
4F9
  8
0
 10
87.000001455172864
 20
223.50000016297989
 30
0.0
 40
3.0
  1
长
  7
HZ
1001
ACDBBLOCKREPETAG
1070
     1
1071
      245
1005
4F9
  0
TEXT
  5
4FA
  8
0
 10
64.500001455172878
 20
243.00000016297989
 30
0.0
 40
3.0
  1
耐
  7
HZ
1001
ACDBBLOCKREPETAG
1070
     1
1071
      246
1005
4FA
  0
TEXT
  5
4FB
  8
0
 10
64.500001455172878
 20
238.00000016297989
 30
0.0
 40
3.0
  1
张
  7
HZ
1001
ACDBBLOCKREPETAG
1070
     1
1071
      247
1005
4FB
  0
TEXT
  5
4FC
  8
0
 10
64.500001455172878
 20
233.00000016297989
 30
0.0
 40
3.0
  1
段
  7
HZ
1001
ACDBBLOCKREPETAG
1070
     1
1071
      248
1005
4FC
  0
TEXT
  5
4FD
  8
0
 10
64.500001455172878
 20
228.00000016297989
 30
0.0
 40
3.0
  1
长
  7
HZ
1001
ACDBBLOCKREPETAG
1070
     1
1071
      249
1005
4FD
  0
TEXT
  5
4FE
  8
0
 10
72.000001455172878
 20
243.00000016297989
 30
0.0
 40
3.0
  1
代
  7
HZ
1001
ACDBBLOCKREPETAG
1070
     1
1071
      250
1005
4FE
  0
TEXT
  5
4FF
  8
0
 10
72.000001455172878
 20
238.00000016297989
 30
0.0
 40
3.0
  1
表
  7
HZ
1001
ACDBBLOCKREPETAG
1070
     1
1071
      251
1005
4FF
  0
TEXT
  5
500
  8
0
 10
72.000001455172878
 20
233.00000016297989
 30
0.0
 40
3.0
  1
档
  7
HZ
1001
ACDBBLOCKREPETAG
1070
     1
1071
      252
1005
500
  0
TEXT
  5
501
  8
0
 10
72.000001455172878
 20
228.00000016297989
 30
0.0
 40
3.0
  1
距
  7
HZ
1001
ACDBBLOCKREPETAG
1070
     1
1071
      253
1005
501
  0
TEXT
  5
502
  8
0
 10
79.500001455172864
 20
243.00000016297989
 30
0.0
 40
3.0
  1
耐
  7
HZ
1001
ACDBBLOCKREPETAG
1070
     1
1071
      254
1005
502
  0
TEXT
  5
503
  8
0
 10
79.500001455172864
 20
238.00000016297989
 30
0.0
 40
3.0
  1
张
  7
HZ
1001
ACDBBLOCKREPETAG
1070
     1
1071
      255
1005
503
  0
TEXT
  5
504
  8
0
 10
79.500001455172864
 20
233.00000016297989
 30
0.0
 40
3.0
  1
段
  7
HZ
1001
ACDBBLOCKREPETAG
1070
     1
1071
      256
1005
504
  0
TEXT
  5
505
  8
0
 10
79.500001455172864
 20
228.00000016297989
 30
0.0
 40
3.0
  1
长
  7
HZ
1001
ACDBBLOCKREPETAG
1070
     1
1071
      257
1005
505
  0
TEXT
  5
506
  8
0
 10
87.000001455172864
 20
243.00000016297989
 30
0.0
 40
3.0
  1
代
  7
HZ
1001
ACDBBLOCKREPETAG
1070
     1
1071
      258
1005
506
  0
TEXT
  5
507
  8
0
 10
87.000001455172864
 20
238.00000016297989
 30
0.0
 40
3.0
  1
表
  7
HZ
1001
ACDBBLOCKREPETAG
1070
     1
1071
      259
1005
507
  0
TEXT
  5
508
  8
0
 10
87.000001455172864
 20
233.00000016297989
 30
0.0
 40
3.0
  1
档
  7
HZ
1001
ACDBBLOCKREPETAG
1070
     1
1071
      260
1005
508
  0
TEXT
  5
509
  8
0
 10
87.000001455172864
 20
228.00000016297989
 30
0.0
 40
3.0
  1
距
  7
HZ
1001
ACDBBLOCKREPETAG
1070
     1
1071
      261
1005
509
  0
TEXT
  5
50A
  8
0
 10
97.000001455172907
 20
241.5000001629798
 30
0.0
 40
3.0
  1
杆
  7
HZ
1001
ACDBBLOCKREPETAG
1070
     1
1071
      262
1005
50A
  0
TEXT
  5
50B
  8
0
 10
108.00000145517279
 20
241.5000001629798
 30
0.0
 40
3.0
  1
塔
  7
HZ
1001
ACDBBLOCKREPETAG
1070
     1
1071
      263
1005
50B
  0
TEXT
  5
50C
  8
0
 10
97.000001455172907
 20
230.50000016297989
 30
0.0
 40
3.0
  1
型
  7
HZ
1001
ACDBBLOCKREPETAG
1070
     1
1071
      264
1005
50C
  0
TEXT
  5
50D
  8
0
 10
108.00000145517279
 20
230.50000016297989
 30
0.0
 40
3.0
  1
式
  7
HZ
1001
ACDBBLOCKREPETAG
1070
     1
1071
      265
1005
50D
  0
TEXT
  5
50E
  8
0
 10
119.4000014551729
 20
244.50000016297989
 30
0.0
 40
3.0
  1
施
  7
HZ
1001
ACDBBLOCKREPETAG
1070
     1
1071
      266
1005
50E
  0
TEXT
  5
50F
  8
0
 10
119.4000014551729
 20
238.50000016297989
 30
0.0
 40
3.0
  1
工
  7
HZ
1001
ACDBBLOCKREPETAG
1070
     1
1071
      267
1005
50F
  0
TEXT
  5
510
  8
0
 10
119.4000014551729
 20
232.50000016297989
 30
0.0
 40
3.0
  1
基
  7
HZ
1001
ACDBBLOCKREPETAG
1070
     1
1071
      268
1005
510
  0
TEXT
  5
511
  8
0
 10
119.4000014551729
 20
226.50000016297989
 30
0.0
 40
3.0
  1
面
  7
HZ
1001
ACDBBLOCKREPETAG
1070
     1
1071
      269
1005
511
  0
LINE
  5
512
  8
0
 62
     1
 10
127.00000145517279
 20
247.00000016297989
 30
0.0
 11
161.00000145517291
 21
247.00000016297989
 31
0.0
1001
ACDBBLOCKREPETAG
1070
     1
1071
      270
1005
512
  0
TEXT
  5
513
  8
0
 10
127.2000014551728
 20
248.2000001629799
 30
0.0
 40
3.0
  1
绝缘子金具串图号
  7
HZ
1001
ACDBBLOCKREPETAG
1070
     1
1071
      271
1005
513
  0
LINE
  5
514
  8
0
 62
     1
 10
127.00000145517279
 20
241.00000016297989
 30
0.0
 11
146.00000145517291
 21
241.00000016297989
 31
0.0
1001
ACDBBLOCKREPETAG
1070
     1
1071
      272
1005
514
  0
TEXT
  5
515
  8
0
 10
130.30000145517289
 20
242.2000001629799
 30
0.0
 40
3.0
  1
导  线
  7
HZ
1001
ACDBBLOCKREPETAG
1070
     1
1071
      273
1005
515
  0
TEXT
  5
516
  8
0
 10
128.30000145517289
 20
234.2000001629799
 30
0.0
 40
3.0
  1
悬垂
  7
HZ
1001
ACDBBLOCKREPETAG
1070
     1
1071
      274
1005
516
  0
TEXT
  5
517
  8
0
 10
128.30000145517289
 20
226.2000001629799
 30
0.0
 40
3.0
  1
耐张
  7
HZ
1001
ACDBBLOCKREPETAG
1070
     1
1071
      275
1005
517
  0
TEXT
  5
518
  8
0
 10
140.00000145517291
 20
234.2000001629799
 30
0.0
 40
3.0
  1
跳
  7
HZ
1001
ACDBBLOCKREPETAG
1070
     1
1071
      276
1005
518
  0
TEXT
  5
519
  8
0
 10
140.00000145517291
 20
226.2000001629799
 30
0.0
 40
3.0
  1
线
  7
HZ
1001
ACDBBLOCKREPETAG
1070
     1
1071
      277
1005
519
  0
TEXT
  5
51A
  8
0
 10
147.50000145517291
 20
241.2000001629799
 30
0.0
 40
3.0
  1
地
  7
HZ
1001
ACDBBLOCKREPETAG
1070
     1
1071
      278
1005
51A
  0
TEXT
  5
51B
  8
0
 10
147.50000145517291
 20
225.7000001629799
 30
0.0
 40
3.0
  1
线
  7
HZ
1001
ACDBBLOCKREPETAG
1070
     1
1071
      279
1005
51B
  0
TEXT
  5
51C
  8
0
 10
156.20000145517281
 20
242.2000001629799
 30
0.0
 40
3.0
  1
O
  7
HZ
1001
ACDBBLOCKREPETAG
1070
     1
1071
      280
1005
51C
  0
TEXT
  5
51D
  8
0
 10
156.20000145517281
 20
236.50000016297989
 30
0.0
 40
3.0
  1
P
  7
HZ
1001
ACDBBLOCKREPETAG
1070
     1
1071
      281
1005
51D
  0
TEXT
  5
51E
  8
0
 10
156.20000145517281
 20
230.90000016297981
 30
0.0
 40
3.0
  1
G
  7
HZ
1001
ACDBBLOCKREPETAG
1070
     1
1071
      282
1005
51E
  0
TEXT
  5
51F
  8
0
 10
156.20000145517281
 20
225.2000001629799
 30
0.0
 40
3.0
  1
W
  7
HZ
1001
ACDBBLOCKREPETAG
1070
     1
1071
      283
1005
51F
  0
TEXT
  5
520
  8
0
 10
163.10000145517279
 20
247.00000016297989
 30
0.0
 40
3.0
  1
绝
  7
HZ
1001
ACDBBLOCKREPETAG
1070
     1
1071
      284
1005
520
  0
TEXT
  5
521
  8
0
 10
163.10000145517279
 20
241.5000001629798
 30
0.0
 40
3.0
  1
缘
  7
HZ
1001
ACDBBLOCKREPETAG
1070
     1
1071
      285
1005
521
  0
TEXT
  5
522
  8
0
 10
163.10000145517279
 20
236.00000016297989
 30
0.0
 40
3.0
  1
子
  7
HZ
1001
ACDBBLOCKREPETAG
1070
     1
1071
      286
1005
522
  0
TEXT
  5
523
  8
0
 10
163.10000145517279
 20
230.50000016297989
 30
0.0
 40
3.0
  1
片
  7
HZ
1001
ACDBBLOCKREPETAG
1070
     1
1071
      287
1005
523
  0
TEXT
  5
524
  8
0
 10
163.10000145517279
 20
225.0000001629798
 30
0.0
 40
3.0
  1
数
  7
HZ
1001
ACDBBLOCKREPETAG
1070
     1
1071
      288
1005
524
  0
TEXT
  5
525
  8
0
 10
170.00000145517291
 20
244.50000016297989
 30
0.0
 40
3.0
  1
重
  7
HZ
1001
ACDBBLOCKREPETAG
1070
     1
1071
      289
1005
525
  0
TEXT
  5
526
  8
0
 10
170.00000145517291
 20
238.50000016297989
 30
0.0
 40
3.0
  1
锤
  7
HZ
1001
ACDBBLOCKREPETAG
1070
     1
1071
      290
1005
526
  0
TEXT
  5
527
  8
0
 10
170.00000145517291
 20
232.50000016297989
 30
0.0
 40
3.0
  1
片
  7
HZ
1001
ACDBBLOCKREPETAG
1070
     1
1071
      291
1005
527
  0
TEXT
  5
528
  8
0
 10
170.00000145517291
 20
226.50000016297989
 30
0.0
 40
3.0
  1
数
  7
HZ
1001
ACDBBLOCKREPETAG
1070
     1
1071
      292
1005
528
  0
TEXT
  5
529
  8
0
 10
178.00000145517279
 20
244.50000016297989
 30
0.0
 40
3.0
  1
接
  7
HZ
1001
ACDBBLOCKREPETAG
1070
     1
1071
      293
1005
529
  0
TEXT
  5
52A
  8
0
 10
178.00000145517279
 20
238.50000016297989
 30
0.0
 40
3.0
  1
地
  7
HZ
1001
ACDBBLOCKREPETAG
1070
     1
1071
      294
1005
52A
  0
TEXT
  5
52B
  8
0
 10
178.00000145517279
 20
232.50000016297989
 30
0.0
 40
3.0
  1
型
  7
HZ
1001
ACDBBLOCKREPETAG
1070
     1
1071
      295
1005
52B
  0
TEXT
  5
52C
  8
0
 10
178.00000145517279
 20
226.50000016297989
 30
0.0
 40
3.0
  1
号
  7
HZ
1001
ACDBBLOCKREPETAG
1070
     1
1071
      296
1005
52C
  0
TEXT
  5
52D
  8
0
 10
185.60000145517279
 20
247.00000016297989
 30
0.0
 40
3.0
  1
间
  7
HZ
1001
ACDBBLOCKREPETAG
1070
     1
1071
      297
1005
52D
  0
TEXT
  5
52E
  8
0
 10
185.60000145517279
 20
241.5000001629798
 30
0.0
 40
3.0
  1
隔
  7
HZ
1001
ACDBBLOCKREPETAG
1070
     1
1071
      298
1005
52E
  0
TEXT
  5
52F
  8
0
 10
185.60000145517279
 20
236.00000016297989
 30
0.0
 40
3.0
  1
棒
  7
HZ
1001
ACDBBLOCKREPETAG
1070
     1
1071
      299
1005
52F
  0
TEXT
  5
530
  8
0
 10
185.60000145517279
 20
230.50000016297989
 30
0.0
 40
3.0
  1
个
  7
HZ
1001
ACDBBLOCKREPETAG
1070
     1
1071
      300
1005
530
  0
TEXT
  5
531
  8
0
 10
185.60000145517279
 20
225.0000001629798
 30
0.0
 40
3.0
  1
数
  7
HZ
1001
ACDBBLOCKREPETAG
1070
     1
1071
      301
1005
531
  0
TEXT
  5
532
  8
0
 10
192.00000145517279
 20
247.00000016297989
 30
0.0
 40
3.0
  1
每侧防
  7
HZ
1001
ACDBBLOCKREPETAG
1070
     1
1071
      302
1005
532
  0
TEXT
  5
533
  8
0
 10
192.00000145517279
 20
241.00000016297989
 30
0.0
 40
3.0
  1
振锤数
  7
HZ
1001
ACDBBLOCKREPETAG
1070
     1
1071
      303
1005
533
  0
TEXT
  5
534
  8
0
 10
193.10000145517279
 20
231.00000016297989
 30
0.0
 40
3.0
  1
导
  7
HZ
1001
ACDBBLOCKREPETAG
1070
     1
1071
      304
1005
534
  0
TEXT
  5
535
  8
0
 10
193.10000145517279
 20
225.0000001629798
 30
0.0
 40
3.0
  1
线
  7
HZ
1001
ACDBBLOCKREPETAG
1070
     1
1071
      305
1005
535
  0
TEXT
  5
536
  8
0
 10
200.6000014551729
 20
231.00000016297989
 30
0.0
 40
3.0
  1
地
  7
HZ
1001
ACDBBLOCKREPETAG
1070
     1
1071
      306
1005
536
  0
TEXT
  5
537
  8
0
 10
200.6000014551729
 20
225.0000001629798
 30
0.0
 40
3.0
  1
线
  7
HZ
1001
ACDBBLOCKREPETAG
1070
     1
1071
      307
1005
537
  0
TEXT
  5
538
  8
0
 10
208.1000014551729
 20
247.00000016297989
 30
0.0
 40
3.0
  1
导
  7
HZ
1001
ACDBBLOCKREPETAG
1070
     1
1071
      308
1005
538
  0
TEXT
  5
539
  8
0
 10
208.1000014551729
 20
241.5000001629798
 30
0.0
 40
3.0
  1
地
  7
HZ
1001
ACDBBLOCKREPETAG
1070
     1
1071
      309
1005
539
  0
TEXT
  5
53A
  8
0
 10
208.1000014551729
 20
236.00000016297989
 30
0.0
 40
3.0
  1
线
  7
HZ
1001
ACDBBLOCKREPETAG
1070
     1
1071
      310
1005
53A
  0
TEXT
  5
53B
  8
0
 10
208.1000014551729
 20
230.50000016297989
 30
0.0
 40
3.0
  1
接
  7
HZ
1001
ACDBBLOCKREPETAG
1070
     1
1071
      311
1005
53B
  0
TEXT
  5
53C
  8
0
 10
208.1000014551729
 20
225.0000001629798
 30
0.0
 40
3.0
  1
头
  7
HZ
1001
ACDBBLOCKREPETAG
1070
     1
1071
      312
1005
53C
  0
TEXT
  5
53D
  8
0
 10
246.00000145517291
 20
243.00000016297989
 30
0.0
 40
3.0
  1
交   叉   跨   越
  7
HZ
1001
ACDBBLOCKREPETAG
1070
     1
1071
      313
1005
53D
  0
TEXT
  5
53E
  8
0
 10
229.50000145517291
 20
228.80000016297981
 30
0.0
 40
3.0
  1
被 跨 越 物 名 称
  7
HZ
1001
ACDBBLOCKREPETAG
1070
     1
1071
      314
1005
53E
  0
TEXT
  5
53F
  8
0
 10
290.80000145517289
 20
228.80000016297981
 30
0.0
 40
3.0
  1
处理意见
  7
HZ
1001
ACDBBLOCKREPETAG
1070
     1
1071
      315
1005
53F
  0
TEXT
  5
540
  8
0
 10
325.00000145517288
 20
236.50000016297989
 30
0.0
 40
3.0
  1
备   注
  7
HZ
1001
ACDBBLOCKREPETAG
1070
     1
1071
      316
1005
540
  0
ENDBLK
  5
236
  8
0
  0
ENDSEC
  0
SECTION
  2
ENTITIES
  0
INSERT
  5
238
  8
0
  2
中南院
 10
99.999998544827122
 20
199.99999983702011
 30
0.0
  0
ENDSEC
  0
EOF
