  0
SECTION
  2
HEADER
  9
$ACADVER
  1
AC1009
  9
$INSBASE
 10
0.0
 20
0.0
 30
0.0
  9
$EXTMIN
 10
100.0
 20
200.0
 30
0.0
  9
$EXTMAX
 10
519.99999999999989
 20
496.99999999999977
 30
0.0
  9
$LIMMIN
 10
0.0
 20
0.0
  9
$LIMMAX
 10
420.0
 20
297.0
  9
$ORTHOMODE
 70
     0
  9
$REGENMODE
 70
     1
  9
$FILLMODE
 70
     1
  9
$QTEXTMODE
 70
     0
  9
$MIRRTEXT
 70
     0
  9
$DRAGMODE
 70
     2
  9
$LTSCALE
 40
1.0
  9
$OSMODE
 70
   173
  9
$ATTMODE
 70
     1
  9
$TEXTSIZE
 40
2.5
  9
$TRACEWID
 40
1.0
  9
$TEXTSTYLE
  7
STANDARD
  9
$CLAYER
  8
0
  9
$CELTYPE
  6
BYLAYER
  9
$CECOLOR
 62
   256
  9
$DIMSCALE
 40
1.0
  9
$DIMASZ
 40
2.5
  9
$DIMEXO
 40
0.625
  9
$DIMDLI
 40
3.75
  9
$DIMRND
 40
0.0
  9
$DIMDLE
 40
0.0
  9
$DIMEXE
 40
1.25
  9
$DIMTP
 40
0.0
  9
$DIMTM
 40
0.0
  9
$DIMTXT
 40
2.5
  9
$DIMCEN
 40
2.5
  9
$DIMTSZ
 40
0.0
  9
$DIMTOL
 70
     0
  9
$DIMLIM
 70
     0
  9
$DIMTIH
 70
     0
  9
$DIMTOH
 70
     0
  9
$DIMSE1
 70
     0
  9
$DIMSE2
 70
     0
  9
$DIMTAD
 70
     1
  9
$DIMZIN
 70
     8
  9
$DIMBLK
  1

  9
$DIMASO
 70
     1
  9
$DIMSHO
 70
     1
  9
$DIMPOST
  1

  9
$DIMAPOST
  1

  9
$DIMALT
 70
     0
  9
$DIMALTD
 70
     3
  9
$DIMALTF
 40
0.03937007874016
  9
$DIMLFAC
 40
1.0
  9
$DIMTOFL
 70
     1
  9
$DIMTVP
 40
0.0
  9
$DIMTIX
 70
     0
  9
$DIMSOXD
 70
     0
  9
$DIMSAH
 70
     0
  9
$DIMBLK1
  1

  9
$DIMBLK2
  1

  9
$DIMSTYLE
  2
ISO-25
  9
$DIMCLRD
 70
     0
  9
$DIMCLRE
 70
     0
  9
$DIMCLRT
 70
     0
  9
$DIMTFAC
 40
1.0
  9
$DIMGAP
 40
0.625
  9
$LUNITS
 70
     2
  9
$LUPREC
 70
     4
  9
$SKETCHINC
 40
1.0
  9
$FILLETRAD
 40
0.0
  9
$AUNITS
 70
     0
  9
$AUPREC
 70
     0
  9
$MENU
  1
.
  9
$ELEVATION
 40
0.0
  9
$PELEVATION
 40
0.0
  9
$THICKNESS
 40
0.0
  9
$LIMCHECK
 70
     0
  9
$BLIPMODE
 70
     0
  9
$CHAMFERA
 40
0.0
  9
$CHAMFERB
 40
0.0
  9
$SKPOLY
 70
     0
  9
$TDCREATE
 40
2455446.3840901619
  9
$TDUPDATE
 40
2455716.7184436461
  9
$TDINDWG
 40
0.0140284954
  9
$TDUSRTIMER
 40
0.0140281366
  9
$USRTIMER
 70
     1
  9
$ANGBASE
 50
0.0
  9
$ANGDIR
 70
     0
  9
$PDMODE
 70
     0
  9
$PDSIZE
 40
0.0
  9
$PLINEWID
 40
0.0
  9
$COORDS
 70
     2
  9
$SPLFRAME
 70
     0
  9
$SPLINETYPE
 70
     6
  9
$SPLINESEGS
 70
     8
  9
$ATTDIA
 70
     0
  9
$ATTREQ
 70
     1
  9
$HANDLING
 70
     1
  9
$HANDSEED
  5
589
  9
$SURFTAB1
 70
     6
  9
$SURFTAB2
 70
     6
  9
$SURFTYPE
 70
     6
  9
$SURFU
 70
     6
  9
$SURFV
 70
     6
  9
$UCSNAME
  2

  9
$UCSORG
 10
0.0
 20
0.0
 30
0.0
  9
$UCSXDIR
 10
1.0
 20
0.0
 30
0.0
  9
$UCSYDIR
 10
0.0
 20
1.0
 30
0.0
  9
$PUCSNAME
  2

  9
$PUCSORG
 10
0.0
 20
0.0
 30
0.0
  9
$PUCSXDIR
 10
1.0
 20
0.0
 30
0.0
  9
$PUCSYDIR
 10
0.0
 20
1.0
 30
0.0
  9
$USERI1
 70
     0
  9
$USERI2
 70
     0
  9
$USERI3
 70
     0
  9
$USERI4
 70
     0
  9
$USERI5
 70
     0
  9
$USERR1
 40
0.0
  9
$USERR2
 40
0.0
  9
$USERR3
 40
0.0
  9
$USERR4
 40
0.0
  9
$USERR5
 40
0.0
  9
$WORLDVIEW
 70
     1
  9
$SHADEDGE
 70
     3
  9
$SHADEDIF
 70
    70
  9
$TILEMODE
 70
     1
  9
$MAXACTVP
 70
    64
  9
$PLIMCHECK
 70
     0
  9
$PEXTMIN
 10
0.0
 20
0.0
 30
0.0
  9
$PEXTMAX
 10
0.0
 20
0.0
 30
0.0
  9
$PLIMMIN
 10
0.0
 20
0.0
  9
$PLIMMAX
 10
12.0
 20
9.0
  9
$UNITMODE
 70
     0
  9
$VISRETAIN
 70
     1
  9
$PLINEGEN
 70
     0
  9
$PSLTSCALE
 70
     1
  0
ENDSEC
  0
SECTION
  2
TABLES
  0
TABLE
  2
VPORT
 70
     3
  0
VPORT
  2
*ACTIVE
 70
     0
 10
0.0
 20
0.0
 11
1.0
 21
1.0
 12
269.23287700776052
 22
383.94236213426512
 13
0.0
 23
0.0
 14
10.0
 24
10.0
 15
10.0
 25
10.0
 16
0.0
 26
0.0
 36
1.0
 17
0.0
 27
0.0
 37
0.0
 40
240.62972562301641
 41
2.0107692307692302
 42
50.0
 43
0.0
 44
0.0
 50
0.0
 51
0.0
 71
     0
 72
  1000
 73
     1
 74
     3
 75
     0
 76
     0
 77
     0
 78
     0
  0
ENDTAB
  0
TABLE
  2
LTYPE
 70
     1
  0
LTYPE
  2
CONTINUOUS
 70
     0
  3
Solid line
 72
    65
 73
     0
 40
0.0
  0
ENDTAB
  0
TABLE
  2
LAYER
 70
     2
  0
LAYER
  2
0
 70
     0
 62
     7
  6
CONTINUOUS
  0
LAYER
  2
GRID
 70
     0
 62
     7
  6
CONTINUOUS
  0
ENDTAB
  0
TABLE
  2
STYLE
 70
     2
  0
STYLE
  2
STANDARD
 70
     0
 40
0.0
 41
1.0
 50
0.0
 71
     0
 42
2.5
  3
txt
  4
gbcbig.shx
  0
STYLE
  2
TLCAD
 70
     0
 40
0.0
 41
1.0
 50
0.0
 71
     0
 42
2.5
  3
romanc.shx
  4
hztxt.shx
  0
ENDTAB
  0
TABLE
  2
VIEW
 70
     0
  0
ENDTAB
  0
TABLE
  2
UCS
 70
     0
  0
ENDTAB
  0
TABLE
  2
APPID
 70
     7
  0
APPID
  2
ACAD
 70
     0
  0
APPID
  2
ACAD_PSEXT
 70
     0
  0
APPID
  2
ACDBBLOCKREPETAG
 70
     0
  0
APPID
  2
ACAUTHENVIRON
 70
     0
  0
APPID
  2
ACAD_EXEMPT_FROM_CAD_STANDARDS
 70
     0
  0
APPID
  2
ACDBDYNAMICBLOCKTRUENAME
 70
     0
  0
APPID
  2
ACDBDYNAMICBLOCKGUID
 70
     0
  0
ENDTAB
  0
TABLE
  2
DIMSTYLE
 70
     1
  0
DIMSTYLE
  2
ISO-25
 70
     0
  3

  4

  5

  6

  7

 40
1.0
 41
2.5
 42
0.625
 43
3.75
 44
1.25
 45
0.0
 46
0.0
 47
0.0
 48
0.0
140
2.5
141
2.5
142
0.0
143
0.03937007874016
144
1.0
145
0.0
146
1.0
147
0.625
 71
     0
 72
     0
 73
     0
 74
     0
 75
     0
 76
     0
 77
     1
 78
     8
170
     0
171
     3
172
     1
173
     0
174
     0
175
     0
176
     0
177
     0
178
     0
  0
ENDTAB
  0
ENDSEC
  0
SECTION
  2
BLOCKS
  0
BLOCK
  8
0
  2
$MODEL_SPACE
 70
     0
 10
0.0
 20
0.0
 30
0.0
  3
$MODEL_SPACE
  1

  0
ENDBLK
  5
31F
  8
0
  0
BLOCK
 67
     1
  8
0
  2
$PAPER_SPACE
 70
     0
 10
0.0
 20
0.0
 30
0.0
  3
$PAPER_SPACE
  1

  0
ENDBLK
  5
31B
 67
     1
  8
0
  0
BLOCK
  8
0
  2
华北电力
 70
     0
 10
0.0
 20
0.0
 30
0.0
  3
华北电力
  1

  0
LINE
  5
4BB
  8
GRID
 62
     3
 10
0.0000000258369255
 20
297.0000000227555
 30
0.0
 11
420.00000002583681
 21
297.0000000227555
 31
0.0
1001
ACDBBLOCKREPETAG
1070
     1
1071
        0
1005
4BB
  0
LINE
  5
4BC
  8
GRID
 62
     3
 10
420.00000002583681
 20
297.0000000227555
 30
0.0
 11
420.00000002583681
 21
0.0000000227555574
 31
0.0
1001
ACDBBLOCKREPETAG
1070
     1
1071
        1
1005
4BC
  0
LINE
  5
4BD
  8
GRID
 62
     3
 10
420.00000002583681
 20
0.0000000227555574
 30
0.0
 11
0.0000000258369255
 21
0.0000000227555574
 31
0.0
1001
ACDBBLOCKREPETAG
1070
     1
1071
        2
1005
4BD
  0
LINE
  5
4BE
  8
GRID
 62
     3
 10
0.0000000258369255
 20
0.0000000227555574
 30
0.0
 11
0.0000000258369255
 21
297.0000000227555
 31
0.0
1001
ACDBBLOCKREPETAG
1070
     1
1071
        3
1005
4BE
  0
LINE
  5
4BF
  8
GRID
 62
     3
 10
25.0
 20
291.99999999999989
 30
0.0
 11
414.99999999999989
 21
291.99999999999989
 31
0.0
1001
ACDBBLOCKREPETAG
1070
     1
1071
        4
1005
4BF
  0
LINE
  5
4C0
  8
GRID
 62
     3
 10
415.0
 20
291.99999999999989
 30
0.0
 11
414.99999999999989
 21
5.0
 31
0.0
1001
ACDBBLOCKREPETAG
1070
     1
1071
        5
1005
4C0
  0
LINE
  5
4C1
  8
GRID
 62
     3
 10
25.0
 20
5.0
 30
0.0
 11
25.0
 21
291.99999999999989
 31
0.0
1001
ACDBBLOCKREPETAG
1070
     1
1071
        6
1005
4C1
  0
TEXT
  5
4C2
  8
GRID
 62
     7
 10
28.559055118110241
 20
275.5
 30
0.0
 40
3.0
  1
杆塔号
  7
TLCAD
 72
     1
 11
33.0
 21
277.0
 31
0.0
 73
     2
1001
ACDBBLOCKREPETAG
1070
     1
1071
        7
1005
4C2
  0
LINE
  5
4C3
  8
GRID
 62
     7
 10
40.999999999999972
 20
291.99999999999989
 30
0.0
 11
40.999999999999993
 21
53.500000022755572
 31
0.0
1001
ACDBBLOCKREPETAG
1070
     1
1071
        8
1005
4C3
  0
TEXT
  5
4C4
  8
GRID
 62
     7
 10
44.023622047244089
 20
275.5
 30
0.0
 40
3.0
  1
杆塔型式
  7
TLCAD
 72
     1
 11
50.0
 21
277.0
 31
0.0
 73
     2
1001
ACDBBLOCKREPETAG
1070
     1
1071
        9
1005
4C4
  0
LINE
  5
4C5
  8
GRID
 62
     7
 10
59.0
 20
291.99999999999989
 30
0.0
 11
59.000000000000007
 21
53.500000022755572
 31
0.0
1001
ACDBBLOCKREPETAG
1070
     1
1071
       10
1005
4C5
  0
TEXT
  5
4C6
  8
GRID
 62
     7
 10
61.570866141732282
 20
275.5
 30
0.0
 40
3.0
  1
呼高
  7
TLCAD
 72
     1
 11
64.5
 21
277.0
 31
0.0
 73
     2
1001
ACDBBLOCKREPETAG
1070
     1
1071
       11
1005
4C6
  0
LINE
  5
4C7
  8
GRID
 62
     7
 10
70.0
 20
291.99999999999989
 30
0.0
 11
70.0
 21
53.500000022755572
 31
0.0
1001
ACDBBLOCKREPETAG
1070
     1
1071
       12
1005
4C7
  0
TEXT
  5
4C8
  8
GRID
 62
     7
 10
72.810461192350971
 20
275.5
 30
0.0
 40
3.0
  1
档距(m)
  7
TLCAD
 72
     1
 11
80.000000000000014
 21
277.0
 31
0.0
 73
     2
1001
ACDBBLOCKREPETAG
1070
     1
1071
       13
1005
4C8
  0
LINE
  5
4C9
  8
GRID
 62
     7
 10
90.000000000000014
 20
291.99999999999989
 30
0.0
 11
90.000000000000057
 21
53.500000022755572
 31
0.0
1001
ACDBBLOCKREPETAG
1070
     1
1071
       14
1005
4C9
  0
TEXT
  5
4CA
  8
GRID
 62
     7
 10
91.215973003374572
 20
275.5
 30
0.0
 40
3.0
  1
高程(m)
  7
TLCAD
 72
     1
 11
98.500000000000014
 21
277.0
 31
0.0
 73
     2
1001
ACDBBLOCKREPETAG
1070
     1
1071
       15
1005
4CA
  0
LINE
  5
4CB
  8
GRID
 62
     7
 10
107.0
 20
291.99999999999989
 30
0.0
 11
107.0
 21
53.500000022755572
 31
0.0
1001
ACDBBLOCKREPETAG
1070
     1
1071
       16
1005
4CB
  0
TEXT
  5
4CC
  8
GRID
 62
     7
 10
107.76321709786269
 20
275.5
 30
0.0
 40
3.0
  1
降基面(m)
  7
TLCAD
 72
     1
 11
116.5
 21
277.0
 31
0.0
 73
     2
1001
ACDBBLOCKREPETAG
1070
     1
1071
       17
1005
4CC
  0
LINE
  5
4CD
  8
GRID
 62
     7
 10
126.0
 20
291.99999999999989
 30
0.0
 11
126.0
 21
53.500000022755572
 31
0.0
1001
ACDBBLOCKREPETAG
1070
     1
1071
       18
1005
4CD
  0
TEXT
  5
4CE
  8
GRID
 62
     7
 10
132.3937007874014
 20
285.75
 30
0.0
 40
3.0
  1
防震锤安装
  7
TLCAD
 72
     1
 11
139.9999999999998
 21
287.25
 31
0.0
 73
     2
1001
ACDBBLOCKREPETAG
1070
     1
1071
       19
1005
4CE
  0
TEXT
  5
4CF
  8
GRID
 62
     7
 10
130.0
 20
274.35000000000002
 30
0.0
 40
3.0
  1
导线
  7
TLCAD
 72
     1
 11
133.0
 21
275.85000000000002
 31
0.0
 73
     2
1001
ACDBBLOCKREPETAG
1070
     1
1071
       20
1005
4CF
  0
TEXT
  5
4D0
  8
GRID
 62
     7
 10
125.90382452193469
 20
268.64999999999992
 30
0.0
 40
3.0
  1
个/档*线
  7
TLCAD
 72
     1
 11
133.0
 21
270.14999999999992
 31
0.0
 73
     2
1001
ACDBBLOCKREPETAG
1070
     1
1071
       21
1005
4D0
  0
LINE
  5
4D1
  8
GRID
 62
     7
 10
139.9999999999998
 20
282.50000000000011
 30
0.0
 11
139.9999999999998
 21
53.500000022755572
 31
0.0
1001
ACDBBLOCKREPETAG
1070
     1
1071
       22
1005
4D1
  0
TEXT
  5
4D2
  8
GRID
 62
     7
 10
144.05905511811011
 20
274.35000000000002
 30
0.0
 40
3.0
  1
地线
  7
TLCAD
 72
     1
 11
146.9999999999998
 21
275.85000000000002
 31
0.0
 73
     2
1001
ACDBBLOCKREPETAG
1070
     1
1071
       23
1005
4D2
  0
TEXT
  5
4D3
  8
GRID
 62
     7
 10
139.90382452193461
 20
268.64999999999992
 30
0.0
 40
3.0
  1
个/档*线
  7
TLCAD
 72
     1
 11
146.9999999999998
 21
270.14999999999992
 31
0.0
 73
     2
1001
ACDBBLOCKREPETAG
1070
     1
1071
       24
1005
4D3
  0
LINE
  5
4D4
  8
GRID
 62
     7
 10
154.0000000258369
 20
291.99999999999989
 30
0.0
 11
154.0000000258369
 21
53.500000022755572
 31
0.0
1001
ACDBBLOCKREPETAG
1070
     1
1071
       25
1005
4D4
  0
TEXT
  5
4D5
  8
GRID
 62
     7
 10
198.94094490772659
 20
286.25000002275561
 30
0.0
 40
3.0
  1
绝缘子串及金具组装
  7
TLCAD
 72
     1
 11
212.5000000258369
 21
287.75000002275561
 31
0.0
 73
     2
1001
ACDBBLOCKREPETAG
1070
     1
1071
       26
1005
4D5
  0
TEXT
  5
4D6
  8
GRID
 62
     7
 10
158.2047244352857
 20
272.0000000227555
 30
0.0
 40
3.0
  1
Ⅰ回导线
  7
TLCAD
 72
     1
 11
164.5000000258369
 21
273.50000002275561
 31
0.0
 73
     2
1001
ACDBBLOCKREPETAG
1070
     1
1071
       27
1005
4D6
  0
LINE
  5
4D7
  8
GRID
 62
     7
 10
175.0000000258369
 20
282.50000000000011
 30
0.0
 11
175.0000000258369
 21
53.500000022755572
 31
0.0
1001
ACDBBLOCKREPETAG
1070
     1
1071
       28
1005
4D7
  0
TEXT
  5
4D8
  8
GRID
 62
     7
 10
177.29921262426211
 20
272.0000000227555
 30
0.0
 40
3.0
  1
串数
  7
TLCAD
 72
     1
 11
180.5000000258369
 21
273.50000002275561
 31
0.0
 73
     2
1001
ACDBBLOCKREPETAG
1070
     1
1071
       29
1005
4D8
  0
LINE
  5
4D9
  8
GRID
 62
     7
 10
186.0000000258369
 20
282.50000000000011
 30
0.0
 11
186.0000000258369
 21
53.500000022755572
 31
0.0
1001
ACDBBLOCKREPETAG
1070
     1
1071
       30
1005
4D9
  0
TEXT
  5
4DA
  8
GRID
 62
     7
 10
190.44094490772659
 20
272.0000000227555
 30
0.0
 40
3.0
  1
Ⅱ回导线
  7
TLCAD
 72
     1
 11
196.5000000258369
 21
273.50000002275561
 31
0.0
 73
     2
1001
ACDBBLOCKREPETAG
1070
     1
1071
       31
1005
4DA
  0
LINE
  5
4DB
  8
GRID
 62
     7
 10
207.0000000258369
 20
282.50000000000011
 30
0.0
 11
207.0000000258369
 21
53.500000022755572
 31
0.0
1001
ACDBBLOCKREPETAG
1070
     1
1071
       32
1005
4DB
  0
TEXT
  5
4DC
  8
GRID
 62
     7
 10
209.29921262426211
 20
272.0000000227555
 30
0.0
 40
3.0
  1
串数
  7
TLCAD
 72
     1
 11
212.5000000258369
 21
273.50000002275561
 31
0.0
 73
     2
1001
ACDBBLOCKREPETAG
1070
     1
1071
       33
1005
4DC
  0
LINE
  5
4DD
  8
GRID
 62
     7
 10
218.0000000258369
 20
282.50000000000011
 30
0.0
 11
218.0000000258369
 21
53.500000022755572
 31
0.0
1001
ACDBBLOCKREPETAG
1070
     1
1071
       34
1005
4DD
  0
TEXT
  5
4DE
  8
GRID
 62
     7
 10
224.2244094746558
 20
272.0000000227555
 30
0.0
 40
3.0
  1
地线串
  7
TLCAD
 72
     1
 11
228.5000000258369
 21
273.50000002275561
 31
0.0
 73
     2
1001
ACDBBLOCKREPETAG
1070
     1
1071
       35
1005
4DE
  0
LINE
  5
4DF
  8
GRID
 62
     7
 10
239.0000000258369
 20
282.50000000000011
 30
0.0
 11
239.0000000258369
 21
53.500000022755572
 31
0.0
1001
ACDBBLOCKREPETAG
1070
     1
1071
       36
1005
4DF
  0
TEXT
  5
4E0
  8
GRID
 62
     7
 10
241.29921262426211
 20
272.0000000227555
 30
0.0
 40
3.0
  1
串数
  7
TLCAD
 72
     1
 11
244.5000000258369
 21
273.50000002275561
 31
0.0
 73
     2
1001
ACDBBLOCKREPETAG
1070
     1
1071
       37
1005
4E0
  0
LINE
  5
4E1
  8
GRID
 62
     7
 10
250.0000000258369
 20
282.50000000000011
 30
0.0
 11
250.00000002583681
 21
53.500000022755572
 31
0.0
1001
ACDBBLOCKREPETAG
1070
     1
1071
       38
1005
4E1
  0
TEXT
  5
4E2
  8
GRID
 62
     7
 10
256.22440947465577
 20
272.0000000227555
 30
0.0
 40
3.0
  1
跳线串
  7
TLCAD
 72
     1
 11
260.50000002583693
 21
273.50000002275561
 31
0.0
 73
     2
1001
ACDBBLOCKREPETAG
1070
     1
1071
       39
1005
4E2
  0
LINE
  5
4E3
  8
GRID
 62
     7
 10
271.00000002583693
 20
291.99999999999989
 30
0.0
 11
271.00000002583698
 21
53.500000022755572
 31
0.0
1001
ACDBBLOCKREPETAG
1070
     1
1071
       40
1005
4E3
  0
TEXT
  5
4E4
  8
GRID
 62
     7
 10
274.0472441203251
 20
276.0000000227555
 30
0.0
 40
3.0
  1
接地装置
  7
TLCAD
 72
     1
 11
280.00000002583693
 21
277.50000002275561
 31
0.0
 73
     2
1001
ACDBBLOCKREPETAG
1070
     1
1071
       41
1005
4E4
  0
LINE
  5
4E5
  8
GRID
 62
     7
 10
289.00000002583693
 20
291.99999999999989
 30
0.0
 11
289.00000002583693
 21
53.500000022755572
 31
0.0
1001
ACDBBLOCKREPETAG
1070
     1
1071
       42
1005
4E5
  0
TEXT
  5
4E6
  8
GRID
 62
     7
 10
291.9640045252745
 20
276.0000000227555
 30
0.0
 40
3.0
  1
耐张段/代表档距
  7
TLCAD
 72
     1
 11
304.00000002583693
 21
277.50000002275561
 31
0.0
 73
     2
1001
ACDBBLOCKREPETAG
1070
     1
1071
       43
1005
4E6
  0
LINE
  5
4E7
  8
GRID
 62
     7
 10
319.00000002583693
 20
291.99999999999989
 30
0.0
 11
319.00000002583693
 21
53.500000022755572
 31
0.0
1001
ACDBBLOCKREPETAG
1070
     1
1071
       44
1005
4E7
  0
TEXT
  5
4E8
  8
GRID
 62
     7
 10
325.9291338841046
 20
276.0000000227555
 30
0.0
 40
3.0
  1
转角桩
  7
TLCAD
 72
     1
 11
330.50000002583693
 21
277.50000002275561
 31
0.0
 73
     2
1001
ACDBBLOCKREPETAG
1070
     1
1071
       45
1005
4E8
  0
LINE
  5
4E9
  8
GRID
 62
     7
 10
342.00000002583693
 20
291.99999999999989
 30
0.0
 11
342.00000002583693
 21
53.500000022755572
 31
0.0
1001
ACDBBLOCKREPETAG
1070
     1
1071
       46
1005
4E9
  0
TEXT
  5
4EA
  8
GRID
 62
     7
 10
347.42913388410471
 20
276.0000000227555
 30
0.0
 40
3.0
  1
转角度数
  7
TLCAD
 72
     1
 11
353.50000002583693
 21
277.50000002275561
 31
0.0
 73
     2
1001
ACDBBLOCKREPETAG
1070
     1
1071
       47
1005
4EA
  0
LINE
  5
4EB
  8
GRID
 62
     7
 10
365.00000002583693
 20
291.99999999999989
 30
0.0
 11
365.00000002583693
 21
53.500000022755572
 31
0.0
1001
ACDBBLOCKREPETAG
1070
     1
1071
       48
1005
4EB
  0
TEXT
  5
4EC
  8
GRID
 62
     7
 10
387.05905514394709
 20
276.0000000227555
 30
0.0
 40
3.0
  1
备注
  7
TLCAD
 72
     1
 11
390.00000002583693
 21
277.50000002275561
 31
0.0
 73
     2
1001
ACDBBLOCKREPETAG
1070
     1
1071
       49
1005
4EC
  0
LINE
  5
4ED
  8
GRID
 62
     7
 10
126.0
 20
282.50000000000011
 30
0.0
 11
271.0
 21
282.50000000000011
 31
0.0
1001
ACDBBLOCKREPETAG
1070
     1
1071
       50
1005
4ED
  0
LINE
  5
4EE
  8
GRID
 62
     7
 10
25.0
 20
262.0
 30
0.0
 11
414.99999999999989
 21
262.0
 31
0.0
1001
ACDBBLOCKREPETAG
1070
     1
1071
       51
1005
4EE
  0
LINE
  5
4EF
  8
GRID
 62
     7
 10
25.0
 20
252.5
 30
0.0
 11
70.0
 21
252.5
 31
0.0
1001
ACDBBLOCKREPETAG
1070
     1
1071
       52
1005
4EF
  0
LINE
  5
4F0
  8
GRID
 62
     7
 10
70.0
 20
257.24999999999989
 30
0.0
 11
90.000000000000014
 21
257.24999999999989
 31
0.0
1001
ACDBBLOCKREPETAG
1070
     1
1071
       53
1005
4F0
  0
LINE
  5
4F1
  8
GRID
 62
     7
 10
90.000000000000014
 20
252.5
 30
0.0
 11
126.0
 21
252.5
 31
0.0
1001
ACDBBLOCKREPETAG
1070
     1
1071
       54
1005
4F1
  0
LINE
  5
4F2
  8
GRID
 62
     7
 10
126.0
 20
257.24999999999989
 30
0.0
 11
154.0
 21
257.24999999999989
 31
0.0
1001
ACDBBLOCKREPETAG
1070
     1
1071
       55
1005
4F2
  0
LINE
  5
4F3
  8
GRID
 62
     7
 10
154.0000000258369
 20
253.00000002275559
 30
0.0
 11
289.00000002583693
 21
253.00000002275559
 31
0.0
1001
ACDBBLOCKREPETAG
1070
     1
1071
       56
1005
4F3
  0
LINE
  5
4F4
  8
GRID
 62
     7
 10
319.00000002583693
 20
253.00000002275559
 30
0.0
 11
414.99999999999989
 21
253.00000002275559
 31
0.0
1001
ACDBBLOCKREPETAG
1070
     1
1071
       57
1005
4F4
  0
LINE
  5
4F5
  8
GRID
 62
     7
 10
25.0
 20
243.0
 30
0.0
 11
70.0
 21
243.0
 31
0.0
1001
ACDBBLOCKREPETAG
1070
     1
1071
       58
1005
4F5
  0
LINE
  5
4F6
  8
GRID
 62
     7
 10
70.0
 20
247.75
 30
0.0
 11
90.000000000000014
 21
247.75
 31
0.0
1001
ACDBBLOCKREPETAG
1070
     1
1071
       59
1005
4F6
  0
LINE
  5
4F7
  8
GRID
 62
     7
 10
90.000000000000014
 20
243.0
 30
0.0
 11
126.0
 21
243.0
 31
0.0
1001
ACDBBLOCKREPETAG
1070
     1
1071
       60
1005
4F7
  0
LINE
  5
4F8
  8
GRID
 62
     7
 10
126.0
 20
247.75
 30
0.0
 11
154.0
 21
247.75
 31
0.0
1001
ACDBBLOCKREPETAG
1070
     1
1071
       61
1005
4F8
  0
LINE
  5
4F9
  8
GRID
 62
     7
 10
154.0000000258369
 20
243.50000002275559
 30
0.0
 11
289.00000002583693
 21
243.50000002275559
 31
0.0
1001
ACDBBLOCKREPETAG
1070
     1
1071
       62
1005
4F9
  0
LINE
  5
4FA
  8
GRID
 62
     7
 10
319.00000002583693
 20
243.50000002275559
 30
0.0
 11
414.99999999999989
 21
243.50000002275559
 31
0.0
1001
ACDBBLOCKREPETAG
1070
     1
1071
       63
1005
4FA
  0
LINE
  5
4FB
  8
GRID
 62
     7
 10
25.0
 20
233.5
 30
0.0
 11
70.0
 21
233.5
 31
0.0
1001
ACDBBLOCKREPETAG
1070
     1
1071
       64
1005
4FB
  0
LINE
  5
4FC
  8
GRID
 62
     7
 10
70.0
 20
238.24999999999989
 30
0.0
 11
90.000000000000014
 21
238.24999999999989
 31
0.0
1001
ACDBBLOCKREPETAG
1070
     1
1071
       65
1005
4FC
  0
LINE
  5
4FD
  8
GRID
 62
     7
 10
90.000000000000014
 20
233.5
 30
0.0
 11
126.0
 21
233.5
 31
0.0
1001
ACDBBLOCKREPETAG
1070
     1
1071
       66
1005
4FD
  0
LINE
  5
4FE
  8
GRID
 62
     7
 10
126.0
 20
238.24999999999989
 30
0.0
 11
154.0
 21
238.24999999999989
 31
0.0
1001
ACDBBLOCKREPETAG
1070
     1
1071
       67
1005
4FE
  0
LINE
  5
4FF
  8
GRID
 62
     7
 10
154.0000000258369
 20
234.00000002275559
 30
0.0
 11
289.00000002583693
 21
234.00000002275559
 31
0.0
1001
ACDBBLOCKREPETAG
1070
     1
1071
       68
1005
4FF
  0
LINE
  5
500
  8
GRID
 62
     7
 10
319.00000002583693
 20
234.00000002275559
 30
0.0
 11
414.99999999999989
 21
234.00000002275559
 31
0.0
1001
ACDBBLOCKREPETAG
1070
     1
1071
       69
1005
500
  0
LINE
  5
501
  8
GRID
 62
     7
 10
25.000000025836929
 20
224.5000000227555
 30
0.0
 11
70.000000025836925
 21
224.5000000227555
 31
0.0
1001
ACDBBLOCKREPETAG
1070
     1
1071
       70
1005
501
  0
LINE
  5
502
  8
GRID
 62
     7
 10
70.0
 20
228.75
 30
0.0
 11
90.000000000000014
 21
228.75
 31
0.0
1001
ACDBBLOCKREPETAG
1070
     1
1071
       71
1005
502
  0
LINE
  5
503
  8
GRID
 62
     7
 10
90.000000025836954
 20
224.5000000227555
 30
0.0
 11
126.0000000258369
 21
224.5000000227555
 31
0.0
1001
ACDBBLOCKREPETAG
1070
     1
1071
       72
1005
503
  0
LINE
  5
504
  8
GRID
 62
     7
 10
126.0
 20
228.75
 30
0.0
 11
154.0
 21
228.75
 31
0.0
1001
ACDBBLOCKREPETAG
1070
     1
1071
       73
1005
504
  0
LINE
  5
505
  8
GRID
 62
     7
 10
154.0000000258369
 20
224.5000000227555
 30
0.0
 11
289.00000002583693
 21
224.5000000227555
 31
0.0
1001
ACDBBLOCKREPETAG
1070
     1
1071
       74
1005
505
  0
LINE
  5
506
  8
GRID
 62
     7
 10
319.00000002583693
 20
224.5000000227555
 30
0.0
 11
414.99999999999989
 21
224.5000000227555
 31
0.0
1001
ACDBBLOCKREPETAG
1070
     1
1071
       75
1005
506
  0
LINE
  5
507
  8
GRID
 62
     7
 10
25.000000025836929
 20
215.00000002275559
 30
0.0
 11
70.000000025836925
 21
215.00000002275559
 31
0.0
1001
ACDBBLOCKREPETAG
1070
     1
1071
       76
1005
507
  0
LINE
  5
508
  8
GRID
 62
     7
 10
70.000000025836925
 20
219.7500000227555
 30
0.0
 11
90.000000025836954
 21
219.7500000227555
 31
0.0
1001
ACDBBLOCKREPETAG
1070
     1
1071
       77
1005
508
  0
LINE
  5
509
  8
GRID
 62
     7
 10
90.000000025836954
 20
215.00000002275559
 30
0.0
 11
126.0000000258369
 21
215.00000002275559
 31
0.0
1001
ACDBBLOCKREPETAG
1070
     1
1071
       78
1005
509
  0
LINE
  5
50A
  8
GRID
 62
     7
 10
126.0000000258369
 20
219.7500000227555
 30
0.0
 11
154.0000000258369
 21
219.7500000227555
 31
0.0
1001
ACDBBLOCKREPETAG
1070
     1
1071
       79
1005
50A
  0
LINE
  5
50B
  8
GRID
 62
     7
 10
154.0000000258369
 20
215.00000002275559
 30
0.0
 11
289.00000002583693
 21
215.00000002275559
 31
0.0
1001
ACDBBLOCKREPETAG
1070
     1
1071
       80
1005
50B
  0
LINE
  5
50C
  8
GRID
 62
     7
 10
319.00000002583693
 20
215.00000002275559
 30
0.0
 11
414.99999999999989
 21
215.00000002275559
 31
0.0
1001
ACDBBLOCKREPETAG
1070
     1
1071
       81
1005
50C
  0
LINE
  5
50D
  8
GRID
 62
     7
 10
25.000000025836929
 20
205.5000000227555
 30
0.0
 11
70.000000025836925
 21
205.5000000227555
 31
0.0
1001
ACDBBLOCKREPETAG
1070
     1
1071
       82
1005
50D
  0
LINE
  5
50E
  8
GRID
 62
     7
 10
70.000000025836925
 20
210.25000002275559
 30
0.0
 11
90.000000025836954
 21
210.25000002275559
 31
0.0
1001
ACDBBLOCKREPETAG
1070
     1
1071
       83
1005
50E
  0
LINE
  5
50F
  8
GRID
 62
     7
 10
90.000000025836954
 20
205.5000000227555
 30
0.0
 11
126.0000000258369
 21
205.5000000227555
 31
0.0
1001
ACDBBLOCKREPETAG
1070
     1
1071
       84
1005
50F
  0
LINE
  5
510
  8
GRID
 62
     7
 10
126.0000000258369
 20
210.25000002275559
 30
0.0
 11
154.0000000258369
 21
210.25000002275559
 31
0.0
1001
ACDBBLOCKREPETAG
1070
     1
1071
       85
1005
510
  0
LINE
  5
511
  8
GRID
 62
     7
 10
154.0000000258369
 20
205.5000000227555
 30
0.0
 11
289.00000002583693
 21
205.5000000227555
 31
0.0
1001
ACDBBLOCKREPETAG
1070
     1
1071
       86
1005
511
  0
LINE
  5
512
  8
GRID
 62
     7
 10
319.00000002583693
 20
205.5000000227555
 30
0.0
 11
414.99999999999989
 21
205.5000000227555
 31
0.0
1001
ACDBBLOCKREPETAG
1070
     1
1071
       87
1005
512
  0
LINE
  5
513
  8
GRID
 62
     7
 10
25.000000025836929
 20
196.0000000227555
 30
0.0
 11
70.000000025836925
 21
196.0000000227555
 31
0.0
1001
ACDBBLOCKREPETAG
1070
     1
1071
       88
1005
513
  0
LINE
  5
514
  8
GRID
 62
     7
 10
70.000000025836925
 20
200.75000002275559
 30
0.0
 11
90.000000025836954
 21
200.75000002275559
 31
0.0
1001
ACDBBLOCKREPETAG
1070
     1
1071
       89
1005
514
  0
LINE
  5
515
  8
GRID
 62
     7
 10
90.000000025836954
 20
196.0000000227555
 30
0.0
 11
126.0000000258369
 21
196.0000000227555
 31
0.0
1001
ACDBBLOCKREPETAG
1070
     1
1071
       90
1005
515
  0
LINE
  5
516
  8
GRID
 62
     7
 10
126.0000000258369
 20
200.75000002275559
 30
0.0
 11
154.0000000258369
 21
200.75000002275559
 31
0.0
1001
ACDBBLOCKREPETAG
1070
     1
1071
       91
1005
516
  0
LINE
  5
517
  8
GRID
 62
     7
 10
154.0000000258369
 20
196.0000000227555
 30
0.0
 11
289.00000002583693
 21
196.0000000227555
 31
0.0
1001
ACDBBLOCKREPETAG
1070
     1
1071
       92
1005
517
  0
LINE
  5
518
  8
GRID
 62
     7
 10
319.00000002583693
 20
196.0000000227555
 30
0.0
 11
414.99999999999989
 21
196.0000000227555
 31
0.0
1001
ACDBBLOCKREPETAG
1070
     1
1071
       93
1005
518
  0
LINE
  5
519
  8
GRID
 62
     7
 10
25.000000025836929
 20
186.5000000227555
 30
0.0
 11
70.000000025836925
 21
186.5000000227555
 31
0.0
1001
ACDBBLOCKREPETAG
1070
     1
1071
       94
1005
519
  0
LINE
  5
51A
  8
GRID
 62
     7
 10
70.000000025836925
 20
191.2500000227555
 30
0.0
 11
90.000000025836954
 21
191.2500000227555
 31
0.0
1001
ACDBBLOCKREPETAG
1070
     1
1071
       95
1005
51A
  0
LINE
  5
51B
  8
GRID
 62
     7
 10
90.000000025836954
 20
186.5000000227555
 30
0.0
 11
126.0000000258369
 21
186.5000000227555
 31
0.0
1001
ACDBBLOCKREPETAG
1070
     1
1071
       96
1005
51B
  0
LINE
  5
51C
  8
GRID
 62
     7
 10
126.0000000258369
 20
191.2500000227555
 30
0.0
 11
154.0000000258369
 21
191.2500000227555
 31
0.0
1001
ACDBBLOCKREPETAG
1070
     1
1071
       97
1005
51C
  0
LINE
  5
51D
  8
GRID
 62
     7
 10
154.0000000258369
 20
186.5000000227555
 30
0.0
 11
289.00000002583693
 21
186.5000000227555
 31
0.0
1001
ACDBBLOCKREPETAG
1070
     1
1071
       98
1005
51D
  0
LINE
  5
51E
  8
GRID
 62
     7
 10
319.00000002583693
 20
186.5000000227555
 30
0.0
 11
414.99999999999989
 21
186.5000000227555
 31
0.0
1001
ACDBBLOCKREPETAG
1070
     1
1071
       99
1005
51E
  0
LINE
  5
51F
  8
GRID
 62
     7
 10
25.000000025836929
 20
177.0000000227555
 30
0.0
 11
70.000000025836925
 21
177.0000000227555
 31
0.0
1001
ACDBBLOCKREPETAG
1070
     1
1071
      100
1005
51F
  0
LINE
  5
520
  8
GRID
 62
     7
 10
70.000000025836925
 20
181.7500000227555
 30
0.0
 11
90.000000025836954
 21
181.7500000227555
 31
0.0
1001
ACDBBLOCKREPETAG
1070
     1
1071
      101
1005
520
  0
LINE
  5
521
  8
GRID
 62
     7
 10
90.000000025836954
 20
177.0000000227555
 30
0.0
 11
126.0000000258369
 21
177.0000000227555
 31
0.0
1001
ACDBBLOCKREPETAG
1070
     1
1071
      102
1005
521
  0
LINE
  5
522
  8
GRID
 62
     7
 10
126.0000000258369
 20
181.7500000227555
 30
0.0
 11
154.0000000258369
 21
181.7500000227555
 31
0.0
1001
ACDBBLOCKREPETAG
1070
     1
1071
      103
1005
522
  0
LINE
  5
523
  8
GRID
 62
     7
 10
154.0000000258369
 20
177.0000000227555
 30
0.0
 11
289.00000002583693
 21
177.0000000227555
 31
0.0
1001
ACDBBLOCKREPETAG
1070
     1
1071
      104
1005
523
  0
LINE
  5
524
  8
GRID
 62
     7
 10
319.00000002583693
 20
177.0000000227555
 30
0.0
 11
414.99999999999989
 21
177.0000000227555
 31
0.0
1001
ACDBBLOCKREPETAG
1070
     1
1071
      105
1005
524
  0
LINE
  5
525
  8
GRID
 62
     7
 10
25.000000025836929
 20
167.5000000227555
 30
0.0
 11
70.000000025836925
 21
167.5000000227555
 31
0.0
1001
ACDBBLOCKREPETAG
1070
     1
1071
      106
1005
525
  0
LINE
  5
526
  8
GRID
 62
     7
 10
70.000000025836925
 20
172.2500000227555
 30
0.0
 11
90.000000025836954
 21
172.2500000227555
 31
0.0
1001
ACDBBLOCKREPETAG
1070
     1
1071
      107
1005
526
  0
LINE
  5
527
  8
GRID
 62
     7
 10
90.000000025836954
 20
167.5000000227555
 30
0.0
 11
126.0000000258369
 21
167.5000000227555
 31
0.0
1001
ACDBBLOCKREPETAG
1070
     1
1071
      108
1005
527
  0
LINE
  5
528
  8
GRID
 62
     7
 10
126.0000000258369
 20
172.2500000227555
 30
0.0
 11
154.0000000258369
 21
172.2500000227555
 31
0.0
1001
ACDBBLOCKREPETAG
1070
     1
1071
      109
1005
528
  0
LINE
  5
529
  8
GRID
 62
     7
 10
154.0000000258369
 20
167.5000000227555
 30
0.0
 11
289.00000002583693
 21
167.5000000227555
 31
0.0
1001
ACDBBLOCKREPETAG
1070
     1
1071
      110
1005
529
  0
LINE
  5
52A
  8
GRID
 62
     7
 10
319.00000002583693
 20
167.5000000227555
 30
0.0
 11
414.99999999999989
 21
167.5000000227555
 31
0.0
1001
ACDBBLOCKREPETAG
1070
     1
1071
      111
1005
52A
  0
LINE
  5
52B
  8
GRID
 62
     7
 10
25.000000025836929
 20
158.0000000227555
 30
0.0
 11
70.000000025836925
 21
158.0000000227555
 31
0.0
1001
ACDBBLOCKREPETAG
1070
     1
1071
      112
1005
52B
  0
LINE
  5
52C
  8
GRID
 62
     7
 10
70.000000025836925
 20
162.7500000227555
 30
0.0
 11
90.000000025836954
 21
162.7500000227555
 31
0.0
1001
ACDBBLOCKREPETAG
1070
     1
1071
      113
1005
52C
  0
LINE
  5
52D
  8
GRID
 62
     7
 10
90.000000025836954
 20
158.0000000227555
 30
0.0
 11
126.0000000258369
 21
158.0000000227555
 31
0.0
1001
ACDBBLOCKREPETAG
1070
     1
1071
      114
1005
52D
  0
LINE
  5
52E
  8
GRID
 62
     7
 10
126.0000000258369
 20
162.7500000227555
 30
0.0
 11
154.0000000258369
 21
162.7500000227555
 31
0.0
1001
ACDBBLOCKREPETAG
1070
     1
1071
      115
1005
52E
  0
LINE
  5
52F
  8
GRID
 62
     7
 10
154.0000000258369
 20
158.0000000227555
 30
0.0
 11
289.00000002583693
 21
158.0000000227555
 31
0.0
1001
ACDBBLOCKREPETAG
1070
     1
1071
      116
1005
52F
  0
LINE
  5
530
  8
GRID
 62
     7
 10
319.00000002583693
 20
158.0000000227555
 30
0.0
 11
414.99999999999989
 21
158.0000000227555
 31
0.0
1001
ACDBBLOCKREPETAG
1070
     1
1071
      117
1005
530
  0
LINE
  5
531
  8
GRID
 62
     7
 10
25.000000025836929
 20
148.5000000227555
 30
0.0
 11
70.000000025836925
 21
148.5000000227555
 31
0.0
1001
ACDBBLOCKREPETAG
1070
     1
1071
      118
1005
531
  0
LINE
  5
532
  8
GRID
 62
     7
 10
70.000000025836925
 20
153.2500000227555
 30
0.0
 11
90.000000025836954
 21
153.2500000227555
 31
0.0
1001
ACDBBLOCKREPETAG
1070
     1
1071
      119
1005
532
  0
LINE
  5
533
  8
GRID
 62
     7
 10
90.000000025836954
 20
148.5000000227555
 30
0.0
 11
126.0000000258369
 21
148.5000000227555
 31
0.0
1001
ACDBBLOCKREPETAG
1070
     1
1071
      120
1005
533
  0
LINE
  5
534
  8
GRID
 62
     7
 10
126.0000000258369
 20
153.2500000227555
 30
0.0
 11
154.0000000258369
 21
153.2500000227555
 31
0.0
1001
ACDBBLOCKREPETAG
1070
     1
1071
      121
1005
534
  0
LINE
  5
535
  8
GRID
 62
     7
 10
154.0000000258369
 20
148.5000000227555
 30
0.0
 11
289.00000002583693
 21
148.5000000227555
 31
0.0
1001
ACDBBLOCKREPETAG
1070
     1
1071
      122
1005
535
  0
LINE
  5
536
  8
GRID
 62
     7
 10
319.00000002583693
 20
148.5000000227555
 30
0.0
 11
414.99999999999989
 21
148.5000000227555
 31
0.0
1001
ACDBBLOCKREPETAG
1070
     1
1071
      123
1005
536
  0
LINE
  5
537
  8
GRID
 62
     7
 10
25.000000025836929
 20
139.0000000227555
 30
0.0
 11
70.000000025836925
 21
139.0000000227555
 31
0.0
1001
ACDBBLOCKREPETAG
1070
     1
1071
      124
1005
537
  0
LINE
  5
538
  8
GRID
 62
     7
 10
70.000000025836925
 20
143.7500000227555
 30
0.0
 11
90.000000025836954
 21
143.7500000227555
 31
0.0
1001
ACDBBLOCKREPETAG
1070
     1
1071
      125
1005
538
  0
LINE
  5
539
  8
GRID
 62
     7
 10
90.000000025836954
 20
139.0000000227555
 30
0.0
 11
126.0000000258369
 21
139.0000000227555
 31
0.0
1001
ACDBBLOCKREPETAG
1070
     1
1071
      126
1005
539
  0
LINE
  5
53A
  8
GRID
 62
     7
 10
126.0000000258369
 20
143.7500000227555
 30
0.0
 11
154.0000000258369
 21
143.7500000227555
 31
0.0
1001
ACDBBLOCKREPETAG
1070
     1
1071
      127
1005
53A
  0
LINE
  5
53B
  8
GRID
 62
     7
 10
154.0000000258369
 20
139.0000000227555
 30
0.0
 11
289.00000002583693
 21
139.0000000227555
 31
0.0
1001
ACDBBLOCKREPETAG
1070
     1
1071
      128
1005
53B
  0
LINE
  5
53C
  8
GRID
 62
     7
 10
319.00000002583693
 20
139.0000000227555
 30
0.0
 11
414.99999999999989
 21
139.0000000227555
 31
0.0
1001
ACDBBLOCKREPETAG
1070
     1
1071
      129
1005
53C
  0
LINE
  5
53D
  8
GRID
 62
     7
 10
25.000000025836929
 20
129.5000000227555
 30
0.0
 11
70.000000025836925
 21
129.5000000227555
 31
0.0
1001
ACDBBLOCKREPETAG
1070
     1
1071
      130
1005
53D
  0
LINE
  5
53E
  8
GRID
 62
     7
 10
70.000000025836925
 20
134.2500000227555
 30
0.0
 11
90.000000025836954
 21
134.2500000227555
 31
0.0
1001
ACDBBLOCKREPETAG
1070
     1
1071
      131
1005
53E
  0
LINE
  5
53F
  8
GRID
 62
     7
 10
90.000000025836954
 20
129.5000000227555
 30
0.0
 11
126.0000000258369
 21
129.5000000227555
 31
0.0
1001
ACDBBLOCKREPETAG
1070
     1
1071
      132
1005
53F
  0
LINE
  5
540
  8
GRID
 62
     7
 10
126.0000000258369
 20
134.2500000227555
 30
0.0
 11
154.0000000258369
 21
134.2500000227555
 31
0.0
1001
ACDBBLOCKREPETAG
1070
     1
1071
      133
1005
540
  0
LINE
  5
541
  8
GRID
 62
     7
 10
154.0000000258369
 20
129.5000000227555
 30
0.0
 11
289.00000002583693
 21
129.5000000227555
 31
0.0
1001
ACDBBLOCKREPETAG
1070
     1
1071
      134
1005
541
  0
LINE
  5
542
  8
GRID
 62
     7
 10
319.00000002583693
 20
129.5000000227555
 30
0.0
 11
414.99999999999989
 21
129.5000000227555
 31
0.0
1001
ACDBBLOCKREPETAG
1070
     1
1071
      135
1005
542
  0
LINE
  5
543
  8
GRID
 62
     7
 10
25.000000025836929
 20
120.0000000227555
 30
0.0
 11
70.000000025836925
 21
120.0000000227555
 31
0.0
1001
ACDBBLOCKREPETAG
1070
     1
1071
      136
1005
543
  0
LINE
  5
544
  8
GRID
 62
     7
 10
70.000000025836925
 20
124.7500000227555
 30
0.0
 11
90.000000025836954
 21
124.7500000227555
 31
0.0
1001
ACDBBLOCKREPETAG
1070
     1
1071
      137
1005
544
  0
LINE
  5
545
  8
GRID
 62
     7
 10
90.000000025836954
 20
120.0000000227555
 30
0.0
 11
126.0000000258369
 21
120.0000000227555
 31
0.0
1001
ACDBBLOCKREPETAG
1070
     1
1071
      138
1005
545
  0
LINE
  5
546
  8
GRID
 62
     7
 10
126.0000000258369
 20
124.7500000227555
 30
0.0
 11
154.0000000258369
 21
124.7500000227555
 31
0.0
1001
ACDBBLOCKREPETAG
1070
     1
1071
      139
1005
546
  0
LINE
  5
547
  8
GRID
 62
     7
 10
154.0000000258369
 20
120.0000000227555
 30
0.0
 11
289.00000002583693
 21
120.0000000227555
 31
0.0
1001
ACDBBLOCKREPETAG
1070
     1
1071
      140
1005
547
  0
LINE
  5
548
  8
GRID
 62
     7
 10
319.00000002583693
 20
120.0000000227555
 30
0.0
 11
414.99999999999989
 21
120.0000000227555
 31
0.0
1001
ACDBBLOCKREPETAG
1070
     1
1071
      141
1005
548
  0
LINE
  5
549
  8
GRID
 62
     7
 10
25.000000025836929
 20
110.5000000227555
 30
0.0
 11
70.000000025836925
 21
110.5000000227555
 31
0.0
1001
ACDBBLOCKREPETAG
1070
     1
1071
      142
1005
549
  0
LINE
  5
54A
  8
GRID
 62
     7
 10
70.000000025836925
 20
115.2500000227555
 30
0.0
 11
90.000000025836954
 21
115.2500000227555
 31
0.0
1001
ACDBBLOCKREPETAG
1070
     1
1071
      143
1005
54A
  0
LINE
  5
54B
  8
GRID
 62
     7
 10
90.000000025836954
 20
110.5000000227555
 30
0.0
 11
126.0000000258369
 21
110.5000000227555
 31
0.0
1001
ACDBBLOCKREPETAG
1070
     1
1071
      144
1005
54B
  0
LINE
  5
54C
  8
GRID
 62
     7
 10
126.0000000258369
 20
115.2500000227555
 30
0.0
 11
154.0000000258369
 21
115.2500000227555
 31
0.0
1001
ACDBBLOCKREPETAG
1070
     1
1071
      145
1005
54C
  0
LINE
  5
54D
  8
GRID
 62
     7
 10
154.0000000258369
 20
110.5000000227555
 30
0.0
 11
289.00000002583693
 21
110.5000000227555
 31
0.0
1001
ACDBBLOCKREPETAG
1070
     1
1071
      146
1005
54D
  0
LINE
  5
54E
  8
GRID
 62
     7
 10
319.00000002583693
 20
110.5000000227555
 30
0.0
 11
414.99999999999989
 21
110.5000000227555
 31
0.0
1001
ACDBBLOCKREPETAG
1070
     1
1071
      147
1005
54E
  0
LINE
  5
54F
  8
GRID
 62
     7
 10
25.000000025836929
 20
101.0000000227555
 30
0.0
 11
70.000000025836925
 21
101.0000000227555
 31
0.0
1001
ACDBBLOCKREPETAG
1070
     1
1071
      148
1005
54F
  0
LINE
  5
550
  8
GRID
 62
     7
 10
70.000000025836925
 20
105.7500000227555
 30
0.0
 11
90.000000025836954
 21
105.7500000227555
 31
0.0
1001
ACDBBLOCKREPETAG
1070
     1
1071
      149
1005
550
  0
LINE
  5
551
  8
GRID
 62
     7
 10
90.000000025836954
 20
101.0000000227555
 30
0.0
 11
126.0000000258369
 21
101.0000000227555
 31
0.0
1001
ACDBBLOCKREPETAG
1070
     1
1071
      150
1005
551
  0
LINE
  5
552
  8
GRID
 62
     7
 10
126.0000000258369
 20
105.7500000227555
 30
0.0
 11
154.0000000258369
 21
105.7500000227555
 31
0.0
1001
ACDBBLOCKREPETAG
1070
     1
1071
      151
1005
552
  0
LINE
  5
553
  8
GRID
 62
     7
 10
154.0000000258369
 20
101.0000000227555
 30
0.0
 11
289.00000002583693
 21
101.0000000227555
 31
0.0
1001
ACDBBLOCKREPETAG
1070
     1
1071
      152
1005
553
  0
LINE
  5
554
  8
GRID
 62
     7
 10
319.00000002583693
 20
101.0000000227555
 30
0.0
 11
414.99999999999989
 21
101.0000000227555
 31
0.0
1001
ACDBBLOCKREPETAG
1070
     1
1071
      153
1005
554
  0
LINE
  5
555
  8
GRID
 62
     7
 10
25.000000025836929
 20
91.500000022755572
 30
0.0
 11
70.000000025836925
 21
91.500000022755572
 31
0.0
1001
ACDBBLOCKREPETAG
1070
     1
1071
      154
1005
555
  0
LINE
  5
556
  8
GRID
 62
     7
 10
70.000000025836925
 20
96.250000022755543
 30
0.0
 11
90.000000025836954
 21
96.250000022755543
 31
0.0
1001
ACDBBLOCKREPETAG
1070
     1
1071
      155
1005
556
  0
LINE
  5
557
  8
GRID
 62
     7
 10
90.000000025836954
 20
91.500000022755572
 30
0.0
 11
126.0000000258369
 21
91.500000022755572
 31
0.0
1001
ACDBBLOCKREPETAG
1070
     1
1071
      156
1005
557
  0
LINE
  5
558
  8
GRID
 62
     7
 10
126.0000000258369
 20
96.250000022755543
 30
0.0
 11
154.0000000258369
 21
96.250000022755543
 31
0.0
1001
ACDBBLOCKREPETAG
1070
     1
1071
      157
1005
558
  0
LINE
  5
559
  8
GRID
 62
     7
 10
154.0000000258369
 20
91.500000022755572
 30
0.0
 11
289.00000002583693
 21
91.500000022755572
 31
0.0
1001
ACDBBLOCKREPETAG
1070
     1
1071
      158
1005
559
  0
LINE
  5
55A
  8
GRID
 62
     7
 10
319.00000002583693
 20
91.500000022755572
 30
0.0
 11
414.99999999999989
 21
91.500000022755572
 31
0.0
1001
ACDBBLOCKREPETAG
1070
     1
1071
      159
1005
55A
  0
LINE
  5
55B
  8
GRID
 62
     7
 10
25.000000025836929
 20
82.000000022755543
 30
0.0
 11
70.000000025836925
 21
82.000000022755543
 31
0.0
1001
ACDBBLOCKREPETAG
1070
     1
1071
      160
1005
55B
  0
LINE
  5
55C
  8
GRID
 62
     7
 10
70.000000025836925
 20
86.750000022755543
 30
0.0
 11
90.000000025836954
 21
86.750000022755543
 31
0.0
1001
ACDBBLOCKREPETAG
1070
     1
1071
      161
1005
55C
  0
LINE
  5
55D
  8
GRID
 62
     7
 10
90.000000025836954
 20
82.000000022755543
 30
0.0
 11
126.0000000258369
 21
82.000000022755543
 31
0.0
1001
ACDBBLOCKREPETAG
1070
     1
1071
      162
1005
55D
  0
LINE
  5
55E
  8
GRID
 62
     7
 10
126.0000000258369
 20
86.750000022755543
 30
0.0
 11
154.0000000258369
 21
86.750000022755543
 31
0.0
1001
ACDBBLOCKREPETAG
1070
     1
1071
      163
1005
55E
  0
LINE
  5
55F
  8
GRID
 62
     7
 10
154.0000000258369
 20
82.000000022755543
 30
0.0
 11
289.00000002583693
 21
82.000000022755543
 31
0.0
1001
ACDBBLOCKREPETAG
1070
     1
1071
      164
1005
55F
  0
LINE
  5
560
  8
GRID
 62
     7
 10
319.00000002583693
 20
82.000000022755543
 30
0.0
 11
414.99999999999989
 21
82.000000022755543
 31
0.0
1001
ACDBBLOCKREPETAG
1070
     1
1071
      165
1005
560
  0
LINE
  5
561
  8
GRID
 62
     7
 10
25.000000025836929
 20
72.500000022755543
 30
0.0
 11
70.000000025836925
 21
72.500000022755543
 31
0.0
1001
ACDBBLOCKREPETAG
1070
     1
1071
      166
1005
561
  0
LINE
  5
562
  8
GRID
 62
     7
 10
70.000000025836925
 20
77.250000022755543
 30
0.0
 11
90.000000025836954
 21
77.250000022755543
 31
0.0
1001
ACDBBLOCKREPETAG
1070
     1
1071
      167
1005
562
  0
LINE
  5
563
  8
GRID
 62
     7
 10
90.000000025836954
 20
72.500000022755543
 30
0.0
 11
126.0000000258369
 21
72.500000022755543
 31
0.0
1001
ACDBBLOCKREPETAG
1070
     1
1071
      168
1005
563
  0
LINE
  5
564
  8
GRID
 62
     7
 10
126.0000000258369
 20
77.250000022755543
 30
0.0
 11
154.0000000258369
 21
77.250000022755543
 31
0.0
1001
ACDBBLOCKREPETAG
1070
     1
1071
      169
1005
564
  0
LINE
  5
565
  8
GRID
 62
     7
 10
154.0000000258369
 20
72.500000022755543
 30
0.0
 11
289.00000002583693
 21
72.500000022755543
 31
0.0
1001
ACDBBLOCKREPETAG
1070
     1
1071
      170
1005
565
  0
LINE
  5
566
  8
GRID
 62
     7
 10
319.00000002583693
 20
72.500000022755543
 30
0.0
 11
414.99999999999989
 21
72.500000022755529
 31
0.0
1001
ACDBBLOCKREPETAG
1070
     1
1071
      171
1005
566
  0
LINE
  5
567
  8
GRID
 62
     7
 10
25.000000025836929
 20
63.000000022755557
 30
0.0
 11
70.000000025836925
 21
63.000000022755557
 31
0.0
1001
ACDBBLOCKREPETAG
1070
     1
1071
      172
1005
567
  0
LINE
  5
568
  8
GRID
 62
     7
 10
70.000000025836925
 20
67.750000022755572
 30
0.0
 11
90.000000025836954
 21
67.750000022755572
 31
0.0
1001
ACDBBLOCKREPETAG
1070
     1
1071
      173
1005
568
  0
LINE
  5
569
  8
GRID
 62
     7
 10
90.000000025836954
 20
63.000000022755557
 30
0.0
 11
126.0000000258369
 21
63.000000022755557
 31
0.0
1001
ACDBBLOCKREPETAG
1070
     1
1071
      174
1005
569
  0
LINE
  5
56A
  8
GRID
 62
     7
 10
126.0000000258369
 20
67.750000022755572
 30
0.0
 11
154.0000000258369
 21
67.750000022755572
 31
0.0
1001
ACDBBLOCKREPETAG
1070
     1
1071
      175
1005
56A
  0
LINE
  5
56B
  8
GRID
 62
     7
 10
154.0000000258369
 20
63.000000022755557
 30
0.0
 11
289.00000002583693
 21
63.000000022755557
 31
0.0
1001
ACDBBLOCKREPETAG
1070
     1
1071
      176
1005
56B
  0
LINE
  5
56C
  8
GRID
 62
     7
 10
319.00000002583693
 20
63.000000022755557
 30
0.0
 11
414.99999999999989
 21
63.000000022755557
 31
0.0
1001
ACDBBLOCKREPETAG
1070
     1
1071
      177
1005
56C
  0
LINE
  5
56D
  8
GRID
 62
     7
 10
25.000000025836929
 20
53.500000022755572
 30
0.0
 11
70.000000025836925
 21
53.500000022755572
 31
0.0
1001
ACDBBLOCKREPETAG
1070
     1
1071
      178
1005
56D
  0
LINE
  5
56E
  8
GRID
 62
     7
 10
70.000000025836925
 20
58.25000002275555
 30
0.0
 11
90.000000025836954
 21
58.25000002275555
 31
0.0
1001
ACDBBLOCKREPETAG
1070
     1
1071
      179
1005
56E
  0
LINE
  5
56F
  8
GRID
 62
     7
 10
90.000000025836954
 20
53.500000022755572
 30
0.0
 11
126.0000000258369
 21
53.500000022755572
 31
0.0
1001
ACDBBLOCKREPETAG
1070
     1
1071
      180
1005
56F
  0
LINE
  5
570
  8
GRID
 62
     7
 10
126.0000000258369
 20
58.25000002275555
 30
0.0
 11
154.0000000258369
 21
58.25000002275555
 31
0.0
1001
ACDBBLOCKREPETAG
1070
     1
1071
      181
1005
570
  0
LINE
  5
571
  8
GRID
 62
     7
 10
154.0000000258369
 20
53.500000022755572
 30
0.0
 11
289.00000002583693
 21
53.500000022755572
 31
0.0
1001
ACDBBLOCKREPETAG
1070
     1
1071
      182
1005
571
  0
LINE
  5
572
  8
GRID
 62
     7
 10
319.00000002583693
 20
53.500000022755572
 30
0.0
 11
414.99999999999989
 21
53.500000022755572
 31
0.0
1001
ACDBBLOCKREPETAG
1070
     1
1071
      183
1005
572
  0
LINE
  5
573
  8
GRID
 62
     7
 10
25.000000025836929
 20
53.500000022755572
 30
0.0
 11
414.99999999999989
 21
53.500000022755572
 31
0.0
1001
ACDBBLOCKREPETAG
1070
     1
1071
      184
1005
573
  0
LINE
  5
574
  8
0
 10
25.0
 20
5.0
 30
0.0
 11
414.99999999999989
 21
5.0
 31
0.0
1001
ACDBBLOCKREPETAG
1070
     1
1071
      185
1005
574
  0
ENDBLK
  5
1C2
  8
0
  0
ENDSEC
  0
SECTION
  2
ENTITIES
  0
INSERT
  5
1C5
  8
0
  2
华北电力
 10
99.999999974163075
 20
199.99999997724441
 30
0.0
  0
ENDSEC
  0
EOF
