  0
SECTION
  2
HEADER
  9
$ACADVER
  1
AC1009
  9
$INSBASE
 10
0.0
 20
0.0
 30
0.0
  9
$EXTMIN
 10
0.0
 20
-296.99999999999972
 30
0.0
  9
$EXTMAX
 10
419.99999999999932
 20
0.0
 30
0.0
  9
$LIMMIN
 10
0.0
 20
0.0
  9
$LIMMAX
 10
420.0
 20
297.0
  9
$ORTHOMODE
 70
     0
  9
$REGENMODE
 70
     1
  9
$FILLMODE
 70
     1
  9
$QTEXTMODE
 70
     0
  9
$MIRRTEXT
 70
     0
  9
$DRAGMODE
 70
     2
  9
$LTSCALE
 40
1.0
  9
$OSMODE
 70
   165
  9
$ATTMODE
 70
     1
  9
$TEXTSIZE
 40
2.5
  9
$TRACEWID
 40
1.0
  9
$TEXTSTYLE
  7
TLCAD
  9
$CLAYER
  8
0
  9
$CELTYPE
  6
BYLAYER
  9
$CECOLOR
 62
   256
  9
$DIMSCALE
 40
1.0
  9
$DIMASZ
 40
2.5
  9
$DIMEXO
 40
0.625
  9
$DIMDLI
 40
3.75
  9
$DIMRND
 40
0.0
  9
$DIMDLE
 40
0.0
  9
$DIMEXE
 40
1.25
  9
$DIMTP
 40
0.0
  9
$DIMTM
 40
0.0
  9
$DIMTXT
 40
2.5
  9
$DIMCEN
 40
2.5
  9
$DIMTSZ
 40
0.0
  9
$DIMTOL
 70
     0
  9
$DIMLIM
 70
     0
  9
$DIMTIH
 70
     0
  9
$DIMTOH
 70
     0
  9
$DIMSE1
 70
     0
  9
$DIMSE2
 70
     0
  9
$DIMTAD
 70
     1
  9
$DIMZIN
 70
     8
  9
$DIMBLK
  1

  9
$DIMASO
 70
     1
  9
$DIMSHO
 70
     1
  9
$DIMPOST
  1

  9
$DIMAPOST
  1

  9
$DIMALT
 70
     0
  9
$DIMALTD
 70
     3
  9
$DIMALTF
 40
0.03937007874016
  9
$DIMLFAC
 40
1.0
  9
$DIMTOFL
 70
     1
  9
$DIMTVP
 40
0.0
  9
$DIMTIX
 70
     0
  9
$DIMSOXD
 70
     0
  9
$DIMSAH
 70
     0
  9
$DIMBLK1
  1

  9
$DIMBLK2
  1

  9
$DIMSTYLE
  2
ISO-25
  9
$DIMCLRD
 70
     0
  9
$DIMCLRE
 70
     0
  9
$DIMCLRT
 70
     0
  9
$DIMTFAC
 40
1.0
  9
$DIMGAP
 40
0.625
  9
$LUNITS
 70
     2
  9
$LUPREC
 70
     4
  9
$SKETCHINC
 40
1.0
  9
$FILLETRAD
 40
0.0
  9
$AUNITS
 70
     0
  9
$AUPREC
 70
     0
  9
$MENU
  1
.
  9
$ELEVATION
 40
0.0
  9
$PELEVATION
 40
0.0
  9
$THICKNESS
 40
0.0
  9
$LIMCHECK
 70
     0
  9
$BLIPMODE
 70
     0
  9
$CHAMFERA
 40
0.0
  9
$CHAMFERB
 40
0.0
  9
$SKPOLY
 70
     0
  9
$TDCREATE
 40
2455443.6169864
  9
$TDUPDATE
 40
2455443.9912592131
  9
$TDINDWG
 40
0.0133143403
  9
$TDUSRTIMER
 40
0.0133132523
  9
$USRTIMER
 70
     1
  9
$ANGBASE
 50
0.0
  9
$ANGDIR
 70
     0
  9
$PDMODE
 70
     0
  9
$PDSIZE
 40
0.0
  9
$PLINEWID
 40
0.0
  9
$COORDS
 70
     0
  9
$SPLFRAME
 70
     0
  9
$SPLINETYPE
 70
     6
  9
$SPLINESEGS
 70
     8
  9
$ATTDIA
 70
     0
  9
$ATTREQ
 70
     1
  9
$HANDLING
 70
     1
  9
$HANDSEED
  5
11A7
  9
$SURFTAB1
 70
     6
  9
$SURFTAB2
 70
     6
  9
$SURFTYPE
 70
     6
  9
$SURFU
 70
     6
  9
$SURFV
 70
     6
  9
$UCSNAME
  2

  9
$UCSORG
 10
0.0
 20
0.0
 30
0.0
  9
$UCSXDIR
 10
1.0
 20
0.0
 30
0.0
  9
$UCSYDIR
 10
0.0
 20
1.0
 30
0.0
  9
$PUCSNAME
  2

  9
$PUCSORG
 10
0.0
 20
0.0
 30
0.0
  9
$PUCSXDIR
 10
1.0
 20
0.0
 30
0.0
  9
$PUCSYDIR
 10
0.0
 20
1.0
 30
0.0
  9
$USERI1
 70
     0
  9
$USERI2
 70
     0
  9
$USERI3
 70
     0
  9
$USERI4
 70
     0
  9
$USERI5
 70
     0
  9
$USERR1
 40
0.0
  9
$USERR2
 40
0.0
  9
$USERR3
 40
0.0
  9
$USERR4
 40
0.0
  9
$USERR5
 40
0.0
  9
$WORLDVIEW
 70
     1
  9
$SHADEDGE
 70
     3
  9
$SHADEDIF
 70
    70
  9
$TILEMODE
 70
     1
  9
$MAXACTVP
 70
    64
  9
$PLIMCHECK
 70
     0
  9
$PEXTMIN
 10
0.0
 20
0.0
 30
0.0
  9
$PEXTMAX
 10
0.0
 20
0.0
 30
0.0
  9
$PLIMMIN
 10
0.0
 20
0.0
  9
$PLIMMAX
 10
12.0
 20
9.0
  9
$UNITMODE
 70
     0
  9
$VISRETAIN
 70
     1
  9
$PLINEGEN
 70
     0
  9
$PSLTSCALE
 70
     1
  0
ENDSEC
  0
SECTION
  2
TABLES
  0
TABLE
  2
VPORT
 70
     2
  0
VPORT
  2
*ACTIVE
 70
     0
 10
0.0
 20
0.0
 11
1.0
 21
1.0
 12
188.7182246611309
 22
-66.701400665342021
 13
0.0
 23
0.0
 14
10.0
 24
10.0
 15
10.0
 25
10.0
 16
0.0
 26
0.0
 36
1.0
 17
0.0
 27
0.0
 37
0.0
 40
104.21176926192381
 41
2.1822827938671199
 42
50.0
 43
0.0
 44
0.0
 50
0.0
 51
0.0
 71
     0
 72
  1000
 73
     1
 74
     3
 75
     0
 76
     0
 77
     0
 78
     0
  0
ENDTAB
  0
TABLE
  2
LTYPE
 70
     2
  0
LTYPE
  2
CONTINUOUS
 70
     0
  3
Solid line
 72
    65
 73
     0
 40
0.0
  0
ENDTAB
  0
TABLE
  2
LAYER
 70
     2
  0
LAYER
  2
0
 70
     0
 62
     7
  6
CONTINUOUS
  0
LAYER
  2
1
 70
     0
 62
     3
  6
CONTINUOUS
  0
ENDTAB
  0
TABLE
  2
STYLE
 70
     3
  0
STYLE
  2
STANDARD
 70
     0
 40
0.0
 41
1.0
 50
0.0
 71
     0
 42
2.5
  3
txt
  4

  0
STYLE
  2
TLCAD
 70
     0
 40
0.0
 41
1.0
 50
0.0
 71
     0
 42
2.5
  3
romanc.shx
  4
hztxt.shx
  0
STYLE
  2
HZ
 70
     0
 40
0.0
 41
0.7
 50
0.0
 71
     0
 42
5.0
  3
SIMPLEX.shx
  4
HZTXT.shx
  0
ENDTAB
  0
TABLE
  2
VIEW
 70
     0
  0
ENDTAB
  0
TABLE
  2
UCS
 70
     0
  0
ENDTAB
  0
TABLE
  2
APPID
 70
     7
  0
APPID
  2
ACAD
 70
     0
  0
APPID
  2
ACAD_PSEXT
 70
     0
  0
APPID
  2
ACAUTHENVIRON
 70
     0
  0
APPID
  2
ACDBDYNAMICBLOCKTRUENAME
 70
     0
  0
APPID
  2
ACDBDYNAMICBLOCKGUID
 70
     0
  0
APPID
  2
ACDBBLOCKREPETAG
 70
     0
  0
APPID
  2
ACAD_EXEMPT_FROM_CAD_STANDARDS
 70
     0
  0
ENDTAB
  0
TABLE
  2
DIMSTYLE
 70
     2
  0
DIMSTYLE
  2
ISO-25
 70
     0
  3

  4

  5

  6

  7

 40
1.0
 41
2.5
 42
0.625
 43
3.75
 44
1.25
 45
0.0
 46
0.0
 47
0.0
 48
0.0
140
2.5
141
2.5
142
0.0
143
0.03937007874016
144
1.0
145
0.0
146
1.0
147
0.625
 71
     0
 72
     0
 73
     0
 74
     0
 75
     0
 76
     0
 77
     1
 78
     8
170
     0
171
     3
172
     1
173
     0
174
     0
175
     0
176
     0
177
     0
178
     0
  0
ENDTAB
  0
ENDSEC
  0
SECTION
  2
BLOCKS
  0
BLOCK
  8
0
  2
$MODEL_SPACE
 70
     0
 10
0.0
 20
0.0
 30
0.0
  3
$MODEL_SPACE
  1

  0
ENDBLK
  5
1009
  8
0
  0
BLOCK
 67
     1
  8
0
  2
$PAPER_SPACE
 70
     0
 10
0.0
 20
0.0
 30
0.0
  3
$PAPER_SPACE
  1

  0
ENDBLK
  5
1005
 67
     1
  8
0
  0
BLOCK
  8
0
  2
*U2
 70
     1
 10
0.0
 20
0.0
 30
0.0
  3
*U2
  1

  0
POLYLINE
  5
5FF
  8
0
  6
CONTINUOUS
 66
     1
 10
0.0
 20
0.0
 30
0.0
1001
ACDBBLOCKREPETAG
1070
     1
1071
        0
1005
5FF
  0
VERTEX
  5
1185
  8
0
  6
CONTINUOUS
 10
288.00000000000011
 20
-49.999999999999972
 30
0.0
  0
VERTEX
  5
1186
  8
0
  6
CONTINUOUS
 10
268.00000000000011
 20
-49.999999999999972
 30
0.0
  0
SEQEND
  5
1187
  8
0
  6
CONTINUOUS
  0
LINE
  5
600
  8
0
 10
278.00000000000011
 20
-49.999999999999972
 30
0.0
 11
278.00000000000011
 21
-259.99999999999972
 31
0.0
1001
ACDBBLOCKREPETAG
1070
     1
1071
        1
1005
600
  0
LINE
  5
601
  8
0
 10
370.99999999999977
 20
-259.99999999999972
 30
0.0
 11
400.99999999999977
 21
-259.99999999999972
 31
0.0
1001
ACDBBLOCKREPETAG
1070
     1
1071
        2
1005
601
  0
LINE
  5
602
  8
0
 10
309.00000000000011
 20
-254.9999999999998
 30
0.0
 11
370.99999999999977
 21
-254.9999999999998
 31
0.0
1001
ACDBBLOCKREPETAG
1070
     1
1071
        3
1005
602
  0
LINE
  5
603
  8
0
 10
302.0
 20
-259.99999999999972
 30
0.0
 11
309.00000000000011
 21
-259.99999999999972
 31
0.0
1001
ACDBBLOCKREPETAG
1070
     1
1071
        4
1005
603
  0
LINE
  5
604
  8
0
 10
268.00000000000011
 20
-254.9999999999998
 30
0.0
 11
288.00000000000011
 21
-254.9999999999998
 31
0.0
1001
ACDBBLOCKREPETAG
1070
     1
1071
        5
1005
604
  0
LINE
  5
605
  8
0
 10
150.9999999999998
 20
-259.99999999999972
 30
0.0
 11
288.00000000000011
 21
-259.99999999999972
 31
0.0
1001
ACDBBLOCKREPETAG
1070
     1
1071
        6
1005
605
  0
LINE
  5
606
  8
0
 10
101.4999999999999
 20
-259.99999999999972
 30
0.0
 11
136.0
 21
-259.99999999999972
 31
0.0
1001
ACDBBLOCKREPETAG
1070
     1
1071
        7
1005
606
  0
LINE
  5
607
  8
0
 10
89.999999999999986
 20
-254.9999999999998
 30
0.0
 11
101.4999999999999
 21
-254.9999999999998
 31
0.0
1001
ACDBBLOCKREPETAG
1070
     1
1071
        8
1005
607
  0
LINE
  5
608
  8
0
 10
40.0
 20
-259.99999999999972
 30
0.0
 11
89.999999999999986
 21
-259.99999999999972
 31
0.0
1001
ACDBBLOCKREPETAG
1070
     1
1071
        9
1005
608
  0
LINE
  5
609
  8
0
 10
370.99999999999977
 20
-249.99999999999989
 30
0.0
 11
400.99999999999977
 21
-249.99999999999989
 31
0.0
1001
ACDBBLOCKREPETAG
1070
     1
1071
       10
1005
609
  0
LINE
  5
60A
  8
0
 10
309.00000000000011
 20
-244.9999999999998
 30
0.0
 11
370.99999999999977
 21
-244.9999999999998
 31
0.0
1001
ACDBBLOCKREPETAG
1070
     1
1071
       11
1005
60A
  0
LINE
  5
60B
  8
0
 10
302.0
 20
-249.99999999999989
 30
0.0
 11
309.00000000000011
 21
-249.99999999999989
 31
0.0
1001
ACDBBLOCKREPETAG
1070
     1
1071
       12
1005
60B
  0
LINE
  5
60C
  8
0
 10
268.00000000000011
 20
-244.9999999999998
 30
0.0
 11
288.00000000000011
 21
-244.9999999999998
 31
0.0
1001
ACDBBLOCKREPETAG
1070
     1
1071
       13
1005
60C
  0
LINE
  5
60D
  8
0
 10
150.9999999999998
 20
-249.99999999999989
 30
0.0
 11
288.00000000000011
 21
-249.99999999999989
 31
0.0
1001
ACDBBLOCKREPETAG
1070
     1
1071
       14
1005
60D
  0
LINE
  5
60E
  8
0
 10
101.4999999999999
 20
-249.99999999999989
 30
0.0
 11
136.0
 21
-249.99999999999989
 31
0.0
1001
ACDBBLOCKREPETAG
1070
     1
1071
       15
1005
60E
  0
LINE
  5
60F
  8
0
 10
89.999999999999986
 20
-244.9999999999998
 30
0.0
 11
101.4999999999999
 21
-244.9999999999998
 31
0.0
1001
ACDBBLOCKREPETAG
1070
     1
1071
       16
1005
60F
  0
LINE
  5
610
  8
0
 10
40.0
 20
-249.99999999999989
 30
0.0
 11
89.999999999999986
 21
-249.99999999999989
 31
0.0
1001
ACDBBLOCKREPETAG
1070
     1
1071
       17
1005
610
  0
LINE
  5
611
  8
0
 10
370.99999999999977
 20
-239.9999999999998
 30
0.0
 11
400.99999999999977
 21
-239.9999999999998
 31
0.0
1001
ACDBBLOCKREPETAG
1070
     1
1071
       18
1005
611
  0
LINE
  5
612
  8
0
 10
309.00000000000011
 20
-234.9999999999998
 30
0.0
 11
370.99999999999977
 21
-234.9999999999998
 31
0.0
1001
ACDBBLOCKREPETAG
1070
     1
1071
       19
1005
612
  0
LINE
  5
613
  8
0
 10
302.0
 20
-239.9999999999998
 30
0.0
 11
309.00000000000011
 21
-239.9999999999998
 31
0.0
1001
ACDBBLOCKREPETAG
1070
     1
1071
       20
1005
613
  0
LINE
  5
614
  8
0
 10
268.00000000000011
 20
-234.9999999999998
 30
0.0
 11
288.00000000000011
 21
-234.9999999999998
 31
0.0
1001
ACDBBLOCKREPETAG
1070
     1
1071
       21
1005
614
  0
LINE
  5
615
  8
0
 10
150.9999999999998
 20
-239.9999999999998
 30
0.0
 11
288.00000000000011
 21
-239.9999999999998
 31
0.0
1001
ACDBBLOCKREPETAG
1070
     1
1071
       22
1005
615
  0
LINE
  5
616
  8
0
 10
101.4999999999999
 20
-239.9999999999998
 30
0.0
 11
136.0
 21
-239.9999999999998
 31
0.0
1001
ACDBBLOCKREPETAG
1070
     1
1071
       23
1005
616
  0
LINE
  5
617
  8
0
 10
89.999999999999986
 20
-234.9999999999998
 30
0.0
 11
101.4999999999999
 21
-234.9999999999998
 31
0.0
1001
ACDBBLOCKREPETAG
1070
     1
1071
       24
1005
617
  0
LINE
  5
618
  8
0
 10
40.0
 20
-239.9999999999998
 30
0.0
 11
89.999999999999986
 21
-239.9999999999998
 31
0.0
1001
ACDBBLOCKREPETAG
1070
     1
1071
       25
1005
618
  0
LINE
  5
619
  8
0
 10
370.99999999999977
 20
-229.9999999999998
 30
0.0
 11
400.99999999999977
 21
-229.9999999999998
 31
0.0
1001
ACDBBLOCKREPETAG
1070
     1
1071
       26
1005
619
  0
LINE
  5
61A
  8
0
 10
309.00000000000011
 20
-224.9999999999998
 30
0.0
 11
370.99999999999977
 21
-224.9999999999998
 31
0.0
1001
ACDBBLOCKREPETAG
1070
     1
1071
       27
1005
61A
  0
LINE
  5
61B
  8
0
 10
302.0
 20
-229.9999999999998
 30
0.0
 11
309.00000000000011
 21
-229.9999999999998
 31
0.0
1001
ACDBBLOCKREPETAG
1070
     1
1071
       28
1005
61B
  0
LINE
  5
61C
  8
0
 10
268.00000000000011
 20
-224.9999999999998
 30
0.0
 11
288.00000000000011
 21
-224.9999999999998
 31
0.0
1001
ACDBBLOCKREPETAG
1070
     1
1071
       29
1005
61C
  0
LINE
  5
61D
  8
0
 10
150.9999999999998
 20
-229.9999999999998
 30
0.0
 11
288.00000000000011
 21
-229.9999999999998
 31
0.0
1001
ACDBBLOCKREPETAG
1070
     1
1071
       30
1005
61D
  0
LINE
  5
61E
  8
0
 10
101.4999999999999
 20
-229.9999999999998
 30
0.0
 11
136.0
 21
-229.9999999999998
 31
0.0
1001
ACDBBLOCKREPETAG
1070
     1
1071
       31
1005
61E
  0
LINE
  5
61F
  8
0
 10
89.999999999999986
 20
-224.9999999999998
 30
0.0
 11
101.4999999999999
 21
-224.9999999999998
 31
0.0
1001
ACDBBLOCKREPETAG
1070
     1
1071
       32
1005
61F
  0
LINE
  5
620
  8
0
 10
40.0
 20
-229.9999999999998
 30
0.0
 11
89.999999999999986
 21
-229.9999999999998
 31
0.0
1001
ACDBBLOCKREPETAG
1070
     1
1071
       33
1005
620
  0
LINE
  5
621
  8
0
 10
370.99999999999977
 20
-219.9999999999998
 30
0.0
 11
400.99999999999977
 21
-219.9999999999998
 31
0.0
1001
ACDBBLOCKREPETAG
1070
     1
1071
       34
1005
621
  0
LINE
  5
622
  8
0
 10
309.00000000000011
 20
-214.9999999999998
 30
0.0
 11
370.99999999999977
 21
-214.9999999999998
 31
0.0
1001
ACDBBLOCKREPETAG
1070
     1
1071
       35
1005
622
  0
LINE
  5
623
  8
0
 10
302.0
 20
-219.9999999999998
 30
0.0
 11
309.00000000000011
 21
-219.9999999999998
 31
0.0
1001
ACDBBLOCKREPETAG
1070
     1
1071
       36
1005
623
  0
LINE
  5
624
  8
0
 10
268.00000000000011
 20
-214.9999999999998
 30
0.0
 11
288.00000000000011
 21
-214.9999999999998
 31
0.0
1001
ACDBBLOCKREPETAG
1070
     1
1071
       37
1005
624
  0
LINE
  5
625
  8
0
 10
150.9999999999998
 20
-219.9999999999998
 30
0.0
 11
288.00000000000011
 21
-219.9999999999998
 31
0.0
1001
ACDBBLOCKREPETAG
1070
     1
1071
       38
1005
625
  0
LINE
  5
626
  8
0
 10
101.4999999999999
 20
-219.9999999999998
 30
0.0
 11
136.0
 21
-219.9999999999998
 31
0.0
1001
ACDBBLOCKREPETAG
1070
     1
1071
       39
1005
626
  0
LINE
  5
627
  8
0
 10
89.999999999999986
 20
-214.9999999999998
 30
0.0
 11
101.4999999999999
 21
-214.9999999999998
 31
0.0
1001
ACDBBLOCKREPETAG
1070
     1
1071
       40
1005
627
  0
LINE
  5
628
  8
0
 10
40.0
 20
-219.9999999999998
 30
0.0
 11
89.999999999999986
 21
-219.9999999999998
 31
0.0
1001
ACDBBLOCKREPETAG
1070
     1
1071
       41
1005
628
  0
LINE
  5
629
  8
0
 10
370.99999999999977
 20
-209.9999999999998
 30
0.0
 11
400.99999999999977
 21
-209.9999999999998
 31
0.0
1001
ACDBBLOCKREPETAG
1070
     1
1071
       42
1005
629
  0
LINE
  5
62A
  8
0
 10
309.00000000000011
 20
-204.9999999999998
 30
0.0
 11
370.99999999999977
 21
-204.9999999999998
 31
0.0
1001
ACDBBLOCKREPETAG
1070
     1
1071
       43
1005
62A
  0
LINE
  5
62B
  8
0
 10
302.0
 20
-209.9999999999998
 30
0.0
 11
309.00000000000011
 21
-209.9999999999998
 31
0.0
1001
ACDBBLOCKREPETAG
1070
     1
1071
       44
1005
62B
  0
LINE
  5
62C
  8
0
 10
268.00000000000011
 20
-204.9999999999998
 30
0.0
 11
288.00000000000011
 21
-204.9999999999998
 31
0.0
1001
ACDBBLOCKREPETAG
1070
     1
1071
       45
1005
62C
  0
LINE
  5
62D
  8
0
 10
150.9999999999998
 20
-209.9999999999998
 30
0.0
 11
288.00000000000011
 21
-209.9999999999998
 31
0.0
1001
ACDBBLOCKREPETAG
1070
     1
1071
       46
1005
62D
  0
LINE
  5
62E
  8
0
 10
101.4999999999999
 20
-209.9999999999998
 30
0.0
 11
136.0
 21
-209.9999999999998
 31
0.0
1001
ACDBBLOCKREPETAG
1070
     1
1071
       47
1005
62E
  0
LINE
  5
62F
  8
0
 10
89.999999999999986
 20
-204.9999999999998
 30
0.0
 11
101.4999999999999
 21
-204.9999999999998
 31
0.0
1001
ACDBBLOCKREPETAG
1070
     1
1071
       48
1005
62F
  0
LINE
  5
630
  8
0
 10
40.0
 20
-209.9999999999998
 30
0.0
 11
89.999999999999986
 21
-209.9999999999998
 31
0.0
1001
ACDBBLOCKREPETAG
1070
     1
1071
       49
1005
630
  0
LINE
  5
631
  8
0
 10
370.99999999999977
 20
-199.9999999999998
 30
0.0
 11
400.99999999999977
 21
-199.9999999999998
 31
0.0
1001
ACDBBLOCKREPETAG
1070
     1
1071
       50
1005
631
  0
LINE
  5
632
  8
0
 10
309.00000000000011
 20
-194.99999999999989
 30
0.0
 11
370.99999999999977
 21
-194.99999999999989
 31
0.0
1001
ACDBBLOCKREPETAG
1070
     1
1071
       51
1005
632
  0
LINE
  5
633
  8
0
 10
302.0
 20
-199.9999999999998
 30
0.0
 11
309.00000000000011
 21
-199.9999999999998
 31
0.0
1001
ACDBBLOCKREPETAG
1070
     1
1071
       52
1005
633
  0
LINE
  5
634
  8
0
 10
268.00000000000011
 20
-194.99999999999989
 30
0.0
 11
288.00000000000011
 21
-194.99999999999989
 31
0.0
1001
ACDBBLOCKREPETAG
1070
     1
1071
       53
1005
634
  0
LINE
  5
635
  8
0
 10
150.9999999999998
 20
-199.9999999999998
 30
0.0
 11
288.00000000000011
 21
-199.9999999999998
 31
0.0
1001
ACDBBLOCKREPETAG
1070
     1
1071
       54
1005
635
  0
LINE
  5
636
  8
0
 10
101.4999999999999
 20
-199.9999999999998
 30
0.0
 11
136.0
 21
-199.9999999999998
 31
0.0
1001
ACDBBLOCKREPETAG
1070
     1
1071
       55
1005
636
  0
LINE
  5
637
  8
0
 10
89.999999999999986
 20
-194.99999999999989
 30
0.0
 11
101.4999999999999
 21
-194.99999999999989
 31
0.0
1001
ACDBBLOCKREPETAG
1070
     1
1071
       56
1005
637
  0
LINE
  5
638
  8
0
 10
40.0
 20
-199.9999999999998
 30
0.0
 11
89.999999999999986
 21
-199.9999999999998
 31
0.0
1001
ACDBBLOCKREPETAG
1070
     1
1071
       57
1005
638
  0
LINE
  5
639
  8
0
 10
370.99999999999977
 20
-189.9999999999998
 30
0.0
 11
400.99999999999977
 21
-189.9999999999998
 31
0.0
1001
ACDBBLOCKREPETAG
1070
     1
1071
       58
1005
639
  0
LINE
  5
63A
  8
0
 10
309.00000000000011
 20
-184.99999999999989
 30
0.0
 11
370.99999999999977
 21
-184.99999999999989
 31
0.0
1001
ACDBBLOCKREPETAG
1070
     1
1071
       59
1005
63A
  0
LINE
  5
63B
  8
0
 10
302.0
 20
-189.9999999999998
 30
0.0
 11
309.00000000000011
 21
-189.9999999999998
 31
0.0
1001
ACDBBLOCKREPETAG
1070
     1
1071
       60
1005
63B
  0
LINE
  5
63C
  8
0
 10
268.00000000000011
 20
-184.99999999999989
 30
0.0
 11
288.00000000000011
 21
-184.99999999999989
 31
0.0
1001
ACDBBLOCKREPETAG
1070
     1
1071
       61
1005
63C
  0
LINE
  5
63D
  8
0
 10
150.9999999999998
 20
-189.9999999999998
 30
0.0
 11
288.00000000000011
 21
-189.9999999999998
 31
0.0
1001
ACDBBLOCKREPETAG
1070
     1
1071
       62
1005
63D
  0
LINE
  5
63E
  8
0
 10
101.4999999999999
 20
-189.9999999999998
 30
0.0
 11
136.0
 21
-189.9999999999998
 31
0.0
1001
ACDBBLOCKREPETAG
1070
     1
1071
       63
1005
63E
  0
LINE
  5
63F
  8
0
 10
89.999999999999986
 20
-184.99999999999989
 30
0.0
 11
101.4999999999999
 21
-184.99999999999989
 31
0.0
1001
ACDBBLOCKREPETAG
1070
     1
1071
       64
1005
63F
  0
LINE
  5
640
  8
0
 10
40.0
 20
-189.9999999999998
 30
0.0
 11
89.999999999999986
 21
-189.9999999999998
 31
0.0
1001
ACDBBLOCKREPETAG
1070
     1
1071
       65
1005
640
  0
LINE
  5
641
  8
0
 10
370.99999999999977
 20
-179.99999999999989
 30
0.0
 11
400.99999999999977
 21
-179.99999999999989
 31
0.0
1001
ACDBBLOCKREPETAG
1070
     1
1071
       66
1005
641
  0
LINE
  5
642
  8
0
 10
309.00000000000011
 20
-174.99999999999989
 30
0.0
 11
370.99999999999977
 21
-174.99999999999989
 31
0.0
1001
ACDBBLOCKREPETAG
1070
     1
1071
       67
1005
642
  0
LINE
  5
643
  8
0
 10
302.0
 20
-179.99999999999989
 30
0.0
 11
309.00000000000011
 21
-179.99999999999989
 31
0.0
1001
ACDBBLOCKREPETAG
1070
     1
1071
       68
1005
643
  0
LINE
  5
644
  8
0
 10
268.00000000000011
 20
-174.99999999999989
 30
0.0
 11
288.00000000000011
 21
-174.99999999999989
 31
0.0
1001
ACDBBLOCKREPETAG
1070
     1
1071
       69
1005
644
  0
LINE
  5
645
  8
0
 10
150.9999999999998
 20
-179.99999999999989
 30
0.0
 11
288.00000000000011
 21
-179.99999999999989
 31
0.0
1001
ACDBBLOCKREPETAG
1070
     1
1071
       70
1005
645
  0
LINE
  5
646
  8
0
 10
101.4999999999999
 20
-179.99999999999989
 30
0.0
 11
136.0
 21
-179.99999999999989
 31
0.0
1001
ACDBBLOCKREPETAG
1070
     1
1071
       71
1005
646
  0
LINE
  5
647
  8
0
 10
89.999999999999986
 20
-174.99999999999989
 30
0.0
 11
101.4999999999999
 21
-174.99999999999989
 31
0.0
1001
ACDBBLOCKREPETAG
1070
     1
1071
       72
1005
647
  0
LINE
  5
648
  8
0
 10
40.0
 20
-179.99999999999989
 30
0.0
 11
89.999999999999986
 21
-179.99999999999989
 31
0.0
1001
ACDBBLOCKREPETAG
1070
     1
1071
       73
1005
648
  0
LINE
  5
649
  8
0
 10
370.99999999999977
 20
-169.9999999999998
 30
0.0
 11
400.99999999999977
 21
-169.9999999999998
 31
0.0
1001
ACDBBLOCKREPETAG
1070
     1
1071
       74
1005
649
  0
LINE
  5
64A
  8
0
 10
309.00000000000011
 20
-164.9999999999998
 30
0.0
 11
370.99999999999977
 21
-164.9999999999998
 31
0.0
1001
ACDBBLOCKREPETAG
1070
     1
1071
       75
1005
64A
  0
LINE
  5
64B
  8
0
 10
302.0
 20
-169.9999999999998
 30
0.0
 11
309.00000000000011
 21
-169.9999999999998
 31
0.0
1001
ACDBBLOCKREPETAG
1070
     1
1071
       76
1005
64B
  0
LINE
  5
64C
  8
0
 10
268.00000000000011
 20
-164.9999999999998
 30
0.0
 11
288.00000000000011
 21
-164.9999999999998
 31
0.0
1001
ACDBBLOCKREPETAG
1070
     1
1071
       77
1005
64C
  0
LINE
  5
64D
  8
0
 10
150.9999999999998
 20
-169.9999999999998
 30
0.0
 11
288.00000000000011
 21
-169.9999999999998
 31
0.0
1001
ACDBBLOCKREPETAG
1070
     1
1071
       78
1005
64D
  0
LINE
  5
64E
  8
0
 10
101.4999999999999
 20
-169.9999999999998
 30
0.0
 11
136.0
 21
-169.9999999999998
 31
0.0
1001
ACDBBLOCKREPETAG
1070
     1
1071
       79
1005
64E
  0
LINE
  5
64F
  8
0
 10
89.999999999999986
 20
-164.9999999999998
 30
0.0
 11
101.4999999999999
 21
-164.9999999999998
 31
0.0
1001
ACDBBLOCKREPETAG
1070
     1
1071
       80
1005
64F
  0
LINE
  5
650
  8
0
 10
40.0
 20
-169.9999999999998
 30
0.0
 11
89.999999999999986
 21
-169.9999999999998
 31
0.0
1001
ACDBBLOCKREPETAG
1070
     1
1071
       81
1005
650
  0
LINE
  5
651
  8
0
 10
370.99999999999977
 20
-159.9999999999998
 30
0.0
 11
400.99999999999977
 21
-159.9999999999998
 31
0.0
1001
ACDBBLOCKREPETAG
1070
     1
1071
       82
1005
651
  0
LINE
  5
652
  8
0
 10
309.00000000000011
 20
-154.9999999999998
 30
0.0
 11
370.99999999999977
 21
-154.9999999999998
 31
0.0
1001
ACDBBLOCKREPETAG
1070
     1
1071
       83
1005
652
  0
LINE
  5
653
  8
0
 10
302.0
 20
-159.9999999999998
 30
0.0
 11
309.00000000000011
 21
-159.9999999999998
 31
0.0
1001
ACDBBLOCKREPETAG
1070
     1
1071
       84
1005
653
  0
LINE
  5
654
  8
0
 10
268.00000000000011
 20
-154.9999999999998
 30
0.0
 11
288.00000000000011
 21
-154.9999999999998
 31
0.0
1001
ACDBBLOCKREPETAG
1070
     1
1071
       85
1005
654
  0
LINE
  5
655
  8
0
 10
150.9999999999998
 20
-159.9999999999998
 30
0.0
 11
288.00000000000011
 21
-159.9999999999998
 31
0.0
1001
ACDBBLOCKREPETAG
1070
     1
1071
       86
1005
655
  0
LINE
  5
656
  8
0
 10
101.4999999999999
 20
-159.9999999999998
 30
0.0
 11
136.0
 21
-159.9999999999998
 31
0.0
1001
ACDBBLOCKREPETAG
1070
     1
1071
       87
1005
656
  0
LINE
  5
657
  8
0
 10
89.999999999999986
 20
-154.9999999999998
 30
0.0
 11
101.4999999999999
 21
-154.9999999999998
 31
0.0
1001
ACDBBLOCKREPETAG
1070
     1
1071
       88
1005
657
  0
LINE
  5
658
  8
0
 10
40.0
 20
-159.9999999999998
 30
0.0
 11
89.999999999999986
 21
-159.9999999999998
 31
0.0
1001
ACDBBLOCKREPETAG
1070
     1
1071
       89
1005
658
  0
LINE
  5
659
  8
0
 10
370.99999999999977
 20
-149.9999999999998
 30
0.0
 11
400.99999999999977
 21
-149.9999999999998
 31
0.0
1001
ACDBBLOCKREPETAG
1070
     1
1071
       90
1005
659
  0
LINE
  5
65A
  8
0
 10
309.00000000000011
 20
-144.9999999999998
 30
0.0
 11
370.99999999999977
 21
-144.9999999999998
 31
0.0
1001
ACDBBLOCKREPETAG
1070
     1
1071
       91
1005
65A
  0
LINE
  5
65B
  8
0
 10
302.0
 20
-149.9999999999998
 30
0.0
 11
309.00000000000011
 21
-149.9999999999998
 31
0.0
1001
ACDBBLOCKREPETAG
1070
     1
1071
       92
1005
65B
  0
LINE
  5
65C
  8
0
 10
150.9999999999998
 20
-149.9999999999998
 30
0.0
 11
288.00000000000011
 21
-149.9999999999998
 31
0.0
1001
ACDBBLOCKREPETAG
1070
     1
1071
       93
1005
65C
  0
LINE
  5
65D
  8
0
 10
101.4999999999999
 20
-149.9999999999998
 30
0.0
 11
136.0
 21
-149.9999999999998
 31
0.0
1001
ACDBBLOCKREPETAG
1070
     1
1071
       94
1005
65D
  0
LINE
  5
65E
  8
0
 10
89.999999999999986
 20
-144.9999999999998
 30
0.0
 11
101.4999999999999
 21
-144.9999999999998
 31
0.0
1001
ACDBBLOCKREPETAG
1070
     1
1071
       95
1005
65E
  0
LINE
  5
65F
  8
0
 10
40.0
 20
-149.9999999999998
 30
0.0
 11
89.999999999999986
 21
-149.9999999999998
 31
0.0
1001
ACDBBLOCKREPETAG
1070
     1
1071
       96
1005
65F
  0
LINE
  5
660
  8
0
 10
370.99999999999977
 20
-139.9999999999998
 30
0.0
 11
400.99999999999977
 21
-139.9999999999998
 31
0.0
1001
ACDBBLOCKREPETAG
1070
     1
1071
       97
1005
660
  0
LINE
  5
661
  8
0
 10
309.00000000000011
 20
-134.9999999999998
 30
0.0
 11
370.99999999999977
 21
-134.9999999999998
 31
0.0
1001
ACDBBLOCKREPETAG
1070
     1
1071
       98
1005
661
  0
LINE
  5
662
  8
0
 10
302.0
 20
-139.9999999999998
 30
0.0
 11
309.00000000000011
 21
-139.9999999999998
 31
0.0
1001
ACDBBLOCKREPETAG
1070
     1
1071
       99
1005
662
  0
LINE
  5
663
  8
0
 10
150.9999999999998
 20
-139.9999999999998
 30
0.0
 11
288.00000000000011
 21
-139.9999999999998
 31
0.0
1001
ACDBBLOCKREPETAG
1070
     1
1071
      100
1005
663
  0
LINE
  5
664
  8
0
 10
101.4999999999999
 20
-139.9999999999998
 30
0.0
 11
136.0
 21
-139.9999999999998
 31
0.0
1001
ACDBBLOCKREPETAG
1070
     1
1071
      101
1005
664
  0
LINE
  5
665
  8
0
 10
89.999999999999986
 20
-134.9999999999998
 30
0.0
 11
101.4999999999999
 21
-134.9999999999998
 31
0.0
1001
ACDBBLOCKREPETAG
1070
     1
1071
      102
1005
665
  0
LINE
  5
666
  8
0
 10
40.0
 20
-139.9999999999998
 30
0.0
 11
89.999999999999986
 21
-139.9999999999998
 31
0.0
1001
ACDBBLOCKREPETAG
1070
     1
1071
      103
1005
666
  0
LINE
  5
667
  8
0
 10
370.99999999999977
 20
-129.9999999999998
 30
0.0
 11
400.99999999999977
 21
-129.9999999999998
 31
0.0
1001
ACDBBLOCKREPETAG
1070
     1
1071
      104
1005
667
  0
LINE
  5
668
  8
0
 10
309.00000000000011
 20
-124.9999999999998
 30
0.0
 11
370.99999999999977
 21
-124.9999999999998
 31
0.0
1001
ACDBBLOCKREPETAG
1070
     1
1071
      105
1005
668
  0
LINE
  5
669
  8
0
 10
302.0
 20
-129.9999999999998
 30
0.0
 11
309.00000000000011
 21
-129.9999999999998
 31
0.0
1001
ACDBBLOCKREPETAG
1070
     1
1071
      106
1005
669
  0
LINE
  5
66A
  8
0
 10
150.9999999999998
 20
-129.9999999999998
 30
0.0
 11
288.00000000000011
 21
-129.9999999999998
 31
0.0
1001
ACDBBLOCKREPETAG
1070
     1
1071
      107
1005
66A
  0
LINE
  5
66B
  8
0
 10
101.4999999999999
 20
-129.9999999999998
 30
0.0
 11
136.0
 21
-129.9999999999998
 31
0.0
1001
ACDBBLOCKREPETAG
1070
     1
1071
      108
1005
66B
  0
LINE
  5
66C
  8
0
 10
89.999999999999986
 20
-124.9999999999998
 30
0.0
 11
101.4999999999999
 21
-124.9999999999998
 31
0.0
1001
ACDBBLOCKREPETAG
1070
     1
1071
      109
1005
66C
  0
LINE
  5
66D
  8
0
 10
40.0
 20
-129.9999999999998
 30
0.0
 11
89.999999999999986
 21
-129.9999999999998
 31
0.0
1001
ACDBBLOCKREPETAG
1070
     1
1071
      110
1005
66D
  0
LINE
  5
66E
  8
0
 10
370.99999999999977
 20
-119.9999999999998
 30
0.0
 11
400.99999999999977
 21
-119.9999999999998
 31
0.0
1001
ACDBBLOCKREPETAG
1070
     1
1071
      111
1005
66E
  0
LINE
  5
66F
  8
0
 10
309.00000000000011
 20
-114.9999999999999
 30
0.0
 11
370.99999999999977
 21
-114.9999999999999
 31
0.0
1001
ACDBBLOCKREPETAG
1070
     1
1071
      112
1005
66F
  0
LINE
  5
670
  8
0
 10
302.0
 20
-119.9999999999998
 30
0.0
 11
309.00000000000011
 21
-119.9999999999998
 31
0.0
1001
ACDBBLOCKREPETAG
1070
     1
1071
      113
1005
670
  0
LINE
  5
671
  8
0
 10
150.9999999999998
 20
-119.9999999999998
 30
0.0
 11
288.00000000000011
 21
-119.9999999999998
 31
0.0
1001
ACDBBLOCKREPETAG
1070
     1
1071
      114
1005
671
  0
LINE
  5
672
  8
0
 10
101.4999999999999
 20
-119.9999999999998
 30
0.0
 11
136.0
 21
-119.9999999999998
 31
0.0
1001
ACDBBLOCKREPETAG
1070
     1
1071
      115
1005
672
  0
LINE
  5
673
  8
0
 10
89.999999999999986
 20
-114.9999999999999
 30
0.0
 11
101.4999999999999
 21
-114.9999999999999
 31
0.0
1001
ACDBBLOCKREPETAG
1070
     1
1071
      116
1005
673
  0
LINE
  5
674
  8
0
 10
40.0
 20
-119.9999999999998
 30
0.0
 11
89.999999999999986
 21
-119.9999999999998
 31
0.0
1001
ACDBBLOCKREPETAG
1070
     1
1071
      117
1005
674
  0
LINE
  5
675
  8
0
 10
370.99999999999977
 20
-109.9999999999999
 30
0.0
 11
400.99999999999977
 21
-109.9999999999999
 31
0.0
1001
ACDBBLOCKREPETAG
1070
     1
1071
      118
1005
675
  0
LINE
  5
676
  8
0
 10
309.00000000000011
 20
-105.0
 30
0.0
 11
370.99999999999977
 21
-105.0
 31
0.0
1001
ACDBBLOCKREPETAG
1070
     1
1071
      119
1005
676
  0
LINE
  5
677
  8
0
 10
302.0
 20
-109.9999999999999
 30
0.0
 11
309.00000000000011
 21
-109.9999999999999
 31
0.0
1001
ACDBBLOCKREPETAG
1070
     1
1071
      120
1005
677
  0
LINE
  5
678
  8
0
 10
150.9999999999998
 20
-109.9999999999999
 30
0.0
 11
288.00000000000011
 21
-109.9999999999999
 31
0.0
1001
ACDBBLOCKREPETAG
1070
     1
1071
      121
1005
678
  0
LINE
  5
679
  8
0
 10
101.4999999999999
 20
-109.9999999999999
 30
0.0
 11
136.0
 21
-109.9999999999999
 31
0.0
1001
ACDBBLOCKREPETAG
1070
     1
1071
      122
1005
679
  0
LINE
  5
67A
  8
0
 10
89.999999999999986
 20
-105.0
 30
0.0
 11
101.4999999999999
 21
-105.0
 31
0.0
1001
ACDBBLOCKREPETAG
1070
     1
1071
      123
1005
67A
  0
LINE
  5
67B
  8
0
 10
40.0
 20
-109.9999999999999
 30
0.0
 11
89.999999999999986
 21
-109.9999999999999
 31
0.0
1001
ACDBBLOCKREPETAG
1070
     1
1071
      124
1005
67B
  0
LINE
  5
67C
  8
0
 10
370.99999999999977
 20
-100.0
 30
0.0
 11
400.99999999999977
 21
-100.0
 31
0.0
1001
ACDBBLOCKREPETAG
1070
     1
1071
      125
1005
67C
  0
LINE
  5
67D
  8
0
 10
309.00000000000011
 20
-94.999999999999787
 30
0.0
 11
370.99999999999977
 21
-94.999999999999787
 31
0.0
1001
ACDBBLOCKREPETAG
1070
     1
1071
      126
1005
67D
  0
LINE
  5
67E
  8
0
 10
302.0
 20
-100.0
 30
0.0
 11
309.00000000000011
 21
-100.0
 31
0.0
1001
ACDBBLOCKREPETAG
1070
     1
1071
      127
1005
67E
  0
LINE
  5
67F
  8
0
 10
150.9999999999998
 20
-100.0
 30
0.0
 11
288.00000000000011
 21
-100.0
 31
0.0
1001
ACDBBLOCKREPETAG
1070
     1
1071
      128
1005
67F
  0
LINE
  5
680
  8
0
 10
101.4999999999999
 20
-100.0
 30
0.0
 11
136.0
 21
-100.0
 31
0.0
1001
ACDBBLOCKREPETAG
1070
     1
1071
      129
1005
680
  0
LINE
  5
681
  8
0
 10
89.999999999999986
 20
-94.999999999999787
 30
0.0
 11
101.4999999999999
 21
-94.999999999999787
 31
0.0
1001
ACDBBLOCKREPETAG
1070
     1
1071
      130
1005
681
  0
LINE
  5
682
  8
0
 10
40.0
 20
-100.0
 30
0.0
 11
89.999999999999986
 21
-100.0
 31
0.0
1001
ACDBBLOCKREPETAG
1070
     1
1071
      131
1005
682
  0
LINE
  5
683
  8
0
 10
370.99999999999977
 20
-89.999999999999915
 30
0.0
 11
400.99999999999977
 21
-89.999999999999915
 31
0.0
1001
ACDBBLOCKREPETAG
1070
     1
1071
      132
1005
683
  0
LINE
  5
684
  8
0
 10
309.00000000000011
 20
-84.999999999999915
 30
0.0
 11
370.99999999999977
 21
-84.999999999999915
 31
0.0
1001
ACDBBLOCKREPETAG
1070
     1
1071
      133
1005
684
  0
LINE
  5
685
  8
0
 10
302.0
 20
-89.999999999999915
 30
0.0
 11
309.00000000000011
 21
-89.999999999999915
 31
0.0
1001
ACDBBLOCKREPETAG
1070
     1
1071
      134
1005
685
  0
LINE
  5
686
  8
0
 10
150.9999999999998
 20
-89.999999999999915
 30
0.0
 11
288.00000000000011
 21
-89.999999999999915
 31
0.0
1001
ACDBBLOCKREPETAG
1070
     1
1071
      135
1005
686
  0
LINE
  5
687
  8
0
 10
101.4999999999999
 20
-89.999999999999915
 30
0.0
 11
136.0
 21
-89.999999999999915
 31
0.0
1001
ACDBBLOCKREPETAG
1070
     1
1071
      136
1005
687
  0
LINE
  5
688
  8
0
 10
89.999999999999986
 20
-84.999999999999915
 30
0.0
 11
101.4999999999999
 21
-84.999999999999915
 31
0.0
1001
ACDBBLOCKREPETAG
1070
     1
1071
      137
1005
688
  0
LINE
  5
689
  8
0
 10
40.0
 20
-89.999999999999915
 30
0.0
 11
89.999999999999986
 21
-89.999999999999915
 31
0.0
1001
ACDBBLOCKREPETAG
1070
     1
1071
      138
1005
689
  0
LINE
  5
68A
  8
0
 10
370.99999999999977
 20
-79.999999999999901
 30
0.0
 11
400.99999999999977
 21
-79.999999999999901
 31
0.0
1001
ACDBBLOCKREPETAG
1070
     1
1071
      139
1005
68A
  0
LINE
  5
68B
  8
0
 10
309.00000000000011
 20
-74.999999999999972
 30
0.0
 11
370.99999999999977
 21
-74.999999999999972
 31
0.0
1001
ACDBBLOCKREPETAG
1070
     1
1071
      140
1005
68B
  0
LINE
  5
68C
  8
0
 10
302.0
 20
-79.999999999999901
 30
0.0
 11
309.00000000000011
 21
-79.999999999999901
 31
0.0
1001
ACDBBLOCKREPETAG
1070
     1
1071
      141
1005
68C
  0
LINE
  5
68D
  8
0
 10
150.9999999999998
 20
-79.999999999999901
 30
0.0
 11
288.00000000000011
 21
-79.999999999999901
 31
0.0
1001
ACDBBLOCKREPETAG
1070
     1
1071
      142
1005
68D
  0
LINE
  5
68E
  8
0
 10
101.4999999999999
 20
-79.999999999999901
 30
0.0
 11
136.0
 21
-79.999999999999901
 31
0.0
1001
ACDBBLOCKREPETAG
1070
     1
1071
      143
1005
68E
  0
LINE
  5
68F
  8
0
 10
89.999999999999986
 20
-74.999999999999972
 30
0.0
 11
101.4999999999999
 21
-74.999999999999972
 31
0.0
1001
ACDBBLOCKREPETAG
1070
     1
1071
      144
1005
68F
  0
LINE
  5
690
  8
0
 10
40.0
 20
-79.999999999999901
 30
0.0
 11
89.999999999999986
 21
-79.999999999999901
 31
0.0
1001
ACDBBLOCKREPETAG
1070
     1
1071
      145
1005
690
  0
LINE
  5
691
  8
0
 10
370.99999999999977
 20
-69.999999999999801
 30
0.0
 11
400.99999999999977
 21
-69.999999999999801
 31
0.0
1001
ACDBBLOCKREPETAG
1070
     1
1071
      146
1005
691
  0
LINE
  5
692
  8
0
 10
309.00000000000011
 20
-64.999999999999915
 30
0.0
 11
370.99999999999977
 21
-64.999999999999915
 31
0.0
1001
ACDBBLOCKREPETAG
1070
     1
1071
      147
1005
692
  0
LINE
  5
693
  8
0
 10
302.0
 20
-69.999999999999801
 30
0.0
 11
309.00000000000011
 21
-69.999999999999801
 31
0.0
1001
ACDBBLOCKREPETAG
1070
     1
1071
      148
1005
693
  0
LINE
  5
694
  8
0
 10
150.9999999999998
 20
-69.999999999999801
 30
0.0
 11
288.00000000000011
 21
-69.999999999999801
 31
0.0
1001
ACDBBLOCKREPETAG
1070
     1
1071
      149
1005
694
  0
LINE
  5
695
  8
0
 10
101.4999999999999
 20
-69.999999999999801
 30
0.0
 11
136.0
 21
-69.999999999999801
 31
0.0
1001
ACDBBLOCKREPETAG
1070
     1
1071
      150
1005
695
  0
LINE
  5
696
  8
0
 10
89.999999999999986
 20
-64.999999999999915
 30
0.0
 11
101.4999999999999
 21
-64.999999999999915
 31
0.0
1001
ACDBBLOCKREPETAG
1070
     1
1071
      151
1005
696
  0
LINE
  5
697
  8
0
 10
40.0
 20
-69.999999999999801
 30
0.0
 11
89.999999999999986
 21
-69.999999999999801
 31
0.0
1001
ACDBBLOCKREPETAG
1070
     1
1071
      152
1005
697
  0
TEXT
  5
698
  8
0
 10
28.0
 20
-272.99999999999972
 30
0.0
 40
2.5
  1
说明:
  7
TLCAD
 11
28.0
 21
-272.99999999999972
 31
0.0
 73
     1
1001
ACDBBLOCKREPETAG
1070
     1
1071
      153
1005
698
  0
LINE
  5
699
  8
0
 10
398.0
 20
-24.99999999999989
 30
0.0
 11
414.99999999999949
 21
-24.99999999999989
 31
0.0
1001
ACDBBLOCKREPETAG
1070
     1
1071
      154
1005
699
  0
TEXT
  5
69A
  8
0
 10
390.0
 20
-24.99999999999989
 30
0.0
 40
2.5
  1
页次
  7
TLCAD
 11
390.0
 21
-24.99999999999989
 31
0.0
 73
     1
1001
ACDBBLOCKREPETAG
1070
     1
1071
      155
1005
69A
  0
TEXT
  5
69B
  8
0
 10
325.0
 20
-36.999999999999773
 30
0.0
 40
1.875
  1
交叉跨越名称及次数
  7
TLCAD
 11
325.0
 21
-36.999999999999773
 31
0.0
 73
     1
1001
ACDBBLOCKREPETAG
1070
     1
1071
      156
1005
69B
  0
TEXT
  5
69C
  8
0
 10
403.49999999999972
 20
-52.499999999999922
 30
0.0
 40
3.125
  1
地名
  7
TLCAD
 11
403.49999999999972
 21
-52.499999999999922
 31
0.0
 73
     1
1001
ACDBBLOCKREPETAG
1070
     1
1071
      157
1005
69C
  0
TEXT
  5
69D
  8
0
 10
403.49999999999972
 20
-42.499999999999922
 30
0.0
 40
3.125
  1
经过
  7
TLCAD
 11
403.49999999999972
 21
-42.499999999999922
 31
0.0
 73
     1
1001
ACDBBLOCKREPETAG
1070
     1
1071
      158
1005
69D
  0
TEXT
  5
69E
  8
0
 10
379.99999999999977
 20
-56.999999999999922
 30
0.0
 40
2.5
  1
备   注
  7
TLCAD
 11
379.99999999999977
 21
-56.999999999999922
 31
0.0
 73
     1
1001
ACDBBLOCKREPETAG
1070
     1
1071
      159
1005
69E
  0
TEXT
  5
69F
  8
0
 10
366.0
 20
-56.999999999999922
 30
0.0
 40
1.875
  1
他
  7
TLCAD
 11
366.0
 21
-56.999999999999922
 31
0.0
 73
     1
1001
ACDBBLOCKREPETAG
1070
     1
1071
      160
1005
69F
  0
TEXT
  5
6A0
  8
0
 10
366.0
 20
-42.999999999999801
 30
0.0
 40
1.875
  1
其
  7
TLCAD
 11
366.0
 21
-42.999999999999801
 31
0.0
 73
     1
1001
ACDBBLOCKREPETAG
1070
     1
1071
      161
1005
6A0
  0
TEXT
  5
6A1
  8
0
 10
359.00000000000023
 20
-56.999999999999922
 30
0.0
 40
1.875
  1
流
  7
TLCAD
 11
359.00000000000023
 21
-56.999999999999922
 31
0.0
 73
     1
1001
ACDBBLOCKREPETAG
1070
     1
1071
      162
1005
6A1
  0
TEXT
  5
6A2
  8
0
 10
359.00000000000023
 20
-42.999999999999801
 30
0.0
 40
1.875
  1
河
  7
TLCAD
 11
359.00000000000023
 21
-42.999999999999801
 31
0.0
 73
     1
1001
ACDBBLOCKREPETAG
1070
     1
1071
      163
1005
6A2
  0
TEXT
  5
6A3
  8
0
 10
352.0
 20
-56.999999999999922
 30
0.0
 40
1.875
  1
路
  7
TLCAD
 11
352.0
 21
-56.999999999999922
 31
0.0
 73
     1
1001
ACDBBLOCKREPETAG
1070
     1
1071
      164
1005
6A3
  0
TEXT
  5
6A4
  8
0
 10
352.0
 20
-42.999999999999801
 30
0.0
 40
1.875
  1
铁
  7
TLCAD
 11
352.0
 21
-42.999999999999801
 31
0.0
 73
     1
1001
ACDBBLOCKREPETAG
1070
     1
1071
      165
1005
6A4
  0
TEXT
  5
6A5
  8
0
 10
345.00000000000023
 20
-56.999999999999922
 30
0.0
 40
1.875
  1
路
  7
TLCAD
 11
345.00000000000023
 21
-56.999999999999922
 31
0.0
 73
     1
1001
ACDBBLOCKREPETAG
1070
     1
1071
      166
1005
6A5
  0
TEXT
  5
6A6
  8
0
 10
345.00000000000023
 20
-42.999999999999801
 30
0.0
 40
1.875
  1
公
  7
TLCAD
 11
345.00000000000023
 21
-42.999999999999801
 31
0.0
 73
     1
1001
ACDBBLOCKREPETAG
1070
     1
1071
      167
1005
6A6
  0
TEXT
  5
6A7
  8
0
 10
338.00000000000011
 20
-56.999999999999922
 30
0.0
 40
1.875
  1
屋
  7
TLCAD
 11
338.00000000000011
 21
-56.999999999999922
 31
0.0
 73
     1
1001
ACDBBLOCKREPETAG
1070
     1
1071
      168
1005
6A7
  0
TEXT
  5
6A8
  8
0
 10
338.00000000000011
 20
-42.999999999999801
 30
0.0
 40
1.875
  1
房
  7
TLCAD
 11
338.00000000000011
 21
-42.999999999999801
 31
0.0
 73
     1
1001
ACDBBLOCKREPETAG
1070
     1
1071
      169
1005
6A8
  0
TEXT
  5
6A9
  8
0
 10
331.0
 20
-56.999999999999922
 30
0.0
 40
1.875
  1
线
  7
TLCAD
 11
331.0
 21
-56.999999999999922
 31
0.0
 73
     1
1001
ACDBBLOCKREPETAG
1070
     1
1071
      170
1005
6A9
  0
TEXT
  5
6AA
  8
0
 10
331.0
 20
-49.999999999999972
 30
0.0
 40
1.875
  1
播
  7
TLCAD
 11
331.0
 21
-49.999999999999972
 31
0.0
 73
     1
1001
ACDBBLOCKREPETAG
1070
     1
1071
      171
1005
6AA
  0
TEXT
  5
6AB
  8
0
 10
331.0
 20
-42.999999999999801
 30
0.0
 40
1.875
  1
广
  7
TLCAD
 11
331.0
 21
-42.999999999999801
 31
0.0
 73
     1
1001
ACDBBLOCKREPETAG
1070
     1
1071
      172
1005
6AB
  0
TEXT
  5
6AC
  8
0
 10
324.00000000000011
 20
-56.999999999999922
 30
0.0
 40
1.875
  1
线
  7
TLCAD
 11
324.00000000000011
 21
-56.999999999999922
 31
0.0
 73
     1
1001
ACDBBLOCKREPETAG
1070
     1
1071
      173
1005
6AC
  0
TEXT
  5
6AD
  8
0
 10
324.00000000000011
 20
-49.999999999999972
 30
0.0
 40
1.875
  1
信
  7
TLCAD
 11
324.00000000000011
 21
-49.999999999999972
 31
0.0
 73
     1
1001
ACDBBLOCKREPETAG
1070
     1
1071
      174
1005
6AD
  0
TEXT
  5
6AE
  8
0
 10
324.00000000000011
 20
-42.999999999999801
 30
0.0
 40
1.875
  1
通
  7
TLCAD
 11
324.00000000000011
 21
-42.999999999999801
 31
0.0
 73
     1
1001
ACDBBLOCKREPETAG
1070
     1
1071
      175
1005
6AE
  0
TEXT
  5
6AF
  8
0
 10
317.00000000000011
 20
-56.999999999999922
 30
0.0
 40
1.875
  1
线
  7
TLCAD
 11
317.00000000000011
 21
-56.999999999999922
 31
0.0
 73
     1
1001
ACDBBLOCKREPETAG
1070
     1
1071
      176
1005
6AF
  0
TEXT
  5
6B0
  8
0
 10
317.00000000000011
 20
-49.999999999999972
 30
0.0
 40
1.875
  1
压
  7
TLCAD
 11
317.00000000000011
 21
-49.999999999999972
 31
0.0
 73
     1
1001
ACDBBLOCKREPETAG
1070
     1
1071
      177
1005
6B0
  0
TEXT
  5
6B1
  8
0
 10
317.00000000000011
 20
-42.999999999999801
 30
0.0
 40
1.875
  1
低
  7
TLCAD
 11
317.00000000000011
 21
-42.999999999999801
 31
0.0
 73
     1
1001
ACDBBLOCKREPETAG
1070
     1
1071
      178
1005
6B1
  0
TEXT
  5
6B2
  8
0
 10
310.5
 20
-56.999999999999922
 30
0.0
 40
1.875
  1
线
  7
TLCAD
 11
310.5
 21
-56.999999999999922
 31
0.0
 73
     1
1001
ACDBBLOCKREPETAG
1070
     1
1071
      179
1005
6B2
  0
TEXT
  5
6B3
  8
0
 10
310.5
 20
-49.999999999999972
 30
0.0
 40
1.875
  1
力
  7
TLCAD
 11
310.5
 21
-49.999999999999972
 31
0.0
 73
     1
1001
ACDBBLOCKREPETAG
1070
     1
1071
      180
1005
6B3
  0
TEXT
  5
6B4
  8
0
 10
310.5
 20
-42.999999999999801
 30
0.0
 40
1.875
  1
电
  7
TLCAD
 11
310.5
 21
-42.999999999999801
 31
0.0
 73
     1
1001
ACDBBLOCKREPETAG
1070
     1
1071
      181
1005
6B4
  0
LINE
  5
6B5
  8
0
 10
364.0
 20
-38.999999999999773
 30
0.0
 11
364.0
 21
-259.99999999999972
 31
0.0
1001
ACDBBLOCKREPETAG
1070
     1
1071
      182
1005
6B5
  0
LINE
  5
6B6
  8
0
 10
357.00000000000023
 20
-38.999999999999773
 30
0.0
 11
357.00000000000023
 21
-259.99999999999972
 31
0.0
1001
ACDBBLOCKREPETAG
1070
     1
1071
      183
1005
6B6
  0
LINE
  5
6B7
  8
0
 10
350.0
 20
-38.999999999999773
 30
0.0
 11
350.0
 21
-259.99999999999972
 31
0.0
1001
ACDBBLOCKREPETAG
1070
     1
1071
      184
1005
6B7
  0
LINE
  5
6B8
  8
0
 10
343.00000000000011
 20
-38.999999999999773
 30
0.0
 11
343.00000000000011
 21
-259.99999999999972
 31
0.0
1001
ACDBBLOCKREPETAG
1070
     1
1071
      185
1005
6B8
  0
LINE
  5
6B9
  8
0
 10
336.00000000000011
 20
-38.999999999999773
 30
0.0
 11
336.00000000000011
 21
-259.99999999999972
 31
0.0
1001
ACDBBLOCKREPETAG
1070
     1
1071
      186
1005
6B9
  0
LINE
  5
6BA
  8
0
 10
329.0
 20
-38.999999999999773
 30
0.0
 11
329.0
 21
-259.99999999999972
 31
0.0
1001
ACDBBLOCKREPETAG
1070
     1
1071
      187
1005
6BA
  0
LINE
  5
6BB
  8
0
 10
322.00000000000011
 20
-38.999999999999773
 30
0.0
 11
322.00000000000011
 21
-259.99999999999972
 31
0.0
1001
ACDBBLOCKREPETAG
1070
     1
1071
      188
1005
6BB
  0
LINE
  5
6BC
  8
0
 10
315.00000000000011
 20
-38.999999999999773
 30
0.0
 11
315.00000000000011
 21
-259.99999999999972
 31
0.0
1001
ACDBBLOCKREPETAG
1070
     1
1071
      189
1005
6BC
  0
LINE
  5
6BD
  8
0
 10
309.00000000000011
 20
-38.999999999999773
 30
0.0
 11
370.99999999999977
 21
-38.999999999999773
 31
0.0
1001
ACDBBLOCKREPETAG
1070
     1
1071
      190
1005
6BD
  0
TEXT
  5
6BE
  8
0
 10
302.50000000000011
 20
-55.999999999999893
 30
0.0
 40
1.875
  1
(片)
  7
TLCAD
 11
302.50000000000011
 21
-55.999999999999893
 31
0.0
 73
     1
1001
ACDBBLOCKREPETAG
1070
     1
1071
      191
1005
6BE
  0
TEXT
  5
6BF
  8
0
 10
304.0
 20
-51.999999999999972
 30
0.0
 40
1.875
  1
锤
  7
TLCAD
 11
304.0
 21
-51.999999999999972
 31
0.0
 73
     1
1001
ACDBBLOCKREPETAG
1070
     1
1071
      192
1005
6BF
  0
TEXT
  5
6C0
  8
0
 10
304.0
 20
-47.999999999999972
 30
0.0
 40
1.875
  1
重
  7
TLCAD
 11
304.0
 21
-47.999999999999972
 31
0.0
 73
     1
1001
ACDBBLOCKREPETAG
1070
     1
1071
      193
1005
6C0
  0
TEXT
  5
6C1
  8
0
 10
304.0
 20
-43.999999999999972
 30
0.0
 40
1.875
  1
挂
  7
TLCAD
 11
304.0
 21
-43.999999999999972
 31
0.0
 73
     1
1001
ACDBBLOCKREPETAG
1070
     1
1071
      194
1005
6C1
  0
TEXT
  5
6C2
  8
0
 10
304.0
 20
-39.999999999999893
 30
0.0
 40
1.875
  1
相
  7
TLCAD
 11
304.0
 21
-39.999999999999893
 31
0.0
 73
     1
1001
ACDBBLOCKREPETAG
1070
     1
1071
      195
1005
6C2
  0
TEXT
  5
6C3
  8
0
 10
304.0
 20
-35.999999999999893
 30
0.0
 40
1.875
  1
每
  7
TLCAD
 11
304.0
 21
-35.999999999999893
 31
0.0
 73
     1
1001
ACDBBLOCKREPETAG
1070
     1
1071
      196
1005
6C3
  0
TEXT
  5
6C4
  8
0
 10
297.0
 20
-57.999999999999901
 30
0.0
 40
1.875
  1
线
  7
TLCAD
 11
297.0
 21
-57.999999999999901
 31
0.0
 73
     1
1001
ACDBBLOCKREPETAG
1070
     1
1071
      197
1005
6C4
  0
TEXT
  5
6C5
  8
0
 10
297.0
 20
-53.999999999999972
 30
0.0
 40
1.875
  1
地
  7
TLCAD
 11
297.0
 21
-53.999999999999972
 31
0.0
 73
     1
1001
ACDBBLOCKREPETAG
1070
     1
1071
      198
1005
6C5
  0
TEXT
  5
6C6
  8
0
 10
290.00000000000011
 20
-57.999999999999901
 30
0.0
 40
1.875
  1
线
  7
TLCAD
 11
290.00000000000011
 21
-57.999999999999901
 31
0.0
 73
     1
1001
ACDBBLOCKREPETAG
1070
     1
1071
      199
1005
6C6
  0
TEXT
  5
6C7
  8
0
 10
290.00000000000011
 20
-53.999999999999972
 30
0.0
 40
1.875
  1
导
  7
TLCAD
 11
290.00000000000011
 21
-53.999999999999972
 31
0.0
 73
     1
1001
ACDBBLOCKREPETAG
1070
     1
1071
      200
1005
6C7
  0
TEXT
  5
6C8
  8
0
 10
281.0
 20
-57.999999999999901
 30
0.0
 40
1.875
  1
线
  7
TLCAD
 11
281.0
 21
-57.999999999999901
 31
0.0
 73
     1
1001
ACDBBLOCKREPETAG
1070
     1
1071
      201
1005
6C8
  0
TEXT
  5
6C9
  8
0
 10
281.0
 20
-53.999999999999972
 30
0.0
 40
1.875
  1
地
  7
TLCAD
 11
281.0
 21
-53.999999999999972
 31
0.0
 73
     1
1001
ACDBBLOCKREPETAG
1070
     1
1071
      202
1005
6C9
  0
TEXT
  5
6CA
  8
0
 10
271.0
 20
-57.999999999999901
 30
0.0
 40
1.875
  1
线
  7
TLCAD
 11
271.0
 21
-57.999999999999901
 31
0.0
 73
     1
1001
ACDBBLOCKREPETAG
1070
     1
1071
      203
1005
6CA
  0
TEXT
  5
6CB
  8
0
 10
271.0
 20
-53.999999999999972
 30
0.0
 40
1.875
  1
导
  7
TLCAD
 11
271.0
 21
-53.999999999999972
 31
0.0
 73
     1
1001
ACDBBLOCKREPETAG
1070
     1
1071
      204
1005
6CB
  0
TEXT
  5
6CC
  8
0
 10
292.00000000000011
 20
-48.999999999999801
 30
0.0
 40
1.875
  1
(米)
  7
TLCAD
 11
292.00000000000011
 21
-48.999999999999801
 31
0.0
 73
     1
1001
ACDBBLOCKREPETAG
1070
     1
1071
      205
1005
6CC
  0
TEXT
  5
6CD
  8
0
 10
291.0
 20
-45.999999999999957
 30
0.0
 40
1.875
  1
距  离
  7
TLCAD
 11
291.0
 21
-45.999999999999957
 31
0.0
 73
     1
1001
ACDBBLOCKREPETAG
1070
     1
1071
      206
1005
6CD
  0
TEXT
  5
6CE
  8
0
 10
274.00000000000011
 20
-47.999999999999972
 30
0.0
 40
1.875
  1
个  数
  7
TLCAD
 11
274.00000000000011
 21
-47.999999999999972
 31
0.0
 73
     1
1001
ACDBBLOCKREPETAG
1070
     1
1071
      207
1005
6CE
  0
TEXT
  5
6CF
  8
0
 10
275.0
 20
-37.999999999999908
 30
0.0
 40
1.875
  1
每 线 防 振 锤
  7
TLCAD
 11
275.0
 21
-37.999999999999908
 31
0.0
 73
     1
1001
ACDBBLOCKREPETAG
1070
     1
1071
      208
1005
6CF
  0
LINE
  5
6D0
  8
0
 10
288.00000000000011
 20
-41.999999999999908
 30
0.0
 11
288.00000000000011
 21
-259.99999999999972
 31
0.0
1001
ACDBBLOCKREPETAG
1070
     1
1071
      209
1005
6D0
  0
LINE
  5
6D1
  8
0
 10
400.99999999999977
 20
-259.99999999999972
 30
0.0
 11
400.99999999999977
 21
-31.99999999999989
 31
0.0
1001
ACDBBLOCKREPETAG
1070
     1
1071
      210
1005
6D1
  0
LINE
  5
6D2
  8
0
 10
370.99999999999977
 20
-259.99999999999972
 30
0.0
 11
370.99999999999977
 21
-31.99999999999989
 31
0.0
1001
ACDBBLOCKREPETAG
1070
     1
1071
      211
1005
6D2
  0
LINE
  5
6D3
  8
0
 10
309.00000000000011
 20
-259.99999999999972
 30
0.0
 11
309.00000000000011
 21
-31.99999999999989
 31
0.0
1001
ACDBBLOCKREPETAG
1070
     1
1071
      212
1005
6D3
  0
LINE
  5
6D4
  8
0
 10
302.0
 20
-259.99999999999972
 30
0.0
 11
302.0
 21
-31.99999999999989
 31
0.0
1001
ACDBBLOCKREPETAG
1070
     1
1071
      213
1005
6D4
  0
LINE
  5
6D5
  8
0
 10
295.00000000000011
 20
-49.999999999999972
 30
0.0
 11
295.00000000000011
 21
-259.99999999999972
 31
0.0
1001
ACDBBLOCKREPETAG
1070
     1
1071
      214
1005
6D5
  0
LINE
  5
6D6
  8
0
 10
268.00000000000011
 20
-49.999999999999972
 30
0.0
 11
302.0
 21
-49.999999999999972
 31
0.0
1001
ACDBBLOCKREPETAG
1070
     1
1071
      215
1005
6D6
  0
LINE
  5
6D7
  8
0
 10
268.00000000000011
 20
-41.999999999999908
 30
0.0
 11
302.0
 21
-41.999999999999908
 31
0.0
1001
ACDBBLOCKREPETAG
1070
     1
1071
      216
1005
6D7
  0
TEXT
  5
6D8
  8
0
 10
261.00000000000011
 20
-54.999999999999922
 30
0.0
 40
1.875
  1
(串)
  7
TLCAD
 11
261.00000000000011
 21
-54.999999999999922
 31
0.0
 73
     1
1001
ACDBBLOCKREPETAG
1070
     1
1071
      217
1005
6D8
  0
TEXT
  5
6D9
  8
0
 10
258.0
 20
-56.999999999999922
 30
0.0
 40
1.875
  1
量
  7
TLCAD
 11
258.0
 21
-56.999999999999922
 31
0.0
 73
     1
1001
ACDBBLOCKREPETAG
1070
     1
1071
      218
1005
6D9
  0
TEXT
  5
6DA
  8
0
 10
258.0
 20
-52.999999999999801
 30
0.0
 40
1.875
  1
数
  7
TLCAD
 11
258.0
 21
-52.999999999999801
 31
0.0
 73
     1
1001
ACDBBLOCKREPETAG
1070
     1
1071
      219
1005
6DA
  0
TEXT
  5
6DB
  8
0
 10
242.0
 20
-56.499999999999972
 30
0.0
 40
2.5
  1
型号
  7
TLCAD
 11
242.0
 21
-56.499999999999972
 31
0.0
 73
     1
1001
ACDBBLOCKREPETAG
1070
     1
1071
      220
1005
6DB
  0
TEXT
  5
6DC
  8
0
 10
229.0
 20
-54.999999999999922
 30
0.0
 40
1.875
  1
(串)
  7
TLCAD
 11
229.0
 21
-54.999999999999922
 31
0.0
 73
     1
1001
ACDBBLOCKREPETAG
1070
     1
1071
      221
1005
6DC
  0
TEXT
  5
6DD
  8
0
 10
226.0
 20
-56.999999999999922
 30
0.0
 40
1.875
  1
量
  7
TLCAD
 11
226.0
 21
-56.999999999999922
 31
0.0
 73
     1
1001
ACDBBLOCKREPETAG
1070
     1
1071
      222
1005
6DD
  0
TEXT
  5
6DE
  8
0
 10
226.0
 20
-52.999999999999801
 30
0.0
 40
1.875
  1
数
  7
TLCAD
 11
226.0
 21
-52.999999999999801
 31
0.0
 73
     1
1001
ACDBBLOCKREPETAG
1070
     1
1071
      223
1005
6DE
  0
TEXT
  5
6DF
  8
0
 10
242.0
 20
-41.999999999999908
 30
0.0
 40
2.5
  1
地线金具串
  7
TLCAD
 11
242.0
 21
-41.999999999999908
 31
0.0
 73
     1
1001
ACDBBLOCKREPETAG
1070
     1
1071
      224
1005
6DF
  0
TEXT
  5
6E0
  8
0
 10
210.0
 20
-55.499999999999801
 30
0.0
 40
2.5
  1
型号
  7
TLCAD
 11
210.0
 21
-55.499999999999801
 31
0.0
 73
     1
1001
ACDBBLOCKREPETAG
1070
     1
1071
      225
1005
6E0
  0
TEXT
  5
6E1
  8
0
 10
210.0
 20
-41.999999999999908
 30
0.0
 40
2.5
  1
导线跳线串
  7
TLCAD
 11
210.0
 21
-41.999999999999908
 31
0.0
 73
     1
1001
ACDBBLOCKREPETAG
1070
     1
1071
      226
1005
6E1
  0
LINE
  5
6E2
  8
0
 10
268.00000000000011
 20
-259.99999999999972
 30
0.0
 11
268.00000000000011
 21
-31.99999999999989
 31
0.0
1001
ACDBBLOCKREPETAG
1070
     1
1071
      227
1005
6E2
  0
LINE
  5
6E3
  8
0
 10
256.0
 20
-47.999999999999972
 30
0.0
 11
256.0
 21
-259.99999999999972
 31
0.0
1001
ACDBBLOCKREPETAG
1070
     1
1071
      228
1005
6E3
  0
LINE
  5
6E4
  8
0
 10
224.0
 20
-47.999999999999972
 30
0.0
 11
224.0
 21
-259.99999999999972
 31
0.0
1001
ACDBBLOCKREPETAG
1070
     1
1071
      229
1005
6E4
  0
LINE
  5
6E5
  8
0
 10
204.0
 20
-47.999999999999972
 30
0.0
 11
268.00000000000011
 21
-47.999999999999972
 31
0.0
1001
ACDBBLOCKREPETAG
1070
     1
1071
      230
1005
6E5
  0
LINE
  5
6E6
  8
0
 10
236.0
 20
-259.99999999999972
 30
0.0
 11
236.0
 21
-31.99999999999989
 31
0.0
1001
ACDBBLOCKREPETAG
1070
     1
1071
      231
1005
6E6
  0
TEXT
  5
6E7
  8
0
 10
195.99999999999989
 20
-54.999999999999922
 30
0.0
 40
1.875
  1
(串)
  7
TLCAD
 11
195.99999999999989
 21
-54.999999999999922
 31
0.0
 73
     1
1001
ACDBBLOCKREPETAG
1070
     1
1071
      232
1005
6E7
  0
TEXT
  5
6E8
  8
0
 10
193.99999999999989
 20
-56.999999999999922
 30
0.0
 40
1.875
  1
量
  7
TLCAD
 11
193.99999999999989
 21
-56.999999999999922
 31
0.0
 73
     1
1001
ACDBBLOCKREPETAG
1070
     1
1071
      233
1005
6E8
  0
TEXT
  5
6E9
  8
0
 10
193.99999999999989
 20
-52.999999999999801
 30
0.0
 40
1.875
  1
数
  7
TLCAD
 11
193.99999999999989
 21
-52.999999999999801
 31
0.0
 73
     1
1001
ACDBBLOCKREPETAG
1070
     1
1071
      234
1005
6E9
  0
TEXT
  5
6EA
  8
0
 10
175.99999999999989
 20
-55.499999999999801
 30
0.0
 40
2.5
  1
型  号
  7
TLCAD
 11
175.99999999999989
 21
-55.499999999999801
 31
0.0
 73
     1
1001
ACDBBLOCKREPETAG
1070
     1
1071
      235
1005
6EA
  0
TEXT
  5
6EB
  8
0
 10
175.99999999999989
 20
-41.999999999999908
 30
0.0
 40
2.5
  1
导线绝缘子串
  7
TLCAD
 11
175.99999999999989
 21
-41.999999999999908
 31
0.0
 73
     1
1001
ACDBBLOCKREPETAG
1070
     1
1071
      236
1005
6EB
  0
LINE
  5
6EC
  8
0
 10
191.99999999999989
 20
-47.999999999999972
 30
0.0
 11
191.99999999999989
 21
-259.99999999999972
 31
0.0
1001
ACDBBLOCKREPETAG
1070
     1
1071
      237
1005
6EC
  0
LINE
  5
6ED
  8
0
 10
171.99999999999989
 20
-47.999999999999972
 30
0.0
 11
204.0
 21
-47.999999999999972
 31
0.0
1001
ACDBBLOCKREPETAG
1070
     1
1071
      238
1005
6ED
  0
LINE
  5
6EE
  8
0
 10
204.0
 20
-259.99999999999972
 30
0.0
 11
204.0
 21
-31.99999999999989
 31
0.0
1001
ACDBBLOCKREPETAG
1070
     1
1071
      239
1005
6EE
  0
TEXT
  5
6EF
  8
0
 10
163.0
 20
-57.999999999999901
 30
0.0
 40
1.875
  1
(米)
  7
TLCAD
 11
163.0
 21
-57.999999999999901
 31
0.0
 73
     1
1001
ACDBBLOCKREPETAG
1070
     1
1071
      240
1005
6EF
  0
TEXT
  5
6F0
  8
0
 10
165.0
 20
-52.999999999999801
 30
0.0
 40
1.875
  1
深
  7
TLCAD
 11
165.0
 21
-52.999999999999801
 31
0.0
 73
     1
1001
ACDBBLOCKREPETAG
1070
     1
1071
      241
1005
6F0
  0
TEXT
  5
6F1
  8
0
 10
165.0
 20
-46.999999999999801
 30
0.0
 40
1.875
  1
埋
  7
TLCAD
 11
165.0
 21
-46.999999999999801
 31
0.0
 73
     1
1001
ACDBBLOCKREPETAG
1070
     1
1071
      242
1005
6F1
  0
TEXT
  5
6F2
  8
0
 10
155.0
 20
-56.999999999999922
 30
0.0
 40
1.875
  1
号
  7
TLCAD
 11
155.0
 21
-56.999999999999922
 31
0.0
 73
     1
1001
ACDBBLOCKREPETAG
1070
     1
1071
      243
1005
6F2
  0
TEXT
  5
6F3
  8
0
 10
155.0
 20
-46.999999999999801
 30
0.0
 40
1.875
  1
型
  7
TLCAD
 11
155.0
 21
-46.999999999999801
 31
0.0
 73
     1
1001
ACDBBLOCKREPETAG
1070
     1
1071
      244
1005
6F3
  0
TEXT
  5
6F4
  8
0
 10
152.9999999999998
 20
-38.999999999999773
 30
0.0
 40
2.5
  1
接地装置
  7
TLCAD
 11
152.9999999999998
 21
-38.999999999999773
 31
0.0
 73
     1
1001
ACDBBLOCKREPETAG
1070
     1
1071
      245
1005
6F4
  0
LINE
  5
6F5
  8
0
 10
160.9999999999998
 20
-41.999999999999908
 30
0.0
 11
160.9999999999998
 21
-259.99999999999972
 31
0.0
1001
ACDBBLOCKREPETAG
1070
     1
1071
      246
1005
6F5
  0
LINE
  5
6F6
  8
0
 10
150.9999999999998
 20
-41.999999999999908
 30
0.0
 11
171.99999999999989
 21
-41.999999999999908
 31
0.0
1001
ACDBBLOCKREPETAG
1070
     1
1071
      247
1005
6F6
  0
LINE
  5
6F7
  8
0
 10
171.99999999999989
 20
-259.99999999999972
 30
0.0
 11
171.99999999999989
 21
-31.99999999999989
 31
0.0
1001
ACDBBLOCKREPETAG
1070
     1
1071
      248
1005
6F7
  0
TEXT
  5
6F8
  8
0
 10
140.9999999999998
 20
-57.999999999999901
 30
0.0
 40
1.875
  1
(米)
  7
TLCAD
 11
140.9999999999998
 21
-57.999999999999901
 31
0.0
 73
     1
1001
ACDBBLOCKREPETAG
1070
     1
1071
      249
1005
6F8
  0
TEXT
  5
6F9
  8
0
 10
139.9999999999998
 20
-52.999999999999801
 30
0.0
 40
1.875
  1
位 移
  7
TLCAD
 11
139.9999999999998
 21
-52.999999999999801
 31
0.0
 73
     1
1001
ACDBBLOCKREPETAG
1070
     1
1071
      250
1005
6F9
  0
TEXT
  5
6FA
  8
0
 10
139.0
 20
-47.999999999999972
 30
0.0
 40
1.875
  1
中心桩
  7
TLCAD
 11
139.0
 21
-47.999999999999972
 31
0.0
 73
     1
1001
ACDBBLOCKREPETAG
1070
     1
1071
      251
1005
6FA
  0
TEXT
  5
6FB
  8
0
 10
139.9999999999998
 20
-41.999999999999908
 30
0.0
 40
1.875
  1
度 数
  7
TLCAD
 11
139.9999999999998
 21
-41.999999999999908
 31
0.0
 73
     1
1001
ACDBBLOCKREPETAG
1070
     1
1071
      252
1005
6FB
  0
TEXT
  5
6FC
  8
0
 10
137.0
 20
-36.999999999999773
 30
0.0
 40
1.875
  1
线路转角
  7
TLCAD
 11
137.0
 21
-36.999999999999773
 31
0.0
 73
     1
1001
ACDBBLOCKREPETAG
1070
     1
1071
      253
1005
6FC
  0
LINE
  5
6FD
  8
0
 10
136.0
 20
-43.999999999999972
 30
0.0
 11
150.9999999999998
 21
-43.999999999999972
 31
0.0
1001
ACDBBLOCKREPETAG
1070
     1
1071
      254
1005
6FD
  0
LINE
  5
6FE
  8
0
 10
150.9999999999998
 20
-259.99999999999972
 30
0.0
 11
150.9999999999998
 21
-31.99999999999989
 31
0.0
1001
ACDBBLOCKREPETAG
1070
     1
1071
      255
1005
6FE
  0
LINE
  5
6FF
  8
0
 10
136.0
 20
-259.99999999999972
 30
0.0
 11
136.0
 21
-31.99999999999989
 31
0.0
1001
ACDBBLOCKREPETAG
1070
     1
1071
      256
1005
6FF
  0
TEXT
  5
700
  8
0
 10
126.9999999999999
 20
-55.999999999999893
 30
0.0
 40
1.875
  1
(米)
  7
TLCAD
 11
126.9999999999999
 21
-55.999999999999893
 31
0.0
 73
     1
1001
ACDBBLOCKREPETAG
1070
     1
1071
      257
1005
700
  0
TEXT
  5
701
  8
0
 10
128.9999999999998
 20
-50.999999999999801
 30
0.0
 40
1.875
  1
面
  7
TLCAD
 11
128.9999999999998
 21
-50.999999999999801
 31
0.0
 73
     1
1001
ACDBBLOCKREPETAG
1070
     1
1071
      258
1005
701
  0
TEXT
  5
702
  8
0
 10
128.9999999999998
 20
-45.999999999999957
 30
0.0
 40
1.875
  1
基
  7
TLCAD
 11
128.9999999999998
 21
-45.999999999999957
 31
0.0
 73
     1
1001
ACDBBLOCKREPETAG
1070
     1
1071
      259
1005
702
  0
TEXT
  5
703
  8
0
 10
128.9999999999998
 20
-40.999999999999773
 30
0.0
 40
1.875
  1
工
  7
TLCAD
 11
128.9999999999998
 21
-40.999999999999773
 31
0.0
 73
     1
1001
ACDBBLOCKREPETAG
1070
     1
1071
      260
1005
703
  0
TEXT
  5
704
  8
0
 10
128.9999999999998
 20
-35.999999999999893
 30
0.0
 40
1.875
  1
施
  7
TLCAD
 11
128.9999999999998
 21
-35.999999999999893
 31
0.0
 73
     1
1001
ACDBBLOCKREPETAG
1070
     1
1071
      261
1005
704
  0
TEXT
  5
705
  8
0
 10
117.9999999999999
 20
-56.999999999999922
 30
0.0
 40
1.875
  1
直
  7
TLCAD
 11
117.9999999999999
 21
-56.999999999999922
 31
0.0
 73
     1
1001
ACDBBLOCKREPETAG
1070
     1
1071
      262
1005
705
  0
TEXT
  5
706
  8
0
 10
117.9999999999999
 20
-46.999999999999801
 30
0.0
 40
1.875
  1
垂
  7
TLCAD
 11
117.9999999999999
 21
-46.999999999999801
 31
0.0
 73
     1
1001
ACDBBLOCKREPETAG
1070
     1
1071
      263
1005
706
  0
TEXT
  5
707
  8
0
 10
105.9999999999999
 20
-56.999999999999922
 30
0.0
 40
1.875
  1
平
  7
TLCAD
 11
105.9999999999999
 21
-56.999999999999922
 31
0.0
 73
     1
1001
ACDBBLOCKREPETAG
1070
     1
1071
      264
1005
707
  0
TEXT
  5
708
  8
0
 10
105.9999999999999
 20
-46.999999999999801
 30
0.0
 40
1.875
  1
水
  7
TLCAD
 11
105.9999999999999
 21
-46.999999999999801
 31
0.0
 73
     1
1001
ACDBBLOCKREPETAG
1070
     1
1071
      265
1005
708
  0
TEXT
  5
709
  8
0
 10
93.999999999999957
 20
-56.999999999999922
 30
0.0
 40
1.875
  1
用
  7
TLCAD
 11
93.999999999999957
 21
-56.999999999999922
 31
0.0
 73
     1
1001
ACDBBLOCKREPETAG
1070
     1
1071
      266
1005
709
  0
TEXT
  5
70A
  8
0
 10
93.999999999999957
 20
-46.999999999999801
 30
0.0
 40
1.875
  1
使
  7
TLCAD
 11
93.999999999999957
 21
-46.999999999999801
 31
0.0
 73
     1
1001
ACDBBLOCKREPETAG
1070
     1
1071
      267
1005
70A
  0
TEXT
  5
70B
  8
0
 10
99.999999999999915
 20
-38.999999999999773
 30
0.0
 40
1.875
  1
档  距 (米)
  7
TLCAD
 11
99.999999999999915
 21
-38.999999999999773
 31
0.0
 73
     1
1001
ACDBBLOCKREPETAG
1070
     1
1071
      268
1005
70B
  0
LINE
  5
70C
  8
0
 10
114.0
 20
-259.99999999999972
 30
0.0
 11
114.0
 21
-41.999999999999908
 31
0.0
1001
ACDBBLOCKREPETAG
1070
     1
1071
      269
1005
70C
  0
LINE
  5
70D
  8
0
 10
101.4999999999999
 20
-259.99999999999972
 30
0.0
 11
101.4999999999999
 21
-41.999999999999908
 31
0.0
1001
ACDBBLOCKREPETAG
1070
     1
1071
      270
1005
70D
  0
LINE
  5
70E
  8
0
 10
125.9999999999999
 20
-259.99999999999972
 30
0.0
 11
125.9999999999999
 21
-31.99999999999989
 31
0.0
1001
ACDBBLOCKREPETAG
1070
     1
1071
      271
1005
70E
  0
LINE
  5
70F
  8
0
 10
89.999999999999986
 20
-41.999999999999908
 30
0.0
 11
125.9999999999999
 21
-41.999999999999908
 31
0.0
1001
ACDBBLOCKREPETAG
1070
     1
1071
      272
1005
70F
  0
LINE
  5
710
  8
0
 10
89.999999999999986
 20
-259.99999999999972
 30
0.0
 11
89.999999999999986
 21
-31.99999999999989
 31
0.0
1001
ACDBBLOCKREPETAG
1070
     1
1071
      273
1005
710
  0
TEXT
  5
711
  8
0
 10
79.999999999999901
 20
-57.999999999999901
 30
0.0
 40
1.875
  1
置
  7
TLCAD
 11
79.999999999999901
 21
-57.999999999999901
 31
0.0
 73
     1
1001
ACDBBLOCKREPETAG
1070
     1
1071
      274
1005
711
  0
TEXT
  5
712
  8
0
 10
79.999999999999901
 20
-50.999999999999801
 30
0.0
 40
1.875
  1
位
  7
TLCAD
 11
79.999999999999901
 21
-50.999999999999801
 31
0.0
 73
     1
1001
ACDBBLOCKREPETAG
1070
     1
1071
      275
1005
712
  0
TEXT
  5
713
  8
0
 10
79.999999999999901
 20
-43.999999999999972
 30
0.0
 40
1.875
  1
塔
  7
TLCAD
 11
79.999999999999901
 21
-43.999999999999972
 31
0.0
 73
     1
1001
ACDBBLOCKREPETAG
1070
     1
1071
      276
1005
713
  0
TEXT
  5
714
  8
0
 10
79.999999999999901
 20
-36.999999999999773
 30
0.0
 40
1.875
  1
杆
  7
TLCAD
 11
79.999999999999901
 21
-36.999999999999773
 31
0.0
 73
     1
1001
ACDBBLOCKREPETAG
1070
     1
1071
      277
1005
714
  0
TEXT
  5
715
  8
0
 10
55.0
 20
-54.999999999999922
 30
0.0
 40
1.875
  1
呼称高(米)
  7
TLCAD
 11
55.0
 21
-54.999999999999922
 31
0.0
 73
     1
1001
ACDBBLOCKREPETAG
1070
     1
1071
      278
1005
715
  0
TEXT
  5
716
  8
0
 10
58.999999999999993
 20
-47.999999999999972
 30
0.0
 40
1.875
  1
及
  7
TLCAD
 11
58.999999999999993
 21
-47.999999999999972
 31
0.0
 73
     1
1001
ACDBBLOCKREPETAG
1070
     1
1071
      279
1005
716
  0
TEXT
  5
717
  8
0
 10
55.0
 20
-40.999999999999773
 30
0.0
 40
1.875
  1
杆塔型号
  7
TLCAD
 11
55.0
 21
-40.999999999999773
 31
0.0
 73
     1
1001
ACDBBLOCKREPETAG
1070
     1
1071
      280
1005
717
  0
TEXT
  5
718
  8
0
 10
43.999999999999993
 20
-57.999999999999901
 30
0.0
 40
1.875
  1
号
  7
TLCAD
 11
43.999999999999993
 21
-57.999999999999901
 31
0.0
 73
     1
1001
ACDBBLOCKREPETAG
1070
     1
1071
      281
1005
718
  0
TEXT
  5
719
  8
0
 10
43.999999999999993
 20
-50.999999999999801
 30
0.0
 40
1.875
  1
编
  7
TLCAD
 11
43.999999999999993
 21
-50.999999999999801
 31
0.0
 73
     1
1001
ACDBBLOCKREPETAG
1070
     1
1071
      282
1005
719
  0
TEXT
  5
71A
  8
0
 10
43.999999999999993
 20
-43.999999999999972
 30
0.0
 40
1.875
  1
塔
  7
TLCAD
 11
43.999999999999993
 21
-43.999999999999972
 31
0.0
 73
     1
1001
ACDBBLOCKREPETAG
1070
     1
1071
      283
1005
71A
  0
TEXT
  5
71B
  8
0
 10
43.999999999999993
 20
-36.999999999999773
 30
0.0
 40
1.875
  1
杆
  7
TLCAD
 11
43.999999999999993
 21
-36.999999999999773
 31
0.0
 73
     1
1001
ACDBBLOCKREPETAG
1070
     1
1071
      284
1005
71B
  0
TEXT
  5
71C
  8
0
 10
28.5
 20
-57.999999999999901
 30
0.0
 40
1.875
  1
距及K值
  7
TLCAD
 11
28.5
 21
-57.999999999999901
 31
0.0
 73
     1
1001
ACDBBLOCKREPETAG
1070
     1
1071
      285
1005
71C
  0
TEXT
  5
71D
  8
0
 10
30.0
 20
-52.999999999999801
 30
0.0
 40
1.875
  1
代表档
  7
TLCAD
 11
30.0
 21
-52.999999999999801
 31
0.0
 73
     1
1001
ACDBBLOCKREPETAG
1070
     1
1071
      286
1005
71D
  0
TEXT
  5
71E
  8
0
 10
25.5
 20
-46.999999999999801
 30
0.0
 40
1.875
  1
(米)
  7
TLCAD
 11
25.5
 21
-46.999999999999801
 31
0.0
 73
     1
1001
ACDBBLOCKREPETAG
1070
     1
1071
      287
1005
71E
  0
TEXT
  5
71F
  8
0
 10
26.0
 20
-42.999999999999801
 30
0.0
 40
1.875
  1
长
  7
TLCAD
 11
26.0
 21
-42.999999999999801
 31
0.0
 73
     1
1001
ACDBBLOCKREPETAG
1070
     1
1071
      288
1005
71F
  0
TEXT
  5
720
  8
0
 10
26.0
 20
-38.999999999999773
 30
0.0
 40
1.875
  1
耐张段
  7
TLCAD
 11
26.0
 21
-38.999999999999773
 31
0.0
 73
     1
1001
ACDBBLOCKREPETAG
1070
     1
1071
      289
1005
720
  0
TEXT
  5
721
  8
0
 10
122.9999999999999
 20
-24.99999999999989
 30
0.0
 40
5.0
  1
线   路   杆  (塔)  位   明   细   表
  7
TLCAD
 11
122.9999999999999
 21
-24.99999999999989
 31
0.0
 73
     1
1001
ACDBBLOCKREPETAG
1070
     1
1071
      290
1005
721
  0
LINE
  5
722
  8
0
 10
25.0
 20
-59.999999999999801
 30
0.0
 11
40.0
 21
-31.99999999999989
 31
0.0
1001
ACDBBLOCKREPETAG
1070
     1
1071
      291
1005
722
  0
LINE
  5
723
  8
0
 10
25.0
 20
-259.99999999999972
 30
0.0
 11
414.99999999999949
 21
-259.99999999999972
 31
0.0
1001
ACDBBLOCKREPETAG
1070
     1
1071
      292
1005
723
  0
LINE
  5
724
  8
0
 10
25.0
 20
-59.999999999999801
 30
0.0
 11
414.99999999999949
 21
-59.999999999999801
 31
0.0
1001
ACDBBLOCKREPETAG
1070
     1
1071
      293
1005
724
  0
LINE
  5
725
  8
0
 10
72.0
 20
-31.99999999999989
 30
0.0
 11
72.0
 21
-259.99999999999972
 31
0.0
1001
ACDBBLOCKREPETAG
1070
     1
1071
      294
1005
725
  0
LINE
  5
726
  8
0
 10
50.999999999999993
 20
-31.99999999999989
 30
0.0
 11
50.999999999999993
 21
-259.99999999999972
 31
0.0
1001
ACDBBLOCKREPETAG
1070
     1
1071
      295
1005
726
  0
LINE
  5
727
  8
0
 10
40.0
 20
-31.99999999999989
 30
0.0
 11
40.0
 21
-259.99999999999972
 31
0.0
1001
ACDBBLOCKREPETAG
1070
     1
1071
      296
1005
727
  0
LINE
  5
728
  8
0
 10
25.0
 20
-31.99999999999989
 30
0.0
 11
414.99999999999949
 21
-31.99999999999989
 31
0.0
1001
ACDBBLOCKREPETAG
1070
     1
1071
      297
1005
728
  0
LINE
  5
729
  8
0
 10
25.0
 20
-291.99999999999972
 30
0.0
 11
25.0
 21
-5.0
 31
0.0
1001
ACDBBLOCKREPETAG
1070
     1
1071
      298
1005
729
  0
LINE
  5
72A
  8
0
 10
414.99999999999949
 20
-291.99999999999972
 30
0.0
 11
25.0
 21
-291.99999999999972
 31
0.0
1001
ACDBBLOCKREPETAG
1070
     1
1071
      299
1005
72A
  0
LINE
  5
72B
  8
0
 10
414.99999999999949
 20
-5.0
 30
0.0
 11
414.99999999999949
 21
-291.99999999999972
 31
0.0
1001
ACDBBLOCKREPETAG
1070
     1
1071
      300
1005
72B
  0
LINE
  5
72C
  8
0
 10
25.0
 20
-5.0
 30
0.0
 11
414.99999999999949
 21
-5.0
 31
0.0
1001
ACDBBLOCKREPETAG
1070
     1
1071
      301
1005
72C
  0
LINE
  5
72D
  8
0
 10
419.99999999999932
 20
-296.99999999999972
 30
0.0
 11
0.0
 21
-296.99999999999972
 31
0.0
1001
ACDBBLOCKREPETAG
1070
     1
1071
      302
1005
72D
  0
LINE
  5
72E
  8
0
 10
419.99999999999932
 20
0.0
 30
0.0
 11
419.99999999999932
 21
-296.99999999999972
 31
0.0
1001
ACDBBLOCKREPETAG
1070
     1
1071
      303
1005
72E
  0
LINE
  5
72F
  8
0
 10
0.0
 20
0.0
 30
0.0
 11
419.99999999999932
 21
0.0
 31
0.0
1001
ACDBBLOCKREPETAG
1070
     1
1071
      304
1005
72F
  0
POLYLINE
  5
730
  8
1
  6
CONTINUOUS
 62
     0
 66
     1
 10
0.0
 20
0.0
 30
0.0
1001
ACDBBLOCKREPETAG
1070
     1
1071
      305
1005
730
  0
VERTEX
  5
1188
  8
1
  6
CONTINUOUS
 62
     0
 10
414.98431706134511
 20
-283.90318186809372
 30
0.0
  0
VERTEX
  5
1189
  8
1
  6
CONTINUOUS
 62
     0
 10
369.08945654216541
 20
-283.90318186809372
 30
0.0
  0
VERTEX
  5
118A
  8
1
  6
CONTINUOUS
 62
     0
 10
369.08945654216541
 20
-291.99999999999972
 30
0.0
  0
SEQEND
  5
118B
  8
1
  6
CONTINUOUS
 62
     0
  0
POLYLINE
  5
731
  8
1
  6
CONTINUOUS
 62
     0
 66
     1
 10
0.0
 20
0.0
 30
0.0
1001
ACDBBLOCKREPETAG
1070
     1
1071
      306
1005
731
  0
VERTEX
  5
118C
  8
1
  6
CONTINUOUS
 62
     0
 10
0.0
 20
-296.99999999999972
 30
0.0
  0
VERTEX
  5
118D
  8
1
  6
CONTINUOUS
 62
     0
 10
0.0
 20
0.0
 30
0.0
  0
SEQEND
  5
118E
  8
1
  6
CONTINUOUS
 62
     0
  0
LINE
  5
732
  8
0
 10
268.00000642773551
 20
-164.99999714239931
 30
0.0
 11
288.00000642773563
 21
-164.99999714239931
 31
0.0
1001
ACDBBLOCKREPETAG
1070
     1
1071
      307
1005
732
  0
LINE
  5
733
  8
0
 10
268.00000642773551
 20
-154.99999714239931
 30
0.0
 11
288.00000642773563
 21
-154.99999714239931
 31
0.0
1001
ACDBBLOCKREPETAG
1070
     1
1071
      308
1005
733
  0
LINE
  5
734
  8
0
 10
268.00000642773551
 20
-144.99999714239931
 30
0.0
 11
288.00000642773563
 21
-144.99999714239931
 31
0.0
1001
ACDBBLOCKREPETAG
1070
     1
1071
      309
1005
734
  0
LINE
  5
735
  8
0
 10
268.00000642773551
 20
-134.9999971423992
 30
0.0
 11
288.00000642773563
 21
-134.9999971423992
 31
0.0
1001
ACDBBLOCKREPETAG
1070
     1
1071
      310
1005
735
  0
LINE
  5
736
  8
0
 10
268.00000642773551
 20
-124.9999971423992
 30
0.0
 11
288.00000642773563
 21
-124.9999971423992
 31
0.0
1001
ACDBBLOCKREPETAG
1070
     1
1071
      311
1005
736
  0
LINE
  5
737
  8
0
 10
268.00000642773551
 20
-114.99999714239929
 30
0.0
 11
288.00000642773563
 21
-114.99999714239929
 31
0.0
1001
ACDBBLOCKREPETAG
1070
     1
1071
      312
1005
737
  0
LINE
  5
738
  8
0
 10
268.00000642773551
 20
-104.9999971423992
 30
0.0
 11
288.00000642773563
 21
-104.9999971423992
 31
0.0
1001
ACDBBLOCKREPETAG
1070
     1
1071
      313
1005
738
  0
LINE
  5
739
  8
0
 10
268.00000642773551
 20
-94.999997142399266
 30
0.0
 11
288.00000642773563
 21
-94.999997142399266
 31
0.0
1001
ACDBBLOCKREPETAG
1070
     1
1071
      314
1005
739
  0
LINE
  5
73A
  8
0
 10
268.00000642773551
 20
-84.99999714239928
 30
0.0
 11
288.00000642773563
 21
-84.99999714239928
 31
0.0
1001
ACDBBLOCKREPETAG
1070
     1
1071
      315
1005
73A
  0
LINE
  5
73B
  8
0
 10
268.00000642773551
 20
-74.99999714239928
 30
0.0
 11
288.00000642773563
 21
-74.99999714239928
 31
0.0
1001
ACDBBLOCKREPETAG
1070
     1
1071
      316
1005
73B
  0
LINE
  5
73C
  8
0
 10
268.00000642773551
 20
-64.99999714239928
 30
0.0
 11
288.00000642773563
 21
-64.99999714239928
 31
0.0
1001
ACDBBLOCKREPETAG
1070
     1
1071
      317
1005
73C
  0
ENDBLK
  5
233
  8
0
  0
BLOCK
  8
0
  2
*U3
 70
     1
 10
0.0
 20
0.0
 30
0.0
  3
*U3
  1

  0
POLYLINE
  5
A25
  8
0
  6
CONTINUOUS
 66
     1
 10
0.0
 20
0.0
 30
0.0
1001
ACDBBLOCKREPETAG
1070
     1
1071
        0
1005
A25
  0
VERTEX
  5
118F
  8
0
  6
CONTINUOUS
 10
288.00000000000011
 20
-49.999999999999972
 30
0.0
  0
VERTEX
  5
1190
  8
0
  6
CONTINUOUS
 10
268.00000000000011
 20
-49.999999999999972
 30
0.0
  0
SEQEND
  5
1191
  8
0
  6
CONTINUOUS
  0
LINE
  5
A26
  8
0
 10
278.00000000000011
 20
-49.999999999999972
 30
0.0
 11
278.00000000000011
 21
-259.99999999999972
 31
0.0
1001
ACDBBLOCKREPETAG
1070
     1
1071
        1
1005
A26
  0
LINE
  5
A27
  8
0
 10
370.99999999999977
 20
-259.99999999999972
 30
0.0
 11
400.99999999999977
 21
-259.99999999999972
 31
0.0
1001
ACDBBLOCKREPETAG
1070
     1
1071
        2
1005
A27
  0
LINE
  5
A28
  8
0
 10
309.00000000000011
 20
-254.9999999999998
 30
0.0
 11
370.99999999999977
 21
-254.9999999999998
 31
0.0
1001
ACDBBLOCKREPETAG
1070
     1
1071
        3
1005
A28
  0
LINE
  5
A29
  8
0
 10
302.0
 20
-259.99999999999972
 30
0.0
 11
309.00000000000011
 21
-259.99999999999972
 31
0.0
1001
ACDBBLOCKREPETAG
1070
     1
1071
        4
1005
A29
  0
LINE
  5
A2A
  8
0
 10
268.00000000000011
 20
-254.9999999999998
 30
0.0
 11
288.00000000000011
 21
-254.9999999999998
 31
0.0
1001
ACDBBLOCKREPETAG
1070
     1
1071
        5
1005
A2A
  0
LINE
  5
A2B
  8
0
 10
150.9999999999998
 20
-259.99999999999972
 30
0.0
 11
288.00000000000011
 21
-259.99999999999972
 31
0.0
1001
ACDBBLOCKREPETAG
1070
     1
1071
        6
1005
A2B
  0
LINE
  5
A2C
  8
0
 10
101.4999999999999
 20
-259.99999999999972
 30
0.0
 11
136.0
 21
-259.99999999999972
 31
0.0
1001
ACDBBLOCKREPETAG
1070
     1
1071
        7
1005
A2C
  0
LINE
  5
A2D
  8
0
 10
89.999999999999986
 20
-254.9999999999998
 30
0.0
 11
101.4999999999999
 21
-254.9999999999998
 31
0.0
1001
ACDBBLOCKREPETAG
1070
     1
1071
        8
1005
A2D
  0
LINE
  5
A2E
  8
0
 10
40.0
 20
-259.99999999999972
 30
0.0
 11
89.999999999999986
 21
-259.99999999999972
 31
0.0
1001
ACDBBLOCKREPETAG
1070
     1
1071
        9
1005
A2E
  0
LINE
  5
A2F
  8
0
 10
370.99999999999977
 20
-249.99999999999989
 30
0.0
 11
400.99999999999977
 21
-249.99999999999989
 31
0.0
1001
ACDBBLOCKREPETAG
1070
     1
1071
       10
1005
A2F
  0
LINE
  5
A30
  8
0
 10
309.00000000000011
 20
-244.9999999999998
 30
0.0
 11
370.99999999999977
 21
-244.9999999999998
 31
0.0
1001
ACDBBLOCKREPETAG
1070
     1
1071
       11
1005
A30
  0
LINE
  5
A31
  8
0
 10
302.0
 20
-249.99999999999989
 30
0.0
 11
309.00000000000011
 21
-249.99999999999989
 31
0.0
1001
ACDBBLOCKREPETAG
1070
     1
1071
       12
1005
A31
  0
LINE
  5
A32
  8
0
 10
268.00000000000011
 20
-244.9999999999998
 30
0.0
 11
288.00000000000011
 21
-244.9999999999998
 31
0.0
1001
ACDBBLOCKREPETAG
1070
     1
1071
       13
1005
A32
  0
LINE
  5
A33
  8
0
 10
150.9999999999998
 20
-249.99999999999989
 30
0.0
 11
288.00000000000011
 21
-249.99999999999989
 31
0.0
1001
ACDBBLOCKREPETAG
1070
     1
1071
       14
1005
A33
  0
LINE
  5
A34
  8
0
 10
101.4999999999999
 20
-249.99999999999989
 30
0.0
 11
136.0
 21
-249.99999999999989
 31
0.0
1001
ACDBBLOCKREPETAG
1070
     1
1071
       15
1005
A34
  0
LINE
  5
A35
  8
0
 10
89.999999999999986
 20
-244.9999999999998
 30
0.0
 11
101.4999999999999
 21
-244.9999999999998
 31
0.0
1001
ACDBBLOCKREPETAG
1070
     1
1071
       16
1005
A35
  0
LINE
  5
A36
  8
0
 10
40.0
 20
-249.99999999999989
 30
0.0
 11
89.999999999999986
 21
-249.99999999999989
 31
0.0
1001
ACDBBLOCKREPETAG
1070
     1
1071
       17
1005
A36
  0
LINE
  5
A37
  8
0
 10
370.99999999999977
 20
-239.9999999999998
 30
0.0
 11
400.99999999999977
 21
-239.9999999999998
 31
0.0
1001
ACDBBLOCKREPETAG
1070
     1
1071
       18
1005
A37
  0
LINE
  5
A38
  8
0
 10
309.00000000000011
 20
-234.9999999999998
 30
0.0
 11
370.99999999999977
 21
-234.9999999999998
 31
0.0
1001
ACDBBLOCKREPETAG
1070
     1
1071
       19
1005
A38
  0
LINE
  5
A39
  8
0
 10
302.0
 20
-239.9999999999998
 30
0.0
 11
309.00000000000011
 21
-239.9999999999998
 31
0.0
1001
ACDBBLOCKREPETAG
1070
     1
1071
       20
1005
A39
  0
LINE
  5
A3A
  8
0
 10
268.00000000000011
 20
-234.9999999999998
 30
0.0
 11
288.00000000000011
 21
-234.9999999999998
 31
0.0
1001
ACDBBLOCKREPETAG
1070
     1
1071
       21
1005
A3A
  0
LINE
  5
A3B
  8
0
 10
150.9999999999998
 20
-239.9999999999998
 30
0.0
 11
288.00000000000011
 21
-239.9999999999998
 31
0.0
1001
ACDBBLOCKREPETAG
1070
     1
1071
       22
1005
A3B
  0
LINE
  5
A3C
  8
0
 10
101.4999999999999
 20
-239.9999999999998
 30
0.0
 11
136.0
 21
-239.9999999999998
 31
0.0
1001
ACDBBLOCKREPETAG
1070
     1
1071
       23
1005
A3C
  0
LINE
  5
A3D
  8
0
 10
89.999999999999986
 20
-234.9999999999998
 30
0.0
 11
101.4999999999999
 21
-234.9999999999998
 31
0.0
1001
ACDBBLOCKREPETAG
1070
     1
1071
       24
1005
A3D
  0
LINE
  5
A3E
  8
0
 10
40.0
 20
-239.9999999999998
 30
0.0
 11
89.999999999999986
 21
-239.9999999999998
 31
0.0
1001
ACDBBLOCKREPETAG
1070
     1
1071
       25
1005
A3E
  0
LINE
  5
A3F
  8
0
 10
370.99999999999977
 20
-229.9999999999998
 30
0.0
 11
400.99999999999977
 21
-229.9999999999998
 31
0.0
1001
ACDBBLOCKREPETAG
1070
     1
1071
       26
1005
A3F
  0
LINE
  5
A40
  8
0
 10
309.00000000000011
 20
-224.9999999999998
 30
0.0
 11
370.99999999999977
 21
-224.9999999999998
 31
0.0
1001
ACDBBLOCKREPETAG
1070
     1
1071
       27
1005
A40
  0
LINE
  5
A41
  8
0
 10
302.0
 20
-229.9999999999998
 30
0.0
 11
309.00000000000011
 21
-229.9999999999998
 31
0.0
1001
ACDBBLOCKREPETAG
1070
     1
1071
       28
1005
A41
  0
LINE
  5
A42
  8
0
 10
268.00000000000011
 20
-224.9999999999998
 30
0.0
 11
288.00000000000011
 21
-224.9999999999998
 31
0.0
1001
ACDBBLOCKREPETAG
1070
     1
1071
       29
1005
A42
  0
LINE
  5
A43
  8
0
 10
150.9999999999998
 20
-229.9999999999998
 30
0.0
 11
288.00000000000011
 21
-229.9999999999998
 31
0.0
1001
ACDBBLOCKREPETAG
1070
     1
1071
       30
1005
A43
  0
LINE
  5
A44
  8
0
 10
101.4999999999999
 20
-229.9999999999998
 30
0.0
 11
136.0
 21
-229.9999999999998
 31
0.0
1001
ACDBBLOCKREPETAG
1070
     1
1071
       31
1005
A44
  0
LINE
  5
A45
  8
0
 10
89.999999999999986
 20
-224.9999999999998
 30
0.0
 11
101.4999999999999
 21
-224.9999999999998
 31
0.0
1001
ACDBBLOCKREPETAG
1070
     1
1071
       32
1005
A45
  0
LINE
  5
A46
  8
0
 10
40.0
 20
-229.9999999999998
 30
0.0
 11
89.999999999999986
 21
-229.9999999999998
 31
0.0
1001
ACDBBLOCKREPETAG
1070
     1
1071
       33
1005
A46
  0
LINE
  5
A47
  8
0
 10
370.99999999999977
 20
-219.9999999999998
 30
0.0
 11
400.99999999999977
 21
-219.9999999999998
 31
0.0
1001
ACDBBLOCKREPETAG
1070
     1
1071
       34
1005
A47
  0
LINE
  5
A48
  8
0
 10
309.00000000000011
 20
-214.9999999999998
 30
0.0
 11
370.99999999999977
 21
-214.9999999999998
 31
0.0
1001
ACDBBLOCKREPETAG
1070
     1
1071
       35
1005
A48
  0
LINE
  5
A49
  8
0
 10
302.0
 20
-219.9999999999998
 30
0.0
 11
309.00000000000011
 21
-219.9999999999998
 31
0.0
1001
ACDBBLOCKREPETAG
1070
     1
1071
       36
1005
A49
  0
LINE
  5
A4A
  8
0
 10
268.00000000000011
 20
-214.9999999999998
 30
0.0
 11
288.00000000000011
 21
-214.9999999999998
 31
0.0
1001
ACDBBLOCKREPETAG
1070
     1
1071
       37
1005
A4A
  0
LINE
  5
A4B
  8
0
 10
150.9999999999998
 20
-219.9999999999998
 30
0.0
 11
288.00000000000011
 21
-219.9999999999998
 31
0.0
1001
ACDBBLOCKREPETAG
1070
     1
1071
       38
1005
A4B
  0
LINE
  5
A4C
  8
0
 10
101.4999999999999
 20
-219.9999999999998
 30
0.0
 11
136.0
 21
-219.9999999999998
 31
0.0
1001
ACDBBLOCKREPETAG
1070
     1
1071
       39
1005
A4C
  0
LINE
  5
A4D
  8
0
 10
89.999999999999986
 20
-214.9999999999998
 30
0.0
 11
101.4999999999999
 21
-214.9999999999998
 31
0.0
1001
ACDBBLOCKREPETAG
1070
     1
1071
       40
1005
A4D
  0
LINE
  5
A4E
  8
0
 10
40.0
 20
-219.9999999999998
 30
0.0
 11
89.999999999999986
 21
-219.9999999999998
 31
0.0
1001
ACDBBLOCKREPETAG
1070
     1
1071
       41
1005
A4E
  0
LINE
  5
A4F
  8
0
 10
370.99999999999977
 20
-209.9999999999998
 30
0.0
 11
400.99999999999977
 21
-209.9999999999998
 31
0.0
1001
ACDBBLOCKREPETAG
1070
     1
1071
       42
1005
A4F
  0
LINE
  5
A50
  8
0
 10
309.00000000000011
 20
-204.9999999999998
 30
0.0
 11
370.99999999999977
 21
-204.9999999999998
 31
0.0
1001
ACDBBLOCKREPETAG
1070
     1
1071
       43
1005
A50
  0
LINE
  5
A51
  8
0
 10
302.0
 20
-209.9999999999998
 30
0.0
 11
309.00000000000011
 21
-209.9999999999998
 31
0.0
1001
ACDBBLOCKREPETAG
1070
     1
1071
       44
1005
A51
  0
LINE
  5
A52
  8
0
 10
268.00000000000011
 20
-204.9999999999998
 30
0.0
 11
288.00000000000011
 21
-204.9999999999998
 31
0.0
1001
ACDBBLOCKREPETAG
1070
     1
1071
       45
1005
A52
  0
LINE
  5
A53
  8
0
 10
150.9999999999998
 20
-209.9999999999998
 30
0.0
 11
288.00000000000011
 21
-209.9999999999998
 31
0.0
1001
ACDBBLOCKREPETAG
1070
     1
1071
       46
1005
A53
  0
LINE
  5
A54
  8
0
 10
101.4999999999999
 20
-209.9999999999998
 30
0.0
 11
136.0
 21
-209.9999999999998
 31
0.0
1001
ACDBBLOCKREPETAG
1070
     1
1071
       47
1005
A54
  0
LINE
  5
A55
  8
0
 10
89.999999999999986
 20
-204.9999999999998
 30
0.0
 11
101.4999999999999
 21
-204.9999999999998
 31
0.0
1001
ACDBBLOCKREPETAG
1070
     1
1071
       48
1005
A55
  0
LINE
  5
A56
  8
0
 10
40.0
 20
-209.9999999999998
 30
0.0
 11
89.999999999999986
 21
-209.9999999999998
 31
0.0
1001
ACDBBLOCKREPETAG
1070
     1
1071
       49
1005
A56
  0
LINE
  5
A57
  8
0
 10
370.99999999999977
 20
-199.9999999999998
 30
0.0
 11
400.99999999999977
 21
-199.9999999999998
 31
0.0
1001
ACDBBLOCKREPETAG
1070
     1
1071
       50
1005
A57
  0
LINE
  5
A58
  8
0
 10
309.00000000000011
 20
-194.99999999999989
 30
0.0
 11
370.99999999999977
 21
-194.99999999999989
 31
0.0
1001
ACDBBLOCKREPETAG
1070
     1
1071
       51
1005
A58
  0
LINE
  5
A59
  8
0
 10
302.0
 20
-199.9999999999998
 30
0.0
 11
309.00000000000011
 21
-199.9999999999998
 31
0.0
1001
ACDBBLOCKREPETAG
1070
     1
1071
       52
1005
A59
  0
LINE
  5
A5A
  8
0
 10
268.00000000000011
 20
-194.99999999999989
 30
0.0
 11
288.00000000000011
 21
-194.99999999999989
 31
0.0
1001
ACDBBLOCKREPETAG
1070
     1
1071
       53
1005
A5A
  0
LINE
  5
A5B
  8
0
 10
150.9999999999998
 20
-199.9999999999998
 30
0.0
 11
288.00000000000011
 21
-199.9999999999998
 31
0.0
1001
ACDBBLOCKREPETAG
1070
     1
1071
       54
1005
A5B
  0
LINE
  5
A5C
  8
0
 10
101.4999999999999
 20
-199.9999999999998
 30
0.0
 11
136.0
 21
-199.9999999999998
 31
0.0
1001
ACDBBLOCKREPETAG
1070
     1
1071
       55
1005
A5C
  0
LINE
  5
A5D
  8
0
 10
89.999999999999986
 20
-194.99999999999989
 30
0.0
 11
101.4999999999999
 21
-194.99999999999989
 31
0.0
1001
ACDBBLOCKREPETAG
1070
     1
1071
       56
1005
A5D
  0
LINE
  5
A5E
  8
0
 10
40.0
 20
-199.9999999999998
 30
0.0
 11
89.999999999999986
 21
-199.9999999999998
 31
0.0
1001
ACDBBLOCKREPETAG
1070
     1
1071
       57
1005
A5E
  0
LINE
  5
A5F
  8
0
 10
370.99999999999977
 20
-189.9999999999998
 30
0.0
 11
400.99999999999977
 21
-189.9999999999998
 31
0.0
1001
ACDBBLOCKREPETAG
1070
     1
1071
       58
1005
A5F
  0
LINE
  5
A60
  8
0
 10
309.00000000000011
 20
-184.99999999999989
 30
0.0
 11
370.99999999999977
 21
-184.99999999999989
 31
0.0
1001
ACDBBLOCKREPETAG
1070
     1
1071
       59
1005
A60
  0
LINE
  5
A61
  8
0
 10
302.0
 20
-189.9999999999998
 30
0.0
 11
309.00000000000011
 21
-189.9999999999998
 31
0.0
1001
ACDBBLOCKREPETAG
1070
     1
1071
       60
1005
A61
  0
LINE
  5
A62
  8
0
 10
268.00000000000011
 20
-184.99999999999989
 30
0.0
 11
288.00000000000011
 21
-184.99999999999989
 31
0.0
1001
ACDBBLOCKREPETAG
1070
     1
1071
       61
1005
A62
  0
LINE
  5
A63
  8
0
 10
150.9999999999998
 20
-189.9999999999998
 30
0.0
 11
288.00000000000011
 21
-189.9999999999998
 31
0.0
1001
ACDBBLOCKREPETAG
1070
     1
1071
       62
1005
A63
  0
LINE
  5
A64
  8
0
 10
101.4999999999999
 20
-189.9999999999998
 30
0.0
 11
136.0
 21
-189.9999999999998
 31
0.0
1001
ACDBBLOCKREPETAG
1070
     1
1071
       63
1005
A64
  0
LINE
  5
A65
  8
0
 10
89.999999999999986
 20
-184.99999999999989
 30
0.0
 11
101.4999999999999
 21
-184.99999999999989
 31
0.0
1001
ACDBBLOCKREPETAG
1070
     1
1071
       64
1005
A65
  0
LINE
  5
A66
  8
0
 10
40.0
 20
-189.9999999999998
 30
0.0
 11
89.999999999999986
 21
-189.9999999999998
 31
0.0
1001
ACDBBLOCKREPETAG
1070
     1
1071
       65
1005
A66
  0
LINE
  5
A67
  8
0
 10
370.99999999999977
 20
-179.99999999999989
 30
0.0
 11
400.99999999999977
 21
-179.99999999999989
 31
0.0
1001
ACDBBLOCKREPETAG
1070
     1
1071
       66
1005
A67
  0
LINE
  5
A68
  8
0
 10
309.00000000000011
 20
-174.99999999999989
 30
0.0
 11
370.99999999999977
 21
-174.99999999999989
 31
0.0
1001
ACDBBLOCKREPETAG
1070
     1
1071
       67
1005
A68
  0
LINE
  5
A69
  8
0
 10
302.0
 20
-179.99999999999989
 30
0.0
 11
309.00000000000011
 21
-179.99999999999989
 31
0.0
1001
ACDBBLOCKREPETAG
1070
     1
1071
       68
1005
A69
  0
LINE
  5
A6A
  8
0
 10
268.00000000000011
 20
-174.99999999999989
 30
0.0
 11
288.00000000000011
 21
-174.99999999999989
 31
0.0
1001
ACDBBLOCKREPETAG
1070
     1
1071
       69
1005
A6A
  0
LINE
  5
A6B
  8
0
 10
150.9999999999998
 20
-179.99999999999989
 30
0.0
 11
288.00000000000011
 21
-179.99999999999989
 31
0.0
1001
ACDBBLOCKREPETAG
1070
     1
1071
       70
1005
A6B
  0
LINE
  5
A6C
  8
0
 10
101.4999999999999
 20
-179.99999999999989
 30
0.0
 11
136.0
 21
-179.99999999999989
 31
0.0
1001
ACDBBLOCKREPETAG
1070
     1
1071
       71
1005
A6C
  0
LINE
  5
A6D
  8
0
 10
89.999999999999986
 20
-174.99999999999989
 30
0.0
 11
101.4999999999999
 21
-174.99999999999989
 31
0.0
1001
ACDBBLOCKREPETAG
1070
     1
1071
       72
1005
A6D
  0
LINE
  5
A6E
  8
0
 10
40.0
 20
-179.99999999999989
 30
0.0
 11
89.999999999999986
 21
-179.99999999999989
 31
0.0
1001
ACDBBLOCKREPETAG
1070
     1
1071
       73
1005
A6E
  0
LINE
  5
A6F
  8
0
 10
370.99999999999977
 20
-169.9999999999998
 30
0.0
 11
400.99999999999977
 21
-169.9999999999998
 31
0.0
1001
ACDBBLOCKREPETAG
1070
     1
1071
       74
1005
A6F
  0
LINE
  5
A70
  8
0
 10
309.00000000000011
 20
-164.9999999999998
 30
0.0
 11
370.99999999999977
 21
-164.9999999999998
 31
0.0
1001
ACDBBLOCKREPETAG
1070
     1
1071
       75
1005
A70
  0
LINE
  5
A71
  8
0
 10
302.0
 20
-169.9999999999998
 30
0.0
 11
309.00000000000011
 21
-169.9999999999998
 31
0.0
1001
ACDBBLOCKREPETAG
1070
     1
1071
       76
1005
A71
  0
LINE
  5
A72
  8
0
 10
268.00000000000011
 20
-164.9999999999998
 30
0.0
 11
288.00000000000011
 21
-164.9999999999998
 31
0.0
1001
ACDBBLOCKREPETAG
1070
     1
1071
       77
1005
A72
  0
LINE
  5
A73
  8
0
 10
150.9999999999998
 20
-169.9999999999998
 30
0.0
 11
288.00000000000011
 21
-169.9999999999998
 31
0.0
1001
ACDBBLOCKREPETAG
1070
     1
1071
       78
1005
A73
  0
LINE
  5
A74
  8
0
 10
101.4999999999999
 20
-169.9999999999998
 30
0.0
 11
136.0
 21
-169.9999999999998
 31
0.0
1001
ACDBBLOCKREPETAG
1070
     1
1071
       79
1005
A74
  0
LINE
  5
A75
  8
0
 10
89.999999999999986
 20
-164.9999999999998
 30
0.0
 11
101.4999999999999
 21
-164.9999999999998
 31
0.0
1001
ACDBBLOCKREPETAG
1070
     1
1071
       80
1005
A75
  0
LINE
  5
A76
  8
0
 10
40.0
 20
-169.9999999999998
 30
0.0
 11
89.999999999999986
 21
-169.9999999999998
 31
0.0
1001
ACDBBLOCKREPETAG
1070
     1
1071
       81
1005
A76
  0
LINE
  5
A77
  8
0
 10
370.99999999999977
 20
-159.9999999999998
 30
0.0
 11
400.99999999999977
 21
-159.9999999999998
 31
0.0
1001
ACDBBLOCKREPETAG
1070
     1
1071
       82
1005
A77
  0
LINE
  5
A78
  8
0
 10
309.00000000000011
 20
-154.9999999999998
 30
0.0
 11
370.99999999999977
 21
-154.9999999999998
 31
0.0
1001
ACDBBLOCKREPETAG
1070
     1
1071
       83
1005
A78
  0
LINE
  5
A79
  8
0
 10
302.0
 20
-159.9999999999998
 30
0.0
 11
309.00000000000011
 21
-159.9999999999998
 31
0.0
1001
ACDBBLOCKREPETAG
1070
     1
1071
       84
1005
A79
  0
LINE
  5
A7A
  8
0
 10
268.00000000000011
 20
-154.9999999999998
 30
0.0
 11
288.00000000000011
 21
-154.9999999999998
 31
0.0
1001
ACDBBLOCKREPETAG
1070
     1
1071
       85
1005
A7A
  0
LINE
  5
A7B
  8
0
 10
150.9999999999998
 20
-159.9999999999998
 30
0.0
 11
288.00000000000011
 21
-159.9999999999998
 31
0.0
1001
ACDBBLOCKREPETAG
1070
     1
1071
       86
1005
A7B
  0
LINE
  5
A7C
  8
0
 10
101.4999999999999
 20
-159.9999999999998
 30
0.0
 11
136.0
 21
-159.9999999999998
 31
0.0
1001
ACDBBLOCKREPETAG
1070
     1
1071
       87
1005
A7C
  0
LINE
  5
A7D
  8
0
 10
89.999999999999986
 20
-154.9999999999998
 30
0.0
 11
101.4999999999999
 21
-154.9999999999998
 31
0.0
1001
ACDBBLOCKREPETAG
1070
     1
1071
       88
1005
A7D
  0
LINE
  5
A7E
  8
0
 10
40.0
 20
-159.9999999999998
 30
0.0
 11
89.999999999999986
 21
-159.9999999999998
 31
0.0
1001
ACDBBLOCKREPETAG
1070
     1
1071
       89
1005
A7E
  0
LINE
  5
A7F
  8
0
 10
370.99999999999977
 20
-149.9999999999998
 30
0.0
 11
400.99999999999977
 21
-149.9999999999998
 31
0.0
1001
ACDBBLOCKREPETAG
1070
     1
1071
       90
1005
A7F
  0
LINE
  5
A80
  8
0
 10
309.00000000000011
 20
-144.9999999999998
 30
0.0
 11
370.99999999999977
 21
-144.9999999999998
 31
0.0
1001
ACDBBLOCKREPETAG
1070
     1
1071
       91
1005
A80
  0
LINE
  5
A81
  8
0
 10
302.0
 20
-149.9999999999998
 30
0.0
 11
309.00000000000011
 21
-149.9999999999998
 31
0.0
1001
ACDBBLOCKREPETAG
1070
     1
1071
       92
1005
A81
  0
LINE
  5
A82
  8
0
 10
150.9999999999998
 20
-149.9999999999998
 30
0.0
 11
288.00000000000011
 21
-149.9999999999998
 31
0.0
1001
ACDBBLOCKREPETAG
1070
     1
1071
       93
1005
A82
  0
LINE
  5
A83
  8
0
 10
101.4999999999999
 20
-149.9999999999998
 30
0.0
 11
136.0
 21
-149.9999999999998
 31
0.0
1001
ACDBBLOCKREPETAG
1070
     1
1071
       94
1005
A83
  0
LINE
  5
A84
  8
0
 10
89.999999999999986
 20
-144.9999999999998
 30
0.0
 11
101.4999999999999
 21
-144.9999999999998
 31
0.0
1001
ACDBBLOCKREPETAG
1070
     1
1071
       95
1005
A84
  0
LINE
  5
A85
  8
0
 10
40.0
 20
-149.9999999999998
 30
0.0
 11
89.999999999999986
 21
-149.9999999999998
 31
0.0
1001
ACDBBLOCKREPETAG
1070
     1
1071
       96
1005
A85
  0
LINE
  5
A86
  8
0
 10
370.99999999999977
 20
-139.9999999999998
 30
0.0
 11
400.99999999999977
 21
-139.9999999999998
 31
0.0
1001
ACDBBLOCKREPETAG
1070
     1
1071
       97
1005
A86
  0
LINE
  5
A87
  8
0
 10
309.00000000000011
 20
-134.9999999999998
 30
0.0
 11
370.99999999999977
 21
-134.9999999999998
 31
0.0
1001
ACDBBLOCKREPETAG
1070
     1
1071
       98
1005
A87
  0
LINE
  5
A88
  8
0
 10
302.0
 20
-139.9999999999998
 30
0.0
 11
309.00000000000011
 21
-139.9999999999998
 31
0.0
1001
ACDBBLOCKREPETAG
1070
     1
1071
       99
1005
A88
  0
LINE
  5
A89
  8
0
 10
150.9999999999998
 20
-139.9999999999998
 30
0.0
 11
288.00000000000011
 21
-139.9999999999998
 31
0.0
1001
ACDBBLOCKREPETAG
1070
     1
1071
      100
1005
A89
  0
LINE
  5
A8A
  8
0
 10
101.4999999999999
 20
-139.9999999999998
 30
0.0
 11
136.0
 21
-139.9999999999998
 31
0.0
1001
ACDBBLOCKREPETAG
1070
     1
1071
      101
1005
A8A
  0
LINE
  5
A8B
  8
0
 10
89.999999999999986
 20
-134.9999999999998
 30
0.0
 11
101.4999999999999
 21
-134.9999999999998
 31
0.0
1001
ACDBBLOCKREPETAG
1070
     1
1071
      102
1005
A8B
  0
LINE
  5
A8C
  8
0
 10
40.0
 20
-139.9999999999998
 30
0.0
 11
89.999999999999986
 21
-139.9999999999998
 31
0.0
1001
ACDBBLOCKREPETAG
1070
     1
1071
      103
1005
A8C
  0
LINE
  5
A8D
  8
0
 10
370.99999999999977
 20
-129.9999999999998
 30
0.0
 11
400.99999999999977
 21
-129.9999999999998
 31
0.0
1001
ACDBBLOCKREPETAG
1070
     1
1071
      104
1005
A8D
  0
LINE
  5
A8E
  8
0
 10
309.00000000000011
 20
-124.9999999999998
 30
0.0
 11
370.99999999999977
 21
-124.9999999999998
 31
0.0
1001
ACDBBLOCKREPETAG
1070
     1
1071
      105
1005
A8E
  0
LINE
  5
A8F
  8
0
 10
302.0
 20
-129.9999999999998
 30
0.0
 11
309.00000000000011
 21
-129.9999999999998
 31
0.0
1001
ACDBBLOCKREPETAG
1070
     1
1071
      106
1005
A8F
  0
LINE
  5
A90
  8
0
 10
150.9999999999998
 20
-129.9999999999998
 30
0.0
 11
288.00000000000011
 21
-129.9999999999998
 31
0.0
1001
ACDBBLOCKREPETAG
1070
     1
1071
      107
1005
A90
  0
LINE
  5
A91
  8
0
 10
101.4999999999999
 20
-129.9999999999998
 30
0.0
 11
136.0
 21
-129.9999999999998
 31
0.0
1001
ACDBBLOCKREPETAG
1070
     1
1071
      108
1005
A91
  0
LINE
  5
A92
  8
0
 10
89.999999999999986
 20
-124.9999999999998
 30
0.0
 11
101.4999999999999
 21
-124.9999999999998
 31
0.0
1001
ACDBBLOCKREPETAG
1070
     1
1071
      109
1005
A92
  0
LINE
  5
A93
  8
0
 10
40.0
 20
-129.9999999999998
 30
0.0
 11
89.999999999999986
 21
-129.9999999999998
 31
0.0
1001
ACDBBLOCKREPETAG
1070
     1
1071
      110
1005
A93
  0
LINE
  5
A94
  8
0
 10
370.99999999999977
 20
-119.9999999999997
 30
0.0
 11
400.99999999999977
 21
-119.9999999999997
 31
0.0
1001
ACDBBLOCKREPETAG
1070
     1
1071
      111
1005
A94
  0
LINE
  5
A95
  8
0
 10
309.00000000000011
 20
-114.9999999999999
 30
0.0
 11
370.99999999999977
 21
-114.9999999999999
 31
0.0
1001
ACDBBLOCKREPETAG
1070
     1
1071
      112
1005
A95
  0
LINE
  5
A96
  8
0
 10
302.0
 20
-119.9999999999997
 30
0.0
 11
309.00000000000011
 21
-119.9999999999997
 31
0.0
1001
ACDBBLOCKREPETAG
1070
     1
1071
      113
1005
A96
  0
LINE
  5
A97
  8
0
 10
150.9999999999998
 20
-119.9999999999997
 30
0.0
 11
288.00000000000011
 21
-119.9999999999997
 31
0.0
1001
ACDBBLOCKREPETAG
1070
     1
1071
      114
1005
A97
  0
LINE
  5
A98
  8
0
 10
101.4999999999999
 20
-119.9999999999997
 30
0.0
 11
136.0
 21
-119.9999999999997
 31
0.0
1001
ACDBBLOCKREPETAG
1070
     1
1071
      115
1005
A98
  0
LINE
  5
A99
  8
0
 10
89.999999999999986
 20
-114.9999999999999
 30
0.0
 11
101.4999999999999
 21
-114.9999999999999
 31
0.0
1001
ACDBBLOCKREPETAG
1070
     1
1071
      116
1005
A99
  0
LINE
  5
A9A
  8
0
 10
40.0
 20
-119.9999999999997
 30
0.0
 11
89.999999999999986
 21
-119.9999999999997
 31
0.0
1001
ACDBBLOCKREPETAG
1070
     1
1071
      117
1005
A9A
  0
LINE
  5
A9B
  8
0
 10
370.99999999999977
 20
-109.9999999999999
 30
0.0
 11
400.99999999999977
 21
-109.9999999999999
 31
0.0
1001
ACDBBLOCKREPETAG
1070
     1
1071
      118
1005
A9B
  0
LINE
  5
A9C
  8
0
 10
309.00000000000011
 20
-105.0
 30
0.0
 11
370.99999999999977
 21
-105.0
 31
0.0
1001
ACDBBLOCKREPETAG
1070
     1
1071
      119
1005
A9C
  0
LINE
  5
A9D
  8
0
 10
302.0
 20
-109.9999999999999
 30
0.0
 11
309.00000000000011
 21
-109.9999999999999
 31
0.0
1001
ACDBBLOCKREPETAG
1070
     1
1071
      120
1005
A9D
  0
LINE
  5
A9E
  8
0
 10
150.9999999999998
 20
-109.9999999999999
 30
0.0
 11
288.00000000000011
 21
-109.9999999999999
 31
0.0
1001
ACDBBLOCKREPETAG
1070
     1
1071
      121
1005
A9E
  0
LINE
  5
A9F
  8
0
 10
101.4999999999999
 20
-109.9999999999999
 30
0.0
 11
136.0
 21
-109.9999999999999
 31
0.0
1001
ACDBBLOCKREPETAG
1070
     1
1071
      122
1005
A9F
  0
LINE
  5
AA0
  8
0
 10
89.999999999999986
 20
-105.0
 30
0.0
 11
101.4999999999999
 21
-105.0
 31
0.0
1001
ACDBBLOCKREPETAG
1070
     1
1071
      123
1005
AA0
  0
LINE
  5
AA1
  8
0
 10
40.0
 20
-109.9999999999999
 30
0.0
 11
89.999999999999986
 21
-109.9999999999999
 31
0.0
1001
ACDBBLOCKREPETAG
1070
     1
1071
      124
1005
AA1
  0
LINE
  5
AA2
  8
0
 10
370.99999999999977
 20
-100.0
 30
0.0
 11
400.99999999999977
 21
-100.0
 31
0.0
1001
ACDBBLOCKREPETAG
1070
     1
1071
      125
1005
AA2
  0
LINE
  5
AA3
  8
0
 10
309.00000000000011
 20
-94.999999999999787
 30
0.0
 11
370.99999999999977
 21
-94.999999999999787
 31
0.0
1001
ACDBBLOCKREPETAG
1070
     1
1071
      126
1005
AA3
  0
LINE
  5
AA4
  8
0
 10
302.0
 20
-100.0
 30
0.0
 11
309.00000000000011
 21
-100.0
 31
0.0
1001
ACDBBLOCKREPETAG
1070
     1
1071
      127
1005
AA4
  0
LINE
  5
AA5
  8
0
 10
150.9999999999998
 20
-100.0
 30
0.0
 11
288.00000000000011
 21
-100.0
 31
0.0
1001
ACDBBLOCKREPETAG
1070
     1
1071
      128
1005
AA5
  0
LINE
  5
AA6
  8
0
 10
101.4999999999999
 20
-100.0
 30
0.0
 11
136.0
 21
-100.0
 31
0.0
1001
ACDBBLOCKREPETAG
1070
     1
1071
      129
1005
AA6
  0
LINE
  5
AA7
  8
0
 10
89.999999999999986
 20
-94.999999999999787
 30
0.0
 11
101.4999999999999
 21
-94.999999999999787
 31
0.0
1001
ACDBBLOCKREPETAG
1070
     1
1071
      130
1005
AA7
  0
LINE
  5
AA8
  8
0
 10
40.0
 20
-100.0
 30
0.0
 11
89.999999999999986
 21
-100.0
 31
0.0
1001
ACDBBLOCKREPETAG
1070
     1
1071
      131
1005
AA8
  0
LINE
  5
AA9
  8
0
 10
370.99999999999977
 20
-89.999999999999872
 30
0.0
 11
400.99999999999977
 21
-89.999999999999872
 31
0.0
1001
ACDBBLOCKREPETAG
1070
     1
1071
      132
1005
AA9
  0
LINE
  5
AAA
  8
0
 10
309.00000000000011
 20
-84.999999999999872
 30
0.0
 11
370.99999999999977
 21
-84.999999999999872
 31
0.0
1001
ACDBBLOCKREPETAG
1070
     1
1071
      133
1005
AAA
  0
LINE
  5
AAB
  8
0
 10
302.0
 20
-89.999999999999872
 30
0.0
 11
309.00000000000011
 21
-89.999999999999872
 31
0.0
1001
ACDBBLOCKREPETAG
1070
     1
1071
      134
1005
AAB
  0
LINE
  5
AAC
  8
0
 10
150.9999999999998
 20
-89.999999999999872
 30
0.0
 11
288.00000000000011
 21
-89.999999999999872
 31
0.0
1001
ACDBBLOCKREPETAG
1070
     1
1071
      135
1005
AAC
  0
LINE
  5
AAD
  8
0
 10
101.4999999999999
 20
-89.999999999999872
 30
0.0
 11
136.0
 21
-89.999999999999872
 31
0.0
1001
ACDBBLOCKREPETAG
1070
     1
1071
      136
1005
AAD
  0
LINE
  5
AAE
  8
0
 10
89.999999999999986
 20
-84.999999999999872
 30
0.0
 11
101.4999999999999
 21
-84.999999999999872
 31
0.0
1001
ACDBBLOCKREPETAG
1070
     1
1071
      137
1005
AAE
  0
LINE
  5
AAF
  8
0
 10
40.0
 20
-89.999999999999872
 30
0.0
 11
89.999999999999986
 21
-89.999999999999872
 31
0.0
1001
ACDBBLOCKREPETAG
1070
     1
1071
      138
1005
AAF
  0
LINE
  5
AB0
  8
0
 10
370.99999999999977
 20
-79.999999999999872
 30
0.0
 11
400.99999999999977
 21
-79.999999999999872
 31
0.0
1001
ACDBBLOCKREPETAG
1070
     1
1071
      139
1005
AB0
  0
LINE
  5
AB1
  8
0
 10
309.00000000000011
 20
-74.999999999999972
 30
0.0
 11
370.99999999999977
 21
-74.999999999999972
 31
0.0
1001
ACDBBLOCKREPETAG
1070
     1
1071
      140
1005
AB1
  0
LINE
  5
AB2
  8
0
 10
302.0
 20
-79.999999999999872
 30
0.0
 11
309.00000000000011
 21
-79.999999999999872
 31
0.0
1001
ACDBBLOCKREPETAG
1070
     1
1071
      141
1005
AB2
  0
LINE
  5
AB3
  8
0
 10
150.9999999999998
 20
-79.999999999999872
 30
0.0
 11
288.00000000000011
 21
-79.999999999999872
 31
0.0
1001
ACDBBLOCKREPETAG
1070
     1
1071
      142
1005
AB3
  0
LINE
  5
AB4
  8
0
 10
101.4999999999999
 20
-79.999999999999872
 30
0.0
 11
136.0
 21
-79.999999999999872
 31
0.0
1001
ACDBBLOCKREPETAG
1070
     1
1071
      143
1005
AB4
  0
LINE
  5
AB5
  8
0
 10
89.999999999999986
 20
-74.999999999999972
 30
0.0
 11
101.4999999999999
 21
-74.999999999999972
 31
0.0
1001
ACDBBLOCKREPETAG
1070
     1
1071
      144
1005
AB5
  0
LINE
  5
AB6
  8
0
 10
40.0
 20
-79.999999999999872
 30
0.0
 11
89.999999999999986
 21
-79.999999999999872
 31
0.0
1001
ACDBBLOCKREPETAG
1070
     1
1071
      145
1005
AB6
  0
LINE
  5
AB7
  8
0
 10
370.99999999999977
 20
-69.999999999999801
 30
0.0
 11
400.99999999999977
 21
-69.999999999999801
 31
0.0
1001
ACDBBLOCKREPETAG
1070
     1
1071
      146
1005
AB7
  0
LINE
  5
AB8
  8
0
 10
309.00000000000011
 20
-64.999999999999915
 30
0.0
 11
370.99999999999977
 21
-64.999999999999915
 31
0.0
1001
ACDBBLOCKREPETAG
1070
     1
1071
      147
1005
AB8
  0
LINE
  5
AB9
  8
0
 10
302.0
 20
-69.999999999999801
 30
0.0
 11
309.00000000000011
 21
-69.999999999999801
 31
0.0
1001
ACDBBLOCKREPETAG
1070
     1
1071
      148
1005
AB9
  0
LINE
  5
ABA
  8
0
 10
150.9999999999998
 20
-69.999999999999801
 30
0.0
 11
288.00000000000011
 21
-69.999999999999801
 31
0.0
1001
ACDBBLOCKREPETAG
1070
     1
1071
      149
1005
ABA
  0
LINE
  5
ABB
  8
0
 10
101.4999999999999
 20
-69.999999999999801
 30
0.0
 11
136.0
 21
-69.999999999999801
 31
0.0
1001
ACDBBLOCKREPETAG
1070
     1
1071
      150
1005
ABB
  0
LINE
  5
ABC
  8
0
 10
89.999999999999986
 20
-64.999999999999915
 30
0.0
 11
101.4999999999999
 21
-64.999999999999915
 31
0.0
1001
ACDBBLOCKREPETAG
1070
     1
1071
      151
1005
ABC
  0
LINE
  5
ABD
  8
0
 10
40.0
 20
-69.999999999999801
 30
0.0
 11
89.999999999999986
 21
-69.999999999999801
 31
0.0
1001
ACDBBLOCKREPETAG
1070
     1
1071
      152
1005
ABD
  0
TEXT
  5
ABE
  8
0
 10
28.0
 20
-272.99999999999972
 30
0.0
 40
2.5
  1
说明:
  7
TLCAD
 11
28.0
 21
-272.99999999999972
 31
0.0
 73
     1
1001
ACDBBLOCKREPETAG
1070
     1
1071
      153
1005
ABE
  0
LINE
  5
ABF
  8
0
 10
398.0
 20
-24.99999999999989
 30
0.0
 11
414.99999999999949
 21
-24.99999999999989
 31
0.0
1001
ACDBBLOCKREPETAG
1070
     1
1071
      154
1005
ABF
  0
TEXT
  5
AC0
  8
0
 10
390.0
 20
-24.99999999999989
 30
0.0
 40
2.5
  1
页次
  7
TLCAD
 11
390.0
 21
-24.99999999999989
 31
0.0
 73
     1
1001
ACDBBLOCKREPETAG
1070
     1
1071
      155
1005
AC0
  0
TEXT
  5
AC1
  8
0
 10
325.0
 20
-36.999999999999773
 30
0.0
 40
1.875
  1
交叉跨越名称及次数
  7
TLCAD
 11
325.0
 21
-36.999999999999773
 31
0.0
 73
     1
1001
ACDBBLOCKREPETAG
1070
     1
1071
      156
1005
AC1
  0
TEXT
  5
AC2
  8
0
 10
403.49999999999972
 20
-52.499999999999922
 30
0.0
 40
3.125
  1
地名
  7
TLCAD
 11
403.49999999999972
 21
-52.499999999999922
 31
0.0
 73
     1
1001
ACDBBLOCKREPETAG
1070
     1
1071
      157
1005
AC2
  0
TEXT
  5
AC3
  8
0
 10
403.49999999999972
 20
-42.499999999999922
 30
0.0
 40
3.125
  1
经过
  7
TLCAD
 11
403.49999999999972
 21
-42.499999999999922
 31
0.0
 73
     1
1001
ACDBBLOCKREPETAG
1070
     1
1071
      158
1005
AC3
  0
TEXT
  5
AC4
  8
0
 10
379.99999999999977
 20
-56.999999999999922
 30
0.0
 40
2.5
  1
备   注
  7
TLCAD
 11
379.99999999999977
 21
-56.999999999999922
 31
0.0
 73
     1
1001
ACDBBLOCKREPETAG
1070
     1
1071
      159
1005
AC4
  0
TEXT
  5
AC5
  8
0
 10
366.0
 20
-56.999999999999922
 30
0.0
 40
1.875
  1
他
  7
TLCAD
 11
366.0
 21
-56.999999999999922
 31
0.0
 73
     1
1001
ACDBBLOCKREPETAG
1070
     1
1071
      160
1005
AC5
  0
TEXT
  5
AC6
  8
0
 10
366.0
 20
-42.999999999999801
 30
0.0
 40
1.875
  1
其
  7
TLCAD
 11
366.0
 21
-42.999999999999801
 31
0.0
 73
     1
1001
ACDBBLOCKREPETAG
1070
     1
1071
      161
1005
AC6
  0
TEXT
  5
AC7
  8
0
 10
359.00000000000023
 20
-56.999999999999922
 30
0.0
 40
1.875
  1
流
  7
TLCAD
 11
359.00000000000023
 21
-56.999999999999922
 31
0.0
 73
     1
1001
ACDBBLOCKREPETAG
1070
     1
1071
      162
1005
AC7
  0
TEXT
  5
AC8
  8
0
 10
359.00000000000023
 20
-42.999999999999801
 30
0.0
 40
1.875
  1
河
  7
TLCAD
 11
359.00000000000023
 21
-42.999999999999801
 31
0.0
 73
     1
1001
ACDBBLOCKREPETAG
1070
     1
1071
      163
1005
AC8
  0
TEXT
  5
AC9
  8
0
 10
352.0
 20
-56.999999999999922
 30
0.0
 40
1.875
  1
路
  7
TLCAD
 11
352.0
 21
-56.999999999999922
 31
0.0
 73
     1
1001
ACDBBLOCKREPETAG
1070
     1
1071
      164
1005
AC9
  0
TEXT
  5
ACA
  8
0
 10
352.0
 20
-42.999999999999801
 30
0.0
 40
1.875
  1
铁
  7
TLCAD
 11
352.0
 21
-42.999999999999801
 31
0.0
 73
     1
1001
ACDBBLOCKREPETAG
1070
     1
1071
      165
1005
ACA
  0
TEXT
  5
ACB
  8
0
 10
345.00000000000023
 20
-56.999999999999922
 30
0.0
 40
1.875
  1
路
  7
TLCAD
 11
345.00000000000023
 21
-56.999999999999922
 31
0.0
 73
     1
1001
ACDBBLOCKREPETAG
1070
     1
1071
      166
1005
ACB
  0
TEXT
  5
ACC
  8
0
 10
345.00000000000023
 20
-42.999999999999801
 30
0.0
 40
1.875
  1
公
  7
TLCAD
 11
345.00000000000023
 21
-42.999999999999801
 31
0.0
 73
     1
1001
ACDBBLOCKREPETAG
1070
     1
1071
      167
1005
ACC
  0
TEXT
  5
ACD
  8
0
 10
338.00000000000011
 20
-56.999999999999922
 30
0.0
 40
1.875
  1
屋
  7
TLCAD
 11
338.00000000000011
 21
-56.999999999999922
 31
0.0
 73
     1
1001
ACDBBLOCKREPETAG
1070
     1
1071
      168
1005
ACD
  0
TEXT
  5
ACE
  8
0
 10
338.00000000000011
 20
-42.999999999999801
 30
0.0
 40
1.875
  1
房
  7
TLCAD
 11
338.00000000000011
 21
-42.999999999999801
 31
0.0
 73
     1
1001
ACDBBLOCKREPETAG
1070
     1
1071
      169
1005
ACE
  0
TEXT
  5
ACF
  8
0
 10
331.0
 20
-56.999999999999922
 30
0.0
 40
1.875
  1
线
  7
TLCAD
 11
331.0
 21
-56.999999999999922
 31
0.0
 73
     1
1001
ACDBBLOCKREPETAG
1070
     1
1071
      170
1005
ACF
  0
TEXT
  5
AD0
  8
0
 10
331.0
 20
-49.999999999999972
 30
0.0
 40
1.875
  1
播
  7
TLCAD
 11
331.0
 21
-49.999999999999972
 31
0.0
 73
     1
1001
ACDBBLOCKREPETAG
1070
     1
1071
      171
1005
AD0
  0
TEXT
  5
AD1
  8
0
 10
331.0
 20
-42.999999999999801
 30
0.0
 40
1.875
  1
广
  7
TLCAD
 11
331.0
 21
-42.999999999999801
 31
0.0
 73
     1
1001
ACDBBLOCKREPETAG
1070
     1
1071
      172
1005
AD1
  0
TEXT
  5
AD2
  8
0
 10
324.00000000000011
 20
-56.999999999999922
 30
0.0
 40
1.875
  1
线
  7
TLCAD
 11
324.00000000000011
 21
-56.999999999999922
 31
0.0
 73
     1
1001
ACDBBLOCKREPETAG
1070
     1
1071
      173
1005
AD2
  0
TEXT
  5
AD3
  8
0
 10
324.00000000000011
 20
-49.999999999999972
 30
0.0
 40
1.875
  1
信
  7
TLCAD
 11
324.00000000000011
 21
-49.999999999999972
 31
0.0
 73
     1
1001
ACDBBLOCKREPETAG
1070
     1
1071
      174
1005
AD3
  0
TEXT
  5
AD4
  8
0
 10
324.00000000000011
 20
-42.999999999999801
 30
0.0
 40
1.875
  1
通
  7
TLCAD
 11
324.00000000000011
 21
-42.999999999999801
 31
0.0
 73
     1
1001
ACDBBLOCKREPETAG
1070
     1
1071
      175
1005
AD4
  0
TEXT
  5
AD5
  8
0
 10
317.00000000000011
 20
-56.999999999999922
 30
0.0
 40
1.875
  1
线
  7
TLCAD
 11
317.00000000000011
 21
-56.999999999999922
 31
0.0
 73
     1
1001
ACDBBLOCKREPETAG
1070
     1
1071
      176
1005
AD5
  0
TEXT
  5
AD6
  8
0
 10
317.00000000000011
 20
-49.999999999999972
 30
0.0
 40
1.875
  1
压
  7
TLCAD
 11
317.00000000000011
 21
-49.999999999999972
 31
0.0
 73
     1
1001
ACDBBLOCKREPETAG
1070
     1
1071
      177
1005
AD6
  0
TEXT
  5
AD7
  8
0
 10
317.00000000000011
 20
-42.999999999999801
 30
0.0
 40
1.875
  1
低
  7
TLCAD
 11
317.00000000000011
 21
-42.999999999999801
 31
0.0
 73
     1
1001
ACDBBLOCKREPETAG
1070
     1
1071
      178
1005
AD7
  0
TEXT
  5
AD8
  8
0
 10
310.5
 20
-56.999999999999922
 30
0.0
 40
1.875
  1
线
  7
TLCAD
 11
310.5
 21
-56.999999999999922
 31
0.0
 73
     1
1001
ACDBBLOCKREPETAG
1070
     1
1071
      179
1005
AD8
  0
TEXT
  5
AD9
  8
0
 10
310.5
 20
-49.999999999999972
 30
0.0
 40
1.875
  1
力
  7
TLCAD
 11
310.5
 21
-49.999999999999972
 31
0.0
 73
     1
1001
ACDBBLOCKREPETAG
1070
     1
1071
      180
1005
AD9
  0
TEXT
  5
ADA
  8
0
 10
310.5
 20
-42.999999999999801
 30
0.0
 40
1.875
  1
电
  7
TLCAD
 11
310.5
 21
-42.999999999999801
 31
0.0
 73
     1
1001
ACDBBLOCKREPETAG
1070
     1
1071
      181
1005
ADA
  0
LINE
  5
ADB
  8
0
 10
364.0
 20
-38.999999999999773
 30
0.0
 11
364.0
 21
-259.99999999999972
 31
0.0
1001
ACDBBLOCKREPETAG
1070
     1
1071
      182
1005
ADB
  0
LINE
  5
ADC
  8
0
 10
357.00000000000023
 20
-38.999999999999773
 30
0.0
 11
357.00000000000023
 21
-259.99999999999972
 31
0.0
1001
ACDBBLOCKREPETAG
1070
     1
1071
      183
1005
ADC
  0
LINE
  5
ADD
  8
0
 10
350.0
 20
-38.999999999999773
 30
0.0
 11
350.0
 21
-259.99999999999972
 31
0.0
1001
ACDBBLOCKREPETAG
1070
     1
1071
      184
1005
ADD
  0
LINE
  5
ADE
  8
0
 10
343.00000000000011
 20
-38.999999999999773
 30
0.0
 11
343.00000000000011
 21
-259.99999999999972
 31
0.0
1001
ACDBBLOCKREPETAG
1070
     1
1071
      185
1005
ADE
  0
LINE
  5
ADF
  8
0
 10
336.00000000000011
 20
-38.999999999999773
 30
0.0
 11
336.00000000000011
 21
-259.99999999999972
 31
0.0
1001
ACDBBLOCKREPETAG
1070
     1
1071
      186
1005
ADF
  0
LINE
  5
AE0
  8
0
 10
329.0
 20
-38.999999999999773
 30
0.0
 11
329.0
 21
-259.99999999999972
 31
0.0
1001
ACDBBLOCKREPETAG
1070
     1
1071
      187
1005
AE0
  0
LINE
  5
AE1
  8
0
 10
322.00000000000011
 20
-38.999999999999773
 30
0.0
 11
322.00000000000011
 21
-259.99999999999972
 31
0.0
1001
ACDBBLOCKREPETAG
1070
     1
1071
      188
1005
AE1
  0
LINE
  5
AE2
  8
0
 10
315.00000000000011
 20
-38.999999999999773
 30
0.0
 11
315.00000000000011
 21
-259.99999999999972
 31
0.0
1001
ACDBBLOCKREPETAG
1070
     1
1071
      189
1005
AE2
  0
LINE
  5
AE3
  8
0
 10
309.00000000000011
 20
-38.999999999999773
 30
0.0
 11
370.99999999999977
 21
-38.999999999999773
 31
0.0
1001
ACDBBLOCKREPETAG
1070
     1
1071
      190
1005
AE3
  0
TEXT
  5
AE4
  8
0
 10
302.50000000000011
 20
-55.999999999999879
 30
0.0
 40
1.875
  1
(片)
  7
TLCAD
 11
302.50000000000011
 21
-55.999999999999879
 31
0.0
 73
     1
1001
ACDBBLOCKREPETAG
1070
     1
1071
      191
1005
AE4
  0
TEXT
  5
AE5
  8
0
 10
304.0
 20
-51.999999999999972
 30
0.0
 40
1.875
  1
锤
  7
TLCAD
 11
304.0
 21
-51.999999999999972
 31
0.0
 73
     1
1001
ACDBBLOCKREPETAG
1070
     1
1071
      192
1005
AE5
  0
TEXT
  5
AE6
  8
0
 10
304.0
 20
-47.999999999999972
 30
0.0
 40
1.875
  1
重
  7
TLCAD
 11
304.0
 21
-47.999999999999972
 31
0.0
 73
     1
1001
ACDBBLOCKREPETAG
1070
     1
1071
      193
1005
AE6
  0
TEXT
  5
AE7
  8
0
 10
304.0
 20
-43.999999999999972
 30
0.0
 40
1.875
  1
挂
  7
TLCAD
 11
304.0
 21
-43.999999999999972
 31
0.0
 73
     1
1001
ACDBBLOCKREPETAG
1070
     1
1071
      194
1005
AE7
  0
TEXT
  5
AE8
  8
0
 10
304.0
 20
-39.999999999999893
 30
0.0
 40
1.875
  1
相
  7
TLCAD
 11
304.0
 21
-39.999999999999893
 31
0.0
 73
     1
1001
ACDBBLOCKREPETAG
1070
     1
1071
      195
1005
AE8
  0
TEXT
  5
AE9
  8
0
 10
304.0
 20
-35.999999999999893
 30
0.0
 40
1.875
  1
每
  7
TLCAD
 11
304.0
 21
-35.999999999999893
 31
0.0
 73
     1
1001
ACDBBLOCKREPETAG
1070
     1
1071
      196
1005
AE9
  0
TEXT
  5
AEA
  8
0
 10
297.0
 20
-57.999999999999901
 30
0.0
 40
1.875
  1
线
  7
TLCAD
 11
297.0
 21
-57.999999999999901
 31
0.0
 73
     1
1001
ACDBBLOCKREPETAG
1070
     1
1071
      197
1005
AEA
  0
TEXT
  5
AEB
  8
0
 10
297.0
 20
-53.999999999999972
 30
0.0
 40
1.875
  1
地
  7
TLCAD
 11
297.0
 21
-53.999999999999972
 31
0.0
 73
     1
1001
ACDBBLOCKREPETAG
1070
     1
1071
      198
1005
AEB
  0
TEXT
  5
AEC
  8
0
 10
290.00000000000011
 20
-57.999999999999901
 30
0.0
 40
1.875
  1
线
  7
TLCAD
 11
290.00000000000011
 21
-57.999999999999901
 31
0.0
 73
     1
1001
ACDBBLOCKREPETAG
1070
     1
1071
      199
1005
AEC
  0
TEXT
  5
AED
  8
0
 10
290.00000000000011
 20
-53.999999999999972
 30
0.0
 40
1.875
  1
导
  7
TLCAD
 11
290.00000000000011
 21
-53.999999999999972
 31
0.0
 73
     1
1001
ACDBBLOCKREPETAG
1070
     1
1071
      200
1005
AED
  0
TEXT
  5
AEE
  8
0
 10
281.0
 20
-57.999999999999901
 30
0.0
 40
1.875
  1
线
  7
TLCAD
 11
281.0
 21
-57.999999999999901
 31
0.0
 73
     1
1001
ACDBBLOCKREPETAG
1070
     1
1071
      201
1005
AEE
  0
TEXT
  5
AEF
  8
0
 10
281.0
 20
-53.999999999999972
 30
0.0
 40
1.875
  1
地
  7
TLCAD
 11
281.0
 21
-53.999999999999972
 31
0.0
 73
     1
1001
ACDBBLOCKREPETAG
1070
     1
1071
      202
1005
AEF
  0
TEXT
  5
AF0
  8
0
 10
271.0
 20
-57.999999999999901
 30
0.0
 40
1.875
  1
线
  7
TLCAD
 11
271.0
 21
-57.999999999999901
 31
0.0
 73
     1
1001
ACDBBLOCKREPETAG
1070
     1
1071
      203
1005
AF0
  0
TEXT
  5
AF1
  8
0
 10
271.0
 20
-53.999999999999972
 30
0.0
 40
1.875
  1
导
  7
TLCAD
 11
271.0
 21
-53.999999999999972
 31
0.0
 73
     1
1001
ACDBBLOCKREPETAG
1070
     1
1071
      204
1005
AF1
  0
TEXT
  5
AF2
  8
0
 10
292.00000000000011
 20
-48.999999999999801
 30
0.0
 40
1.875
  1
(米)
  7
TLCAD
 11
292.00000000000011
 21
-48.999999999999801
 31
0.0
 73
     1
1001
ACDBBLOCKREPETAG
1070
     1
1071
      205
1005
AF2
  0
TEXT
  5
AF3
  8
0
 10
291.0
 20
-45.999999999999957
 30
0.0
 40
1.875
  1
距  离
  7
TLCAD
 11
291.0
 21
-45.999999999999957
 31
0.0
 73
     1
1001
ACDBBLOCKREPETAG
1070
     1
1071
      206
1005
AF3
  0
TEXT
  5
AF4
  8
0
 10
274.00000000000011
 20
-47.999999999999972
 30
0.0
 40
1.875
  1
个  数
  7
TLCAD
 11
274.00000000000011
 21
-47.999999999999972
 31
0.0
 73
     1
1001
ACDBBLOCKREPETAG
1070
     1
1071
      207
1005
AF4
  0
TEXT
  5
AF5
  8
0
 10
275.0
 20
-37.999999999999908
 30
0.0
 40
1.875
  1
每 线 防 振 锤
  7
TLCAD
 11
275.0
 21
-37.999999999999908
 31
0.0
 73
     1
1001
ACDBBLOCKREPETAG
1070
     1
1071
      208
1005
AF5
  0
LINE
  5
AF6
  8
0
 10
288.00000000000011
 20
-41.999999999999908
 30
0.0
 11
288.00000000000011
 21
-259.99999999999972
 31
0.0
1001
ACDBBLOCKREPETAG
1070
     1
1071
      209
1005
AF6
  0
LINE
  5
AF7
  8
0
 10
400.99999999999977
 20
-259.99999999999972
 30
0.0
 11
400.99999999999977
 21
-31.99999999999989
 31
0.0
1001
ACDBBLOCKREPETAG
1070
     1
1071
      210
1005
AF7
  0
LINE
  5
AF8
  8
0
 10
370.99999999999977
 20
-259.99999999999972
 30
0.0
 11
370.99999999999977
 21
-31.99999999999989
 31
0.0
1001
ACDBBLOCKREPETAG
1070
     1
1071
      211
1005
AF8
  0
LINE
  5
AF9
  8
0
 10
309.00000000000011
 20
-259.99999999999972
 30
0.0
 11
309.00000000000011
 21
-31.99999999999989
 31
0.0
1001
ACDBBLOCKREPETAG
1070
     1
1071
      212
1005
AF9
  0
LINE
  5
AFA
  8
0
 10
302.0
 20
-259.99999999999972
 30
0.0
 11
302.0
 21
-31.99999999999989
 31
0.0
1001
ACDBBLOCKREPETAG
1070
     1
1071
      213
1005
AFA
  0
LINE
  5
AFB
  8
0
 10
295.00000000000011
 20
-49.999999999999972
 30
0.0
 11
295.00000000000011
 21
-259.99999999999972
 31
0.0
1001
ACDBBLOCKREPETAG
1070
     1
1071
      214
1005
AFB
  0
LINE
  5
AFC
  8
0
 10
268.00000000000011
 20
-49.999999999999972
 30
0.0
 11
302.0
 21
-49.999999999999972
 31
0.0
1001
ACDBBLOCKREPETAG
1070
     1
1071
      215
1005
AFC
  0
LINE
  5
AFD
  8
0
 10
268.00000000000011
 20
-41.999999999999908
 30
0.0
 11
302.0
 21
-41.999999999999908
 31
0.0
1001
ACDBBLOCKREPETAG
1070
     1
1071
      216
1005
AFD
  0
TEXT
  5
AFE
  8
0
 10
261.00000000000011
 20
-54.999999999999922
 30
0.0
 40
1.875
  1
(串)
  7
TLCAD
 11
261.00000000000011
 21
-54.999999999999922
 31
0.0
 73
     1
1001
ACDBBLOCKREPETAG
1070
     1
1071
      217
1005
AFE
  0
TEXT
  5
AFF
  8
0
 10
258.0
 20
-56.999999999999922
 30
0.0
 40
1.875
  1
量
  7
TLCAD
 11
258.0
 21
-56.999999999999922
 31
0.0
 73
     1
1001
ACDBBLOCKREPETAG
1070
     1
1071
      218
1005
AFF
  0
TEXT
  5
B00
  8
0
 10
258.0
 20
-52.999999999999801
 30
0.0
 40
1.875
  1
数
  7
TLCAD
 11
258.0
 21
-52.999999999999801
 31
0.0
 73
     1
1001
ACDBBLOCKREPETAG
1070
     1
1071
      219
1005
B00
  0
TEXT
  5
B01
  8
0
 10
242.0
 20
-56.499999999999972
 30
0.0
 40
2.5
  1
型号
  7
TLCAD
 11
242.0
 21
-56.499999999999972
 31
0.0
 73
     1
1001
ACDBBLOCKREPETAG
1070
     1
1071
      220
1005
B01
  0
TEXT
  5
B02
  8
0
 10
229.0
 20
-54.999999999999922
 30
0.0
 40
1.875
  1
(串)
  7
TLCAD
 11
229.0
 21
-54.999999999999922
 31
0.0
 73
     1
1001
ACDBBLOCKREPETAG
1070
     1
1071
      221
1005
B02
  0
TEXT
  5
B03
  8
0
 10
226.0
 20
-56.999999999999922
 30
0.0
 40
1.875
  1
量
  7
TLCAD
 11
226.0
 21
-56.999999999999922
 31
0.0
 73
     1
1001
ACDBBLOCKREPETAG
1070
     1
1071
      222
1005
B03
  0
TEXT
  5
B04
  8
0
 10
226.0
 20
-52.999999999999801
 30
0.0
 40
1.875
  1
数
  7
TLCAD
 11
226.0
 21
-52.999999999999801
 31
0.0
 73
     1
1001
ACDBBLOCKREPETAG
1070
     1
1071
      223
1005
B04
  0
TEXT
  5
B05
  8
0
 10
242.0
 20
-41.999999999999908
 30
0.0
 40
2.5
  1
地线金具串
  7
TLCAD
 11
242.0
 21
-41.999999999999908
 31
0.0
 73
     1
1001
ACDBBLOCKREPETAG
1070
     1
1071
      224
1005
B05
  0
TEXT
  5
B06
  8
0
 10
210.0
 20
-55.499999999999801
 30
0.0
 40
2.5
  1
型号
  7
TLCAD
 11
210.0
 21
-55.499999999999801
 31
0.0
 73
     1
1001
ACDBBLOCKREPETAG
1070
     1
1071
      225
1005
B06
  0
TEXT
  5
B07
  8
0
 10
210.0
 20
-41.999999999999908
 30
0.0
 40
2.5
  1
导线跳线串
  7
TLCAD
 11
210.0
 21
-41.999999999999908
 31
0.0
 73
     1
1001
ACDBBLOCKREPETAG
1070
     1
1071
      226
1005
B07
  0
LINE
  5
B08
  8
0
 10
268.00000000000011
 20
-259.99999999999972
 30
0.0
 11
268.00000000000011
 21
-31.99999999999989
 31
0.0
1001
ACDBBLOCKREPETAG
1070
     1
1071
      227
1005
B08
  0
LINE
  5
B09
  8
0
 10
256.0
 20
-47.999999999999972
 30
0.0
 11
256.0
 21
-259.99999999999972
 31
0.0
1001
ACDBBLOCKREPETAG
1070
     1
1071
      228
1005
B09
  0
LINE
  5
B0A
  8
0
 10
224.0
 20
-47.999999999999972
 30
0.0
 11
224.0
 21
-259.99999999999972
 31
0.0
1001
ACDBBLOCKREPETAG
1070
     1
1071
      229
1005
B0A
  0
LINE
  5
B0B
  8
0
 10
204.0
 20
-47.999999999999972
 30
0.0
 11
268.00000000000011
 21
-47.999999999999972
 31
0.0
1001
ACDBBLOCKREPETAG
1070
     1
1071
      230
1005
B0B
  0
LINE
  5
B0C
  8
0
 10
236.0
 20
-259.99999999999972
 30
0.0
 11
236.0
 21
-31.99999999999989
 31
0.0
1001
ACDBBLOCKREPETAG
1070
     1
1071
      231
1005
B0C
  0
TEXT
  5
B0D
  8
0
 10
195.99999999999989
 20
-54.999999999999922
 30
0.0
 40
1.875
  1
(串)
  7
TLCAD
 11
195.99999999999989
 21
-54.999999999999922
 31
0.0
 73
     1
1001
ACDBBLOCKREPETAG
1070
     1
1071
      232
1005
B0D
  0
TEXT
  5
B0E
  8
0
 10
193.99999999999989
 20
-56.999999999999922
 30
0.0
 40
1.875
  1
量
  7
TLCAD
 11
193.99999999999989
 21
-56.999999999999922
 31
0.0
 73
     1
1001
ACDBBLOCKREPETAG
1070
     1
1071
      233
1005
B0E
  0
TEXT
  5
B0F
  8
0
 10
193.99999999999989
 20
-52.999999999999801
 30
0.0
 40
1.875
  1
数
  7
TLCAD
 11
193.99999999999989
 21
-52.999999999999801
 31
0.0
 73
     1
1001
ACDBBLOCKREPETAG
1070
     1
1071
      234
1005
B0F
  0
TEXT
  5
B10
  8
0
 10
175.99999999999989
 20
-55.499999999999801
 30
0.0
 40
2.5
  1
型  号
  7
TLCAD
 11
175.99999999999989
 21
-55.499999999999801
 31
0.0
 73
     1
1001
ACDBBLOCKREPETAG
1070
     1
1071
      235
1005
B10
  0
TEXT
  5
B11
  8
0
 10
175.99999999999989
 20
-41.999999999999908
 30
0.0
 40
2.5
  1
导线绝缘子串
  7
TLCAD
 11
175.99999999999989
 21
-41.999999999999908
 31
0.0
 73
     1
1001
ACDBBLOCKREPETAG
1070
     1
1071
      236
1005
B11
  0
LINE
  5
B12
  8
0
 10
191.99999999999989
 20
-47.999999999999972
 30
0.0
 11
191.99999999999989
 21
-259.99999999999972
 31
0.0
1001
ACDBBLOCKREPETAG
1070
     1
1071
      237
1005
B12
  0
LINE
  5
B13
  8
0
 10
171.99999999999989
 20
-47.999999999999972
 30
0.0
 11
204.0
 21
-47.999999999999972
 31
0.0
1001
ACDBBLOCKREPETAG
1070
     1
1071
      238
1005
B13
  0
LINE
  5
B14
  8
0
 10
204.0
 20
-259.99999999999972
 30
0.0
 11
204.0
 21
-31.99999999999989
 31
0.0
1001
ACDBBLOCKREPETAG
1070
     1
1071
      239
1005
B14
  0
TEXT
  5
B15
  8
0
 10
163.0
 20
-57.999999999999901
 30
0.0
 40
1.875
  1
(米)
  7
TLCAD
 11
163.0
 21
-57.999999999999901
 31
0.0
 73
     1
1001
ACDBBLOCKREPETAG
1070
     1
1071
      240
1005
B15
  0
TEXT
  5
B16
  8
0
 10
165.0
 20
-52.999999999999801
 30
0.0
 40
1.875
  1
深
  7
TLCAD
 11
165.0
 21
-52.999999999999801
 31
0.0
 73
     1
1001
ACDBBLOCKREPETAG
1070
     1
1071
      241
1005
B16
  0
TEXT
  5
B17
  8
0
 10
165.0
 20
-46.999999999999801
 30
0.0
 40
1.875
  1
埋
  7
TLCAD
 11
165.0
 21
-46.999999999999801
 31
0.0
 73
     1
1001
ACDBBLOCKREPETAG
1070
     1
1071
      242
1005
B17
  0
TEXT
  5
B18
  8
0
 10
155.0
 20
-56.999999999999922
 30
0.0
 40
1.875
  1
号
  7
TLCAD
 11
155.0
 21
-56.999999999999922
 31
0.0
 73
     1
1001
ACDBBLOCKREPETAG
1070
     1
1071
      243
1005
B18
  0
TEXT
  5
B19
  8
0
 10
155.0
 20
-46.999999999999801
 30
0.0
 40
1.875
  1
型
  7
TLCAD
 11
155.0
 21
-46.999999999999801
 31
0.0
 73
     1
1001
ACDBBLOCKREPETAG
1070
     1
1071
      244
1005
B19
  0
TEXT
  5
B1A
  8
0
 10
152.9999999999998
 20
-38.999999999999773
 30
0.0
 40
2.5
  1
接地装置
  7
TLCAD
 11
152.9999999999998
 21
-38.999999999999773
 31
0.0
 73
     1
1001
ACDBBLOCKREPETAG
1070
     1
1071
      245
1005
B1A
  0
LINE
  5
B1B
  8
0
 10
160.9999999999998
 20
-41.999999999999908
 30
0.0
 11
160.9999999999998
 21
-259.99999999999972
 31
0.0
1001
ACDBBLOCKREPETAG
1070
     1
1071
      246
1005
B1B
  0
LINE
  5
B1C
  8
0
 10
150.9999999999998
 20
-41.999999999999908
 30
0.0
 11
171.99999999999989
 21
-41.999999999999908
 31
0.0
1001
ACDBBLOCKREPETAG
1070
     1
1071
      247
1005
B1C
  0
LINE
  5
B1D
  8
0
 10
171.99999999999989
 20
-259.99999999999972
 30
0.0
 11
171.99999999999989
 21
-31.99999999999989
 31
0.0
1001
ACDBBLOCKREPETAG
1070
     1
1071
      248
1005
B1D
  0
TEXT
  5
B1E
  8
0
 10
140.9999999999998
 20
-57.999999999999901
 30
0.0
 40
1.875
  1
(米)
  7
TLCAD
 11
140.9999999999998
 21
-57.999999999999901
 31
0.0
 73
     1
1001
ACDBBLOCKREPETAG
1070
     1
1071
      249
1005
B1E
  0
TEXT
  5
B1F
  8
0
 10
139.9999999999998
 20
-52.999999999999801
 30
0.0
 40
1.875
  1
位 移
  7
TLCAD
 11
139.9999999999998
 21
-52.999999999999801
 31
0.0
 73
     1
1001
ACDBBLOCKREPETAG
1070
     1
1071
      250
1005
B1F
  0
TEXT
  5
B20
  8
0
 10
139.0
 20
-47.999999999999972
 30
0.0
 40
1.875
  1
中心桩
  7
TLCAD
 11
139.0
 21
-47.999999999999972
 31
0.0
 73
     1
1001
ACDBBLOCKREPETAG
1070
     1
1071
      251
1005
B20
  0
TEXT
  5
B21
  8
0
 10
139.9999999999998
 20
-41.999999999999908
 30
0.0
 40
1.875
  1
度 数
  7
TLCAD
 11
139.9999999999998
 21
-41.999999999999908
 31
0.0
 73
     1
1001
ACDBBLOCKREPETAG
1070
     1
1071
      252
1005
B21
  0
TEXT
  5
B22
  8
0
 10
137.0
 20
-36.999999999999773
 30
0.0
 40
1.875
  1
线路转角
  7
TLCAD
 11
137.0
 21
-36.999999999999773
 31
0.0
 73
     1
1001
ACDBBLOCKREPETAG
1070
     1
1071
      253
1005
B22
  0
LINE
  5
B23
  8
0
 10
136.0
 20
-43.999999999999972
 30
0.0
 11
150.9999999999998
 21
-43.999999999999972
 31
0.0
1001
ACDBBLOCKREPETAG
1070
     1
1071
      254
1005
B23
  0
LINE
  5
B24
  8
0
 10
150.9999999999998
 20
-259.99999999999972
 30
0.0
 11
150.9999999999998
 21
-31.99999999999989
 31
0.0
1001
ACDBBLOCKREPETAG
1070
     1
1071
      255
1005
B24
  0
LINE
  5
B25
  8
0
 10
136.0
 20
-259.99999999999972
 30
0.0
 11
136.0
 21
-31.99999999999989
 31
0.0
1001
ACDBBLOCKREPETAG
1070
     1
1071
      256
1005
B25
  0
TEXT
  5
B26
  8
0
 10
126.9999999999999
 20
-55.999999999999879
 30
0.0
 40
1.875
  1
(米)
  7
TLCAD
 11
126.9999999999999
 21
-55.999999999999879
 31
0.0
 73
     1
1001
ACDBBLOCKREPETAG
1070
     1
1071
      257
1005
B26
  0
TEXT
  5
B27
  8
0
 10
128.9999999999998
 20
-50.999999999999801
 30
0.0
 40
1.875
  1
面
  7
TLCAD
 11
128.9999999999998
 21
-50.999999999999801
 31
0.0
 73
     1
1001
ACDBBLOCKREPETAG
1070
     1
1071
      258
1005
B27
  0
TEXT
  5
B28
  8
0
 10
128.9999999999998
 20
-45.999999999999957
 30
0.0
 40
1.875
  1
基
  7
TLCAD
 11
128.9999999999998
 21
-45.999999999999957
 31
0.0
 73
     1
1001
ACDBBLOCKREPETAG
1070
     1
1071
      259
1005
B28
  0
TEXT
  5
B29
  8
0
 10
128.9999999999998
 20
-40.999999999999773
 30
0.0
 40
1.875
  1
工
  7
TLCAD
 11
128.9999999999998
 21
-40.999999999999773
 31
0.0
 73
     1
1001
ACDBBLOCKREPETAG
1070
     1
1071
      260
1005
B29
  0
TEXT
  5
B2A
  8
0
 10
128.9999999999998
 20
-35.999999999999893
 30
0.0
 40
1.875
  1
施
  7
TLCAD
 11
128.9999999999998
 21
-35.999999999999893
 31
0.0
 73
     1
1001
ACDBBLOCKREPETAG
1070
     1
1071
      261
1005
B2A
  0
TEXT
  5
B2B
  8
0
 10
117.9999999999999
 20
-56.999999999999922
 30
0.0
 40
1.875
  1
直
  7
TLCAD
 11
117.9999999999999
 21
-56.999999999999922
 31
0.0
 73
     1
1001
ACDBBLOCKREPETAG
1070
     1
1071
      262
1005
B2B
  0
TEXT
  5
B2C
  8
0
 10
117.9999999999999
 20
-46.999999999999801
 30
0.0
 40
1.875
  1
垂
  7
TLCAD
 11
117.9999999999999
 21
-46.999999999999801
 31
0.0
 73
     1
1001
ACDBBLOCKREPETAG
1070
     1
1071
      263
1005
B2C
  0
TEXT
  5
B2D
  8
0
 10
105.9999999999999
 20
-56.999999999999922
 30
0.0
 40
1.875
  1
平
  7
TLCAD
 11
105.9999999999999
 21
-56.999999999999922
 31
0.0
 73
     1
1001
ACDBBLOCKREPETAG
1070
     1
1071
      264
1005
B2D
  0
TEXT
  5
B2E
  8
0
 10
105.9999999999999
 20
-46.999999999999801
 30
0.0
 40
1.875
  1
水
  7
TLCAD
 11
105.9999999999999
 21
-46.999999999999801
 31
0.0
 73
     1
1001
ACDBBLOCKREPETAG
1070
     1
1071
      265
1005
B2E
  0
TEXT
  5
B2F
  8
0
 10
93.999999999999957
 20
-56.999999999999922
 30
0.0
 40
1.875
  1
用
  7
TLCAD
 11
93.999999999999957
 21
-56.999999999999922
 31
0.0
 73
     1
1001
ACDBBLOCKREPETAG
1070
     1
1071
      266
1005
B2F
  0
TEXT
  5
B30
  8
0
 10
93.999999999999957
 20
-46.999999999999801
 30
0.0
 40
1.875
  1
使
  7
TLCAD
 11
93.999999999999957
 21
-46.999999999999801
 31
0.0
 73
     1
1001
ACDBBLOCKREPETAG
1070
     1
1071
      267
1005
B30
  0
TEXT
  5
B31
  8
0
 10
99.999999999999915
 20
-38.999999999999773
 30
0.0
 40
1.875
  1
档  距 (米)
  7
TLCAD
 11
99.999999999999915
 21
-38.999999999999773
 31
0.0
 73
     1
1001
ACDBBLOCKREPETAG
1070
     1
1071
      268
1005
B31
  0
LINE
  5
B32
  8
0
 10
114.0
 20
-259.99999999999972
 30
0.0
 11
114.0
 21
-41.999999999999908
 31
0.0
1001
ACDBBLOCKREPETAG
1070
     1
1071
      269
1005
B32
  0
LINE
  5
B33
  8
0
 10
101.4999999999999
 20
-259.99999999999972
 30
0.0
 11
101.4999999999999
 21
-41.999999999999908
 31
0.0
1001
ACDBBLOCKREPETAG
1070
     1
1071
      270
1005
B33
  0
LINE
  5
B34
  8
0
 10
125.9999999999999
 20
-259.99999999999972
 30
0.0
 11
125.9999999999999
 21
-31.99999999999989
 31
0.0
1001
ACDBBLOCKREPETAG
1070
     1
1071
      271
1005
B34
  0
LINE
  5
B35
  8
0
 10
89.999999999999986
 20
-41.999999999999908
 30
0.0
 11
125.9999999999999
 21
-41.999999999999908
 31
0.0
1001
ACDBBLOCKREPETAG
1070
     1
1071
      272
1005
B35
  0
LINE
  5
B36
  8
0
 10
89.999999999999986
 20
-259.99999999999972
 30
0.0
 11
89.999999999999986
 21
-31.99999999999989
 31
0.0
1001
ACDBBLOCKREPETAG
1070
     1
1071
      273
1005
B36
  0
TEXT
  5
B37
  8
0
 10
79.999999999999901
 20
-57.999999999999901
 30
0.0
 40
1.875
  1
置
  7
TLCAD
 11
79.999999999999901
 21
-57.999999999999901
 31
0.0
 73
     1
1001
ACDBBLOCKREPETAG
1070
     1
1071
      274
1005
B37
  0
TEXT
  5
B38
  8
0
 10
79.999999999999901
 20
-50.999999999999801
 30
0.0
 40
1.875
  1
位
  7
TLCAD
 11
79.999999999999901
 21
-50.999999999999801
 31
0.0
 73
     1
1001
ACDBBLOCKREPETAG
1070
     1
1071
      275
1005
B38
  0
TEXT
  5
B39
  8
0
 10
79.999999999999901
 20
-43.999999999999972
 30
0.0
 40
1.875
  1
塔
  7
TLCAD
 11
79.999999999999901
 21
-43.999999999999972
 31
0.0
 73
     1
1001
ACDBBLOCKREPETAG
1070
     1
1071
      276
1005
B39
  0
TEXT
  5
B3A
  8
0
 10
79.999999999999901
 20
-36.999999999999773
 30
0.0
 40
1.875
  1
杆
  7
TLCAD
 11
79.999999999999901
 21
-36.999999999999773
 31
0.0
 73
     1
1001
ACDBBLOCKREPETAG
1070
     1
1071
      277
1005
B3A
  0
TEXT
  5
B3B
  8
0
 10
55.0
 20
-54.999999999999922
 30
0.0
 40
1.875
  1
呼称高(米)
  7
TLCAD
 11
55.0
 21
-54.999999999999922
 31
0.0
 73
     1
1001
ACDBBLOCKREPETAG
1070
     1
1071
      278
1005
B3B
  0
TEXT
  5
B3C
  8
0
 10
58.999999999999993
 20
-47.999999999999972
 30
0.0
 40
1.875
  1
及
  7
TLCAD
 11
58.999999999999993
 21
-47.999999999999972
 31
0.0
 73
     1
1001
ACDBBLOCKREPETAG
1070
     1
1071
      279
1005
B3C
  0
TEXT
  5
B3D
  8
0
 10
55.0
 20
-40.999999999999773
 30
0.0
 40
1.875
  1
杆塔型号
  7
TLCAD
 11
55.0
 21
-40.999999999999773
 31
0.0
 73
     1
1001
ACDBBLOCKREPETAG
1070
     1
1071
      280
1005
B3D
  0
TEXT
  5
B3E
  8
0
 10
43.999999999999993
 20
-57.999999999999901
 30
0.0
 40
1.875
  1
号
  7
TLCAD
 11
43.999999999999993
 21
-57.999999999999901
 31
0.0
 73
     1
1001
ACDBBLOCKREPETAG
1070
     1
1071
      281
1005
B3E
  0
TEXT
  5
B3F
  8
0
 10
43.999999999999993
 20
-50.999999999999801
 30
0.0
 40
1.875
  1
编
  7
TLCAD
 11
43.999999999999993
 21
-50.999999999999801
 31
0.0
 73
     1
1001
ACDBBLOCKREPETAG
1070
     1
1071
      282
1005
B3F
  0
TEXT
  5
B40
  8
0
 10
43.999999999999993
 20
-43.999999999999972
 30
0.0
 40
1.875
  1
塔
  7
TLCAD
 11
43.999999999999993
 21
-43.999999999999972
 31
0.0
 73
     1
1001
ACDBBLOCKREPETAG
1070
     1
1071
      283
1005
B40
  0
TEXT
  5
B41
  8
0
 10
43.999999999999993
 20
-36.999999999999773
 30
0.0
 40
1.875
  1
杆
  7
TLCAD
 11
43.999999999999993
 21
-36.999999999999773
 31
0.0
 73
     1
1001
ACDBBLOCKREPETAG
1070
     1
1071
      284
1005
B41
  0
TEXT
  5
B42
  8
0
 10
28.5
 20
-57.999999999999901
 30
0.0
 40
1.875
  1
距及K值
  7
TLCAD
 11
28.5
 21
-57.999999999999901
 31
0.0
 73
     1
1001
ACDBBLOCKREPETAG
1070
     1
1071
      285
1005
B42
  0
TEXT
  5
B43
  8
0
 10
30.0
 20
-52.999999999999801
 30
0.0
 40
1.875
  1
代表档
  7
TLCAD
 11
30.0
 21
-52.999999999999801
 31
0.0
 73
     1
1001
ACDBBLOCKREPETAG
1070
     1
1071
      286
1005
B43
  0
TEXT
  5
B44
  8
0
 10
25.5
 20
-46.999999999999801
 30
0.0
 40
1.875
  1
(米)
  7
TLCAD
 11
25.5
 21
-46.999999999999801
 31
0.0
 73
     1
1001
ACDBBLOCKREPETAG
1070
     1
1071
      287
1005
B44
  0
TEXT
  5
B45
  8
0
 10
26.0
 20
-42.999999999999801
 30
0.0
 40
1.875
  1
长
  7
TLCAD
 11
26.0
 21
-42.999999999999801
 31
0.0
 73
     1
1001
ACDBBLOCKREPETAG
1070
     1
1071
      288
1005
B45
  0
TEXT
  5
B46
  8
0
 10
26.0
 20
-38.999999999999773
 30
0.0
 40
1.875
  1
耐张段
  7
TLCAD
 11
26.0
 21
-38.999999999999773
 31
0.0
 73
     1
1001
ACDBBLOCKREPETAG
1070
     1
1071
      289
1005
B46
  0
TEXT
  5
B47
  8
0
 10
122.9999999999999
 20
-24.99999999999989
 30
0.0
 40
5.0
  1
线   路   杆  (塔)  位   明   细   表
  7
TLCAD
 11
122.9999999999999
 21
-24.99999999999989
 31
0.0
 73
     1
1001
ACDBBLOCKREPETAG
1070
     1
1071
      290
1005
B47
  0
LINE
  5
B48
  8
0
 10
25.0
 20
-59.999999999999801
 30
0.0
 11
40.0
 21
-31.99999999999989
 31
0.0
1001
ACDBBLOCKREPETAG
1070
     1
1071
      291
1005
B48
  0
LINE
  5
B49
  8
0
 10
25.0
 20
-259.99999999999972
 30
0.0
 11
414.99999999999949
 21
-259.99999999999972
 31
0.0
1001
ACDBBLOCKREPETAG
1070
     1
1071
      292
1005
B49
  0
LINE
  5
B4A
  8
0
 10
25.0
 20
-59.999999999999801
 30
0.0
 11
414.99999999999949
 21
-59.999999999999801
 31
0.0
1001
ACDBBLOCKREPETAG
1070
     1
1071
      293
1005
B4A
  0
LINE
  5
B4B
  8
0
 10
72.0
 20
-31.99999999999989
 30
0.0
 11
72.0
 21
-259.99999999999972
 31
0.0
1001
ACDBBLOCKREPETAG
1070
     1
1071
      294
1005
B4B
  0
LINE
  5
B4C
  8
0
 10
50.999999999999993
 20
-31.99999999999989
 30
0.0
 11
50.999999999999993
 21
-259.99999999999972
 31
0.0
1001
ACDBBLOCKREPETAG
1070
     1
1071
      295
1005
B4C
  0
LINE
  5
B4D
  8
0
 10
40.0
 20
-31.99999999999989
 30
0.0
 11
40.0
 21
-259.99999999999972
 31
0.0
1001
ACDBBLOCKREPETAG
1070
     1
1071
      296
1005
B4D
  0
LINE
  5
B4E
  8
0
 10
25.0
 20
-31.99999999999989
 30
0.0
 11
414.99999999999949
 21
-31.99999999999989
 31
0.0
1001
ACDBBLOCKREPETAG
1070
     1
1071
      297
1005
B4E
  0
LINE
  5
B4F
  8
0
 10
25.0
 20
-291.99999999999972
 30
0.0
 11
25.0
 21
-5.0
 31
0.0
1001
ACDBBLOCKREPETAG
1070
     1
1071
      298
1005
B4F
  0
LINE
  5
B50
  8
0
 10
414.99999999999949
 20
-291.99999999999972
 30
0.0
 11
25.0
 21
-291.99999999999972
 31
0.0
1001
ACDBBLOCKREPETAG
1070
     1
1071
      299
1005
B50
  0
LINE
  5
B51
  8
0
 10
414.99999999999949
 20
-5.0
 30
0.0
 11
414.99999999999949
 21
-291.99999999999972
 31
0.0
1001
ACDBBLOCKREPETAG
1070
     1
1071
      300
1005
B51
  0
LINE
  5
B52
  8
0
 10
25.0
 20
-5.0
 30
0.0
 11
414.99999999999949
 21
-5.0
 31
0.0
1001
ACDBBLOCKREPETAG
1070
     1
1071
      301
1005
B52
  0
LINE
  5
B53
  8
0
 10
419.99999999999932
 20
-296.99999999999972
 30
0.0
 11
0.0
 21
-296.99999999999972
 31
0.0
1001
ACDBBLOCKREPETAG
1070
     1
1071
      302
1005
B53
  0
LINE
  5
B54
  8
0
 10
419.99999999999932
 20
0.0
 30
0.0
 11
419.99999999999932
 21
-296.99999999999972
 31
0.0
1001
ACDBBLOCKREPETAG
1070
     1
1071
      303
1005
B54
  0
LINE
  5
B55
  8
0
 10
0.0
 20
0.0
 30
0.0
 11
419.99999999999932
 21
0.0
 31
0.0
1001
ACDBBLOCKREPETAG
1070
     1
1071
      304
1005
B55
  0
POLYLINE
  5
B56
  8
1
  6
CONTINUOUS
 62
     0
 66
     1
 10
0.0
 20
0.0
 30
0.0
1001
ACDBBLOCKREPETAG
1070
     1
1071
      305
1005
B56
  0
VERTEX
  5
1192
  8
1
  6
CONTINUOUS
 62
     0
 10
414.98431706134511
 20
-283.90318186809372
 30
0.0
  0
VERTEX
  5
1193
  8
1
  6
CONTINUOUS
 62
     0
 10
369.08945654216541
 20
-283.90318186809372
 30
0.0
  0
VERTEX
  5
1194
  8
1
  6
CONTINUOUS
 62
     0
 10
369.08945654216541
 20
-291.99999999999972
 30
0.0
  0
SEQEND
  5
1195
  8
1
  6
CONTINUOUS
 62
     0
  0
POLYLINE
  5
B57
  8
1
  6
CONTINUOUS
 62
     0
 66
     1
 10
0.0
 20
0.0
 30
0.0
1001
ACDBBLOCKREPETAG
1070
     1
1071
      306
1005
B57
  0
VERTEX
  5
1196
  8
1
  6
CONTINUOUS
 62
     0
 10
0.0
 20
-296.99999999999972
 30
0.0
  0
VERTEX
  5
1197
  8
1
  6
CONTINUOUS
 62
     0
 10
0.0
 20
0.0
 30
0.0
  0
SEQEND
  5
1198
  8
1
  6
CONTINUOUS
 62
     0
  0
LINE
  5
B58
  8
0
 10
268.00000642773551
 20
-164.99999714239931
 30
0.0
 11
288.00000642773563
 21
-164.99999714239931
 31
0.0
1001
ACDBBLOCKREPETAG
1070
     1
1071
      307
1005
B58
  0
LINE
  5
B59
  8
0
 10
268.00000642773551
 20
-154.99999714239931
 30
0.0
 11
288.00000642773563
 21
-154.99999714239931
 31
0.0
1001
ACDBBLOCKREPETAG
1070
     1
1071
      308
1005
B59
  0
LINE
  5
B5A
  8
0
 10
268.00000642773551
 20
-144.99999714239931
 30
0.0
 11
288.00000642773563
 21
-144.99999714239931
 31
0.0
1001
ACDBBLOCKREPETAG
1070
     1
1071
      309
1005
B5A
  0
LINE
  5
B5B
  8
0
 10
268.00000642773551
 20
-134.9999971423992
 30
0.0
 11
288.00000642773563
 21
-134.9999971423992
 31
0.0
1001
ACDBBLOCKREPETAG
1070
     1
1071
      310
1005
B5B
  0
LINE
  5
B5C
  8
0
 10
268.00000642773551
 20
-124.9999971423992
 30
0.0
 11
288.00000642773563
 21
-124.9999971423992
 31
0.0
1001
ACDBBLOCKREPETAG
1070
     1
1071
      311
1005
B5C
  0
LINE
  5
B5D
  8
0
 10
268.00000642773551
 20
-114.9999971423992
 30
0.0
 11
288.00000642773563
 21
-114.9999971423992
 31
0.0
1001
ACDBBLOCKREPETAG
1070
     1
1071
      312
1005
B5D
  0
LINE
  5
B5E
  8
0
 10
268.00000642773551
 20
-104.9999971423992
 30
0.0
 11
288.00000642773563
 21
-104.9999971423992
 31
0.0
1001
ACDBBLOCKREPETAG
1070
     1
1071
      313
1005
B5E
  0
LINE
  5
B5F
  8
0
 10
268.00000642773551
 20
-94.999997142399238
 30
0.0
 11
288.00000642773563
 21
-94.999997142399238
 31
0.0
1001
ACDBBLOCKREPETAG
1070
     1
1071
      314
1005
B5F
  0
LINE
  5
B60
  8
0
 10
268.00000642773551
 20
-84.99999714239928
 30
0.0
 11
288.00000642773563
 21
-84.99999714239928
 31
0.0
1001
ACDBBLOCKREPETAG
1070
     1
1071
      315
1005
B60
  0
LINE
  5
B61
  8
0
 10
268.00000642773551
 20
-74.99999714239928
 30
0.0
 11
288.00000642773563
 21
-74.99999714239928
 31
0.0
1001
ACDBBLOCKREPETAG
1070
     1
1071
      316
1005
B61
  0
LINE
  5
B62
  8
0
 10
268.00000642773551
 20
-64.99999714239928
 30
0.0
 11
288.00000642773563
 21
-64.99999714239928
 31
0.0
1001
ACDBBLOCKREPETAG
1070
     1
1071
      317
1005
B62
  0
ENDBLK
  5
A20
  8
0
  0
BLOCK
  8
0
  2
恒安电力
 70
     0
 10
0.0
 20
0.0
 30
0.0
  3
恒安电力
  1

  0
LINE
  5
1027
  8
0
 10
278.00000000000011
 20
-49.999999999999972
 30
0.0
 11
278.00000000000011
 21
-259.99999999999972
 31
0.0
1001
ACDBBLOCKREPETAG
1070
     1
1071
        0
1005
1027
  0
LINE
  5
1028
  8
0
 10
370.99999999999972
 20
-259.99999999999972
 30
0.0
 11
400.99999999999972
 21
-259.99999999999972
 31
0.0
1001
ACDBBLOCKREPETAG
1070
     1
1071
        1
1005
1028
  0
LINE
  5
1029
  8
0
 10
309.00000000000011
 20
-254.9999999999998
 30
0.0
 11
370.99999999999972
 21
-254.9999999999998
 31
0.0
1001
ACDBBLOCKREPETAG
1070
     1
1071
        2
1005
1029
  0
LINE
  5
102A
  8
0
 10
302.0
 20
-259.99999999999972
 30
0.0
 11
309.00000000000011
 21
-259.99999999999972
 31
0.0
1001
ACDBBLOCKREPETAG
1070
     1
1071
        3
1005
102A
  0
LINE
  5
102B
  8
0
 10
268.00000000000011
 20
-254.9999999999998
 30
0.0
 11
288.00000000000011
 21
-254.9999999999998
 31
0.0
1001
ACDBBLOCKREPETAG
1070
     1
1071
        4
1005
102B
  0
LINE
  5
102C
  8
0
 10
150.9999999999998
 20
-259.99999999999972
 30
0.0
 11
288.00000000000011
 21
-259.99999999999972
 31
0.0
1001
ACDBBLOCKREPETAG
1070
     1
1071
        5
1005
102C
  0
LINE
  5
102D
  8
0
 10
101.4999999999998
 20
-259.99999999999972
 30
0.0
 11
135.9999999999998
 21
-259.99999999999972
 31
0.0
1001
ACDBBLOCKREPETAG
1070
     1
1071
        6
1005
102D
  0
LINE
  5
102E
  8
0
 10
89.999999999999986
 20
-254.9999999999998
 30
0.0
 11
101.4999999999998
 21
-254.9999999999998
 31
0.0
1001
ACDBBLOCKREPETAG
1070
     1
1071
        7
1005
102E
  0
LINE
  5
102F
  8
0
 10
40.0
 20
-259.99999999999972
 30
0.0
 11
89.999999999999986
 21
-259.99999999999972
 31
0.0
1001
ACDBBLOCKREPETAG
1070
     1
1071
        8
1005
102F
  0
LINE
  5
1030
  8
0
 10
370.99999999999972
 20
-249.99999999999989
 30
0.0
 11
400.99999999999972
 21
-249.99999999999989
 31
0.0
1001
ACDBBLOCKREPETAG
1070
     1
1071
        9
1005
1030
  0
LINE
  5
1031
  8
0
 10
309.00000000000011
 20
-244.9999999999998
 30
0.0
 11
370.99999999999972
 21
-244.9999999999998
 31
0.0
1001
ACDBBLOCKREPETAG
1070
     1
1071
       10
1005
1031
  0
LINE
  5
1032
  8
0
 10
302.0
 20
-249.99999999999989
 30
0.0
 11
309.00000000000011
 21
-249.99999999999989
 31
0.0
1001
ACDBBLOCKREPETAG
1070
     1
1071
       11
1005
1032
  0
LINE
  5
1033
  8
0
 10
268.00000000000011
 20
-244.9999999999998
 30
0.0
 11
288.00000000000011
 21
-244.9999999999998
 31
0.0
1001
ACDBBLOCKREPETAG
1070
     1
1071
       12
1005
1033
  0
LINE
  5
1034
  8
0
 10
150.9999999999998
 20
-249.99999999999989
 30
0.0
 11
288.00000000000011
 21
-249.99999999999989
 31
0.0
1001
ACDBBLOCKREPETAG
1070
     1
1071
       13
1005
1034
  0
LINE
  5
1035
  8
0
 10
101.4999999999998
 20
-249.99999999999989
 30
0.0
 11
135.9999999999998
 21
-249.99999999999989
 31
0.0
1001
ACDBBLOCKREPETAG
1070
     1
1071
       14
1005
1035
  0
LINE
  5
1036
  8
0
 10
89.999999999999986
 20
-244.9999999999998
 30
0.0
 11
101.4999999999998
 21
-244.9999999999998
 31
0.0
1001
ACDBBLOCKREPETAG
1070
     1
1071
       15
1005
1036
  0
LINE
  5
1037
  8
0
 10
40.0
 20
-249.99999999999989
 30
0.0
 11
89.999999999999986
 21
-249.99999999999989
 31
0.0
1001
ACDBBLOCKREPETAG
1070
     1
1071
       16
1005
1037
  0
LINE
  5
1038
  8
0
 10
370.99999999999972
 20
-239.9999999999998
 30
0.0
 11
400.99999999999972
 21
-239.9999999999998
 31
0.0
1001
ACDBBLOCKREPETAG
1070
     1
1071
       17
1005
1038
  0
LINE
  5
1039
  8
0
 10
309.00000000000011
 20
-234.9999999999998
 30
0.0
 11
370.99999999999972
 21
-234.9999999999998
 31
0.0
1001
ACDBBLOCKREPETAG
1070
     1
1071
       18
1005
1039
  0
LINE
  5
103A
  8
0
 10
302.0
 20
-239.9999999999998
 30
0.0
 11
309.00000000000011
 21
-239.9999999999998
 31
0.0
1001
ACDBBLOCKREPETAG
1070
     1
1071
       19
1005
103A
  0
LINE
  5
103B
  8
0
 10
268.00000000000011
 20
-234.9999999999998
 30
0.0
 11
288.00000000000011
 21
-234.9999999999998
 31
0.0
1001
ACDBBLOCKREPETAG
1070
     1
1071
       20
1005
103B
  0
LINE
  5
103C
  8
0
 10
150.9999999999998
 20
-239.9999999999998
 30
0.0
 11
288.00000000000011
 21
-239.9999999999998
 31
0.0
1001
ACDBBLOCKREPETAG
1070
     1
1071
       21
1005
103C
  0
LINE
  5
103D
  8
0
 10
101.4999999999998
 20
-239.9999999999998
 30
0.0
 11
135.9999999999998
 21
-239.9999999999998
 31
0.0
1001
ACDBBLOCKREPETAG
1070
     1
1071
       22
1005
103D
  0
LINE
  5
103E
  8
0
 10
89.999999999999986
 20
-234.9999999999998
 30
0.0
 11
101.4999999999998
 21
-234.9999999999998
 31
0.0
1001
ACDBBLOCKREPETAG
1070
     1
1071
       23
1005
103E
  0
LINE
  5
103F
  8
0
 10
40.0
 20
-239.9999999999998
 30
0.0
 11
89.999999999999986
 21
-239.9999999999998
 31
0.0
1001
ACDBBLOCKREPETAG
1070
     1
1071
       24
1005
103F
  0
LINE
  5
1040
  8
0
 10
370.99999999999972
 20
-229.9999999999998
 30
0.0
 11
400.99999999999972
 21
-229.9999999999998
 31
0.0
1001
ACDBBLOCKREPETAG
1070
     1
1071
       25
1005
1040
  0
LINE
  5
1041
  8
0
 10
309.00000000000011
 20
-224.9999999999998
 30
0.0
 11
370.99999999999972
 21
-224.9999999999998
 31
0.0
1001
ACDBBLOCKREPETAG
1070
     1
1071
       26
1005
1041
  0
LINE
  5
1042
  8
0
 10
302.0
 20
-229.9999999999998
 30
0.0
 11
309.00000000000011
 21
-229.9999999999998
 31
0.0
1001
ACDBBLOCKREPETAG
1070
     1
1071
       27
1005
1042
  0
LINE
  5
1043
  8
0
 10
268.00000000000011
 20
-224.9999999999998
 30
0.0
 11
288.00000000000011
 21
-224.9999999999998
 31
0.0
1001
ACDBBLOCKREPETAG
1070
     1
1071
       28
1005
1043
  0
LINE
  5
1044
  8
0
 10
150.9999999999998
 20
-229.9999999999998
 30
0.0
 11
288.00000000000011
 21
-229.9999999999998
 31
0.0
1001
ACDBBLOCKREPETAG
1070
     1
1071
       29
1005
1044
  0
LINE
  5
1045
  8
0
 10
101.4999999999998
 20
-229.9999999999998
 30
0.0
 11
135.9999999999998
 21
-229.9999999999998
 31
0.0
1001
ACDBBLOCKREPETAG
1070
     1
1071
       30
1005
1045
  0
LINE
  5
1046
  8
0
 10
89.999999999999986
 20
-224.9999999999998
 30
0.0
 11
101.4999999999998
 21
-224.9999999999998
 31
0.0
1001
ACDBBLOCKREPETAG
1070
     1
1071
       31
1005
1046
  0
LINE
  5
1047
  8
0
 10
40.0
 20
-229.9999999999998
 30
0.0
 11
89.999999999999986
 21
-229.9999999999998
 31
0.0
1001
ACDBBLOCKREPETAG
1070
     1
1071
       32
1005
1047
  0
LINE
  5
1048
  8
0
 10
370.99999999999972
 20
-219.9999999999998
 30
0.0
 11
400.99999999999972
 21
-219.9999999999998
 31
0.0
1001
ACDBBLOCKREPETAG
1070
     1
1071
       33
1005
1048
  0
LINE
  5
1049
  8
0
 10
309.00000000000011
 20
-214.9999999999998
 30
0.0
 11
370.99999999999972
 21
-214.9999999999998
 31
0.0
1001
ACDBBLOCKREPETAG
1070
     1
1071
       34
1005
1049
  0
LINE
  5
104A
  8
0
 10
302.0
 20
-219.9999999999998
 30
0.0
 11
309.00000000000011
 21
-219.9999999999998
 31
0.0
1001
ACDBBLOCKREPETAG
1070
     1
1071
       35
1005
104A
  0
LINE
  5
104B
  8
0
 10
268.00000000000011
 20
-214.9999999999998
 30
0.0
 11
288.00000000000011
 21
-214.9999999999998
 31
0.0
1001
ACDBBLOCKREPETAG
1070
     1
1071
       36
1005
104B
  0
LINE
  5
104C
  8
0
 10
150.9999999999998
 20
-219.9999999999998
 30
0.0
 11
288.00000000000011
 21
-219.9999999999998
 31
0.0
1001
ACDBBLOCKREPETAG
1070
     1
1071
       37
1005
104C
  0
LINE
  5
104D
  8
0
 10
101.4999999999998
 20
-219.9999999999998
 30
0.0
 11
135.9999999999998
 21
-219.9999999999998
 31
0.0
1001
ACDBBLOCKREPETAG
1070
     1
1071
       38
1005
104D
  0
LINE
  5
104E
  8
0
 10
89.999999999999986
 20
-214.9999999999998
 30
0.0
 11
101.4999999999998
 21
-214.9999999999998
 31
0.0
1001
ACDBBLOCKREPETAG
1070
     1
1071
       39
1005
104E
  0
LINE
  5
104F
  8
0
 10
40.0
 20
-219.9999999999998
 30
0.0
 11
89.999999999999986
 21
-219.9999999999998
 31
0.0
1001
ACDBBLOCKREPETAG
1070
     1
1071
       40
1005
104F
  0
LINE
  5
1050
  8
0
 10
370.99999999999972
 20
-209.9999999999998
 30
0.0
 11
400.99999999999972
 21
-209.9999999999998
 31
0.0
1001
ACDBBLOCKREPETAG
1070
     1
1071
       41
1005
1050
  0
LINE
  5
1051
  8
0
 10
309.00000000000011
 20
-204.9999999999998
 30
0.0
 11
370.99999999999972
 21
-204.9999999999998
 31
0.0
1001
ACDBBLOCKREPETAG
1070
     1
1071
       42
1005
1051
  0
LINE
  5
1052
  8
0
 10
302.0
 20
-209.9999999999998
 30
0.0
 11
309.00000000000011
 21
-209.9999999999998
 31
0.0
1001
ACDBBLOCKREPETAG
1070
     1
1071
       43
1005
1052
  0
LINE
  5
1053
  8
0
 10
268.00000000000011
 20
-204.9999999999998
 30
0.0
 11
288.00000000000011
 21
-204.9999999999998
 31
0.0
1001
ACDBBLOCKREPETAG
1070
     1
1071
       44
1005
1053
  0
LINE
  5
1054
  8
0
 10
150.9999999999998
 20
-209.9999999999998
 30
0.0
 11
288.00000000000011
 21
-209.9999999999998
 31
0.0
1001
ACDBBLOCKREPETAG
1070
     1
1071
       45
1005
1054
  0
LINE
  5
1055
  8
0
 10
101.4999999999998
 20
-209.9999999999998
 30
0.0
 11
135.9999999999998
 21
-209.9999999999998
 31
0.0
1001
ACDBBLOCKREPETAG
1070
     1
1071
       46
1005
1055
  0
LINE
  5
1056
  8
0
 10
89.999999999999986
 20
-204.9999999999998
 30
0.0
 11
101.4999999999998
 21
-204.9999999999998
 31
0.0
1001
ACDBBLOCKREPETAG
1070
     1
1071
       47
1005
1056
  0
LINE
  5
1057
  8
0
 10
40.0
 20
-209.9999999999998
 30
0.0
 11
89.999999999999986
 21
-209.9999999999998
 31
0.0
1001
ACDBBLOCKREPETAG
1070
     1
1071
       48
1005
1057
  0
LINE
  5
1058
  8
0
 10
370.99999999999972
 20
-199.9999999999998
 30
0.0
 11
400.99999999999972
 21
-199.9999999999998
 31
0.0
1001
ACDBBLOCKREPETAG
1070
     1
1071
       49
1005
1058
  0
LINE
  5
1059
  8
0
 10
309.00000000000011
 20
-194.99999999999989
 30
0.0
 11
370.99999999999972
 21
-194.99999999999989
 31
0.0
1001
ACDBBLOCKREPETAG
1070
     1
1071
       50
1005
1059
  0
LINE
  5
105A
  8
0
 10
302.0
 20
-199.9999999999998
 30
0.0
 11
309.00000000000011
 21
-199.9999999999998
 31
0.0
1001
ACDBBLOCKREPETAG
1070
     1
1071
       51
1005
105A
  0
LINE
  5
105B
  8
0
 10
268.00000000000011
 20
-194.99999999999989
 30
0.0
 11
288.00000000000011
 21
-194.99999999999989
 31
0.0
1001
ACDBBLOCKREPETAG
1070
     1
1071
       52
1005
105B
  0
LINE
  5
105C
  8
0
 10
150.9999999999998
 20
-199.9999999999998
 30
0.0
 11
288.00000000000011
 21
-199.9999999999998
 31
0.0
1001
ACDBBLOCKREPETAG
1070
     1
1071
       53
1005
105C
  0
LINE
  5
105D
  8
0
 10
101.4999999999998
 20
-199.9999999999998
 30
0.0
 11
135.9999999999998
 21
-199.9999999999998
 31
0.0
1001
ACDBBLOCKREPETAG
1070
     1
1071
       54
1005
105D
  0
LINE
  5
105E
  8
0
 10
89.999999999999986
 20
-194.99999999999989
 30
0.0
 11
101.4999999999998
 21
-194.99999999999989
 31
0.0
1001
ACDBBLOCKREPETAG
1070
     1
1071
       55
1005
105E
  0
LINE
  5
105F
  8
0
 10
40.0
 20
-199.9999999999998
 30
0.0
 11
89.999999999999986
 21
-199.9999999999998
 31
0.0
1001
ACDBBLOCKREPETAG
1070
     1
1071
       56
1005
105F
  0
LINE
  5
1060
  8
0
 10
370.99999999999972
 20
-189.9999999999998
 30
0.0
 11
400.99999999999972
 21
-189.9999999999998
 31
0.0
1001
ACDBBLOCKREPETAG
1070
     1
1071
       57
1005
1060
  0
LINE
  5
1061
  8
0
 10
309.00000000000011
 20
-184.99999999999989
 30
0.0
 11
370.99999999999972
 21
-184.99999999999989
 31
0.0
1001
ACDBBLOCKREPETAG
1070
     1
1071
       58
1005
1061
  0
LINE
  5
1062
  8
0
 10
302.0
 20
-189.9999999999998
 30
0.0
 11
309.00000000000011
 21
-189.9999999999998
 31
0.0
1001
ACDBBLOCKREPETAG
1070
     1
1071
       59
1005
1062
  0
LINE
  5
1063
  8
0
 10
268.00000000000011
 20
-184.99999999999989
 30
0.0
 11
288.00000000000011
 21
-184.99999999999989
 31
0.0
1001
ACDBBLOCKREPETAG
1070
     1
1071
       60
1005
1063
  0
LINE
  5
1064
  8
0
 10
150.9999999999998
 20
-189.9999999999998
 30
0.0
 11
288.00000000000011
 21
-189.9999999999998
 31
0.0
1001
ACDBBLOCKREPETAG
1070
     1
1071
       61
1005
1064
  0
LINE
  5
1065
  8
0
 10
101.4999999999998
 20
-189.9999999999998
 30
0.0
 11
135.9999999999998
 21
-189.9999999999998
 31
0.0
1001
ACDBBLOCKREPETAG
1070
     1
1071
       62
1005
1065
  0
LINE
  5
1066
  8
0
 10
89.999999999999986
 20
-184.99999999999989
 30
0.0
 11
101.4999999999998
 21
-184.99999999999989
 31
0.0
1001
ACDBBLOCKREPETAG
1070
     1
1071
       63
1005
1066
  0
LINE
  5
1067
  8
0
 10
40.0
 20
-189.9999999999998
 30
0.0
 11
89.999999999999986
 21
-189.9999999999998
 31
0.0
1001
ACDBBLOCKREPETAG
1070
     1
1071
       64
1005
1067
  0
LINE
  5
1068
  8
0
 10
370.99999999999972
 20
-179.99999999999989
 30
0.0
 11
400.99999999999972
 21
-179.99999999999989
 31
0.0
1001
ACDBBLOCKREPETAG
1070
     1
1071
       65
1005
1068
  0
LINE
  5
1069
  8
0
 10
309.00000000000011
 20
-174.99999999999989
 30
0.0
 11
370.99999999999972
 21
-174.99999999999989
 31
0.0
1001
ACDBBLOCKREPETAG
1070
     1
1071
       66
1005
1069
  0
LINE
  5
106A
  8
0
 10
302.0
 20
-179.99999999999989
 30
0.0
 11
309.00000000000011
 21
-179.99999999999989
 31
0.0
1001
ACDBBLOCKREPETAG
1070
     1
1071
       67
1005
106A
  0
LINE
  5
106B
  8
0
 10
268.00000000000011
 20
-174.99999999999989
 30
0.0
 11
288.00000000000011
 21
-174.99999999999989
 31
0.0
1001
ACDBBLOCKREPETAG
1070
     1
1071
       68
1005
106B
  0
LINE
  5
106C
  8
0
 10
150.9999999999998
 20
-179.99999999999989
 30
0.0
 11
288.00000000000011
 21
-179.99999999999989
 31
0.0
1001
ACDBBLOCKREPETAG
1070
     1
1071
       69
1005
106C
  0
LINE
  5
106D
  8
0
 10
101.4999999999998
 20
-179.99999999999989
 30
0.0
 11
135.9999999999998
 21
-179.99999999999989
 31
0.0
1001
ACDBBLOCKREPETAG
1070
     1
1071
       70
1005
106D
  0
LINE
  5
106E
  8
0
 10
89.999999999999986
 20
-174.99999999999989
 30
0.0
 11
101.4999999999998
 21
-174.99999999999989
 31
0.0
1001
ACDBBLOCKREPETAG
1070
     1
1071
       71
1005
106E
  0
LINE
  5
106F
  8
0
 10
40.0
 20
-179.99999999999989
 30
0.0
 11
89.999999999999986
 21
-179.99999999999989
 31
0.0
1001
ACDBBLOCKREPETAG
1070
     1
1071
       72
1005
106F
  0
LINE
  5
1070
  8
0
 10
370.99999999999972
 20
-169.9999999999998
 30
0.0
 11
400.99999999999972
 21
-169.9999999999998
 31
0.0
1001
ACDBBLOCKREPETAG
1070
     1
1071
       73
1005
1070
  0
LINE
  5
1071
  8
0
 10
309.00000000000011
 20
-164.9999999999998
 30
0.0
 11
370.99999999999972
 21
-164.9999999999998
 31
0.0
1001
ACDBBLOCKREPETAG
1070
     1
1071
       74
1005
1071
  0
LINE
  5
1072
  8
0
 10
302.0
 20
-169.9999999999998
 30
0.0
 11
309.00000000000011
 21
-169.9999999999998
 31
0.0
1001
ACDBBLOCKREPETAG
1070
     1
1071
       75
1005
1072
  0
LINE
  5
1073
  8
0
 10
268.00000000000011
 20
-164.9999999999998
 30
0.0
 11
288.00000000000011
 21
-164.9999999999998
 31
0.0
1001
ACDBBLOCKREPETAG
1070
     1
1071
       76
1005
1073
  0
LINE
  5
1074
  8
0
 10
150.9999999999998
 20
-169.9999999999998
 30
0.0
 11
288.00000000000011
 21
-169.9999999999998
 31
0.0
1001
ACDBBLOCKREPETAG
1070
     1
1071
       77
1005
1074
  0
LINE
  5
1075
  8
0
 10
101.4999999999998
 20
-169.9999999999998
 30
0.0
 11
135.9999999999998
 21
-169.9999999999998
 31
0.0
1001
ACDBBLOCKREPETAG
1070
     1
1071
       78
1005
1075
  0
LINE
  5
1076
  8
0
 10
89.999999999999986
 20
-164.9999999999998
 30
0.0
 11
101.4999999999998
 21
-164.9999999999998
 31
0.0
1001
ACDBBLOCKREPETAG
1070
     1
1071
       79
1005
1076
  0
LINE
  5
1077
  8
0
 10
40.0
 20
-169.9999999999998
 30
0.0
 11
89.999999999999986
 21
-169.9999999999998
 31
0.0
1001
ACDBBLOCKREPETAG
1070
     1
1071
       80
1005
1077
  0
LINE
  5
1078
  8
0
 10
370.99999999999972
 20
-159.9999999999998
 30
0.0
 11
400.99999999999972
 21
-159.9999999999998
 31
0.0
1001
ACDBBLOCKREPETAG
1070
     1
1071
       81
1005
1078
  0
LINE
  5
1079
  8
0
 10
309.00000000000011
 20
-154.9999999999998
 30
0.0
 11
370.99999999999972
 21
-154.9999999999998
 31
0.0
1001
ACDBBLOCKREPETAG
1070
     1
1071
       82
1005
1079
  0
LINE
  5
107A
  8
0
 10
302.0
 20
-159.9999999999998
 30
0.0
 11
309.00000000000011
 21
-159.9999999999998
 31
0.0
1001
ACDBBLOCKREPETAG
1070
     1
1071
       83
1005
107A
  0
LINE
  5
107B
  8
0
 10
268.00000000000011
 20
-154.9999999999998
 30
0.0
 11
288.00000000000011
 21
-154.9999999999998
 31
0.0
1001
ACDBBLOCKREPETAG
1070
     1
1071
       84
1005
107B
  0
LINE
  5
107C
  8
0
 10
150.9999999999998
 20
-159.9999999999998
 30
0.0
 11
288.00000000000011
 21
-159.9999999999998
 31
0.0
1001
ACDBBLOCKREPETAG
1070
     1
1071
       85
1005
107C
  0
LINE
  5
107D
  8
0
 10
101.4999999999998
 20
-159.9999999999998
 30
0.0
 11
135.9999999999998
 21
-159.9999999999998
 31
0.0
1001
ACDBBLOCKREPETAG
1070
     1
1071
       86
1005
107D
  0
LINE
  5
107E
  8
0
 10
89.999999999999986
 20
-154.9999999999998
 30
0.0
 11
101.4999999999998
 21
-154.9999999999998
 31
0.0
1001
ACDBBLOCKREPETAG
1070
     1
1071
       87
1005
107E
  0
LINE
  5
107F
  8
0
 10
40.0
 20
-159.9999999999998
 30
0.0
 11
89.999999999999986
 21
-159.9999999999998
 31
0.0
1001
ACDBBLOCKREPETAG
1070
     1
1071
       88
1005
107F
  0
LINE
  5
1080
  8
0
 10
370.99999999999972
 20
-149.9999999999998
 30
0.0
 11
400.99999999999972
 21
-149.9999999999998
 31
0.0
1001
ACDBBLOCKREPETAG
1070
     1
1071
       89
1005
1080
  0
LINE
  5
1081
  8
0
 10
309.00000000000011
 20
-144.9999999999998
 30
0.0
 11
370.99999999999972
 21
-144.9999999999998
 31
0.0
1001
ACDBBLOCKREPETAG
1070
     1
1071
       90
1005
1081
  0
LINE
  5
1082
  8
0
 10
302.0
 20
-149.9999999999998
 30
0.0
 11
309.00000000000011
 21
-149.9999999999998
 31
0.0
1001
ACDBBLOCKREPETAG
1070
     1
1071
       91
1005
1082
  0
LINE
  5
1083
  8
0
 10
150.9999999999998
 20
-149.9999999999998
 30
0.0
 11
288.00000000000011
 21
-149.9999999999998
 31
0.0
1001
ACDBBLOCKREPETAG
1070
     1
1071
       92
1005
1083
  0
LINE
  5
1084
  8
0
 10
101.4999999999998
 20
-149.9999999999998
 30
0.0
 11
135.9999999999998
 21
-149.9999999999998
 31
0.0
1001
ACDBBLOCKREPETAG
1070
     1
1071
       93
1005
1084
  0
LINE
  5
1085
  8
0
 10
89.999999999999986
 20
-144.9999999999998
 30
0.0
 11
101.4999999999998
 21
-144.9999999999998
 31
0.0
1001
ACDBBLOCKREPETAG
1070
     1
1071
       94
1005
1085
  0
LINE
  5
1086
  8
0
 10
40.0
 20
-149.9999999999998
 30
0.0
 11
89.999999999999986
 21
-149.9999999999998
 31
0.0
1001
ACDBBLOCKREPETAG
1070
     1
1071
       95
1005
1086
  0
LINE
  5
1087
  8
0
 10
370.99999999999972
 20
-139.9999999999998
 30
0.0
 11
400.99999999999972
 21
-139.9999999999998
 31
0.0
1001
ACDBBLOCKREPETAG
1070
     1
1071
       96
1005
1087
  0
LINE
  5
1088
  8
0
 10
309.00000000000011
 20
-134.9999999999998
 30
0.0
 11
370.99999999999972
 21
-134.9999999999998
 31
0.0
1001
ACDBBLOCKREPETAG
1070
     1
1071
       97
1005
1088
  0
LINE
  5
1089
  8
0
 10
302.0
 20
-139.9999999999998
 30
0.0
 11
309.00000000000011
 21
-139.9999999999998
 31
0.0
1001
ACDBBLOCKREPETAG
1070
     1
1071
       98
1005
1089
  0
LINE
  5
108A
  8
0
 10
150.9999999999998
 20
-139.9999999999998
 30
0.0
 11
288.00000000000011
 21
-139.9999999999998
 31
0.0
1001
ACDBBLOCKREPETAG
1070
     1
1071
       99
1005
108A
  0
LINE
  5
108B
  8
0
 10
101.4999999999998
 20
-139.9999999999998
 30
0.0
 11
135.9999999999998
 21
-139.9999999999998
 31
0.0
1001
ACDBBLOCKREPETAG
1070
     1
1071
      100
1005
108B
  0
LINE
  5
108C
  8
0
 10
89.999999999999986
 20
-134.9999999999998
 30
0.0
 11
101.4999999999998
 21
-134.9999999999998
 31
0.0
1001
ACDBBLOCKREPETAG
1070
     1
1071
      101
1005
108C
  0
LINE
  5
108D
  8
0
 10
40.0
 20
-139.9999999999998
 30
0.0
 11
89.999999999999986
 21
-139.9999999999998
 31
0.0
1001
ACDBBLOCKREPETAG
1070
     1
1071
      102
1005
108D
  0
LINE
  5
108E
  8
0
 10
370.99999999999972
 20
-129.9999999999998
 30
0.0
 11
400.99999999999972
 21
-129.9999999999998
 31
0.0
1001
ACDBBLOCKREPETAG
1070
     1
1071
      103
1005
108E
  0
LINE
  5
108F
  8
0
 10
309.00000000000011
 20
-124.9999999999998
 30
0.0
 11
370.99999999999972
 21
-124.9999999999998
 31
0.0
1001
ACDBBLOCKREPETAG
1070
     1
1071
      104
1005
108F
  0
LINE
  5
1090
  8
0
 10
302.0
 20
-129.9999999999998
 30
0.0
 11
309.00000000000011
 21
-129.9999999999998
 31
0.0
1001
ACDBBLOCKREPETAG
1070
     1
1071
      105
1005
1090
  0
LINE
  5
1091
  8
0
 10
150.9999999999998
 20
-129.9999999999998
 30
0.0
 11
288.00000000000011
 21
-129.9999999999998
 31
0.0
1001
ACDBBLOCKREPETAG
1070
     1
1071
      106
1005
1091
  0
LINE
  5
1092
  8
0
 10
101.4999999999998
 20
-129.9999999999998
 30
0.0
 11
135.9999999999998
 21
-129.9999999999998
 31
0.0
1001
ACDBBLOCKREPETAG
1070
     1
1071
      107
1005
1092
  0
LINE
  5
1093
  8
0
 10
89.999999999999986
 20
-124.9999999999998
 30
0.0
 11
101.4999999999998
 21
-124.9999999999998
 31
0.0
1001
ACDBBLOCKREPETAG
1070
     1
1071
      108
1005
1093
  0
LINE
  5
1094
  8
0
 10
40.0
 20
-129.9999999999998
 30
0.0
 11
89.999999999999986
 21
-129.9999999999998
 31
0.0
1001
ACDBBLOCKREPETAG
1070
     1
1071
      109
1005
1094
  0
LINE
  5
1095
  8
0
 10
370.99999999999972
 20
-119.9999999999998
 30
0.0
 11
400.99999999999972
 21
-119.9999999999998
 31
0.0
1001
ACDBBLOCKREPETAG
1070
     1
1071
      110
1005
1095
  0
LINE
  5
1096
  8
0
 10
309.00000000000011
 20
-114.9999999999999
 30
0.0
 11
370.99999999999972
 21
-114.9999999999999
 31
0.0
1001
ACDBBLOCKREPETAG
1070
     1
1071
      111
1005
1096
  0
LINE
  5
1097
  8
0
 10
302.0
 20
-119.9999999999998
 30
0.0
 11
309.00000000000011
 21
-119.9999999999998
 31
0.0
1001
ACDBBLOCKREPETAG
1070
     1
1071
      112
1005
1097
  0
LINE
  5
1098
  8
0
 10
150.9999999999998
 20
-119.9999999999998
 30
0.0
 11
288.00000000000011
 21
-119.9999999999998
 31
0.0
1001
ACDBBLOCKREPETAG
1070
     1
1071
      113
1005
1098
  0
LINE
  5
1099
  8
0
 10
101.4999999999998
 20
-119.9999999999998
 30
0.0
 11
135.9999999999998
 21
-119.9999999999998
 31
0.0
1001
ACDBBLOCKREPETAG
1070
     1
1071
      114
1005
1099
  0
LINE
  5
109A
  8
0
 10
89.999999999999986
 20
-114.9999999999999
 30
0.0
 11
101.4999999999998
 21
-114.9999999999999
 31
0.0
1001
ACDBBLOCKREPETAG
1070
     1
1071
      115
1005
109A
  0
LINE
  5
109B
  8
0
 10
40.0
 20
-119.9999999999998
 30
0.0
 11
89.999999999999986
 21
-119.9999999999998
 31
0.0
1001
ACDBBLOCKREPETAG
1070
     1
1071
      116
1005
109B
  0
LINE
  5
109C
  8
0
 10
370.99999999999972
 20
-109.9999999999999
 30
0.0
 11
400.99999999999972
 21
-109.9999999999999
 31
0.0
1001
ACDBBLOCKREPETAG
1070
     1
1071
      117
1005
109C
  0
LINE
  5
109D
  8
0
 10
309.00000000000011
 20
-105.0
 30
0.0
 11
370.99999999999972
 21
-105.0
 31
0.0
1001
ACDBBLOCKREPETAG
1070
     1
1071
      118
1005
109D
  0
LINE
  5
109E
  8
0
 10
302.0
 20
-109.9999999999999
 30
0.0
 11
309.00000000000011
 21
-109.9999999999999
 31
0.0
1001
ACDBBLOCKREPETAG
1070
     1
1071
      119
1005
109E
  0
LINE
  5
109F
  8
0
 10
150.9999999999998
 20
-109.9999999999999
 30
0.0
 11
288.00000000000011
 21
-109.9999999999999
 31
0.0
1001
ACDBBLOCKREPETAG
1070
     1
1071
      120
1005
109F
  0
LINE
  5
10A0
  8
0
 10
101.4999999999998
 20
-109.9999999999999
 30
0.0
 11
135.9999999999998
 21
-109.9999999999999
 31
0.0
1001
ACDBBLOCKREPETAG
1070
     1
1071
      121
1005
10A0
  0
LINE
  5
10A1
  8
0
 10
89.999999999999986
 20
-105.0
 30
0.0
 11
101.4999999999998
 21
-105.0
 31
0.0
1001
ACDBBLOCKREPETAG
1070
     1
1071
      122
1005
10A1
  0
LINE
  5
10A2
  8
0
 10
40.0
 20
-109.9999999999999
 30
0.0
 11
89.999999999999986
 21
-109.9999999999999
 31
0.0
1001
ACDBBLOCKREPETAG
1070
     1
1071
      123
1005
10A2
  0
LINE
  5
10A3
  8
0
 10
370.99999999999972
 20
-100.0
 30
0.0
 11
400.99999999999972
 21
-100.0
 31
0.0
1001
ACDBBLOCKREPETAG
1070
     1
1071
      124
1005
10A3
  0
LINE
  5
10A4
  8
0
 10
309.00000000000011
 20
-94.999999999999787
 30
0.0
 11
370.99999999999972
 21
-94.999999999999787
 31
0.0
1001
ACDBBLOCKREPETAG
1070
     1
1071
      125
1005
10A4
  0
LINE
  5
10A5
  8
0
 10
302.0
 20
-100.0
 30
0.0
 11
309.00000000000011
 21
-100.0
 31
0.0
1001
ACDBBLOCKREPETAG
1070
     1
1071
      126
1005
10A5
  0
LINE
  5
10A6
  8
0
 10
150.9999999999998
 20
-100.0
 30
0.0
 11
288.00000000000011
 21
-100.0
 31
0.0
1001
ACDBBLOCKREPETAG
1070
     1
1071
      127
1005
10A6
  0
LINE
  5
10A7
  8
0
 10
101.4999999999998
 20
-100.0
 30
0.0
 11
135.9999999999998
 21
-100.0
 31
0.0
1001
ACDBBLOCKREPETAG
1070
     1
1071
      128
1005
10A7
  0
LINE
  5
10A8
  8
0
 10
89.999999999999986
 20
-94.999999999999787
 30
0.0
 11
101.4999999999998
 21
-94.999999999999787
 31
0.0
1001
ACDBBLOCKREPETAG
1070
     1
1071
      129
1005
10A8
  0
LINE
  5
10A9
  8
0
 10
40.0
 20
-100.0
 30
0.0
 11
89.999999999999986
 21
-100.0
 31
0.0
1001
ACDBBLOCKREPETAG
1070
     1
1071
      130
1005
10A9
  0
LINE
  5
10AA
  8
0
 10
370.99999999999972
 20
-89.999999999999915
 30
0.0
 11
400.99999999999972
 21
-89.999999999999915
 31
0.0
1001
ACDBBLOCKREPETAG
1070
     1
1071
      131
1005
10AA
  0
LINE
  5
10AB
  8
0
 10
309.00000000000011
 20
-84.999999999999915
 30
0.0
 11
370.99999999999972
 21
-84.999999999999915
 31
0.0
1001
ACDBBLOCKREPETAG
1070
     1
1071
      132
1005
10AB
  0
LINE
  5
10AC
  8
0
 10
302.0
 20
-89.999999999999915
 30
0.0
 11
309.00000000000011
 21
-89.999999999999915
 31
0.0
1001
ACDBBLOCKREPETAG
1070
     1
1071
      133
1005
10AC
  0
LINE
  5
10AD
  8
0
 10
150.9999999999998
 20
-89.999999999999915
 30
0.0
 11
288.00000000000011
 21
-89.999999999999915
 31
0.0
1001
ACDBBLOCKREPETAG
1070
     1
1071
      134
1005
10AD
  0
LINE
  5
10AE
  8
0
 10
101.4999999999998
 20
-89.999999999999915
 30
0.0
 11
135.9999999999998
 21
-89.999999999999915
 31
0.0
1001
ACDBBLOCKREPETAG
1070
     1
1071
      135
1005
10AE
  0
LINE
  5
10AF
  8
0
 10
89.999999999999986
 20
-84.999999999999915
 30
0.0
 11
101.4999999999998
 21
-84.999999999999915
 31
0.0
1001
ACDBBLOCKREPETAG
1070
     1
1071
      136
1005
10AF
  0
LINE
  5
10B0
  8
0
 10
40.0
 20
-89.999999999999915
 30
0.0
 11
89.999999999999986
 21
-89.999999999999915
 31
0.0
1001
ACDBBLOCKREPETAG
1070
     1
1071
      137
1005
10B0
  0
LINE
  5
10B1
  8
0
 10
370.99999999999972
 20
-79.999999999999901
 30
0.0
 11
400.99999999999972
 21
-79.999999999999901
 31
0.0
1001
ACDBBLOCKREPETAG
1070
     1
1071
      138
1005
10B1
  0
LINE
  5
10B2
  8
0
 10
309.00000000000011
 20
-74.999999999999972
 30
0.0
 11
370.99999999999972
 21
-74.999999999999972
 31
0.0
1001
ACDBBLOCKREPETAG
1070
     1
1071
      139
1005
10B2
  0
LINE
  5
10B3
  8
0
 10
302.0
 20
-79.999999999999901
 30
0.0
 11
309.00000000000011
 21
-79.999999999999901
 31
0.0
1001
ACDBBLOCKREPETAG
1070
     1
1071
      140
1005
10B3
  0
LINE
  5
10B4
  8
0
 10
150.9999999999998
 20
-79.999999999999901
 30
0.0
 11
288.00000000000011
 21
-79.999999999999901
 31
0.0
1001
ACDBBLOCKREPETAG
1070
     1
1071
      141
1005
10B4
  0
LINE
  5
10B5
  8
0
 10
101.4999999999998
 20
-79.999999999999901
 30
0.0
 11
135.9999999999998
 21
-79.999999999999901
 31
0.0
1001
ACDBBLOCKREPETAG
1070
     1
1071
      142
1005
10B5
  0
LINE
  5
10B6
  8
0
 10
89.999999999999986
 20
-74.999999999999972
 30
0.0
 11
101.4999999999998
 21
-74.999999999999972
 31
0.0
1001
ACDBBLOCKREPETAG
1070
     1
1071
      143
1005
10B6
  0
LINE
  5
10B7
  8
0
 10
40.0
 20
-79.999999999999901
 30
0.0
 11
89.999999999999986
 21
-79.999999999999901
 31
0.0
1001
ACDBBLOCKREPETAG
1070
     1
1071
      144
1005
10B7
  0
LINE
  5
10B8
  8
0
 10
370.99999999999972
 20
-69.999999999999801
 30
0.0
 11
400.99999999999972
 21
-69.999999999999801
 31
0.0
1001
ACDBBLOCKREPETAG
1070
     1
1071
      145
1005
10B8
  0
LINE
  5
10B9
  8
0
 10
309.00000000000011
 20
-64.999999999999915
 30
0.0
 11
370.99999999999972
 21
-64.999999999999915
 31
0.0
1001
ACDBBLOCKREPETAG
1070
     1
1071
      146
1005
10B9
  0
LINE
  5
10BA
  8
0
 10
302.0
 20
-69.999999999999801
 30
0.0
 11
309.00000000000011
 21
-69.999999999999801
 31
0.0
1001
ACDBBLOCKREPETAG
1070
     1
1071
      147
1005
10BA
  0
LINE
  5
10BB
  8
0
 10
150.9999999999998
 20
-69.999999999999801
 30
0.0
 11
288.00000000000011
 21
-69.999999999999801
 31
0.0
1001
ACDBBLOCKREPETAG
1070
     1
1071
      148
1005
10BB
  0
LINE
  5
10BC
  8
0
 10
101.4999999999998
 20
-69.999999999999801
 30
0.0
 11
135.9999999999998
 21
-69.999999999999801
 31
0.0
1001
ACDBBLOCKREPETAG
1070
     1
1071
      149
1005
10BC
  0
LINE
  5
10BD
  8
0
 10
89.999999999999986
 20
-64.999999999999915
 30
0.0
 11
101.4999999999998
 21
-64.999999999999915
 31
0.0
1001
ACDBBLOCKREPETAG
1070
     1
1071
      150
1005
10BD
  0
LINE
  5
10BE
  8
0
 10
40.0
 20
-69.999999999999801
 30
0.0
 11
89.999999999999986
 21
-69.999999999999801
 31
0.0
1001
ACDBBLOCKREPETAG
1070
     1
1071
      151
1005
10BE
  0
TEXT
  5
10BF
  8
0
 10
28.0
 20
-272.99999999999972
 30
0.0
 40
2.5
  1
说明:
  7
TLCAD
 11
28.0
 21
-272.99999999999972
 31
0.0
 73
     1
1001
ACDBBLOCKREPETAG
1070
     1
1071
      152
1005
10BF
  0
LINE
  5
10C0
  8
0
 10
398.00000000000011
 20
-24.99999999999989
 30
0.0
 11
414.99999999999949
 21
-24.99999999999989
 31
0.0
1001
ACDBBLOCKREPETAG
1070
     1
1071
      153
1005
10C0
  0
TEXT
  5
10C1
  8
0
 10
390.00000000000011
 20
-24.99999999999989
 30
0.0
 40
2.5
  1
页次
  7
TLCAD
 11
390.00000000000011
 21
-24.99999999999989
 31
0.0
 73
     1
1001
ACDBBLOCKREPETAG
1070
     1
1071
      154
1005
10C1
  0
TEXT
  5
10C2
  8
0
 10
325.0
 20
-36.999999999999773
 30
0.0
 40
1.875
  1
交叉跨越名称及次数
  7
TLCAD
 11
325.0
 21
-36.999999999999773
 31
0.0
 73
     1
1001
ACDBBLOCKREPETAG
1070
     1
1071
      155
1005
10C2
  0
TEXT
  5
10C3
  8
0
 10
403.49999999999972
 20
-52.499999999999922
 30
0.0
 40
3.125
  1
地名
  7
TLCAD
 11
403.49999999999972
 21
-52.499999999999922
 31
0.0
 73
     1
1001
ACDBBLOCKREPETAG
1070
     1
1071
      156
1005
10C3
  0
TEXT
  5
10C4
  8
0
 10
403.49999999999972
 20
-42.499999999999922
 30
0.0
 40
3.125
  1
经过
  7
TLCAD
 11
403.49999999999972
 21
-42.499999999999922
 31
0.0
 73
     1
1001
ACDBBLOCKREPETAG
1070
     1
1071
      157
1005
10C4
  0
TEXT
  5
10C5
  8
0
 10
379.99999999999972
 20
-56.999999999999922
 30
0.0
 40
2.5
  1
备   注
  7
TLCAD
 11
379.99999999999972
 21
-56.999999999999922
 31
0.0
 73
     1
1001
ACDBBLOCKREPETAG
1070
     1
1071
      158
1005
10C5
  0
TEXT
  5
10C6
  8
0
 10
366.00000000000011
 20
-56.999999999999922
 30
0.0
 40
1.875
  1
他
  7
TLCAD
 11
366.00000000000011
 21
-56.999999999999922
 31
0.0
 73
     1
1001
ACDBBLOCKREPETAG
1070
     1
1071
      159
1005
10C6
  0
TEXT
  5
10C7
  8
0
 10
366.00000000000011
 20
-42.999999999999801
 30
0.0
 40
1.875
  1
其
  7
TLCAD
 11
366.00000000000011
 21
-42.999999999999801
 31
0.0
 73
     1
1001
ACDBBLOCKREPETAG
1070
     1
1071
      160
1005
10C7
  0
TEXT
  5
10C8
  8
0
 10
359.00000000000023
 20
-56.999999999999922
 30
0.0
 40
1.875
  1
流
  7
TLCAD
 11
359.00000000000023
 21
-56.999999999999922
 31
0.0
 73
     1
1001
ACDBBLOCKREPETAG
1070
     1
1071
      161
1005
10C8
  0
TEXT
  5
10C9
  8
0
 10
359.00000000000023
 20
-42.999999999999801
 30
0.0
 40
1.875
  1
河
  7
TLCAD
 11
359.00000000000023
 21
-42.999999999999801
 31
0.0
 73
     1
1001
ACDBBLOCKREPETAG
1070
     1
1071
      162
1005
10C9
  0
TEXT
  5
10CA
  8
0
 10
352.0
 20
-56.999999999999922
 30
0.0
 40
1.875
  1
路
  7
TLCAD
 11
352.0
 21
-56.999999999999922
 31
0.0
 73
     1
1001
ACDBBLOCKREPETAG
1070
     1
1071
      163
1005
10CA
  0
TEXT
  5
10CB
  8
0
 10
352.0
 20
-42.999999999999801
 30
0.0
 40
1.875
  1
铁
  7
TLCAD
 11
352.0
 21
-42.999999999999801
 31
0.0
 73
     1
1001
ACDBBLOCKREPETAG
1070
     1
1071
      164
1005
10CB
  0
TEXT
  5
10CC
  8
0
 10
345.00000000000023
 20
-56.999999999999922
 30
0.0
 40
1.875
  1
路
  7
TLCAD
 11
345.00000000000023
 21
-56.999999999999922
 31
0.0
 73
     1
1001
ACDBBLOCKREPETAG
1070
     1
1071
      165
1005
10CC
  0
TEXT
  5
10CD
  8
0
 10
345.00000000000023
 20
-42.999999999999801
 30
0.0
 40
1.875
  1
公
  7
TLCAD
 11
345.00000000000023
 21
-42.999999999999801
 31
0.0
 73
     1
1001
ACDBBLOCKREPETAG
1070
     1
1071
      166
1005
10CD
  0
TEXT
  5
10CE
  8
0
 10
338.00000000000011
 20
-56.999999999999922
 30
0.0
 40
1.875
  1
屋
  7
TLCAD
 11
338.00000000000011
 21
-56.999999999999922
 31
0.0
 73
     1
1001
ACDBBLOCKREPETAG
1070
     1
1071
      167
1005
10CE
  0
TEXT
  5
10CF
  8
0
 10
338.00000000000011
 20
-42.999999999999801
 30
0.0
 40
1.875
  1
房
  7
TLCAD
 11
338.00000000000011
 21
-42.999999999999801
 31
0.0
 73
     1
1001
ACDBBLOCKREPETAG
1070
     1
1071
      168
1005
10CF
  0
TEXT
  5
10D0
  8
0
 10
331.0
 20
-56.999999999999922
 30
0.0
 40
1.875
  1
线
  7
TLCAD
 11
331.0
 21
-56.999999999999922
 31
0.0
 73
     1
1001
ACDBBLOCKREPETAG
1070
     1
1071
      169
1005
10D0
  0
TEXT
  5
10D1
  8
0
 10
331.0
 20
-49.999999999999972
 30
0.0
 40
1.875
  1
播
  7
TLCAD
 11
331.0
 21
-49.999999999999972
 31
0.0
 73
     1
1001
ACDBBLOCKREPETAG
1070
     1
1071
      170
1005
10D1
  0
TEXT
  5
10D2
  8
0
 10
331.0
 20
-42.999999999999801
 30
0.0
 40
1.875
  1
广
  7
TLCAD
 11
331.0
 21
-42.999999999999801
 31
0.0
 73
     1
1001
ACDBBLOCKREPETAG
1070
     1
1071
      171
1005
10D2
  0
TEXT
  5
10D3
  8
0
 10
324.00000000000011
 20
-56.999999999999922
 30
0.0
 40
1.875
  1
线
  7
TLCAD
 11
324.00000000000011
 21
-56.999999999999922
 31
0.0
 73
     1
1001
ACDBBLOCKREPETAG
1070
     1
1071
      172
1005
10D3
  0
TEXT
  5
10D4
  8
0
 10
324.00000000000011
 20
-49.999999999999972
 30
0.0
 40
1.875
  1
信
  7
TLCAD
 11
324.00000000000011
 21
-49.999999999999972
 31
0.0
 73
     1
1001
ACDBBLOCKREPETAG
1070
     1
1071
      173
1005
10D4
  0
TEXT
  5
10D5
  8
0
 10
324.00000000000011
 20
-42.999999999999801
 30
0.0
 40
1.875
  1
通
  7
TLCAD
 11
324.00000000000011
 21
-42.999999999999801
 31
0.0
 73
     1
1001
ACDBBLOCKREPETAG
1070
     1
1071
      174
1005
10D5
  0
TEXT
  5
10D6
  8
0
 10
317.00000000000011
 20
-56.999999999999922
 30
0.0
 40
1.875
  1
线
  7
TLCAD
 11
317.00000000000011
 21
-56.999999999999922
 31
0.0
 73
     1
1001
ACDBBLOCKREPETAG
1070
     1
1071
      175
1005
10D6
  0
TEXT
  5
10D7
  8
0
 10
317.00000000000011
 20
-49.999999999999972
 30
0.0
 40
1.875
  1
压
  7
TLCAD
 11
317.00000000000011
 21
-49.999999999999972
 31
0.0
 73
     1
1001
ACDBBLOCKREPETAG
1070
     1
1071
      176
1005
10D7
  0
TEXT
  5
10D8
  8
0
 10
317.00000000000011
 20
-42.999999999999801
 30
0.0
 40
1.875
  1
低
  7
TLCAD
 11
317.00000000000011
 21
-42.999999999999801
 31
0.0
 73
     1
1001
ACDBBLOCKREPETAG
1070
     1
1071
      177
1005
10D8
  0
TEXT
  5
10D9
  8
0
 10
310.49999999999989
 20
-56.999999999999922
 30
0.0
 40
1.875
  1
线
  7
TLCAD
 11
310.49999999999989
 21
-56.999999999999922
 31
0.0
 73
     1
1001
ACDBBLOCKREPETAG
1070
     1
1071
      178
1005
10D9
  0
TEXT
  5
10DA
  8
0
 10
310.49999999999989
 20
-49.999999999999972
 30
0.0
 40
1.875
  1
力
  7
TLCAD
 11
310.49999999999989
 21
-49.999999999999972
 31
0.0
 73
     1
1001
ACDBBLOCKREPETAG
1070
     1
1071
      179
1005
10DA
  0
TEXT
  5
10DB
  8
0
 10
310.49999999999989
 20
-42.999999999999801
 30
0.0
 40
1.875
  1
电
  7
TLCAD
 11
310.49999999999989
 21
-42.999999999999801
 31
0.0
 73
     1
1001
ACDBBLOCKREPETAG
1070
     1
1071
      180
1005
10DB
  0
LINE
  5
10DC
  8
0
 10
364.00000000000011
 20
-38.999999999999773
 30
0.0
 11
364.00000000000011
 21
-259.99999999999972
 31
0.0
1001
ACDBBLOCKREPETAG
1070
     1
1071
      181
1005
10DC
  0
LINE
  5
10DD
  8
0
 10
357.00000000000023
 20
-38.999999999999773
 30
0.0
 11
357.00000000000023
 21
-259.99999999999972
 31
0.0
1001
ACDBBLOCKREPETAG
1070
     1
1071
      182
1005
10DD
  0
LINE
  5
10DE
  8
0
 10
350.0
 20
-38.999999999999773
 30
0.0
 11
350.0
 21
-259.99999999999972
 31
0.0
1001
ACDBBLOCKREPETAG
1070
     1
1071
      183
1005
10DE
  0
LINE
  5
10DF
  8
0
 10
343.00000000000011
 20
-38.999999999999773
 30
0.0
 11
343.00000000000011
 21
-259.99999999999972
 31
0.0
1001
ACDBBLOCKREPETAG
1070
     1
1071
      184
1005
10DF
  0
LINE
  5
10E0
  8
0
 10
336.00000000000011
 20
-38.999999999999773
 30
0.0
 11
336.00000000000011
 21
-259.99999999999972
 31
0.0
1001
ACDBBLOCKREPETAG
1070
     1
1071
      185
1005
10E0
  0
LINE
  5
10E1
  8
0
 10
329.0
 20
-38.999999999999773
 30
0.0
 11
329.0
 21
-259.99999999999972
 31
0.0
1001
ACDBBLOCKREPETAG
1070
     1
1071
      186
1005
10E1
  0
LINE
  5
10E2
  8
0
 10
322.00000000000011
 20
-38.999999999999773
 30
0.0
 11
322.00000000000011
 21
-259.99999999999972
 31
0.0
1001
ACDBBLOCKREPETAG
1070
     1
1071
      187
1005
10E2
  0
LINE
  5
10E3
  8
0
 10
315.00000000000011
 20
-38.999999999999773
 30
0.0
 11
315.00000000000011
 21
-259.99999999999972
 31
0.0
1001
ACDBBLOCKREPETAG
1070
     1
1071
      188
1005
10E3
  0
LINE
  5
10E4
  8
0
 10
309.00000000000011
 20
-38.999999999999773
 30
0.0
 11
370.99999999999972
 21
-38.999999999999773
 31
0.0
1001
ACDBBLOCKREPETAG
1070
     1
1071
      189
1005
10E4
  0
TEXT
  5
10E5
  8
0
 10
302.50000000000011
 20
-55.999999999999893
 30
0.0
 40
1.875
  1
(片)
  7
TLCAD
 11
302.50000000000011
 21
-55.999999999999893
 31
0.0
 73
     1
1001
ACDBBLOCKREPETAG
1070
     1
1071
      190
1005
10E5
  0
TEXT
  5
10E6
  8
0
 10
304.0
 20
-51.999999999999972
 30
0.0
 40
1.875
  1
锤
  7
TLCAD
 11
304.0
 21
-51.999999999999972
 31
0.0
 73
     1
1001
ACDBBLOCKREPETAG
1070
     1
1071
      191
1005
10E6
  0
TEXT
  5
10E7
  8
0
 10
304.0
 20
-47.999999999999972
 30
0.0
 40
1.875
  1
重
  7
TLCAD
 11
304.0
 21
-47.999999999999972
 31
0.0
 73
     1
1001
ACDBBLOCKREPETAG
1070
     1
1071
      192
1005
10E7
  0
TEXT
  5
10E8
  8
0
 10
304.0
 20
-43.999999999999972
 30
0.0
 40
1.875
  1
挂
  7
TLCAD
 11
304.0
 21
-43.999999999999972
 31
0.0
 73
     1
1001
ACDBBLOCKREPETAG
1070
     1
1071
      193
1005
10E8
  0
TEXT
  5
10E9
  8
0
 10
304.0
 20
-39.999999999999893
 30
0.0
 40
1.875
  1
相
  7
TLCAD
 11
304.0
 21
-39.999999999999893
 31
0.0
 73
     1
1001
ACDBBLOCKREPETAG
1070
     1
1071
      194
1005
10E9
  0
TEXT
  5
10EA
  8
0
 10
304.0
 20
-35.999999999999893
 30
0.0
 40
1.875
  1
每
  7
TLCAD
 11
304.0
 21
-35.999999999999893
 31
0.0
 73
     1
1001
ACDBBLOCKREPETAG
1070
     1
1071
      195
1005
10EA
  0
TEXT
  5
10EB
  8
0
 10
296.99999999999989
 20
-57.999999999999901
 30
0.0
 40
1.875
  1
线
  7
TLCAD
 11
296.99999999999989
 21
-57.999999999999901
 31
0.0
 73
     1
1001
ACDBBLOCKREPETAG
1070
     1
1071
      196
1005
10EB
  0
TEXT
  5
10EC
  8
0
 10
296.99999999999989
 20
-53.999999999999972
 30
0.0
 40
1.875
  1
地
  7
TLCAD
 11
296.99999999999989
 21
-53.999999999999972
 31
0.0
 73
     1
1001
ACDBBLOCKREPETAG
1070
     1
1071
      197
1005
10EC
  0
TEXT
  5
10ED
  8
0
 10
290.00000000000011
 20
-57.999999999999901
 30
0.0
 40
1.875
  1
线
  7
TLCAD
 11
290.00000000000011
 21
-57.999999999999901
 31
0.0
 73
     1
1001
ACDBBLOCKREPETAG
1070
     1
1071
      198
1005
10ED
  0
TEXT
  5
10EE
  8
0
 10
290.00000000000011
 20
-53.999999999999972
 30
0.0
 40
1.875
  1
导
  7
TLCAD
 11
290.00000000000011
 21
-53.999999999999972
 31
0.0
 73
     1
1001
ACDBBLOCKREPETAG
1070
     1
1071
      199
1005
10EE
  0
TEXT
  5
10EF
  8
0
 10
281.0
 20
-57.999999999999901
 30
0.0
 40
1.875
  1
线
  7
TLCAD
 11
281.0
 21
-57.999999999999901
 31
0.0
 73
     1
1001
ACDBBLOCKREPETAG
1070
     1
1071
      200
1005
10EF
  0
TEXT
  5
10F0
  8
0
 10
281.0
 20
-53.999999999999972
 30
0.0
 40
1.875
  1
地
  7
TLCAD
 11
281.0
 21
-53.999999999999972
 31
0.0
 73
     1
1001
ACDBBLOCKREPETAG
1070
     1
1071
      201
1005
10F0
  0
TEXT
  5
10F1
  8
0
 10
270.99999999999989
 20
-57.999999999999901
 30
0.0
 40
1.875
  1
线
  7
TLCAD
 11
270.99999999999989
 21
-57.999999999999901
 31
0.0
 73
     1
1001
ACDBBLOCKREPETAG
1070
     1
1071
      202
1005
10F1
  0
TEXT
  5
10F2
  8
0
 10
270.99999999999989
 20
-53.999999999999972
 30
0.0
 40
1.875
  1
导
  7
TLCAD
 11
270.99999999999989
 21
-53.999999999999972
 31
0.0
 73
     1
1001
ACDBBLOCKREPETAG
1070
     1
1071
      203
1005
10F2
  0
TEXT
  5
10F3
  8
0
 10
292.00000000000011
 20
-48.999999999999801
 30
0.0
 40
1.875
  1
(米)
  7
TLCAD
 11
292.00000000000011
 21
-48.999999999999801
 31
0.0
 73
     1
1001
ACDBBLOCKREPETAG
1070
     1
1071
      204
1005
10F3
  0
TEXT
  5
10F4
  8
0
 10
291.0
 20
-45.999999999999957
 30
0.0
 40
1.875
  1
距  离
  7
TLCAD
 11
291.0
 21
-45.999999999999957
 31
0.0
 73
     1
1001
ACDBBLOCKREPETAG
1070
     1
1071
      205
1005
10F4
  0
TEXT
  5
10F5
  8
0
 10
274.00000000000011
 20
-47.999999999999972
 30
0.0
 40
1.875
  1
个  数
  7
TLCAD
 11
274.00000000000011
 21
-47.999999999999972
 31
0.0
 73
     1
1001
ACDBBLOCKREPETAG
1070
     1
1071
      206
1005
10F5
  0
TEXT
  5
10F6
  8
0
 10
275.0
 20
-37.999999999999908
 30
0.0
 40
1.875
  1
每 线 防 振 锤
  7
TLCAD
 11
275.0
 21
-37.999999999999908
 31
0.0
 73
     1
1001
ACDBBLOCKREPETAG
1070
     1
1071
      207
1005
10F6
  0
LINE
  5
10F7
  8
0
 10
288.00000000000011
 20
-41.999999999999908
 30
0.0
 11
288.00000000000011
 21
-259.99999999999972
 31
0.0
1001
ACDBBLOCKREPETAG
1070
     1
1071
      208
1005
10F7
  0
LINE
  5
10F8
  8
0
 10
400.99999999999972
 20
-259.99999999999972
 30
0.0
 11
400.99999999999972
 21
-31.99999999999989
 31
0.0
1001
ACDBBLOCKREPETAG
1070
     1
1071
      209
1005
10F8
  0
LINE
  5
10F9
  8
0
 10
370.99999999999972
 20
-259.99999999999972
 30
0.0
 11
370.99999999999972
 21
-31.99999999999989
 31
0.0
1001
ACDBBLOCKREPETAG
1070
     1
1071
      210
1005
10F9
  0
LINE
  5
10FA
  8
0
 10
309.00000000000011
 20
-259.99999999999972
 30
0.0
 11
309.00000000000011
 21
-31.99999999999989
 31
0.0
1001
ACDBBLOCKREPETAG
1070
     1
1071
      211
1005
10FA
  0
LINE
  5
10FB
  8
0
 10
302.0
 20
-259.99999999999972
 30
0.0
 11
302.0
 21
-31.99999999999989
 31
0.0
1001
ACDBBLOCKREPETAG
1070
     1
1071
      212
1005
10FB
  0
LINE
  5
10FC
  8
0
 10
295.00000000000011
 20
-49.999999999999972
 30
0.0
 11
295.00000000000011
 21
-259.99999999999972
 31
0.0
1001
ACDBBLOCKREPETAG
1070
     1
1071
      213
1005
10FC
  0
LINE
  5
10FD
  8
0
 10
268.00000000000011
 20
-49.999999999999972
 30
0.0
 11
302.0
 21
-49.999999999999972
 31
0.0
1001
ACDBBLOCKREPETAG
1070
     1
1071
      214
1005
10FD
  0
LINE
  5
10FE
  8
0
 10
268.00000000000011
 20
-41.999999999999908
 30
0.0
 11
302.0
 21
-41.999999999999908
 31
0.0
1001
ACDBBLOCKREPETAG
1070
     1
1071
      215
1005
10FE
  0
TEXT
  5
10FF
  8
0
 10
261.00000000000011
 20
-54.999999999999922
 30
0.0
 40
1.875
  1
(串)
  7
TLCAD
 11
261.00000000000011
 21
-54.999999999999922
 31
0.0
 73
     1
1001
ACDBBLOCKREPETAG
1070
     1
1071
      216
1005
10FF
  0
TEXT
  5
1100
  8
0
 10
258.0
 20
-56.999999999999922
 30
0.0
 40
1.875
  1
量
  7
TLCAD
 11
258.0
 21
-56.999999999999922
 31
0.0
 73
     1
1001
ACDBBLOCKREPETAG
1070
     1
1071
      217
1005
1100
  0
TEXT
  5
1101
  8
0
 10
258.0
 20
-52.999999999999801
 30
0.0
 40
1.875
  1
数
  7
TLCAD
 11
258.0
 21
-52.999999999999801
 31
0.0
 73
     1
1001
ACDBBLOCKREPETAG
1070
     1
1071
      218
1005
1101
  0
TEXT
  5
1102
  8
0
 10
242.0
 20
-56.499999999999972
 30
0.0
 40
2.5
  1
型号
  7
TLCAD
 11
242.0
 21
-56.499999999999972
 31
0.0
 73
     1
1001
ACDBBLOCKREPETAG
1070
     1
1071
      219
1005
1102
  0
TEXT
  5
1103
  8
0
 10
229.0
 20
-54.999999999999922
 30
0.0
 40
1.875
  1
(串)
  7
TLCAD
 11
229.0
 21
-54.999999999999922
 31
0.0
 73
     1
1001
ACDBBLOCKREPETAG
1070
     1
1071
      220
1005
1103
  0
TEXT
  5
1104
  8
0
 10
226.0
 20
-56.999999999999922
 30
0.0
 40
1.875
  1
量
  7
TLCAD
 11
226.0
 21
-56.999999999999922
 31
0.0
 73
     1
1001
ACDBBLOCKREPETAG
1070
     1
1071
      221
1005
1104
  0
TEXT
  5
1105
  8
0
 10
226.0
 20
-52.999999999999801
 30
0.0
 40
1.875
  1
数
  7
TLCAD
 11
226.0
 21
-52.999999999999801
 31
0.0
 73
     1
1001
ACDBBLOCKREPETAG
1070
     1
1071
      222
1005
1105
  0
TEXT
  5
1106
  8
0
 10
242.0
 20
-41.999999999999908
 30
0.0
 40
2.5
  1
地线金具串
  7
TLCAD
 11
242.0
 21
-41.999999999999908
 31
0.0
 73
     1
1001
ACDBBLOCKREPETAG
1070
     1
1071
      223
1005
1106
  0
TEXT
  5
1107
  8
0
 10
210.0
 20
-55.499999999999801
 30
0.0
 40
2.5
  1
型号
  7
TLCAD
 11
210.0
 21
-55.499999999999801
 31
0.0
 73
     1
1001
ACDBBLOCKREPETAG
1070
     1
1071
      224
1005
1107
  0
TEXT
  5
1108
  8
0
 10
210.0
 20
-41.999999999999908
 30
0.0
 40
2.5
  1
导线跳线串
  7
TLCAD
 11
210.0
 21
-41.999999999999908
 31
0.0
 73
     1
1001
ACDBBLOCKREPETAG
1070
     1
1071
      225
1005
1108
  0
LINE
  5
1109
  8
0
 10
268.00000000000011
 20
-259.99999999999972
 30
0.0
 11
268.00000000000011
 21
-31.99999999999989
 31
0.0
1001
ACDBBLOCKREPETAG
1070
     1
1071
      226
1005
1109
  0
LINE
  5
110A
  8
0
 10
256.0
 20
-47.999999999999972
 30
0.0
 11
256.0
 21
-259.99999999999972
 31
0.0
1001
ACDBBLOCKREPETAG
1070
     1
1071
      227
1005
110A
  0
LINE
  5
110B
  8
0
 10
224.0
 20
-47.999999999999972
 30
0.0
 11
224.0
 21
-259.99999999999972
 31
0.0
1001
ACDBBLOCKREPETAG
1070
     1
1071
      228
1005
110B
  0
LINE
  5
110C
  8
0
 10
204.0
 20
-47.999999999999972
 30
0.0
 11
268.00000000000011
 21
-47.999999999999972
 31
0.0
1001
ACDBBLOCKREPETAG
1070
     1
1071
      229
1005
110C
  0
LINE
  5
110D
  8
0
 10
236.0
 20
-259.99999999999972
 30
0.0
 11
236.0
 21
-31.99999999999989
 31
0.0
1001
ACDBBLOCKREPETAG
1070
     1
1071
      230
1005
110D
  0
TEXT
  5
110E
  8
0
 10
195.9999999999998
 20
-54.999999999999922
 30
0.0
 40
1.875
  1
(串)
  7
TLCAD
 11
195.9999999999998
 21
-54.999999999999922
 31
0.0
 73
     1
1001
ACDBBLOCKREPETAG
1070
     1
1071
      231
1005
110E
  0
TEXT
  5
110F
  8
0
 10
193.9999999999998
 20
-56.999999999999922
 30
0.0
 40
1.875
  1
量
  7
TLCAD
 11
193.9999999999998
 21
-56.999999999999922
 31
0.0
 73
     1
1001
ACDBBLOCKREPETAG
1070
     1
1071
      232
1005
110F
  0
TEXT
  5
1110
  8
0
 10
193.9999999999998
 20
-52.999999999999801
 30
0.0
 40
1.875
  1
数
  7
TLCAD
 11
193.9999999999998
 21
-52.999999999999801
 31
0.0
 73
     1
1001
ACDBBLOCKREPETAG
1070
     1
1071
      233
1005
1110
  0
TEXT
  5
1111
  8
0
 10
175.99999999999989
 20
-55.499999999999801
 30
0.0
 40
2.5
  1
型  号
  7
TLCAD
 11
175.99999999999989
 21
-55.499999999999801
 31
0.0
 73
     1
1001
ACDBBLOCKREPETAG
1070
     1
1071
      234
1005
1111
  0
TEXT
  5
1112
  8
0
 10
175.99999999999989
 20
-41.999999999999908
 30
0.0
 40
2.5
  1
导线绝缘子串
  7
TLCAD
 11
175.99999999999989
 21
-41.999999999999908
 31
0.0
 73
     1
1001
ACDBBLOCKREPETAG
1070
     1
1071
      235
1005
1112
  0
LINE
  5
1113
  8
0
 10
191.9999999999998
 20
-47.999999999999972
 30
0.0
 11
191.9999999999998
 21
-259.99999999999972
 31
0.0
1001
ACDBBLOCKREPETAG
1070
     1
1071
      236
1005
1113
  0
LINE
  5
1114
  8
0
 10
171.99999999999989
 20
-47.999999999999972
 30
0.0
 11
204.0
 21
-47.999999999999972
 31
0.0
1001
ACDBBLOCKREPETAG
1070
     1
1071
      237
1005
1114
  0
LINE
  5
1115
  8
0
 10
204.0
 20
-259.99999999999972
 30
0.0
 11
204.0
 21
-31.99999999999989
 31
0.0
1001
ACDBBLOCKREPETAG
1070
     1
1071
      238
1005
1115
  0
TEXT
  5
1116
  8
0
 10
162.9999999999998
 20
-57.999999999999901
 30
0.0
 40
1.875
  1
(米)
  7
TLCAD
 11
162.9999999999998
 21
-57.999999999999901
 31
0.0
 73
     1
1001
ACDBBLOCKREPETAG
1070
     1
1071
      239
1005
1116
  0
TEXT
  5
1117
  8
0
 10
164.9999999999998
 20
-52.999999999999801
 30
0.0
 40
1.875
  1
深
  7
TLCAD
 11
164.9999999999998
 21
-52.999999999999801
 31
0.0
 73
     1
1001
ACDBBLOCKREPETAG
1070
     1
1071
      240
1005
1117
  0
TEXT
  5
1118
  8
0
 10
164.9999999999998
 20
-46.999999999999801
 30
0.0
 40
1.875
  1
埋
  7
TLCAD
 11
164.9999999999998
 21
-46.999999999999801
 31
0.0
 73
     1
1001
ACDBBLOCKREPETAG
1070
     1
1071
      241
1005
1118
  0
TEXT
  5
1119
  8
0
 10
155.0
 20
-56.999999999999922
 30
0.0
 40
1.875
  1
号
  7
TLCAD
 11
155.0
 21
-56.999999999999922
 31
0.0
 73
     1
1001
ACDBBLOCKREPETAG
1070
     1
1071
      242
1005
1119
  0
TEXT
  5
111A
  8
0
 10
155.0
 20
-46.999999999999801
 30
0.0
 40
1.875
  1
型
  7
TLCAD
 11
155.0
 21
-46.999999999999801
 31
0.0
 73
     1
1001
ACDBBLOCKREPETAG
1070
     1
1071
      243
1005
111A
  0
TEXT
  5
111B
  8
0
 10
152.9999999999998
 20
-38.999999999999773
 30
0.0
 40
2.5
  1
接地装置
  7
TLCAD
 11
152.9999999999998
 21
-38.999999999999773
 31
0.0
 73
     1
1001
ACDBBLOCKREPETAG
1070
     1
1071
      244
1005
111B
  0
LINE
  5
111C
  8
0
 10
160.9999999999998
 20
-41.999999999999908
 30
0.0
 11
160.9999999999998
 21
-259.99999999999972
 31
0.0
1001
ACDBBLOCKREPETAG
1070
     1
1071
      245
1005
111C
  0
LINE
  5
111D
  8
0
 10
150.9999999999998
 20
-41.999999999999908
 30
0.0
 11
171.99999999999989
 21
-41.999999999999908
 31
0.0
1001
ACDBBLOCKREPETAG
1070
     1
1071
      246
1005
111D
  0
LINE
  5
111E
  8
0
 10
171.99999999999989
 20
-259.99999999999972
 30
0.0
 11
171.99999999999989
 21
-31.99999999999989
 31
0.0
1001
ACDBBLOCKREPETAG
1070
     1
1071
      247
1005
111E
  0
TEXT
  5
111F
  8
0
 10
140.9999999999998
 20
-57.999999999999901
 30
0.0
 40
1.875
  1
(米)
  7
TLCAD
 11
140.9999999999998
 21
-57.999999999999901
 31
0.0
 73
     1
1001
ACDBBLOCKREPETAG
1070
     1
1071
      248
1005
111F
  0
TEXT
  5
1120
  8
0
 10
139.9999999999998
 20
-52.999999999999801
 30
0.0
 40
1.875
  1
位 移
  7
TLCAD
 11
139.9999999999998
 21
-52.999999999999801
 31
0.0
 73
     1
1001
ACDBBLOCKREPETAG
1070
     1
1071
      249
1005
1120
  0
TEXT
  5
1121
  8
0
 10
138.9999999999998
 20
-47.999999999999972
 30
0.0
 40
1.875
  1
中心桩
  7
TLCAD
 11
138.9999999999998
 21
-47.999999999999972
 31
0.0
 73
     1
1001
ACDBBLOCKREPETAG
1070
     1
1071
      250
1005
1121
  0
TEXT
  5
1122
  8
0
 10
139.9999999999998
 20
-41.999999999999908
 30
0.0
 40
1.875
  1
度 数
  7
TLCAD
 11
139.9999999999998
 21
-41.999999999999908
 31
0.0
 73
     1
1001
ACDBBLOCKREPETAG
1070
     1
1071
      251
1005
1122
  0
TEXT
  5
1123
  8
0
 10
136.9999999999998
 20
-36.999999999999773
 30
0.0
 40
1.875
  1
线路转角
  7
TLCAD
 11
136.9999999999998
 21
-36.999999999999773
 31
0.0
 73
     1
1001
ACDBBLOCKREPETAG
1070
     1
1071
      252
1005
1123
  0
LINE
  5
1124
  8
0
 10
135.9999999999998
 20
-43.999999999999972
 30
0.0
 11
150.9999999999998
 21
-43.999999999999972
 31
0.0
1001
ACDBBLOCKREPETAG
1070
     1
1071
      253
1005
1124
  0
LINE
  5
1125
  8
0
 10
150.9999999999998
 20
-259.99999999999972
 30
0.0
 11
150.9999999999998
 21
-31.99999999999989
 31
0.0
1001
ACDBBLOCKREPETAG
1070
     1
1071
      254
1005
1125
  0
LINE
  5
1126
  8
0
 10
135.9999999999998
 20
-259.99999999999972
 30
0.0
 11
135.9999999999998
 21
-31.99999999999989
 31
0.0
1001
ACDBBLOCKREPETAG
1070
     1
1071
      255
1005
1126
  0
TEXT
  5
1127
  8
0
 10
126.9999999999998
 20
-55.999999999999893
 30
0.0
 40
1.875
  1
(米)
  7
TLCAD
 11
126.9999999999998
 21
-55.999999999999893
 31
0.0
 73
     1
1001
ACDBBLOCKREPETAG
1070
     1
1071
      256
1005
1127
  0
TEXT
  5
1128
  8
0
 10
128.9999999999998
 20
-50.999999999999801
 30
0.0
 40
1.875
  1
面
  7
TLCAD
 11
128.9999999999998
 21
-50.999999999999801
 31
0.0
 73
     1
1001
ACDBBLOCKREPETAG
1070
     1
1071
      257
1005
1128
  0
TEXT
  5
1129
  8
0
 10
128.9999999999998
 20
-45.999999999999957
 30
0.0
 40
1.875
  1
基
  7
TLCAD
 11
128.9999999999998
 21
-45.999999999999957
 31
0.0
 73
     1
1001
ACDBBLOCKREPETAG
1070
     1
1071
      258
1005
1129
  0
TEXT
  5
112A
  8
0
 10
128.9999999999998
 20
-40.999999999999773
 30
0.0
 40
1.875
  1
工
  7
TLCAD
 11
128.9999999999998
 21
-40.999999999999773
 31
0.0
 73
     1
1001
ACDBBLOCKREPETAG
1070
     1
1071
      259
1005
112A
  0
TEXT
  5
112B
  8
0
 10
128.9999999999998
 20
-35.999999999999893
 30
0.0
 40
1.875
  1
施
  7
TLCAD
 11
128.9999999999998
 21
-35.999999999999893
 31
0.0
 73
     1
1001
ACDBBLOCKREPETAG
1070
     1
1071
      260
1005
112B
  0
TEXT
  5
112C
  8
0
 10
117.9999999999998
 20
-56.999999999999922
 30
0.0
 40
1.875
  1
直
  7
TLCAD
 11
117.9999999999998
 21
-56.999999999999922
 31
0.0
 73
     1
1001
ACDBBLOCKREPETAG
1070
     1
1071
      261
1005
112C
  0
TEXT
  5
112D
  8
0
 10
117.9999999999998
 20
-46.999999999999801
 30
0.0
 40
1.875
  1
垂
  7
TLCAD
 11
117.9999999999998
 21
-46.999999999999801
 31
0.0
 73
     1
1001
ACDBBLOCKREPETAG
1070
     1
1071
      262
1005
112D
  0
TEXT
  5
112E
  8
0
 10
105.9999999999998
 20
-56.999999999999922
 30
0.0
 40
1.875
  1
平
  7
TLCAD
 11
105.9999999999998
 21
-56.999999999999922
 31
0.0
 73
     1
1001
ACDBBLOCKREPETAG
1070
     1
1071
      263
1005
112E
  0
TEXT
  5
112F
  8
0
 10
105.9999999999998
 20
-46.999999999999801
 30
0.0
 40
1.875
  1
水
  7
TLCAD
 11
105.9999999999998
 21
-46.999999999999801
 31
0.0
 73
     1
1001
ACDBBLOCKREPETAG
1070
     1
1071
      264
1005
112F
  0
TEXT
  5
1130
  8
0
 10
93.999999999999943
 20
-56.999999999999922
 30
0.0
 40
1.875
  1
用
  7
TLCAD
 11
93.999999999999943
 21
-56.999999999999922
 31
0.0
 73
     1
1001
ACDBBLOCKREPETAG
1070
     1
1071
      265
1005
1130
  0
TEXT
  5
1131
  8
0
 10
93.999999999999943
 20
-46.999999999999801
 30
0.0
 40
1.875
  1
使
  7
TLCAD
 11
93.999999999999943
 21
-46.999999999999801
 31
0.0
 73
     1
1001
ACDBBLOCKREPETAG
1070
     1
1071
      266
1005
1131
  0
TEXT
  5
1132
  8
0
 10
99.999999999999943
 20
-38.999999999999773
 30
0.0
 40
1.875
  1
档  距 (米)
  7
TLCAD
 11
99.999999999999943
 21
-38.999999999999773
 31
0.0
 73
     1
1001
ACDBBLOCKREPETAG
1070
     1
1071
      267
1005
1132
  0
LINE
  5
1133
  8
0
 10
113.9999999999999
 20
-259.99999999999972
 30
0.0
 11
113.9999999999999
 21
-41.999999999999908
 31
0.0
1001
ACDBBLOCKREPETAG
1070
     1
1071
      268
1005
1133
  0
LINE
  5
1134
  8
0
 10
101.4999999999998
 20
-259.99999999999972
 30
0.0
 11
101.4999999999998
 21
-41.999999999999908
 31
0.0
1001
ACDBBLOCKREPETAG
1070
     1
1071
      269
1005
1134
  0
LINE
  5
1135
  8
0
 10
125.9999999999998
 20
-259.99999999999972
 30
0.0
 11
125.9999999999998
 21
-31.99999999999989
 31
0.0
1001
ACDBBLOCKREPETAG
1070
     1
1071
      270
1005
1135
  0
LINE
  5
1136
  8
0
 10
89.999999999999986
 20
-41.999999999999908
 30
0.0
 11
125.9999999999998
 21
-41.999999999999908
 31
0.0
1001
ACDBBLOCKREPETAG
1070
     1
1071
      271
1005
1136
  0
LINE
  5
1137
  8
0
 10
89.999999999999986
 20
-259.99999999999972
 30
0.0
 11
89.999999999999986
 21
-31.99999999999989
 31
0.0
1001
ACDBBLOCKREPETAG
1070
     1
1071
      272
1005
1137
  0
TEXT
  5
1138
  8
0
 10
79.999999999999872
 20
-57.999999999999901
 30
0.0
 40
1.875
  1
置
  7
TLCAD
 11
79.999999999999872
 21
-57.999999999999901
 31
0.0
 73
     1
1001
ACDBBLOCKREPETAG
1070
     1
1071
      273
1005
1138
  0
TEXT
  5
1139
  8
0
 10
79.999999999999872
 20
-50.999999999999801
 30
0.0
 40
1.875
  1
位
  7
TLCAD
 11
79.999999999999872
 21
-50.999999999999801
 31
0.0
 73
     1
1001
ACDBBLOCKREPETAG
1070
     1
1071
      274
1005
1139
  0
TEXT
  5
113A
  8
0
 10
79.999999999999872
 20
-43.999999999999972
 30
0.0
 40
1.875
  1
塔
  7
TLCAD
 11
79.999999999999872
 21
-43.999999999999972
 31
0.0
 73
     1
1001
ACDBBLOCKREPETAG
1070
     1
1071
      275
1005
113A
  0
TEXT
  5
113B
  8
0
 10
79.999999999999872
 20
-36.999999999999773
 30
0.0
 40
1.875
  1
杆
  7
TLCAD
 11
79.999999999999872
 21
-36.999999999999773
 31
0.0
 73
     1
1001
ACDBBLOCKREPETAG
1070
     1
1071
      276
1005
113B
  0
TEXT
  5
113C
  8
0
 10
55.0
 20
-54.999999999999922
 30
0.0
 40
1.875
  1
呼称高(米)
  7
TLCAD
 11
55.0
 21
-54.999999999999922
 31
0.0
 73
     1
1001
ACDBBLOCKREPETAG
1070
     1
1071
      277
1005
113C
  0
TEXT
  5
113D
  8
0
 10
58.999999999999993
 20
-47.999999999999972
 30
0.0
 40
1.875
  1
及
  7
TLCAD
 11
58.999999999999993
 21
-47.999999999999972
 31
0.0
 73
     1
1001
ACDBBLOCKREPETAG
1070
     1
1071
      278
1005
113D
  0
TEXT
  5
113E
  8
0
 10
55.0
 20
-40.999999999999773
 30
0.0
 40
1.875
  1
杆塔型号
  7
TLCAD
 11
55.0
 21
-40.999999999999773
 31
0.0
 73
     1
1001
ACDBBLOCKREPETAG
1070
     1
1071
      279
1005
113E
  0
TEXT
  5
113F
  8
0
 10
43.999999999999993
 20
-57.999999999999901
 30
0.0
 40
1.875
  1
号
  7
TLCAD
 11
43.999999999999993
 21
-57.999999999999901
 31
0.0
 73
     1
1001
ACDBBLOCKREPETAG
1070
     1
1071
      280
1005
113F
  0
TEXT
  5
1140
  8
0
 10
43.999999999999993
 20
-50.999999999999801
 30
0.0
 40
1.875
  1
编
  7
TLCAD
 11
43.999999999999993
 21
-50.999999999999801
 31
0.0
 73
     1
1001
ACDBBLOCKREPETAG
1070
     1
1071
      281
1005
1140
  0
TEXT
  5
1141
  8
0
 10
43.999999999999993
 20
-43.999999999999972
 30
0.0
 40
1.875
  1
塔
  7
TLCAD
 11
43.999999999999993
 21
-43.999999999999972
 31
0.0
 73
     1
1001
ACDBBLOCKREPETAG
1070
     1
1071
      282
1005
1141
  0
TEXT
  5
1142
  8
0
 10
43.999999999999993
 20
-36.999999999999773
 30
0.0
 40
1.875
  1
杆
  7
TLCAD
 11
43.999999999999993
 21
-36.999999999999773
 31
0.0
 73
     1
1001
ACDBBLOCKREPETAG
1070
     1
1071
      283
1005
1142
  0
TEXT
  5
1143
  8
0
 10
28.5
 20
-57.999999999999901
 30
0.0
 40
1.875
  1
距及K值
  7
TLCAD
 11
28.5
 21
-57.999999999999901
 31
0.0
 73
     1
1001
ACDBBLOCKREPETAG
1070
     1
1071
      284
1005
1143
  0
TEXT
  5
1144
  8
0
 10
30.0
 20
-52.999999999999801
 30
0.0
 40
1.875
  1
代表档
  7
TLCAD
 11
30.0
 21
-52.999999999999801
 31
0.0
 73
     1
1001
ACDBBLOCKREPETAG
1070
     1
1071
      285
1005
1144
  0
TEXT
  5
1145
  8
0
 10
25.5
 20
-46.999999999999801
 30
0.0
 40
1.875
  1
(米)
  7
TLCAD
 11
25.5
 21
-46.999999999999801
 31
0.0
 73
     1
1001
ACDBBLOCKREPETAG
1070
     1
1071
      286
1005
1145
  0
TEXT
  5
1146
  8
0
 10
26.0
 20
-42.999999999999801
 30
0.0
 40
1.875
  1
长
  7
TLCAD
 11
26.0
 21
-42.999999999999801
 31
0.0
 73
     1
1001
ACDBBLOCKREPETAG
1070
     1
1071
      287
1005
1146
  0
TEXT
  5
1147
  8
0
 10
26.0
 20
-38.999999999999773
 30
0.0
 40
1.875
  1
耐张段
  7
TLCAD
 11
26.0
 21
-38.999999999999773
 31
0.0
 73
     1
1001
ACDBBLOCKREPETAG
1070
     1
1071
      288
1005
1147
  0
TEXT
  5
1148
  8
0
 10
122.9999999999998
 20
-24.99999999999989
 30
0.0
 40
5.0
  1
线   路   杆  (塔)  位   明   细   表
  7
TLCAD
 11
122.9999999999998
 21
-24.99999999999989
 31
0.0
 73
     1
1001
ACDBBLOCKREPETAG
1070
     1
1071
      289
1005
1148
  0
LINE
  5
1149
  8
0
 10
25.0
 20
-59.999999999999801
 30
0.0
 11
40.0
 21
-31.99999999999989
 31
0.0
1001
ACDBBLOCKREPETAG
1070
     1
1071
      290
1005
1149
  0
LINE
  5
114A
  8
0
 10
25.0
 20
-259.99999999999972
 30
0.0
 11
414.99999999999949
 21
-259.99999999999972
 31
0.0
1001
ACDBBLOCKREPETAG
1070
     1
1071
      291
1005
114A
  0
LINE
  5
114B
  8
0
 10
25.0
 20
-59.999999999999801
 30
0.0
 11
414.99999999999949
 21
-59.999999999999801
 31
0.0
1001
ACDBBLOCKREPETAG
1070
     1
1071
      292
1005
114B
  0
LINE
  5
114C
  8
0
 10
72.0
 20
-31.99999999999989
 30
0.0
 11
72.0
 21
-259.99999999999972
 31
0.0
1001
ACDBBLOCKREPETAG
1070
     1
1071
      293
1005
114C
  0
LINE
  5
114D
  8
0
 10
51.000000000000007
 20
-31.99999999999989
 30
0.0
 11
51.000000000000007
 21
-259.99999999999972
 31
0.0
1001
ACDBBLOCKREPETAG
1070
     1
1071
      294
1005
114D
  0
LINE
  5
114E
  8
0
 10
40.0
 20
-31.99999999999989
 30
0.0
 11
40.0
 21
-259.99999999999972
 31
0.0
1001
ACDBBLOCKREPETAG
1070
     1
1071
      295
1005
114E
  0
LINE
  5
114F
  8
0
 10
25.0
 20
-31.99999999999989
 30
0.0
 11
414.99999999999949
 21
-31.99999999999989
 31
0.0
1001
ACDBBLOCKREPETAG
1070
     1
1071
      296
1005
114F
  0
LINE
  5
1150
  8
0
 10
25.0
 20
-291.99999999999972
 30
0.0
 11
25.0
 21
-5.0
 31
0.0
1001
ACDBBLOCKREPETAG
1070
     1
1071
      297
1005
1150
  0
LINE
  5
1151
  8
0
 10
414.99999999999949
 20
-291.99999999999972
 30
0.0
 11
25.0
 21
-291.99999999999972
 31
0.0
1001
ACDBBLOCKREPETAG
1070
     1
1071
      298
1005
1151
  0
LINE
  5
1152
  8
0
 10
414.99999999999949
 20
-5.0
 30
0.0
 11
414.99999999999949
 21
-291.99999999999972
 31
0.0
1001
ACDBBLOCKREPETAG
1070
     1
1071
      299
1005
1152
  0
LINE
  5
1153
  8
0
 10
25.0
 20
-5.0
 30
0.0
 11
414.99999999999949
 21
-5.0
 31
0.0
1001
ACDBBLOCKREPETAG
1070
     1
1071
      300
1005
1153
  0
LINE
  5
1154
  8
0
 10
419.99999999999932
 20
-296.99999999999972
 30
0.0
 11
0.0
 21
-296.99999999999972
 31
0.0
1001
ACDBBLOCKREPETAG
1070
     1
1071
      301
1005
1154
  0
LINE
  5
1155
  8
0
 10
419.99999999999932
 20
0.0
 30
0.0
 11
419.99999999999932
 21
-296.99999999999972
 31
0.0
1001
ACDBBLOCKREPETAG
1070
     1
1071
      302
1005
1155
  0
LINE
  5
1156
  8
0
 10
0.0
 20
0.0
 30
0.0
 11
419.99999999999932
 21
0.0
 31
0.0
1001
ACDBBLOCKREPETAG
1070
     1
1071
      303
1005
1156
  0
LINE
  5
1157
  8
0
 10
268.00000642773563
 20
-164.99999714239931
 30
0.0
 11
288.00000642773568
 21
-164.99999714239931
 31
0.0
1001
ACDBBLOCKREPETAG
1070
     1
1071
      304
1005
1157
  0
LINE
  5
1158
  8
0
 10
268.00000642773563
 20
-154.99999714239931
 30
0.0
 11
288.00000642773568
 21
-154.99999714239931
 31
0.0
1001
ACDBBLOCKREPETAG
1070
     1
1071
      305
1005
1158
  0
LINE
  5
1159
  8
0
 10
268.00000642773563
 20
-144.99999714239931
 30
0.0
 11
288.00000642773568
 21
-144.99999714239931
 31
0.0
1001
ACDBBLOCKREPETAG
1070
     1
1071
      306
1005
1159
  0
LINE
  5
115A
  8
0
 10
268.00000642773563
 20
-134.9999971423992
 30
0.0
 11
288.00000642773568
 21
-134.9999971423992
 31
0.0
1001
ACDBBLOCKREPETAG
1070
     1
1071
      307
1005
115A
  0
LINE
  5
115B
  8
0
 10
268.00000642773563
 20
-124.9999971423992
 30
0.0
 11
288.00000642773568
 21
-124.9999971423992
 31
0.0
1001
ACDBBLOCKREPETAG
1070
     1
1071
      308
1005
115B
  0
LINE
  5
115C
  8
0
 10
268.00000642773563
 20
-114.99999714239929
 30
0.0
 11
288.00000642773568
 21
-114.99999714239929
 31
0.0
1001
ACDBBLOCKREPETAG
1070
     1
1071
      309
1005
115C
  0
LINE
  5
115D
  8
0
 10
268.00000642773563
 20
-104.9999971423992
 30
0.0
 11
288.00000642773568
 21
-104.9999971423992
 31
0.0
1001
ACDBBLOCKREPETAG
1070
     1
1071
      310
1005
115D
  0
LINE
  5
115E
  8
0
 10
268.00000642773563
 20
-94.999997142399266
 30
0.0
 11
288.00000642773568
 21
-94.999997142399266
 31
0.0
1001
ACDBBLOCKREPETAG
1070
     1
1071
      311
1005
115E
  0
LINE
  5
115F
  8
0
 10
268.00000642773563
 20
-84.99999714239928
 30
0.0
 11
288.00000642773568
 21
-84.99999714239928
 31
0.0
1001
ACDBBLOCKREPETAG
1070
     1
1071
      312
1005
115F
  0
LINE
  5
1160
  8
0
 10
268.00000642773563
 20
-74.99999714239928
 30
0.0
 11
288.00000642773568
 21
-74.99999714239928
 31
0.0
1001
ACDBBLOCKREPETAG
1070
     1
1071
      313
1005
1160
  0
LINE
  5
1161
  8
0
 10
268.00000642773563
 20
-64.99999714239928
 30
0.0
 11
288.00000642773568
 21
-64.99999714239928
 31
0.0
1001
ACDBBLOCKREPETAG
1070
     1
1071
      314
1005
1161
  0
LINE
  5
1162
  8
0
 10
369.05071298460638
 20
-291.99999999999972
 30
0.0
 11
369.05071298460638
 21
-283.90318186809372
 31
0.0
1001
ACDBBLOCKREPETAG
1070
     1
1071
      315
1005
1162
  0
LINE
  5
1163
  8
0
 10
369.08945654216541
 20
-283.90318186809372
 30
0.0
 11
414.99999999999949
 21
-283.90318186809372
 31
0.0
1001
ACDBBLOCKREPETAG
1070
     1
1071
      316
1005
1163
  0
LINE
  5
1164
  8
0
 10
0.0
 20
0.0
 30
0.0
 11
0.0
 21
-296.99999999999972
 31
0.0
1001
ACDBBLOCKREPETAG
1070
     1
1071
      317
1005
1164
  0
ENDBLK
  5
D1D
  8
0
  0
ENDSEC
  0
SECTION
  2
ENTITIES
  0
INSERT
  5
D1E
  8
0
  2
恒安电力
 10
0.0
 20
0.0
 30
0.0
  0
ENDSEC
  0
EOF
