  0
SECTION
  2
HEADER
  9
$ACADVER
  1
AC1009
  9
$INSBASE
 10
0.0
 20
0.0
 30
0.0
  9
$EXTMIN
 10
100.0
 20
199.99999999999989
 30
0.0
  9
$EXTMAX
 10
730.49999999999977
 20
497.0
 30
0.0
  9
$LIMMIN
 10
0.0
 20
0.0
  9
$LIMMAX
 10
420.0
 20
297.0
  9
$ORTHOMODE
 70
     0
  9
$REGENMODE
 70
     1
  9
$FILLMODE
 70
     1
  9
$QTEXTMODE
 70
     0
  9
$MIRRTEXT
 70
     0
  9
$DRAGMODE
 70
     2
  9
$LTSCALE
 40
1.0
  9
$OSMODE
 70
    37
  9
$ATTMODE
 70
     1
  9
$TEXTSIZE
 40
2.5
  9
$TRACEWID
 40
1.0
  9
$TEXTSTYLE
  7
STANDARD
  9
$CLAYER
  8
0
  9
$CELTYPE
  6
BYLAYER
  9
$CECOLOR
 62
   256
  9
$DIMSCALE
 40
1.0
  9
$DIMASZ
 40
2.5
  9
$DIMEXO
 40
0.625
  9
$DIMDLI
 40
3.75
  9
$DIMRND
 40
0.0
  9
$DIMDLE
 40
0.0
  9
$DIMEXE
 40
1.25
  9
$DIMTP
 40
0.0
  9
$DIMTM
 40
0.0
  9
$DIMTXT
 40
2.5
  9
$DIMCEN
 40
2.5
  9
$DIMTSZ
 40
0.0
  9
$DIMTOL
 70
     0
  9
$DIMLIM
 70
     0
  9
$DIMTIH
 70
     0
  9
$DIMTOH
 70
     0
  9
$DIMSE1
 70
     0
  9
$DIMSE2
 70
     0
  9
$DIMTAD
 70
     1
  9
$DIMZIN
 70
     8
  9
$DIMBLK
  1

  9
$DIMASO
 70
     1
  9
$DIMSHO
 70
     1
  9
$DIMPOST
  1

  9
$DIMAPOST
  1

  9
$DIMALT
 70
     0
  9
$DIMALTD
 70
     3
  9
$DIMALTF
 40
0.03937007874016
  9
$DIMLFAC
 40
1.0
  9
$DIMTOFL
 70
     1
  9
$DIMTVP
 40
0.0
  9
$DIMTIX
 70
     0
  9
$DIMSOXD
 70
     0
  9
$DIMSAH
 70
     0
  9
$DIMBLK1
  1

  9
$DIMBLK2
  1

  9
$DIMSTYLE
  2
ISO-25
  9
$DIMCLRD
 70
     0
  9
$DIMCLRE
 70
     0
  9
$DIMCLRT
 70
     0
  9
$DIMTFAC
 40
1.0
  9
$DIMGAP
 40
0.625
  9
$LUNITS
 70
     2
  9
$LUPREC
 70
     4
  9
$SKETCHINC
 40
1.0
  9
$FILLETRAD
 40
0.0
  9
$AUNITS
 70
     0
  9
$AUPREC
 70
     0
  9
$MENU
  1
.
  9
$ELEVATION
 40
0.0
  9
$PELEVATION
 40
0.0
  9
$THICKNESS
 40
0.0
  9
$LIMCHECK
 70
     0
  9
$BLIPMODE
 70
     0
  9
$CHAMFERA
 40
0.0
  9
$CHAMFERB
 40
0.0
  9
$SKPOLY
 70
     0
  9
$TDCREATE
 40
2455446.449575556
  9
$TDUPDATE
 40
2455446.5978067131
  9
$TDINDWG
 40
0.0011617477
  9
$TDUSRTIMER
 40
0.0011615625
  9
$USRTIMER
 70
     1
  9
$ANGBASE
 50
0.0
  9
$ANGDIR
 70
     0
  9
$PDMODE
 70
     0
  9
$PDSIZE
 40
0.0
  9
$PLINEWID
 40
0.0
  9
$COORDS
 70
     0
  9
$SPLFRAME
 70
     0
  9
$SPLINETYPE
 70
     6
  9
$SPLINESEGS
 70
     8
  9
$ATTDIA
 70
     0
  9
$ATTREQ
 70
     1
  9
$HANDLING
 70
     1
  9
$HANDSEED
  5
4CA
  9
$SURFTAB1
 70
     6
  9
$SURFTAB2
 70
     6
  9
$SURFTYPE
 70
     6
  9
$SURFU
 70
     6
  9
$SURFV
 70
     6
  9
$UCSNAME
  2

  9
$UCSORG
 10
0.0
 20
0.0
 30
0.0
  9
$UCSXDIR
 10
1.0
 20
0.0
 30
0.0
  9
$UCSYDIR
 10
0.0
 20
1.0
 30
0.0
  9
$PUCSNAME
  2

  9
$PUCSORG
 10
0.0
 20
0.0
 30
0.0
  9
$PUCSXDIR
 10
1.0
 20
0.0
 30
0.0
  9
$PUCSYDIR
 10
0.0
 20
1.0
 30
0.0
  9
$USERI1
 70
     0
  9
$USERI2
 70
     0
  9
$USERI3
 70
     0
  9
$USERI4
 70
     0
  9
$USERI5
 70
     0
  9
$USERR1
 40
0.0
  9
$USERR2
 40
0.0
  9
$USERR3
 40
0.0
  9
$USERR4
 40
0.0
  9
$USERR5
 40
0.0
  9
$WORLDVIEW
 70
     1
  9
$SHADEDGE
 70
     3
  9
$SHADEDIF
 70
    70
  9
$TILEMODE
 70
     1
  9
$MAXACTVP
 70
    64
  9
$PLIMCHECK
 70
     0
  9
$PEXTMIN
 10
0.0
 20
0.0
 30
0.0
  9
$PEXTMAX
 10
0.0
 20
0.0
 30
0.0
  9
$PLIMMIN
 10
0.0
 20
0.0
  9
$PLIMMAX
 10
12.0
 20
9.0
  9
$UNITMODE
 70
     0
  9
$VISRETAIN
 70
     1
  9
$PLINEGEN
 70
     0
  9
$PSLTSCALE
 70
     1
  0
ENDSEC
  0
SECTION
  2
TABLES
  0
TABLE
  2
VPORT
 70
     2
  0
VPORT
  2
*ACTIVE
 70
     0
 10
0.0
 20
0.0
 11
1.0
 21
1.0
 12
406.12388443095119
 22
347.1476275534755
 13
0.0
 23
0.0
 14
10.0
 24
10.0
 15
10.0
 25
10.0
 16
0.0
 26
0.0
 36
1.0
 17
0.0
 27
0.0
 37
0.0
 40
242.27458489253331
 41
2.1822827938671199
 42
50.0
 43
0.0
 44
0.0
 50
0.0
 51
0.0
 71
     0
 72
  1000
 73
     1
 74
     3
 75
     0
 76
     0
 77
     0
 78
     0
  0
ENDTAB
  0
TABLE
  2
LTYPE
 70
     1
  0
LTYPE
  2
CONTINUOUS
 70
     0
  3
Solid line
 72
    65
 73
     0
 40
0.0
  0
ENDTAB
  0
TABLE
  2
LAYER
 70
     2
  0
LAYER
  2
0
 70
     0
 62
     7
  6
CONTINUOUS
  0
LAYER
  2
FRAME
 70
     0
 62
     8
  6
CONTINUOUS
  0
ENDTAB
  0
TABLE
  2
STYLE
 70
     2
  0
STYLE
  2
STANDARD
 70
     0
 40
0.0
 41
1.0
 50
0.0
 71
     0
 42
2.5
  3
txt
  4
gbcbig.shx
  0
STYLE
  2
HZ
 70
     0
 40
5.0
 41
1.0
 50
0.0
 71
     0
 42
0.2
  3
txt
  4
仿宋_GB2312
  0
ENDTAB
  0
TABLE
  2
VIEW
 70
     0
  0
ENDTAB
  0
TABLE
  2
UCS
 70
     0
  0
ENDTAB
  0
TABLE
  2
APPID
 70
     6
  0
APPID
  2
ACAD
 70
     0
  0
APPID
  2
ACAD_PSEXT
 70
     0
  0
APPID
  2
ACAUTHENVIRON
 70
     0
  0
APPID
  2
ACDBDYNAMICBLOCKTRUENAME
 70
     0
  0
APPID
  2
ACDBDYNAMICBLOCKGUID
 70
     0
  0
APPID
  2
ACDBBLOCKREPETAG
 70
     0
  0
ENDTAB
  0
TABLE
  2
DIMSTYLE
 70
     2
  0
DIMSTYLE
  2
ISO-25
 70
     0
  3

  4

  5

  6

  7

 40
1.0
 41
2.5
 42
0.625
 43
3.75
 44
1.25
 45
0.0
 46
0.0
 47
0.0
 48
0.0
140
2.5
141
2.5
142
0.0
143
0.03937007874016
144
1.0
145
0.0
146
1.0
147
0.625
 71
     0
 72
     0
 73
     0
 74
     0
 75
     0
 76
     0
 77
     1
 78
     8
170
     0
171
     3
172
     1
173
     0
174
     0
175
     0
176
     0
177
     0
178
     0
  0
DIMSTYLE
  2
STANDARD
 70
     0
  3

  4

  5

  6

  7

 40
1.0
 41
0.18
 42
0.0625
 43
0.38
 44
0.18
 45
0.0
 46
0.0
 47
0.0
 48
0.0
140
0.18
141
0.09
142
0.0
143
25.399999999999999
144
1.0
145
0.0
146
1.0
147
0.09
 71
     0
 72
     0
 73
     1
 74
     1
 75
     0
 76
     0
 77
     0
 78
     0
170
     0
171
     2
172
     0
173
     0
174
     0
175
     0
176
     0
177
     0
178
     0
  0
ENDTAB
  0
ENDSEC
  0
SECTION
  2
BLOCKS
  0
BLOCK
  8
0
  2
$MODEL_SPACE
 70
     0
 10
0.0
 20
0.0
 30
0.0
  3
$MODEL_SPACE
  1

  0
ENDBLK
  5
2D6
  8
0
  0
BLOCK
 67
     1
  8
0
  2
$PAPER_SPACE
 70
     0
 10
0.0
 20
0.0
 30
0.0
  3
$PAPER_SPACE
  1

  0
ENDBLK
  5
2D2
 67
     1
  8
0
  0
BLOCK
  8
0
  2
青海院
 70
     0
 10
0.0
 20
0.0
 30
0.0
  3
青海院
  1

  0
POLYLINE
  5
2EC
  8
0
 66
     1
 10
0.0
 20
0.0
 30
0.0
1001
ACDBBLOCKREPETAG
1070
     1
1071
        0
1005
2EC
  0
VERTEX
  5
4AC
  8
0
 10
-0.0000008842794159
 20
0.0000005215390502
 30
0.0
  0
VERTEX
  5
4AD
  8
0
 10
-0.0000008842794159
 20
297.00000052153911
 30
0.0
  0
VERTEX
  5
4AE
  8
0
 10
630.49999911572036
 20
297.00000052153911
 30
0.0
  0
VERTEX
  5
4AF
  8
0
 10
630.49999911572036
 20
0.0000005215390502
 30
0.0
  0
VERTEX
  5
4B0
  8
0
 10
-0.0000008842794159
 20
0.0000005215390502
 30
0.0
  0
SEQEND
  5
4B1
  8
0
  0
POLYLINE
  5
2ED
  8
0
 66
     1
 10
0.0
 20
0.0
 30
0.0
1001
ACDBBLOCKREPETAG
1070
     1
1071
        1
1005
2ED
  0
VERTEX
  5
4B2
  8
0
 10
25.499999115720581
 20
5.0000005215390493
 30
0.0
  0
VERTEX
  5
4B3
  8
0
 10
25.499999115720581
 20
292.00000052153911
 30
0.0
  0
VERTEX
  5
4B4
  8
0
 10
625.49999911572036
 20
292.00000052153911
 30
0.0
  0
VERTEX
  5
4B5
  8
0
 10
625.49999911572036
 20
5.0000005215390493
 30
0.0
  0
VERTEX
  5
4B6
  8
0
 10
25.499999115720581
 20
5.0000005215390493
 30
0.0
  0
SEQEND
  5
4B7
  8
0
  0
POLYLINE
  5
2EE
  8
0
 66
     1
 10
0.0
 20
0.0
 30
0.0
1001
ACDBBLOCKREPETAG
1070
     1
1071
        2
1005
2EE
  0
VERTEX
  5
4B8
  8
0
 10
25.599999115720589
 20
5.100000521539072
 30
0.0
  0
VERTEX
  5
4B9
  8
0
 10
25.599999115720589
 20
291.90000052153908
 30
0.0
  0
VERTEX
  5
4BA
  8
0
 10
625.39999911572045
 20
291.90000052153908
 30
0.0
  0
VERTEX
  5
4BB
  8
0
 10
625.39999911572045
 20
5.100000521539072
 30
0.0
  0
VERTEX
  5
4BC
  8
0
 10
25.599999115720589
 20
5.100000521539072
 30
0.0
  0
SEQEND
  5
4BD
  8
0
  0
POLYLINE
  5
2EF
  8
0
 66
     1
 10
0.0
 20
0.0
 30
0.0
1001
ACDBBLOCKREPETAG
1070
     1
1071
        3
1005
2EF
  0
VERTEX
  5
4BE
  8
0
 10
25.69999911572058
 20
5.2000005215390948
 30
0.0
  0
VERTEX
  5
4BF
  8
0
 10
25.69999911572058
 20
291.800000521539
 30
0.0
  0
VERTEX
  5
4C0
  8
0
 10
625.29999911572054
 20
291.800000521539
 30
0.0
  0
VERTEX
  5
4C1
  8
0
 10
625.29999911572054
 20
5.2000005215390948
 30
0.0
  0
VERTEX
  5
4C2
  8
0
 10
25.69999911572058
 20
5.2000005215390948
 30
0.0
  0
SEQEND
  5
4C3
  8
0
  0
POLYLINE
  5
2F0
  8
0
 66
     1
 10
0.0
 20
0.0
 30
0.0
1001
ACDBBLOCKREPETAG
1070
     1
1071
        4
1005
2F0
  0
VERTEX
  5
4C4
  8
0
 10
25.799999115720588
 20
5.3000005215390029
 30
0.0
  0
VERTEX
  5
4C5
  8
0
 10
25.799999115720588
 20
291.7000005215391
 30
0.0
  0
VERTEX
  5
4C6
  8
0
 10
625.19999911572063
 20
291.7000005215391
 30
0.0
  0
VERTEX
  5
4C7
  8
0
 10
625.19999911572063
 20
5.3000005215390029
 30
0.0
  0
VERTEX
  5
4C8
  8
0
 10
25.799999115720588
 20
5.3000005215390029
 30
0.0
  0
SEQEND
  5
4C9
  8
0
  0
LINE
  5
2F1
  8
0
 62
     1
 10
25.499999115720581
 20
276.00000052153911
 30
0.0
 11
625.49999911572036
 21
276.00000052153911
 31
0.0
1001
ACDBBLOCKREPETAG
1070
     1
1071
        5
1005
2F1
  0
TEXT
  5
2F2
  8
0
 10
61.499999115720577
 20
281.50000052153911
 30
0.0
 40
3.0
  1
第    页
  7
HZ
1001
ACDBBLOCKREPETAG
1070
     1
1071
        6
1005
2F2
  0
TEXT
  5
2F3
  8
0
 10
34.499999115720591
 20
281.50000052153911
 30
0.0
 40
3.0
  1
共    页
  7
HZ
1001
ACDBBLOCKREPETAG
1070
     1
1071
        7
1005
2F3
  0
LINE
  5
2F6
  8
0
 62
     1
 10
25.499999115720581
 20
245.00000052153899
 30
0.0
 11
625.49999911572036
 21
245.00000052153899
 31
0.0
1001
ACDBBLOCKREPETAG
1070
     1
1071
        8
1005
2F6
  0
LINE
  5
2F7
  8
0
 62
     1
 10
25.499999115720581
 20
45.00000052153905
 30
0.0
 11
625.49999911572036
 21
45.00000052153905
 31
0.0
1001
ACDBBLOCKREPETAG
1070
     1
1071
        9
1005
2F7
  0
LINE
  5
2F8
  8
0
 62
     1
 10
25.499999115720581
 20
55.00000052153905
 30
0.0
 11
81.999999115720584
 21
55.00000052153905
 31
0.0
1001
ACDBBLOCKREPETAG
1070
     1
1071
       10
1005
2F8
  0
LINE
  5
2F9
  8
0
 62
     1
 10
81.999999115720584
 20
50.00000052153905
 30
0.0
 11
106.09999911572061
 21
50.00000052153905
 31
0.0
1001
ACDBBLOCKREPETAG
1070
     1
1071
       11
1005
2F9
  0
LINE
  5
2FA
  8
0
 62
     1
 10
105.9999991157206
 20
55.00000052153905
 30
0.0
 11
120.9999991157206
 21
55.00000052153905
 31
0.0
1001
ACDBBLOCKREPETAG
1070
     1
1071
       12
1005
2FA
  0
LINE
  5
2FB
  8
0
 62
     1
 10
188.99999911572041
 20
55.00000052153905
 30
0.0
 11
396.99999911572058
 21
55.00000052153905
 31
0.0
1001
ACDBBLOCKREPETAG
1070
     1
1071
       13
1005
2FB
  0
LINE
  5
2FC
  8
0
 62
     1
 10
396.99999911572058
 20
50.00000052153905
 30
0.0
 11
429.99999911572053
 21
50.00000052153905
 31
0.0
1001
ACDBBLOCKREPETAG
1070
     1
1071
       14
1005
2FC
  0
LINE
  5
2FD
  8
0
 62
     1
 10
444.99999911572058
 20
50.00000052153905
 30
0.0
 11
452.99999911572058
 21
50.00000052153905
 31
0.0
1001
ACDBBLOCKREPETAG
1070
     1
1071
       15
1005
2FD
  0
LINE
  5
2FE
  8
0
 62
     1
 10
467.99999911572053
 20
50.00000052153905
 30
0.0
 11
625.49999911572036
 21
50.00000052153905
 31
0.0
1001
ACDBBLOCKREPETAG
1070
     1
1071
       16
1005
2FE
  0
LINE
  5
2FF
  8
0
 62
     1
 10
444.99999911572058
 20
54.90000052153902
 30
0.0
 11
452.99999911572058
 21
54.90000052153902
 31
0.0
1001
ACDBBLOCKREPETAG
1070
     1
1071
       17
1005
2FF
  0
LINE
  5
300
  8
0
 62
     1
 10
467.99999911572053
 20
54.90000052153902
 30
0.0
 11
475.99999911572053
 21
54.90000052153902
 31
0.0
1001
ACDBBLOCKREPETAG
1070
     1
1071
       18
1005
300
  0
LINE
  5
301
  8
0
 62
     1
 10
25.499999115720581
 20
65.00000052153905
 30
0.0
 11
81.999999115720584
 21
65.00000052153905
 31
0.0
1001
ACDBBLOCKREPETAG
1070
     1
1071
       19
1005
301
  0
LINE
  5
302
  8
0
 62
     1
 10
81.999999115720584
 20
60.00000052153905
 30
0.0
 11
106.09999911572061
 21
60.00000052153905
 31
0.0
1001
ACDBBLOCKREPETAG
1070
     1
1071
       20
1005
302
  0
LINE
  5
303
  8
0
 62
     1
 10
105.9999991157206
 20
65.00000052153905
 30
0.0
 11
120.9999991157206
 21
65.00000052153905
 31
0.0
1001
ACDBBLOCKREPETAG
1070
     1
1071
       21
1005
303
  0
LINE
  5
304
  8
0
 62
     1
 10
188.99999911572041
 20
65.00000052153905
 30
0.0
 11
396.99999911572058
 21
65.00000052153905
 31
0.0
1001
ACDBBLOCKREPETAG
1070
     1
1071
       22
1005
304
  0
LINE
  5
305
  8
0
 62
     1
 10
396.99999911572058
 20
60.00000052153905
 30
0.0
 11
429.99999911572053
 21
60.00000052153905
 31
0.0
1001
ACDBBLOCKREPETAG
1070
     1
1071
       23
1005
305
  0
LINE
  5
306
  8
0
 62
     1
 10
444.99999911572058
 20
60.00000052153905
 30
0.0
 11
452.99999911572058
 21
60.00000052153905
 31
0.0
1001
ACDBBLOCKREPETAG
1070
     1
1071
       24
1005
306
  0
LINE
  5
307
  8
0
 62
     1
 10
467.99999911572053
 20
60.00000052153905
 30
0.0
 11
625.49999911572036
 21
60.00000052153905
 31
0.0
1001
ACDBBLOCKREPETAG
1070
     1
1071
       25
1005
307
  0
LINE
  5
308
  8
0
 62
     1
 10
444.99999911572058
 20
64.900000521539013
 30
0.0
 11
452.99999911572058
 21
64.900000521539013
 31
0.0
1001
ACDBBLOCKREPETAG
1070
     1
1071
       26
1005
308
  0
LINE
  5
309
  8
0
 62
     1
 10
467.99999911572053
 20
64.900000521539013
 30
0.0
 11
475.99999911572053
 21
64.900000521539013
 31
0.0
1001
ACDBBLOCKREPETAG
1070
     1
1071
       27
1005
309
  0
LINE
  5
30A
  8
0
 62
     1
 10
25.499999115720581
 20
75.00000052153905
 30
0.0
 11
81.999999115720584
 21
75.00000052153905
 31
0.0
1001
ACDBBLOCKREPETAG
1070
     1
1071
       28
1005
30A
  0
LINE
  5
30B
  8
0
 62
     1
 10
81.999999115720584
 20
70.00000052153905
 30
0.0
 11
106.09999911572061
 21
70.00000052153905
 31
0.0
1001
ACDBBLOCKREPETAG
1070
     1
1071
       29
1005
30B
  0
LINE
  5
30C
  8
0
 62
     1
 10
105.9999991157206
 20
75.00000052153905
 30
0.0
 11
120.9999991157206
 21
75.00000052153905
 31
0.0
1001
ACDBBLOCKREPETAG
1070
     1
1071
       30
1005
30C
  0
LINE
  5
30D
  8
0
 62
     1
 10
188.99999911572041
 20
75.00000052153905
 30
0.0
 11
396.99999911572058
 21
75.00000052153905
 31
0.0
1001
ACDBBLOCKREPETAG
1070
     1
1071
       31
1005
30D
  0
LINE
  5
30E
  8
0
 62
     1
 10
396.99999911572058
 20
70.00000052153905
 30
0.0
 11
429.99999911572053
 21
70.00000052153905
 31
0.0
1001
ACDBBLOCKREPETAG
1070
     1
1071
       32
1005
30E
  0
LINE
  5
30F
  8
0
 62
     1
 10
444.99999911572058
 20
70.00000052153905
 30
0.0
 11
452.99999911572058
 21
70.00000052153905
 31
0.0
1001
ACDBBLOCKREPETAG
1070
     1
1071
       33
1005
30F
  0
LINE
  5
310
  8
0
 62
     1
 10
467.99999911572053
 20
70.00000052153905
 30
0.0
 11
625.49999911572036
 21
70.00000052153905
 31
0.0
1001
ACDBBLOCKREPETAG
1070
     1
1071
       34
1005
310
  0
LINE
  5
311
  8
0
 62
     1
 10
444.99999911572058
 20
74.900000521539013
 30
0.0
 11
452.99999911572058
 21
74.900000521539013
 31
0.0
1001
ACDBBLOCKREPETAG
1070
     1
1071
       35
1005
311
  0
LINE
  5
312
  8
0
 62
     1
 10
467.99999911572053
 20
74.900000521539013
 30
0.0
 11
475.99999911572053
 21
74.900000521539013
 31
0.0
1001
ACDBBLOCKREPETAG
1070
     1
1071
       36
1005
312
  0
LINE
  5
313
  8
0
 62
     1
 10
25.499999115720581
 20
85.000000521539064
 30
0.0
 11
81.999999115720584
 21
85.000000521539064
 31
0.0
1001
ACDBBLOCKREPETAG
1070
     1
1071
       37
1005
313
  0
LINE
  5
314
  8
0
 62
     1
 10
81.999999115720584
 20
80.000000521539064
 30
0.0
 11
106.09999911572061
 21
80.000000521539064
 31
0.0
1001
ACDBBLOCKREPETAG
1070
     1
1071
       38
1005
314
  0
LINE
  5
315
  8
0
 62
     1
 10
105.9999991157206
 20
85.000000521539064
 30
0.0
 11
120.9999991157206
 21
85.000000521539064
 31
0.0
1001
ACDBBLOCKREPETAG
1070
     1
1071
       39
1005
315
  0
LINE
  5
316
  8
0
 62
     1
 10
188.99999911572041
 20
85.000000521539064
 30
0.0
 11
396.99999911572058
 21
85.000000521539064
 31
0.0
1001
ACDBBLOCKREPETAG
1070
     1
1071
       40
1005
316
  0
LINE
  5
317
  8
0
 62
     1
 10
396.99999911572058
 20
80.000000521539064
 30
0.0
 11
429.99999911572053
 21
80.000000521539064
 31
0.0
1001
ACDBBLOCKREPETAG
1070
     1
1071
       41
1005
317
  0
LINE
  5
318
  8
0
 62
     1
 10
444.99999911572058
 20
80.000000521539064
 30
0.0
 11
452.99999911572058
 21
80.000000521539064
 31
0.0
1001
ACDBBLOCKREPETAG
1070
     1
1071
       42
1005
318
  0
LINE
  5
319
  8
0
 62
     1
 10
467.99999911572053
 20
80.000000521539064
 30
0.0
 11
625.49999911572036
 21
80.000000521539064
 31
0.0
1001
ACDBBLOCKREPETAG
1070
     1
1071
       43
1005
319
  0
LINE
  5
31A
  8
0
 62
     1
 10
444.99999911572058
 20
84.900000521538999
 30
0.0
 11
452.99999911572058
 21
84.900000521538999
 31
0.0
1001
ACDBBLOCKREPETAG
1070
     1
1071
       44
1005
31A
  0
LINE
  5
31B
  8
0
 62
     1
 10
467.99999911572053
 20
84.900000521538999
 30
0.0
 11
475.99999911572053
 21
84.900000521538999
 31
0.0
1001
ACDBBLOCKREPETAG
1070
     1
1071
       45
1005
31B
  0
LINE
  5
31C
  8
0
 62
     1
 10
25.499999115720581
 20
95.000000521539064
 30
0.0
 11
81.999999115720584
 21
95.000000521539064
 31
0.0
1001
ACDBBLOCKREPETAG
1070
     1
1071
       46
1005
31C
  0
LINE
  5
31D
  8
0
 62
     1
 10
81.999999115720584
 20
90.000000521539064
 30
0.0
 11
106.09999911572061
 21
90.000000521539064
 31
0.0
1001
ACDBBLOCKREPETAG
1070
     1
1071
       47
1005
31D
  0
LINE
  5
31E
  8
0
 62
     1
 10
105.9999991157206
 20
95.000000521539064
 30
0.0
 11
120.9999991157206
 21
95.000000521539064
 31
0.0
1001
ACDBBLOCKREPETAG
1070
     1
1071
       48
1005
31E
  0
LINE
  5
31F
  8
0
 62
     1
 10
188.99999911572041
 20
95.000000521539064
 30
0.0
 11
396.99999911572058
 21
95.000000521539064
 31
0.0
1001
ACDBBLOCKREPETAG
1070
     1
1071
       49
1005
31F
  0
LINE
  5
320
  8
0
 62
     1
 10
396.99999911572058
 20
90.000000521539064
 30
0.0
 11
429.99999911572053
 21
90.000000521539064
 31
0.0
1001
ACDBBLOCKREPETAG
1070
     1
1071
       50
1005
320
  0
LINE
  5
321
  8
0
 62
     1
 10
444.99999911572058
 20
90.000000521539064
 30
0.0
 11
452.99999911572058
 21
90.000000521539064
 31
0.0
1001
ACDBBLOCKREPETAG
1070
     1
1071
       51
1005
321
  0
LINE
  5
322
  8
0
 62
     1
 10
467.99999911572053
 20
90.000000521539064
 30
0.0
 11
625.49999911572036
 21
90.000000521539064
 31
0.0
1001
ACDBBLOCKREPETAG
1070
     1
1071
       52
1005
322
  0
LINE
  5
323
  8
0
 62
     1
 10
444.99999911572058
 20
94.900000521538999
 30
0.0
 11
452.99999911572058
 21
94.900000521538999
 31
0.0
1001
ACDBBLOCKREPETAG
1070
     1
1071
       53
1005
323
  0
LINE
  5
324
  8
0
 62
     1
 10
467.99999911572053
 20
94.900000521538999
 30
0.0
 11
475.99999911572053
 21
94.900000521538999
 31
0.0
1001
ACDBBLOCKREPETAG
1070
     1
1071
       54
1005
324
  0
LINE
  5
325
  8
0
 62
     2
 10
25.499999115720581
 20
95.100000521539073
 30
0.0
 11
81.999999115720584
 21
95.100000521539073
 31
0.0
1001
ACDBBLOCKREPETAG
1070
     1
1071
       55
1005
325
  0
LINE
  5
326
  8
0
 62
     2
 10
81.999999115720584
 20
90.100000521539073
 30
0.0
 11
106.09999911572061
 21
90.100000521539073
 31
0.0
1001
ACDBBLOCKREPETAG
1070
     1
1071
       56
1005
326
  0
LINE
  5
327
  8
0
 62
     2
 10
105.9999991157206
 20
95.100000521539073
 30
0.0
 11
120.9999991157206
 21
95.100000521539073
 31
0.0
1001
ACDBBLOCKREPETAG
1070
     1
1071
       57
1005
327
  0
LINE
  5
328
  8
0
 62
     2
 10
188.99999911572041
 20
95.100000521539073
 30
0.0
 11
396.99999911572058
 21
95.100000521539073
 31
0.0
1001
ACDBBLOCKREPETAG
1070
     1
1071
       58
1005
328
  0
LINE
  5
329
  8
0
 62
     2
 10
396.99999911572058
 20
90.100000521539073
 30
0.0
 11
429.99999911572053
 21
90.100000521539073
 31
0.0
1001
ACDBBLOCKREPETAG
1070
     1
1071
       59
1005
329
  0
LINE
  5
32A
  8
0
 62
     2
 10
444.99999911572058
 20
90.100000521539073
 30
0.0
 11
452.99999911572058
 21
90.100000521539073
 31
0.0
1001
ACDBBLOCKREPETAG
1070
     1
1071
       60
1005
32A
  0
LINE
  5
32B
  8
0
 62
     2
 10
467.99999911572053
 20
90.100000521539073
 30
0.0
 11
625.49999911572036
 21
90.100000521539073
 31
0.0
1001
ACDBBLOCKREPETAG
1070
     1
1071
       61
1005
32B
  0
LINE
  5
32C
  8
0
 62
     2
 10
25.499999115720581
 20
94.900000521538999
 30
0.0
 11
81.999999115720584
 21
94.900000521538999
 31
0.0
1001
ACDBBLOCKREPETAG
1070
     1
1071
       62
1005
32C
  0
LINE
  5
32D
  8
0
 62
     2
 10
81.999999115720584
 20
89.900000521539013
 30
0.0
 11
106.09999911572061
 21
89.900000521539013
 31
0.0
1001
ACDBBLOCKREPETAG
1070
     1
1071
       63
1005
32D
  0
LINE
  5
32E
  8
0
 62
     2
 10
105.9999991157206
 20
94.900000521538999
 30
0.0
 11
120.9999991157206
 21
94.900000521538999
 31
0.0
1001
ACDBBLOCKREPETAG
1070
     1
1071
       64
1005
32E
  0
LINE
  5
32F
  8
0
 62
     2
 10
188.99999911572041
 20
94.900000521538999
 30
0.0
 11
396.99999911572058
 21
94.900000521538999
 31
0.0
1001
ACDBBLOCKREPETAG
1070
     1
1071
       65
1005
32F
  0
LINE
  5
330
  8
0
 62
     2
 10
396.99999911572058
 20
89.900000521539013
 30
0.0
 11
429.99999911572053
 21
89.900000521539013
 31
0.0
1001
ACDBBLOCKREPETAG
1070
     1
1071
       66
1005
330
  0
LINE
  5
331
  8
0
 62
     2
 10
444.99999911572058
 20
89.900000521539013
 30
0.0
 11
452.99999911572058
 21
89.900000521539013
 31
0.0
1001
ACDBBLOCKREPETAG
1070
     1
1071
       67
1005
331
  0
LINE
  5
332
  8
0
 62
     2
 10
467.99999911572053
 20
89.900000521539013
 30
0.0
 11
625.49999911572036
 21
89.900000521539013
 31
0.0
1001
ACDBBLOCKREPETAG
1070
     1
1071
       68
1005
332
  0
LINE
  5
333
  8
0
 62
     1
 10
25.499999115720581
 20
105.00000052153899
 30
0.0
 11
81.999999115720584
 21
105.00000052153899
 31
0.0
1001
ACDBBLOCKREPETAG
1070
     1
1071
       69
1005
333
  0
LINE
  5
334
  8
0
 62
     1
 10
81.999999115720584
 20
100.00000052153899
 30
0.0
 11
106.09999911572061
 21
100.00000052153899
 31
0.0
1001
ACDBBLOCKREPETAG
1070
     1
1071
       70
1005
334
  0
LINE
  5
335
  8
0
 62
     1
 10
105.9999991157206
 20
105.00000052153899
 30
0.0
 11
120.9999991157206
 21
105.00000052153899
 31
0.0
1001
ACDBBLOCKREPETAG
1070
     1
1071
       71
1005
335
  0
LINE
  5
336
  8
0
 62
     1
 10
188.99999911572041
 20
105.00000052153899
 30
0.0
 11
396.99999911572058
 21
105.00000052153899
 31
0.0
1001
ACDBBLOCKREPETAG
1070
     1
1071
       72
1005
336
  0
LINE
  5
337
  8
0
 62
     1
 10
396.99999911572058
 20
100.00000052153899
 30
0.0
 11
429.99999911572053
 21
100.00000052153899
 31
0.0
1001
ACDBBLOCKREPETAG
1070
     1
1071
       73
1005
337
  0
LINE
  5
338
  8
0
 62
     1
 10
444.99999911572058
 20
100.00000052153899
 30
0.0
 11
452.99999911572058
 21
100.00000052153899
 31
0.0
1001
ACDBBLOCKREPETAG
1070
     1
1071
       74
1005
338
  0
LINE
  5
339
  8
0
 62
     1
 10
467.99999911572053
 20
100.00000052153899
 30
0.0
 11
625.49999911572036
 21
100.00000052153899
 31
0.0
1001
ACDBBLOCKREPETAG
1070
     1
1071
       75
1005
339
  0
LINE
  5
33A
  8
0
 62
     1
 10
444.99999911572058
 20
104.900000521539
 30
0.0
 11
452.99999911572058
 21
104.900000521539
 31
0.0
1001
ACDBBLOCKREPETAG
1070
     1
1071
       76
1005
33A
  0
LINE
  5
33B
  8
0
 62
     1
 10
467.99999911572053
 20
104.900000521539
 30
0.0
 11
475.99999911572053
 21
104.900000521539
 31
0.0
1001
ACDBBLOCKREPETAG
1070
     1
1071
       77
1005
33B
  0
LINE
  5
33C
  8
0
 62
     1
 10
25.499999115720581
 20
115.00000052153899
 30
0.0
 11
81.999999115720584
 21
115.00000052153899
 31
0.0
1001
ACDBBLOCKREPETAG
1070
     1
1071
       78
1005
33C
  0
LINE
  5
33D
  8
0
 62
     1
 10
81.999999115720584
 20
110.00000052153899
 30
0.0
 11
106.09999911572061
 21
110.00000052153899
 31
0.0
1001
ACDBBLOCKREPETAG
1070
     1
1071
       79
1005
33D
  0
LINE
  5
33E
  8
0
 62
     1
 10
105.9999991157206
 20
115.00000052153899
 30
0.0
 11
120.9999991157206
 21
115.00000052153899
 31
0.0
1001
ACDBBLOCKREPETAG
1070
     1
1071
       80
1005
33E
  0
LINE
  5
33F
  8
0
 62
     1
 10
188.99999911572041
 20
115.00000052153899
 30
0.0
 11
396.99999911572058
 21
115.00000052153899
 31
0.0
1001
ACDBBLOCKREPETAG
1070
     1
1071
       81
1005
33F
  0
LINE
  5
340
  8
0
 62
     1
 10
396.99999911572058
 20
110.00000052153899
 30
0.0
 11
429.99999911572053
 21
110.00000052153899
 31
0.0
1001
ACDBBLOCKREPETAG
1070
     1
1071
       82
1005
340
  0
LINE
  5
341
  8
0
 62
     1
 10
444.99999911572058
 20
110.00000052153899
 30
0.0
 11
452.99999911572058
 21
110.00000052153899
 31
0.0
1001
ACDBBLOCKREPETAG
1070
     1
1071
       83
1005
341
  0
LINE
  5
342
  8
0
 62
     1
 10
467.99999911572053
 20
110.00000052153899
 30
0.0
 11
625.49999911572036
 21
110.00000052153899
 31
0.0
1001
ACDBBLOCKREPETAG
1070
     1
1071
       84
1005
342
  0
LINE
  5
343
  8
0
 62
     1
 10
444.99999911572058
 20
114.900000521539
 30
0.0
 11
452.99999911572058
 21
114.900000521539
 31
0.0
1001
ACDBBLOCKREPETAG
1070
     1
1071
       85
1005
343
  0
LINE
  5
344
  8
0
 62
     1
 10
467.99999911572053
 20
114.900000521539
 30
0.0
 11
475.99999911572053
 21
114.900000521539
 31
0.0
1001
ACDBBLOCKREPETAG
1070
     1
1071
       86
1005
344
  0
LINE
  5
345
  8
0
 62
     1
 10
25.499999115720581
 20
125.00000052153899
 30
0.0
 11
81.999999115720584
 21
125.00000052153899
 31
0.0
1001
ACDBBLOCKREPETAG
1070
     1
1071
       87
1005
345
  0
LINE
  5
346
  8
0
 62
     1
 10
81.999999115720584
 20
120.00000052153899
 30
0.0
 11
106.09999911572061
 21
120.00000052153899
 31
0.0
1001
ACDBBLOCKREPETAG
1070
     1
1071
       88
1005
346
  0
LINE
  5
347
  8
0
 62
     1
 10
105.9999991157206
 20
125.00000052153899
 30
0.0
 11
120.9999991157206
 21
125.00000052153899
 31
0.0
1001
ACDBBLOCKREPETAG
1070
     1
1071
       89
1005
347
  0
LINE
  5
348
  8
0
 62
     1
 10
188.99999911572041
 20
125.00000052153899
 30
0.0
 11
396.99999911572058
 21
125.00000052153899
 31
0.0
1001
ACDBBLOCKREPETAG
1070
     1
1071
       90
1005
348
  0
LINE
  5
349
  8
0
 62
     1
 10
396.99999911572058
 20
120.00000052153899
 30
0.0
 11
429.99999911572053
 21
120.00000052153899
 31
0.0
1001
ACDBBLOCKREPETAG
1070
     1
1071
       91
1005
349
  0
LINE
  5
34A
  8
0
 62
     1
 10
444.99999911572058
 20
120.00000052153899
 30
0.0
 11
452.99999911572058
 21
120.00000052153899
 31
0.0
1001
ACDBBLOCKREPETAG
1070
     1
1071
       92
1005
34A
  0
LINE
  5
34B
  8
0
 62
     1
 10
467.99999911572053
 20
120.00000052153899
 30
0.0
 11
625.49999911572036
 21
120.00000052153899
 31
0.0
1001
ACDBBLOCKREPETAG
1070
     1
1071
       93
1005
34B
  0
LINE
  5
34C
  8
0
 62
     1
 10
444.99999911572058
 20
124.900000521539
 30
0.0
 11
452.99999911572058
 21
124.900000521539
 31
0.0
1001
ACDBBLOCKREPETAG
1070
     1
1071
       94
1005
34C
  0
LINE
  5
34D
  8
0
 62
     1
 10
467.99999911572053
 20
124.900000521539
 30
0.0
 11
475.99999911572053
 21
124.900000521539
 31
0.0
1001
ACDBBLOCKREPETAG
1070
     1
1071
       95
1005
34D
  0
LINE
  5
34E
  8
0
 62
     1
 10
25.499999115720581
 20
135.00000052153899
 30
0.0
 11
81.999999115720584
 21
135.00000052153899
 31
0.0
1001
ACDBBLOCKREPETAG
1070
     1
1071
       96
1005
34E
  0
LINE
  5
34F
  8
0
 62
     1
 10
81.999999115720584
 20
130.00000052153899
 30
0.0
 11
106.09999911572061
 21
130.00000052153899
 31
0.0
1001
ACDBBLOCKREPETAG
1070
     1
1071
       97
1005
34F
  0
LINE
  5
350
  8
0
 62
     1
 10
105.9999991157206
 20
135.00000052153899
 30
0.0
 11
120.9999991157206
 21
135.00000052153899
 31
0.0
1001
ACDBBLOCKREPETAG
1070
     1
1071
       98
1005
350
  0
LINE
  5
351
  8
0
 62
     1
 10
188.99999911572041
 20
135.00000052153899
 30
0.0
 11
396.99999911572058
 21
135.00000052153899
 31
0.0
1001
ACDBBLOCKREPETAG
1070
     1
1071
       99
1005
351
  0
LINE
  5
352
  8
0
 62
     1
 10
396.99999911572058
 20
130.00000052153899
 30
0.0
 11
429.99999911572053
 21
130.00000052153899
 31
0.0
1001
ACDBBLOCKREPETAG
1070
     1
1071
      100
1005
352
  0
LINE
  5
353
  8
0
 62
     1
 10
444.99999911572058
 20
130.00000052153899
 30
0.0
 11
452.99999911572058
 21
130.00000052153899
 31
0.0
1001
ACDBBLOCKREPETAG
1070
     1
1071
      101
1005
353
  0
LINE
  5
354
  8
0
 62
     1
 10
467.99999911572053
 20
130.00000052153899
 30
0.0
 11
625.49999911572036
 21
130.00000052153899
 31
0.0
1001
ACDBBLOCKREPETAG
1070
     1
1071
      102
1005
354
  0
LINE
  5
355
  8
0
 62
     1
 10
444.99999911572058
 20
134.900000521539
 30
0.0
 11
452.99999911572058
 21
134.900000521539
 31
0.0
1001
ACDBBLOCKREPETAG
1070
     1
1071
      103
1005
355
  0
LINE
  5
356
  8
0
 62
     1
 10
467.99999911572053
 20
134.900000521539
 30
0.0
 11
475.99999911572053
 21
134.900000521539
 31
0.0
1001
ACDBBLOCKREPETAG
1070
     1
1071
      104
1005
356
  0
LINE
  5
357
  8
0
 62
     1
 10
25.499999115720581
 20
145.00000052153899
 30
0.0
 11
81.999999115720584
 21
145.00000052153899
 31
0.0
1001
ACDBBLOCKREPETAG
1070
     1
1071
      105
1005
357
  0
LINE
  5
358
  8
0
 62
     1
 10
81.999999115720584
 20
140.00000052153899
 30
0.0
 11
106.09999911572061
 21
140.00000052153899
 31
0.0
1001
ACDBBLOCKREPETAG
1070
     1
1071
      106
1005
358
  0
LINE
  5
359
  8
0
 62
     1
 10
105.9999991157206
 20
145.00000052153899
 30
0.0
 11
120.9999991157206
 21
145.00000052153899
 31
0.0
1001
ACDBBLOCKREPETAG
1070
     1
1071
      107
1005
359
  0
LINE
  5
35A
  8
0
 62
     1
 10
188.99999911572041
 20
145.00000052153899
 30
0.0
 11
396.99999911572058
 21
145.00000052153899
 31
0.0
1001
ACDBBLOCKREPETAG
1070
     1
1071
      108
1005
35A
  0
LINE
  5
35B
  8
0
 62
     1
 10
396.99999911572058
 20
140.00000052153899
 30
0.0
 11
429.99999911572053
 21
140.00000052153899
 31
0.0
1001
ACDBBLOCKREPETAG
1070
     1
1071
      109
1005
35B
  0
LINE
  5
35C
  8
0
 62
     1
 10
444.99999911572058
 20
140.00000052153899
 30
0.0
 11
452.99999911572058
 21
140.00000052153899
 31
0.0
1001
ACDBBLOCKREPETAG
1070
     1
1071
      110
1005
35C
  0
LINE
  5
35D
  8
0
 62
     1
 10
467.99999911572053
 20
140.00000052153899
 30
0.0
 11
625.49999911572036
 21
140.00000052153899
 31
0.0
1001
ACDBBLOCKREPETAG
1070
     1
1071
      111
1005
35D
  0
LINE
  5
35E
  8
0
 62
     1
 10
444.99999911572058
 20
144.900000521539
 30
0.0
 11
452.99999911572058
 21
144.900000521539
 31
0.0
1001
ACDBBLOCKREPETAG
1070
     1
1071
      112
1005
35E
  0
LINE
  5
35F
  8
0
 62
     1
 10
467.99999911572053
 20
144.900000521539
 30
0.0
 11
475.99999911572053
 21
144.900000521539
 31
0.0
1001
ACDBBLOCKREPETAG
1070
     1
1071
      113
1005
35F
  0
LINE
  5
360
  8
0
 62
     2
 10
25.499999115720581
 20
145.1000005215391
 30
0.0
 11
81.999999115720584
 21
145.1000005215391
 31
0.0
1001
ACDBBLOCKREPETAG
1070
     1
1071
      114
1005
360
  0
LINE
  5
361
  8
0
 62
     2
 10
81.999999115720584
 20
140.1000005215391
 30
0.0
 11
106.09999911572061
 21
140.1000005215391
 31
0.0
1001
ACDBBLOCKREPETAG
1070
     1
1071
      115
1005
361
  0
LINE
  5
362
  8
0
 62
     2
 10
105.9999991157206
 20
145.1000005215391
 30
0.0
 11
120.9999991157206
 21
145.1000005215391
 31
0.0
1001
ACDBBLOCKREPETAG
1070
     1
1071
      116
1005
362
  0
LINE
  5
363
  8
0
 62
     2
 10
188.99999911572041
 20
145.1000005215391
 30
0.0
 11
396.99999911572058
 21
145.1000005215391
 31
0.0
1001
ACDBBLOCKREPETAG
1070
     1
1071
      117
1005
363
  0
LINE
  5
364
  8
0
 62
     2
 10
396.99999911572058
 20
140.1000005215391
 30
0.0
 11
429.99999911572053
 21
140.1000005215391
 31
0.0
1001
ACDBBLOCKREPETAG
1070
     1
1071
      118
1005
364
  0
LINE
  5
365
  8
0
 62
     2
 10
444.99999911572058
 20
140.1000005215391
 30
0.0
 11
452.99999911572058
 21
140.1000005215391
 31
0.0
1001
ACDBBLOCKREPETAG
1070
     1
1071
      119
1005
365
  0
LINE
  5
366
  8
0
 62
     2
 10
467.99999911572053
 20
140.1000005215391
 30
0.0
 11
625.49999911572036
 21
140.1000005215391
 31
0.0
1001
ACDBBLOCKREPETAG
1070
     1
1071
      120
1005
366
  0
LINE
  5
367
  8
0
 62
     2
 10
25.499999115720581
 20
144.900000521539
 30
0.0
 11
81.999999115720584
 21
144.900000521539
 31
0.0
1001
ACDBBLOCKREPETAG
1070
     1
1071
      121
1005
367
  0
LINE
  5
368
  8
0
 62
     2
 10
81.999999115720584
 20
139.900000521539
 30
0.0
 11
106.09999911572061
 21
139.900000521539
 31
0.0
1001
ACDBBLOCKREPETAG
1070
     1
1071
      122
1005
368
  0
LINE
  5
369
  8
0
 62
     2
 10
105.9999991157206
 20
144.900000521539
 30
0.0
 11
120.9999991157206
 21
144.900000521539
 31
0.0
1001
ACDBBLOCKREPETAG
1070
     1
1071
      123
1005
369
  0
LINE
  5
36A
  8
0
 62
     2
 10
188.99999911572041
 20
144.900000521539
 30
0.0
 11
396.99999911572058
 21
144.900000521539
 31
0.0
1001
ACDBBLOCKREPETAG
1070
     1
1071
      124
1005
36A
  0
LINE
  5
36B
  8
0
 62
     2
 10
396.99999911572058
 20
139.900000521539
 30
0.0
 11
429.99999911572053
 21
139.900000521539
 31
0.0
1001
ACDBBLOCKREPETAG
1070
     1
1071
      125
1005
36B
  0
LINE
  5
36C
  8
0
 62
     2
 10
444.99999911572058
 20
139.900000521539
 30
0.0
 11
452.99999911572058
 21
139.900000521539
 31
0.0
1001
ACDBBLOCKREPETAG
1070
     1
1071
      126
1005
36C
  0
LINE
  5
36D
  8
0
 62
     2
 10
467.99999911572053
 20
139.900000521539
 30
0.0
 11
625.49999911572036
 21
139.900000521539
 31
0.0
1001
ACDBBLOCKREPETAG
1070
     1
1071
      127
1005
36D
  0
LINE
  5
36E
  8
0
 62
     1
 10
25.499999115720581
 20
155.00000052153899
 30
0.0
 11
81.999999115720584
 21
155.00000052153899
 31
0.0
1001
ACDBBLOCKREPETAG
1070
     1
1071
      128
1005
36E
  0
LINE
  5
36F
  8
0
 62
     1
 10
81.999999115720584
 20
150.00000052153899
 30
0.0
 11
106.09999911572061
 21
150.00000052153899
 31
0.0
1001
ACDBBLOCKREPETAG
1070
     1
1071
      129
1005
36F
  0
LINE
  5
370
  8
0
 62
     1
 10
105.9999991157206
 20
155.00000052153899
 30
0.0
 11
120.9999991157206
 21
155.00000052153899
 31
0.0
1001
ACDBBLOCKREPETAG
1070
     1
1071
      130
1005
370
  0
LINE
  5
371
  8
0
 62
     1
 10
188.99999911572041
 20
155.00000052153899
 30
0.0
 11
396.99999911572058
 21
155.00000052153899
 31
0.0
1001
ACDBBLOCKREPETAG
1070
     1
1071
      131
1005
371
  0
LINE
  5
372
  8
0
 62
     1
 10
396.99999911572058
 20
150.00000052153899
 30
0.0
 11
429.99999911572053
 21
150.00000052153899
 31
0.0
1001
ACDBBLOCKREPETAG
1070
     1
1071
      132
1005
372
  0
LINE
  5
373
  8
0
 62
     1
 10
444.99999911572058
 20
150.00000052153899
 30
0.0
 11
452.99999911572058
 21
150.00000052153899
 31
0.0
1001
ACDBBLOCKREPETAG
1070
     1
1071
      133
1005
373
  0
LINE
  5
374
  8
0
 62
     1
 10
467.99999911572053
 20
150.00000052153899
 30
0.0
 11
625.49999911572036
 21
150.00000052153899
 31
0.0
1001
ACDBBLOCKREPETAG
1070
     1
1071
      134
1005
374
  0
LINE
  5
375
  8
0
 62
     1
 10
444.99999911572058
 20
154.900000521539
 30
0.0
 11
452.99999911572058
 21
154.900000521539
 31
0.0
1001
ACDBBLOCKREPETAG
1070
     1
1071
      135
1005
375
  0
LINE
  5
376
  8
0
 62
     1
 10
467.99999911572053
 20
154.900000521539
 30
0.0
 11
475.99999911572053
 21
154.900000521539
 31
0.0
1001
ACDBBLOCKREPETAG
1070
     1
1071
      136
1005
376
  0
LINE
  5
377
  8
0
 62
     1
 10
25.499999115720581
 20
165.00000052153899
 30
0.0
 11
81.999999115720584
 21
165.00000052153899
 31
0.0
1001
ACDBBLOCKREPETAG
1070
     1
1071
      137
1005
377
  0
LINE
  5
378
  8
0
 62
     1
 10
81.999999115720584
 20
160.00000052153899
 30
0.0
 11
106.09999911572061
 21
160.00000052153899
 31
0.0
1001
ACDBBLOCKREPETAG
1070
     1
1071
      138
1005
378
  0
LINE
  5
379
  8
0
 62
     1
 10
105.9999991157206
 20
165.00000052153899
 30
0.0
 11
120.9999991157206
 21
165.00000052153899
 31
0.0
1001
ACDBBLOCKREPETAG
1070
     1
1071
      139
1005
379
  0
LINE
  5
37A
  8
0
 62
     1
 10
188.99999911572041
 20
165.00000052153899
 30
0.0
 11
396.99999911572058
 21
165.00000052153899
 31
0.0
1001
ACDBBLOCKREPETAG
1070
     1
1071
      140
1005
37A
  0
LINE
  5
37B
  8
0
 62
     1
 10
396.99999911572058
 20
160.00000052153899
 30
0.0
 11
429.99999911572053
 21
160.00000052153899
 31
0.0
1001
ACDBBLOCKREPETAG
1070
     1
1071
      141
1005
37B
  0
LINE
  5
37C
  8
0
 62
     1
 10
444.99999911572058
 20
160.00000052153899
 30
0.0
 11
452.99999911572058
 21
160.00000052153899
 31
0.0
1001
ACDBBLOCKREPETAG
1070
     1
1071
      142
1005
37C
  0
LINE
  5
37D
  8
0
 62
     1
 10
467.99999911572053
 20
160.00000052153899
 30
0.0
 11
625.49999911572036
 21
160.00000052153899
 31
0.0
1001
ACDBBLOCKREPETAG
1070
     1
1071
      143
1005
37D
  0
LINE
  5
37E
  8
0
 62
     1
 10
444.99999911572058
 20
164.900000521539
 30
0.0
 11
452.99999911572058
 21
164.900000521539
 31
0.0
1001
ACDBBLOCKREPETAG
1070
     1
1071
      144
1005
37E
  0
LINE
  5
37F
  8
0
 62
     1
 10
467.99999911572053
 20
164.900000521539
 30
0.0
 11
475.99999911572053
 21
164.900000521539
 31
0.0
1001
ACDBBLOCKREPETAG
1070
     1
1071
      145
1005
37F
  0
LINE
  5
380
  8
0
 62
     1
 10
25.499999115720581
 20
175.00000052153899
 30
0.0
 11
81.999999115720584
 21
175.00000052153899
 31
0.0
1001
ACDBBLOCKREPETAG
1070
     1
1071
      146
1005
380
  0
LINE
  5
381
  8
0
 62
     1
 10
81.999999115720584
 20
170.00000052153899
 30
0.0
 11
106.09999911572061
 21
170.00000052153899
 31
0.0
1001
ACDBBLOCKREPETAG
1070
     1
1071
      147
1005
381
  0
LINE
  5
382
  8
0
 62
     1
 10
105.9999991157206
 20
175.00000052153899
 30
0.0
 11
120.9999991157206
 21
175.00000052153899
 31
0.0
1001
ACDBBLOCKREPETAG
1070
     1
1071
      148
1005
382
  0
LINE
  5
383
  8
0
 62
     1
 10
188.99999911572041
 20
175.00000052153899
 30
0.0
 11
396.99999911572058
 21
175.00000052153899
 31
0.0
1001
ACDBBLOCKREPETAG
1070
     1
1071
      149
1005
383
  0
LINE
  5
384
  8
0
 62
     1
 10
396.99999911572058
 20
170.00000052153899
 30
0.0
 11
429.99999911572053
 21
170.00000052153899
 31
0.0
1001
ACDBBLOCKREPETAG
1070
     1
1071
      150
1005
384
  0
LINE
  5
385
  8
0
 62
     1
 10
444.99999911572058
 20
170.00000052153899
 30
0.0
 11
452.99999911572058
 21
170.00000052153899
 31
0.0
1001
ACDBBLOCKREPETAG
1070
     1
1071
      151
1005
385
  0
LINE
  5
386
  8
0
 62
     1
 10
467.99999911572053
 20
170.00000052153899
 30
0.0
 11
625.49999911572036
 21
170.00000052153899
 31
0.0
1001
ACDBBLOCKREPETAG
1070
     1
1071
      152
1005
386
  0
LINE
  5
387
  8
0
 62
     1
 10
444.99999911572058
 20
174.900000521539
 30
0.0
 11
452.99999911572058
 21
174.900000521539
 31
0.0
1001
ACDBBLOCKREPETAG
1070
     1
1071
      153
1005
387
  0
LINE
  5
388
  8
0
 62
     1
 10
467.99999911572053
 20
174.900000521539
 30
0.0
 11
475.99999911572053
 21
174.900000521539
 31
0.0
1001
ACDBBLOCKREPETAG
1070
     1
1071
      154
1005
388
  0
LINE
  5
389
  8
0
 62
     1
 10
25.499999115720581
 20
185.00000052153899
 30
0.0
 11
81.999999115720584
 21
185.00000052153899
 31
0.0
1001
ACDBBLOCKREPETAG
1070
     1
1071
      155
1005
389
  0
LINE
  5
38A
  8
0
 62
     1
 10
81.999999115720584
 20
180.00000052153899
 30
0.0
 11
106.09999911572061
 21
180.00000052153899
 31
0.0
1001
ACDBBLOCKREPETAG
1070
     1
1071
      156
1005
38A
  0
LINE
  5
38B
  8
0
 62
     1
 10
105.9999991157206
 20
185.00000052153899
 30
0.0
 11
120.9999991157206
 21
185.00000052153899
 31
0.0
1001
ACDBBLOCKREPETAG
1070
     1
1071
      157
1005
38B
  0
LINE
  5
38C
  8
0
 62
     1
 10
188.99999911572041
 20
185.00000052153899
 30
0.0
 11
396.99999911572058
 21
185.00000052153899
 31
0.0
1001
ACDBBLOCKREPETAG
1070
     1
1071
      158
1005
38C
  0
LINE
  5
38D
  8
0
 62
     1
 10
396.99999911572058
 20
180.00000052153899
 30
0.0
 11
429.99999911572053
 21
180.00000052153899
 31
0.0
1001
ACDBBLOCKREPETAG
1070
     1
1071
      159
1005
38D
  0
LINE
  5
38E
  8
0
 62
     1
 10
444.99999911572058
 20
180.00000052153899
 30
0.0
 11
452.99999911572058
 21
180.00000052153899
 31
0.0
1001
ACDBBLOCKREPETAG
1070
     1
1071
      160
1005
38E
  0
LINE
  5
38F
  8
0
 62
     1
 10
467.99999911572053
 20
180.00000052153899
 30
0.0
 11
625.49999911572036
 21
180.00000052153899
 31
0.0
1001
ACDBBLOCKREPETAG
1070
     1
1071
      161
1005
38F
  0
LINE
  5
390
  8
0
 62
     1
 10
444.99999911572058
 20
184.900000521539
 30
0.0
 11
452.99999911572058
 21
184.900000521539
 31
0.0
1001
ACDBBLOCKREPETAG
1070
     1
1071
      162
1005
390
  0
LINE
  5
391
  8
0
 62
     1
 10
467.99999911572053
 20
184.900000521539
 30
0.0
 11
475.99999911572053
 21
184.900000521539
 31
0.0
1001
ACDBBLOCKREPETAG
1070
     1
1071
      163
1005
391
  0
LINE
  5
392
  8
0
 62
     1
 10
25.499999115720581
 20
195.00000052153891
 30
0.0
 11
81.999999115720584
 21
195.00000052153891
 31
0.0
1001
ACDBBLOCKREPETAG
1070
     1
1071
      164
1005
392
  0
LINE
  5
393
  8
0
 62
     1
 10
81.999999115720584
 20
190.00000052153891
 30
0.0
 11
106.09999911572061
 21
190.00000052153891
 31
0.0
1001
ACDBBLOCKREPETAG
1070
     1
1071
      165
1005
393
  0
LINE
  5
394
  8
0
 62
     1
 10
105.9999991157206
 20
195.00000052153891
 30
0.0
 11
120.9999991157206
 21
195.00000052153891
 31
0.0
1001
ACDBBLOCKREPETAG
1070
     1
1071
      166
1005
394
  0
LINE
  5
395
  8
0
 62
     1
 10
188.99999911572041
 20
195.00000052153891
 30
0.0
 11
396.99999911572058
 21
195.00000052153891
 31
0.0
1001
ACDBBLOCKREPETAG
1070
     1
1071
      167
1005
395
  0
LINE
  5
396
  8
0
 62
     1
 10
396.99999911572058
 20
190.00000052153891
 30
0.0
 11
429.99999911572053
 21
190.00000052153891
 31
0.0
1001
ACDBBLOCKREPETAG
1070
     1
1071
      168
1005
396
  0
LINE
  5
397
  8
0
 62
     1
 10
444.99999911572058
 20
190.00000052153891
 30
0.0
 11
452.99999911572058
 21
190.00000052153891
 31
0.0
1001
ACDBBLOCKREPETAG
1070
     1
1071
      169
1005
397
  0
LINE
  5
398
  8
0
 62
     1
 10
467.99999911572053
 20
190.00000052153891
 30
0.0
 11
625.49999911572036
 21
190.00000052153891
 31
0.0
1001
ACDBBLOCKREPETAG
1070
     1
1071
      170
1005
398
  0
LINE
  5
399
  8
0
 62
     1
 10
444.99999911572058
 20
194.900000521539
 30
0.0
 11
452.99999911572058
 21
194.900000521539
 31
0.0
1001
ACDBBLOCKREPETAG
1070
     1
1071
      171
1005
399
  0
LINE
  5
39A
  8
0
 62
     1
 10
467.99999911572053
 20
194.900000521539
 30
0.0
 11
475.99999911572053
 21
194.900000521539
 31
0.0
1001
ACDBBLOCKREPETAG
1070
     1
1071
      172
1005
39A
  0
LINE
  5
39B
  8
0
 62
     2
 10
25.499999115720581
 20
195.1000005215391
 30
0.0
 11
81.999999115720584
 21
195.1000005215391
 31
0.0
1001
ACDBBLOCKREPETAG
1070
     1
1071
      173
1005
39B
  0
LINE
  5
39C
  8
0
 62
     2
 10
81.999999115720584
 20
190.1000005215389
 30
0.0
 11
106.09999911572061
 21
190.1000005215389
 31
0.0
1001
ACDBBLOCKREPETAG
1070
     1
1071
      174
1005
39C
  0
LINE
  5
39D
  8
0
 62
     2
 10
105.9999991157206
 20
195.1000005215391
 30
0.0
 11
120.9999991157206
 21
195.1000005215391
 31
0.0
1001
ACDBBLOCKREPETAG
1070
     1
1071
      175
1005
39D
  0
LINE
  5
39E
  8
0
 62
     2
 10
188.99999911572041
 20
195.1000005215391
 30
0.0
 11
396.99999911572058
 21
195.1000005215391
 31
0.0
1001
ACDBBLOCKREPETAG
1070
     1
1071
      176
1005
39E
  0
LINE
  5
39F
  8
0
 62
     2
 10
396.99999911572058
 20
190.1000005215389
 30
0.0
 11
429.99999911572053
 21
190.1000005215389
 31
0.0
1001
ACDBBLOCKREPETAG
1070
     1
1071
      177
1005
39F
  0
LINE
  5
3A0
  8
0
 62
     2
 10
444.99999911572058
 20
190.1000005215389
 30
0.0
 11
452.99999911572058
 21
190.1000005215389
 31
0.0
1001
ACDBBLOCKREPETAG
1070
     1
1071
      178
1005
3A0
  0
LINE
  5
3A1
  8
0
 62
     2
 10
467.99999911572053
 20
190.1000005215389
 30
0.0
 11
625.49999911572036
 21
190.1000005215389
 31
0.0
1001
ACDBBLOCKREPETAG
1070
     1
1071
      179
1005
3A1
  0
LINE
  5
3A2
  8
0
 62
     2
 10
25.499999115720581
 20
194.900000521539
 30
0.0
 11
81.999999115720584
 21
194.900000521539
 31
0.0
1001
ACDBBLOCKREPETAG
1070
     1
1071
      180
1005
3A2
  0
LINE
  5
3A3
  8
0
 62
     2
 10
81.999999115720584
 20
189.900000521539
 30
0.0
 11
106.09999911572061
 21
189.900000521539
 31
0.0
1001
ACDBBLOCKREPETAG
1070
     1
1071
      181
1005
3A3
  0
LINE
  5
3A4
  8
0
 62
     2
 10
105.9999991157206
 20
194.900000521539
 30
0.0
 11
120.9999991157206
 21
194.900000521539
 31
0.0
1001
ACDBBLOCKREPETAG
1070
     1
1071
      182
1005
3A4
  0
LINE
  5
3A5
  8
0
 62
     2
 10
188.99999911572041
 20
194.900000521539
 30
0.0
 11
396.99999911572058
 21
194.900000521539
 31
0.0
1001
ACDBBLOCKREPETAG
1070
     1
1071
      183
1005
3A5
  0
LINE
  5
3A6
  8
0
 62
     2
 10
396.99999911572058
 20
189.900000521539
 30
0.0
 11
429.99999911572053
 21
189.900000521539
 31
0.0
1001
ACDBBLOCKREPETAG
1070
     1
1071
      184
1005
3A6
  0
LINE
  5
3A7
  8
0
 62
     2
 10
444.99999911572058
 20
189.900000521539
 30
0.0
 11
452.99999911572058
 21
189.900000521539
 31
0.0
1001
ACDBBLOCKREPETAG
1070
     1
1071
      185
1005
3A7
  0
LINE
  5
3A8
  8
0
 62
     2
 10
467.99999911572053
 20
189.900000521539
 30
0.0
 11
625.49999911572036
 21
189.900000521539
 31
0.0
1001
ACDBBLOCKREPETAG
1070
     1
1071
      186
1005
3A8
  0
LINE
  5
3A9
  8
0
 62
     1
 10
25.499999115720581
 20
205.00000052153911
 30
0.0
 11
81.999999115720584
 21
205.00000052153911
 31
0.0
1001
ACDBBLOCKREPETAG
1070
     1
1071
      187
1005
3A9
  0
LINE
  5
3AA
  8
0
 62
     1
 10
81.999999115720584
 20
200.00000052153899
 30
0.0
 11
106.09999911572061
 21
200.00000052153899
 31
0.0
1001
ACDBBLOCKREPETAG
1070
     1
1071
      188
1005
3AA
  0
LINE
  5
3AB
  8
0
 62
     1
 10
105.9999991157206
 20
205.00000052153911
 30
0.0
 11
120.9999991157206
 21
205.00000052153911
 31
0.0
1001
ACDBBLOCKREPETAG
1070
     1
1071
      189
1005
3AB
  0
LINE
  5
3AC
  8
0
 62
     1
 10
188.99999911572041
 20
205.00000052153911
 30
0.0
 11
396.99999911572058
 21
205.00000052153911
 31
0.0
1001
ACDBBLOCKREPETAG
1070
     1
1071
      190
1005
3AC
  0
LINE
  5
3AD
  8
0
 62
     1
 10
396.99999911572058
 20
200.00000052153899
 30
0.0
 11
429.99999911572053
 21
200.00000052153899
 31
0.0
1001
ACDBBLOCKREPETAG
1070
     1
1071
      191
1005
3AD
  0
LINE
  5
3AE
  8
0
 62
     1
 10
444.99999911572058
 20
200.00000052153899
 30
0.0
 11
452.99999911572058
 21
200.00000052153899
 31
0.0
1001
ACDBBLOCKREPETAG
1070
     1
1071
      192
1005
3AE
  0
LINE
  5
3AF
  8
0
 62
     1
 10
467.99999911572053
 20
200.00000052153899
 30
0.0
 11
625.49999911572036
 21
200.00000052153899
 31
0.0
1001
ACDBBLOCKREPETAG
1070
     1
1071
      193
1005
3AF
  0
LINE
  5
3B0
  8
0
 62
     1
 10
444.99999911572058
 20
204.900000521539
 30
0.0
 11
452.99999911572058
 21
204.900000521539
 31
0.0
1001
ACDBBLOCKREPETAG
1070
     1
1071
      194
1005
3B0
  0
LINE
  5
3B1
  8
0
 62
     1
 10
467.99999911572053
 20
204.900000521539
 30
0.0
 11
475.99999911572053
 21
204.900000521539
 31
0.0
1001
ACDBBLOCKREPETAG
1070
     1
1071
      195
1005
3B1
  0
LINE
  5
3B2
  8
0
 62
     1
 10
25.499999115720581
 20
215.00000052153911
 30
0.0
 11
81.999999115720584
 21
215.00000052153911
 31
0.0
1001
ACDBBLOCKREPETAG
1070
     1
1071
      196
1005
3B2
  0
LINE
  5
3B3
  8
0
 62
     1
 10
81.999999115720584
 20
210.00000052153891
 30
0.0
 11
106.09999911572061
 21
210.00000052153891
 31
0.0
1001
ACDBBLOCKREPETAG
1070
     1
1071
      197
1005
3B3
  0
LINE
  5
3B4
  8
0
 62
     1
 10
105.9999991157206
 20
215.00000052153911
 30
0.0
 11
120.9999991157206
 21
215.00000052153911
 31
0.0
1001
ACDBBLOCKREPETAG
1070
     1
1071
      198
1005
3B4
  0
LINE
  5
3B5
  8
0
 62
     1
 10
188.99999911572041
 20
215.00000052153911
 30
0.0
 11
396.99999911572058
 21
215.00000052153911
 31
0.0
1001
ACDBBLOCKREPETAG
1070
     1
1071
      199
1005
3B5
  0
LINE
  5
3B6
  8
0
 62
     1
 10
396.99999911572058
 20
210.00000052153891
 30
0.0
 11
429.99999911572053
 21
210.00000052153891
 31
0.0
1001
ACDBBLOCKREPETAG
1070
     1
1071
      200
1005
3B6
  0
LINE
  5
3B7
  8
0
 62
     1
 10
444.99999911572058
 20
210.00000052153891
 30
0.0
 11
452.99999911572058
 21
210.00000052153891
 31
0.0
1001
ACDBBLOCKREPETAG
1070
     1
1071
      201
1005
3B7
  0
LINE
  5
3B8
  8
0
 62
     1
 10
467.99999911572053
 20
210.00000052153891
 30
0.0
 11
625.49999911572036
 21
210.00000052153891
 31
0.0
1001
ACDBBLOCKREPETAG
1070
     1
1071
      202
1005
3B8
  0
LINE
  5
3B9
  8
0
 62
     1
 10
444.99999911572058
 20
214.900000521539
 30
0.0
 11
452.99999911572058
 21
214.900000521539
 31
0.0
1001
ACDBBLOCKREPETAG
1070
     1
1071
      203
1005
3B9
  0
LINE
  5
3BA
  8
0
 62
     1
 10
467.99999911572053
 20
214.900000521539
 30
0.0
 11
475.99999911572053
 21
214.900000521539
 31
0.0
1001
ACDBBLOCKREPETAG
1070
     1
1071
      204
1005
3BA
  0
LINE
  5
3BB
  8
0
 62
     1
 10
25.499999115720581
 20
225.00000052153899
 30
0.0
 11
81.999999115720584
 21
225.00000052153899
 31
0.0
1001
ACDBBLOCKREPETAG
1070
     1
1071
      205
1005
3BB
  0
LINE
  5
3BC
  8
0
 62
     1
 10
81.999999115720584
 20
220.00000052153899
 30
0.0
 11
106.09999911572061
 21
220.00000052153899
 31
0.0
1001
ACDBBLOCKREPETAG
1070
     1
1071
      206
1005
3BC
  0
LINE
  5
3BD
  8
0
 62
     1
 10
105.9999991157206
 20
225.00000052153899
 30
0.0
 11
120.9999991157206
 21
225.00000052153899
 31
0.0
1001
ACDBBLOCKREPETAG
1070
     1
1071
      207
1005
3BD
  0
LINE
  5
3BE
  8
0
 62
     1
 10
188.99999911572041
 20
225.00000052153899
 30
0.0
 11
396.99999911572058
 21
225.00000052153899
 31
0.0
1001
ACDBBLOCKREPETAG
1070
     1
1071
      208
1005
3BE
  0
LINE
  5
3BF
  8
0
 62
     1
 10
396.99999911572058
 20
220.00000052153899
 30
0.0
 11
429.99999911572053
 21
220.00000052153899
 31
0.0
1001
ACDBBLOCKREPETAG
1070
     1
1071
      209
1005
3BF
  0
LINE
  5
3C0
  8
0
 62
     1
 10
444.99999911572058
 20
220.00000052153899
 30
0.0
 11
452.99999911572058
 21
220.00000052153899
 31
0.0
1001
ACDBBLOCKREPETAG
1070
     1
1071
      210
1005
3C0
  0
LINE
  5
3C1
  8
0
 62
     1
 10
467.99999911572053
 20
220.00000052153899
 30
0.0
 11
625.49999911572036
 21
220.00000052153899
 31
0.0
1001
ACDBBLOCKREPETAG
1070
     1
1071
      211
1005
3C1
  0
LINE
  5
3C2
  8
0
 62
     1
 10
444.99999911572058
 20
224.900000521539
 30
0.0
 11
452.99999911572058
 21
224.900000521539
 31
0.0
1001
ACDBBLOCKREPETAG
1070
     1
1071
      212
1005
3C2
  0
LINE
  5
3C3
  8
0
 62
     1
 10
467.99999911572053
 20
224.900000521539
 30
0.0
 11
475.99999911572053
 21
224.900000521539
 31
0.0
1001
ACDBBLOCKREPETAG
1070
     1
1071
      213
1005
3C3
  0
LINE
  5
3C4
  8
0
 62
     1
 10
25.499999115720581
 20
235.00000052153891
 30
0.0
 11
81.999999115720584
 21
235.00000052153891
 31
0.0
1001
ACDBBLOCKREPETAG
1070
     1
1071
      214
1005
3C4
  0
LINE
  5
3C5
  8
0
 62
     1
 10
81.999999115720584
 20
230.00000052153911
 30
0.0
 11
106.09999911572061
 21
230.00000052153911
 31
0.0
1001
ACDBBLOCKREPETAG
1070
     1
1071
      215
1005
3C5
  0
LINE
  5
3C6
  8
0
 62
     1
 10
105.9999991157206
 20
235.00000052153891
 30
0.0
 11
120.9999991157206
 21
235.00000052153891
 31
0.0
1001
ACDBBLOCKREPETAG
1070
     1
1071
      216
1005
3C6
  0
LINE
  5
3C7
  8
0
 62
     1
 10
188.99999911572041
 20
235.00000052153891
 30
0.0
 11
396.99999911572058
 21
235.00000052153891
 31
0.0
1001
ACDBBLOCKREPETAG
1070
     1
1071
      217
1005
3C7
  0
LINE
  5
3C8
  8
0
 62
     1
 10
396.99999911572058
 20
230.00000052153911
 30
0.0
 11
429.99999911572053
 21
230.00000052153911
 31
0.0
1001
ACDBBLOCKREPETAG
1070
     1
1071
      218
1005
3C8
  0
LINE
  5
3C9
  8
0
 62
     1
 10
444.99999911572058
 20
230.00000052153911
 30
0.0
 11
452.99999911572058
 21
230.00000052153911
 31
0.0
1001
ACDBBLOCKREPETAG
1070
     1
1071
      219
1005
3C9
  0
LINE
  5
3CA
  8
0
 62
     1
 10
467.99999911572053
 20
230.00000052153911
 30
0.0
 11
625.49999911572036
 21
230.00000052153911
 31
0.0
1001
ACDBBLOCKREPETAG
1070
     1
1071
      220
1005
3CA
  0
LINE
  5
3CB
  8
0
 62
     1
 10
444.99999911572058
 20
234.900000521539
 30
0.0
 11
452.99999911572058
 21
234.900000521539
 31
0.0
1001
ACDBBLOCKREPETAG
1070
     1
1071
      221
1005
3CB
  0
LINE
  5
3CC
  8
0
 62
     1
 10
467.99999911572053
 20
234.900000521539
 30
0.0
 11
475.99999911572053
 21
234.900000521539
 31
0.0
1001
ACDBBLOCKREPETAG
1070
     1
1071
      222
1005
3CC
  0
LINE
  5
3CD
  8
0
 62
     1
 10
25.499999115720581
 20
245.00000052153899
 30
0.0
 11
81.999999115720584
 21
245.00000052153899
 31
0.0
1001
ACDBBLOCKREPETAG
1070
     1
1071
      223
1005
3CD
  0
LINE
  5
3CE
  8
0
 62
     1
 10
81.999999115720584
 20
240.00000052153911
 30
0.0
 11
106.09999911572061
 21
240.00000052153911
 31
0.0
1001
ACDBBLOCKREPETAG
1070
     1
1071
      224
1005
3CE
  0
LINE
  5
3CF
  8
0
 62
     1
 10
105.9999991157206
 20
245.00000052153899
 30
0.0
 11
120.9999991157206
 21
245.00000052153899
 31
0.0
1001
ACDBBLOCKREPETAG
1070
     1
1071
      225
1005
3CF
  0
LINE
  5
3D0
  8
0
 62
     1
 10
188.99999911572041
 20
245.00000052153899
 30
0.0
 11
396.99999911572058
 21
245.00000052153899
 31
0.0
1001
ACDBBLOCKREPETAG
1070
     1
1071
      226
1005
3D0
  0
LINE
  5
3D1
  8
0
 62
     1
 10
396.99999911572058
 20
240.00000052153911
 30
0.0
 11
429.99999911572053
 21
240.00000052153911
 31
0.0
1001
ACDBBLOCKREPETAG
1070
     1
1071
      227
1005
3D1
  0
LINE
  5
3D2
  8
0
 62
     1
 10
444.99999911572058
 20
240.00000052153911
 30
0.0
 11
452.99999911572058
 21
240.00000052153911
 31
0.0
1001
ACDBBLOCKREPETAG
1070
     1
1071
      228
1005
3D2
  0
LINE
  5
3D3
  8
0
 62
     1
 10
467.99999911572053
 20
240.00000052153911
 30
0.0
 11
625.49999911572036
 21
240.00000052153911
 31
0.0
1001
ACDBBLOCKREPETAG
1070
     1
1071
      229
1005
3D3
  0
LINE
  5
3D4
  8
0
 62
     1
 10
444.99999911572058
 20
244.900000521539
 30
0.0
 11
452.99999911572058
 21
244.900000521539
 31
0.0
1001
ACDBBLOCKREPETAG
1070
     1
1071
      230
1005
3D4
  0
LINE
  5
3D5
  8
0
 62
     1
 10
467.99999911572053
 20
244.900000521539
 30
0.0
 11
475.99999911572053
 21
244.900000521539
 31
0.0
1001
ACDBBLOCKREPETAG
1070
     1
1071
      231
1005
3D5
  0
LINE
  5
3D6
  8
0
 62
     1
 10
35.499999115720577
 20
45.00000052153905
 30
0.0
 11
35.499999115720577
 21
276.00000052153911
 31
0.0
1001
ACDBBLOCKREPETAG
1070
     1
1071
      232
1005
3D6
  0
LINE
  5
3D7
  8
0
 62
     1
 10
50.499999115720577
 20
45.00000052153905
 30
0.0
 11
50.499999115720577
 21
276.00000052153911
 31
0.0
1001
ACDBBLOCKREPETAG
1070
     1
1071
      233
1005
3D7
  0
LINE
  5
3D8
  8
0
 62
     1
 10
81.999999115720584
 20
45.00000052153905
 30
0.0
 11
81.999999115720584
 21
276.00000052153911
 31
0.0
1001
ACDBBLOCKREPETAG
1070
     1
1071
      234
1005
3D8
  0
LINE
  5
3D9
  8
0
 62
     1
 10
93.999999115720584
 20
45.00000052153905
 30
0.0
 11
93.999999115720584
 21
276.00000052153911
 31
0.0
1001
ACDBBLOCKREPETAG
1070
     1
1071
      235
1005
3D9
  0
LINE
  5
3DA
  8
0
 62
     1
 10
105.9999991157206
 20
45.00000052153905
 30
0.0
 11
105.9999991157206
 21
276.00000052153911
 31
0.0
1001
ACDBBLOCKREPETAG
1070
     1
1071
      236
1005
3DA
  0
LINE
  5
3DB
  8
0
 62
     1
 10
120.9999991157206
 20
45.00000052153905
 30
0.0
 11
120.9999991157206
 21
276.00000052153911
 31
0.0
1001
ACDBBLOCKREPETAG
1070
     1
1071
      237
1005
3DB
  0
LINE
  5
3DC
  8
0
 62
     1
 10
133.99999911572061
 20
45.00000052153905
 30
0.0
 11
133.99999911572061
 21
276.00000052153911
 31
0.0
1001
ACDBBLOCKREPETAG
1070
     1
1071
      238
1005
3DC
  0
LINE
  5
3DD
  8
0
 62
     1
 10
164.99999911572061
 20
45.00000052153905
 30
0.0
 11
164.99999911572061
 21
276.00000052153911
 31
0.0
1001
ACDBBLOCKREPETAG
1070
     1
1071
      239
1005
3DD
  0
LINE
  5
3DE
  8
0
 62
     1
 10
188.99999911572041
 20
45.00000052153905
 30
0.0
 11
188.99999911572041
 21
276.00000052153911
 31
0.0
1001
ACDBBLOCKREPETAG
1070
     1
1071
      240
1005
3DE
  0
LINE
  5
3DF
  8
0
 62
     1
 10
198.99999911572061
 20
45.00000052153905
 30
0.0
 11
198.99999911572061
 21
276.00000052153911
 31
0.0
1001
ACDBBLOCKREPETAG
1070
     1
1071
      241
1005
3DF
  0
LINE
  5
3E0
  8
0
 62
     1
 10
222.99999911572061
 20
45.00000052153905
 30
0.0
 11
222.99999911572061
 21
261.00000052153911
 31
0.0
1001
ACDBBLOCKREPETAG
1070
     1
1071
      242
1005
3E0
  0
LINE
  5
3E1
  8
0
 62
     1
 10
230.99999911572061
 20
45.00000052153905
 30
0.0
 11
230.99999911572061
 21
268.00000052153899
 31
0.0
1001
ACDBBLOCKREPETAG
1070
     1
1071
      243
1005
3E1
  0
LINE
  5
3E2
  8
0
 62
     1
 10
252.99999911572061
 20
45.00000052153905
 30
0.0
 11
252.99999911572061
 21
261.00000052153911
 31
0.0
1001
ACDBBLOCKREPETAG
1070
     1
1071
      244
1005
3E2
  0
LINE
  5
3E3
  8
0
 62
     1
 10
259.99999911572058
 20
45.00000052153905
 30
0.0
 11
259.99999911572058
 21
276.00000052153911
 31
0.0
1001
ACDBBLOCKREPETAG
1070
     1
1071
      245
1005
3E3
  0
LINE
  5
3E4
  8
0
 62
     1
 10
289.99999911572058
 20
45.00000052153905
 30
0.0
 11
289.99999911572058
 21
276.00000052153911
 31
0.0
1001
ACDBBLOCKREPETAG
1070
     1
1071
      246
1005
3E4
  0
LINE
  5
3E5
  8
0
 62
     1
 10
339.99999911572058
 20
45.00000052153905
 30
0.0
 11
339.99999911572058
 21
261.00000052153911
 31
0.0
1001
ACDBBLOCKREPETAG
1070
     1
1071
      247
1005
3E5
  0
LINE
  5
3E6
  8
0
 62
     1
 10
353.99999911572058
 20
45.00000052153905
 30
0.0
 11
353.99999911572058
 21
276.00000052153911
 31
0.0
1001
ACDBBLOCKREPETAG
1070
     1
1071
      248
1005
3E6
  0
LINE
  5
3E7
  8
0
 62
     1
 10
386.99999911572058
 20
45.00000052153905
 30
0.0
 11
386.99999911572058
 21
261.00000052153911
 31
0.0
1001
ACDBBLOCKREPETAG
1070
     1
1071
      249
1005
3E7
  0
LINE
  5
3E8
  8
0
 62
     1
 10
396.99999911572058
 20
45.00000052153905
 30
0.0
 11
396.99999911572058
 21
276.00000052153911
 31
0.0
1001
ACDBBLOCKREPETAG
1070
     1
1071
      250
1005
3E8
  0
LINE
  5
3E9
  8
0
 62
     1
 10
423.99999911572058
 20
45.00000052153905
 30
0.0
 11
423.99999911572058
 21
261.00000052153911
 31
0.0
1001
ACDBBLOCKREPETAG
1070
     1
1071
      251
1005
3E9
  0
LINE
  5
3EA
  8
0
 62
     1
 10
429.99999911572053
 20
45.00000052153905
 30
0.0
 11
429.99999911572053
 21
276.00000052153911
 31
0.0
1001
ACDBBLOCKREPETAG
1070
     1
1071
      252
1005
3EA
  0
LINE
  5
3EB
  8
0
 62
     1
 10
444.99999911572058
 20
45.00000052153905
 30
0.0
 11
444.99999911572058
 21
261.00000052153911
 31
0.0
1001
ACDBBLOCKREPETAG
1070
     1
1071
      253
1005
3EB
  0
LINE
  5
3EC
  8
0
 62
     1
 10
452.99999911572058
 20
45.00000052153905
 30
0.0
 11
452.99999911572058
 21
268.00000052153899
 31
0.0
1001
ACDBBLOCKREPETAG
1070
     1
1071
      254
1005
3EC
  0
LINE
  5
3ED
  8
0
 62
     1
 10
467.99999911572053
 20
45.00000052153905
 30
0.0
 11
467.99999911572053
 21
261.00000052153911
 31
0.0
1001
ACDBBLOCKREPETAG
1070
     1
1071
      255
1005
3ED
  0
LINE
  5
3EE
  8
0
 62
     1
 10
475.99999911572053
 20
45.00000052153905
 30
0.0
 11
475.99999911572053
 21
276.00000052153911
 31
0.0
1001
ACDBBLOCKREPETAG
1070
     1
1071
      256
1005
3EE
  0
LINE
  5
3EF
  8
0
 62
     1
 10
532.99999911572058
 20
45.00000052153905
 30
0.0
 11
532.99999911572058
 21
276.00000052153911
 31
0.0
1001
ACDBBLOCKREPETAG
1070
     1
1071
      257
1005
3EF
  0
TEXT
  5
3F0
  8
0
 10
28.299999115720588
 20
268.00000052153899
 30
0.0
 40
3.0
  1
杆
  7
HZ
1001
ACDBBLOCKREPETAG
1070
     1
1071
      258
1005
3F0
  0
TEXT
  5
3F1
  8
0
 10
28.299999115720588
 20
258.00000052153888
 30
0.0
 40
3.0
  1
塔
  7
HZ
1001
ACDBBLOCKREPETAG
1070
     1
1071
      259
1005
3F1
  0
TEXT
  5
3F2
  8
0
 10
28.299999115720588
 20
248.00000052153911
 30
0.0
 40
3.0
  1
号
  7
HZ
1001
ACDBBLOCKREPETAG
1070
     1
1071
      260
1005
3F2
  0
TEXT
  5
3F3
  8
0
 10
40.799999115720567
 20
268.00000052153899
 30
0.0
 40
3.0
  1
桩
  7
HZ
1001
ACDBBLOCKREPETAG
1070
     1
1071
      261
1005
3F3
  0
TEXT
  5
3F4
  8
0
 10
40.799999115720567
 20
248.00000052153911
 30
0.0
 40
3.0
  1
号
  7
HZ
1001
ACDBBLOCKREPETAG
1070
     1
1071
      262
1005
3F4
  0
TEXT
  5
3F5
  8
0
 10
63.799999115720567
 20
268.00000052153899
 30
0.0
 40
3.0
  1
杆
  7
HZ
1001
ACDBBLOCKREPETAG
1070
     1
1071
      263
1005
3F5
  0
TEXT
  5
3F6
  8
0
 10
63.799999115720567
 20
261.40000052153903
 30
0.0
 40
3.0
  1
塔
  7
HZ
1001
ACDBBLOCKREPETAG
1070
     1
1071
      264
1005
3F6
  0
TEXT
  5
3F7
  8
0
 10
63.799999115720567
 20
254.6000005215391
 30
0.0
 40
3.0
  1
型
  7
HZ
1001
ACDBBLOCKREPETAG
1070
     1
1071
      265
1005
3F7
  0
TEXT
  5
3F8
  8
0
 10
63.799999115720567
 20
248.00000052153911
 30
0.0
 40
3.0
  1
号
  7
HZ
1001
ACDBBLOCKREPETAG
1070
     1
1071
      266
1005
3F8
  0
TEXT
  5
3F9
  8
0
 10
85.299999115720581
 20
268.00000052153899
 30
0.0
 40
3.0
  1
档
  7
HZ
1001
ACDBBLOCKREPETAG
1070
     1
1071
      267
1005
3F9
  0
TEXT
  5
3FA
  8
0
 10
85.299999115720581
 20
258.00000052153888
 30
0.0
 40
3.0
  1
距
  7
HZ
1001
ACDBBLOCKREPETAG
1070
     1
1071
      268
1005
3FA
  0
TEXT
  5
3FB
  8
0
 10
83.799999115720581
 20
248.00000052153911
 30
0.0
 40
3.0
  1
(米)
  7
HZ
1001
ACDBBLOCKREPETAG
1070
     1
1071
      269
1005
3FB
  0
TEXT
  5
3FC
  8
0
 10
97.799999115720581
 20
268.00000052153899
 30
0.0
 40
3.0
  1
高
  7
HZ
1001
ACDBBLOCKREPETAG
1070
     1
1071
      270
1005
3FC
  0
TEXT
  5
3FD
  8
0
 10
97.799999115720581
 20
258.00000052153888
 30
0.0
 40
3.0
  1
差
  7
HZ
1001
ACDBBLOCKREPETAG
1070
     1
1071
      271
1005
3FD
  0
TEXT
  5
3FE
  8
0
 10
95.599999115720578
 20
248.00000052153911
 30
0.0
 40
3.0
  1
(米)
  7
HZ
1001
ACDBBLOCKREPETAG
1070
     1
1071
      272
1005
3FE
  0
TEXT
  5
3FF
  8
0
 10
111.4999991157206
 20
268.00000052153899
 30
0.0
 40
3.0
  1
水
  7
HZ
1001
ACDBBLOCKREPETAG
1070
     1
1071
      273
1005
3FF
  0
TEXT
  5
400
  8
0
 10
111.4999991157206
 20
261.40000052153903
 30
0.0
 40
3.0
  1
平
  7
HZ
1001
ACDBBLOCKREPETAG
1070
     1
1071
      274
1005
400
  0
TEXT
  5
401
  8
0
 10
111.4999991157206
 20
254.6000005215391
 30
0.0
 40
3.0
  1
转
  7
HZ
1001
ACDBBLOCKREPETAG
1070
     1
1071
      275
1005
401
  0
TEXT
  5
402
  8
0
 10
111.4999991157206
 20
248.00000052153911
 30
0.0
 40
3.0
  1
角
  7
HZ
1001
ACDBBLOCKREPETAG
1070
     1
1071
      276
1005
402
  0
TEXT
  5
403
  8
0
 10
121.9999991157206
 20
271.50000052153911
 30
0.0
 40
3.0
  1
耐
  7
HZ
1001
ACDBBLOCKREPETAG
1070
     1
1071
      277
1005
403
  0
TEXT
  5
404
  8
0
 10
125.9999991157206
 20
271.50000052153911
 30
0.0
 40
3.0
  1
张
  7
HZ
1001
ACDBBLOCKREPETAG
1070
     1
1071
      278
1005
404
  0
TEXT
  5
405
  8
0
 10
129.49999911572061
 20
271.50000052153911
 30
0.0
 40
3.0
  1
段
  7
HZ
1001
ACDBBLOCKREPETAG
1070
     1
1071
      279
1005
405
  0
TEXT
  5
406
  8
0
 10
121.9999991157206
 20
266.00000052153899
 30
0.0
 40
3.0
  1
长
  7
HZ
1001
ACDBBLOCKREPETAG
1070
     1
1071
      280
1005
406
  0
TEXT
  5
407
  8
0
 10
129.49999911572061
 20
266.00000052153899
 30
0.0
 40
3.0
  1
度
  7
HZ
1001
ACDBBLOCKREPETAG
1070
     1
1071
      281
1005
407
  0
TEXT
  5
408
  8
0
 10
122.9999991157206
 20
261.00000052153911
 30
0.0
 40
3.0
  1
(米)
  7
HZ
1001
ACDBBLOCKREPETAG
1070
     1
1071
      282
1005
408
  0
LINE
  5
409
  8
0
 62
     1
 10
120.9999991157206
 20
260.00000052153888
 30
0.0
 11
133.99999911572061
 21
260.00000052153888
 31
0.0
1001
ACDBBLOCKREPETAG
1070
     1
1071
      283
1005
409
  0
TEXT
  5
40A
  8
0
 10
121.9999991157206
 20
255.50000052153899
 30
0.0
 40
3.0
  1
代
  7
HZ
1001
ACDBBLOCKREPETAG
1070
     1
1071
      284
1005
40A
  0
TEXT
  5
40B
  8
0
 10
129.49999911572061
 20
255.50000052153899
 30
0.0
 40
3.0
  1
表
  7
HZ
1001
ACDBBLOCKREPETAG
1070
     1
1071
      285
1005
40B
  0
TEXT
  5
40C
  8
0
 10
121.9999991157206
 20
250.50000052153911
 30
0.0
 40
3.0
  1
档
  7
HZ
1001
ACDBBLOCKREPETAG
1070
     1
1071
      286
1005
40C
  0
TEXT
  5
40D
  8
0
 10
129.49999911572061
 20
250.50000052153911
 30
0.0
 40
3.0
  1
距
  7
HZ
1001
ACDBBLOCKREPETAG
1070
     1
1071
      287
1005
40D
  0
TEXT
  5
40E
  8
0
 10
123.9999991157206
 20
246.00000052153911
 30
0.0
 40
3.0
  1
(米)
  7
HZ
1001
ACDBBLOCKREPETAG
1070
     1
1071
      288
1005
40E
  0
TEXT
  5
40F
  8
0
 10
140.99999911572061
 20
268.00000052153899
 30
0.0
 40
3.0
  1
导
  7
HZ
1001
ACDBBLOCKREPETAG
1070
     1
1071
      289
1005
40F
  0
TEXT
  5
410
  8
0
 10
151.99999911572061
 20
268.00000052153899
 30
0.0
 40
3.0
  1
线
  7
HZ
1001
ACDBBLOCKREPETAG
1070
     1
1071
      290
1005
410
  0
TEXT
  5
411
  8
0
 10
140.99999911572061
 20
258.00000052153888
 30
0.0
 40
3.0
  1
地
  7
HZ
1001
ACDBBLOCKREPETAG
1070
     1
1071
      291
1005
411
  0
TEXT
  5
412
  8
0
 10
151.99999911572061
 20
258.00000052153888
 30
0.0
 40
3.0
  1
线
  7
HZ
1001
ACDBBLOCKREPETAG
1070
     1
1071
      292
1005
412
  0
TEXT
  5
413
  8
0
 10
140.99999911572061
 20
248.00000052153911
 30
0.0
 40
3.0
  1
型
  7
HZ
1001
ACDBBLOCKREPETAG
1070
     1
1071
      293
1005
413
  0
TEXT
  5
414
  8
0
 10
151.99999911572061
 20
248.00000052153911
 30
0.0
 40
3.0
  1
号
  7
HZ
1001
ACDBBLOCKREPETAG
1070
     1
1071
      294
1005
414
  0
TEXT
  5
415
  8
0
 10
168.99999911572061
 20
268.00000052153899
 30
0.0
 40
3.0
  1
架
  7
HZ
1001
ACDBBLOCKREPETAG
1070
     1
1071
      295
1005
415
  0
TEXT
  5
416
  8
0
 10
174.99999911572061
 20
268.00000052153899
 30
0.0
 40
3.0
  1
线
  7
HZ
1001
ACDBBLOCKREPETAG
1070
     1
1071
      296
1005
416
  0
TEXT
  5
417
  8
0
 10
180.99999911572041
 20
268.00000052153899
 30
0.0
 40
3.0
  1
表
  7
HZ
1001
ACDBBLOCKREPETAG
1070
     1
1071
      297
1005
417
  0
TEXT
  5
418
  8
0
 10
168.99999911572061
 20
248.00000052153911
 30
0.0
 40
3.0
  1
图
  7
HZ
1001
ACDBBLOCKREPETAG
1070
     1
1071
      298
1005
418
  0
TEXT
  5
419
  8
0
 10
180.99999911572041
 20
248.00000052153911
 30
0.0
 40
3.0
  1
号
  7
HZ
1001
ACDBBLOCKREPETAG
1070
     1
1071
      299
1005
419
  0
TEXT
  5
41A
  8
0
 10
191.99999911572061
 20
271.50000052153911
 30
0.0
 40
3.0
  1
基
  7
HZ
1001
ACDBBLOCKREPETAG
1070
     1
1071
      300
1005
41A
  0
TEXT
  5
41B
  8
0
 10
191.99999911572061
 20
265.75000052153888
 30
0.0
 40
3.0
  1
面
  7
HZ
1001
ACDBBLOCKREPETAG
1070
     1
1071
      301
1005
41B
  0
TEXT
  5
41C
  8
0
 10
191.99999911572061
 20
259.50000052153888
 30
0.0
 40
3.0
  1
下
  7
HZ
1001
ACDBBLOCKREPETAG
1070
     1
1071
      302
1005
41C
  0
TEXT
  5
41D
  8
0
 10
191.99999911572061
 20
252.75000052153911
 30
0.0
 40
3.0
  1
降
  7
HZ
1001
ACDBBLOCKREPETAG
1070
     1
1071
      303
1005
41D
  0
TEXT
  5
41E
  8
0
 10
189.99999911572061
 20
246.50000052153911
 30
0.0
 40
3.0
  1
(米)
  7
HZ
1001
ACDBBLOCKREPETAG
1070
     1
1071
      304
1005
41E
  0
TEXT
  5
41F
  8
0
 10
215.49999911572061
 20
270.50000052153888
 30
0.0
 40
3.0
  1
基
  7
HZ
1001
ACDBBLOCKREPETAG
1070
     1
1071
      305
1005
41F
  0
TEXT
  5
420
  8
0
 10
242.49999911572061
 20
270.50000052153888
 30
0.0
 40
3.0
  1
础
  7
HZ
1001
ACDBBLOCKREPETAG
1070
     1
1071
      306
1005
420
  0
LINE
  5
421
  8
0
 62
     1
 10
198.99999911572061
 20
261.00000052153911
 30
0.0
 11
259.99999911572058
 21
261.00000052153911
 31
0.0
1001
ACDBBLOCKREPETAG
1070
     1
1071
      307
1005
421
  0
LINE
  5
422
  8
0
 62
     1
 10
198.99999911572061
 20
268.00000052153899
 30
0.0
 11
259.99999911572058
 21
268.00000052153899
 31
0.0
1001
ACDBBLOCKREPETAG
1070
     1
1071
      308
1005
422
  0
TEXT
  5
423
  8
0
 10
205.99999911572061
 20
263.00000052153911
 30
0.0
 40
3.0
  1
铁
  7
HZ
1001
ACDBBLOCKREPETAG
1070
     1
1071
      309
1005
423
  0
TEXT
  5
424
  8
0
 10
220.99999911572061
 20
263.00000052153911
 30
0.0
 40
3.0
  1
塔
  7
HZ
1001
ACDBBLOCKREPETAG
1070
     1
1071
      310
1005
424
  0
TEXT
  5
425
  8
0
 10
235.99999911572061
 20
263.00000052153911
 30
0.0
 40
3.0
  1
水
  7
HZ
1001
ACDBBLOCKREPETAG
1070
     1
1071
      311
1005
425
  0
TEXT
  5
426
  8
0
 10
243.99999911572061
 20
263.00000052153911
 30
0.0
 40
3.0
  1
泥
  7
HZ
1001
ACDBBLOCKREPETAG
1070
     1
1071
      312
1005
426
  0
TEXT
  5
427
  8
0
 10
251.99999911572061
 20
263.00000052153911
 30
0.0
 40
3.0
  1
杆
  7
HZ
1001
ACDBBLOCKREPETAG
1070
     1
1071
      313
1005
427
  0
TEXT
  5
428
  8
0
 10
204.99999911572061
 20
251.50000052153899
 30
0.0
 40
3.0
  1
图  号
  7
HZ
1001
ACDBBLOCKREPETAG
1070
     1
1071
      314
1005
428
  0
TEXT
  5
429
  8
0
 10
224.99999911572061
 20
255.50000052153899
 30
0.0
 40
3.0
  1
数
  7
HZ
1001
ACDBBLOCKREPETAG
1070
     1
1071
      315
1005
429
  0
TEXT
  5
42A
  8
0
 10
224.99999911572061
 20
246.50000052153911
 30
0.0
 40
3.0
  1
量
  7
HZ
1001
ACDBBLOCKREPETAG
1070
     1
1071
      316
1005
42A
  0
TEXT
  5
42B
  8
0
 10
235.99999911572061
 20
255.50000052153899
 30
0.0
 40
3.0
  1
地  盘
  7
HZ
1001
ACDBBLOCKREPETAG
1070
     1
1071
      317
1005
42B
  0
TEXT
  5
42C
  8
0
 10
235.99999911572061
 20
246.50000052153911
 30
0.0
 40
3.0
  1
拉线盘
  7
HZ
1001
ACDBBLOCKREPETAG
1070
     1
1071
      318
1005
42C
  0
TEXT
  5
42D
  8
0
 10
254.99999911572061
 20
255.50000052153899
 30
0.0
 40
3.0
  1
数
  7
HZ
1001
ACDBBLOCKREPETAG
1070
     1
1071
      319
1005
42D
  0
TEXT
  5
42E
  8
0
 10
254.99999911572061
 20
246.50000052153911
 30
0.0
 40
3.0
  1
量
  7
HZ
1001
ACDBBLOCKREPETAG
1070
     1
1071
      320
1005
42E
  0
TEXT
  5
42F
  8
0
 10
265.99999911572058
 20
268.00000052153899
 30
0.0
 40
3.0
  1
接    地
  7
HZ
1001
ACDBBLOCKREPETAG
1070
     1
1071
      321
1005
42F
  0
TEXT
  5
430
  8
0
 10
265.99999911572058
 20
258.00000052153888
 30
0.0
 40
3.0
  1
装    置
  7
HZ
1001
ACDBBLOCKREPETAG
1070
     1
1071
      322
1005
430
  0
TEXT
  5
431
  8
0
 10
265.99999911572058
 20
248.00000052153911
 30
0.0
 40
3.0
  1
图(型)号
  7
HZ
1001
ACDBBLOCKREPETAG
1070
     1
1071
      323
1005
431
  0
TEXT
  5
432
  8
0
 10
311.99999911572058
 20
267.00000052153911
 30
0.0
 40
3.0
  1
导线绝缘子
  7
HZ
1001
ACDBBLOCKREPETAG
1070
     1
1071
      324
1005
432
  0
TEXT
  5
433
  8
0
 10
307.49999911572058
 20
250.50000052153911
 30
0.0
 40
3.0
  1
图(代)号
  7
HZ
1001
ACDBBLOCKREPETAG
1070
     1
1071
      325
1005
433
  0
TEXT
  5
434
  8
0
 10
344.99999911572058
 20
255.50000052153899
 30
0.0
 40
3.0
  1
数
  7
HZ
1001
ACDBBLOCKREPETAG
1070
     1
1071
      326
1005
434
  0
TEXT
  5
435
  8
0
 10
344.99999911572058
 20
246.50000052153911
 30
0.0
 40
3.0
  1
量
  7
HZ
1001
ACDBBLOCKREPETAG
1070
     1
1071
      327
1005
435
  0
TEXT
  5
436
  8
0
 10
365.49999911572058
 20
267.00000052153911
 30
0.0
 40
3.0
  1
地线金具串
  7
HZ
1001
ACDBBLOCKREPETAG
1070
     1
1071
      328
1005
436
  0
TEXT
  5
437
  8
0
 10
362.99999911572058
 20
250.50000052153911
 30
0.0
 40
3.0
  1
图(代)号
  7
HZ
1001
ACDBBLOCKREPETAG
1070
     1
1071
      329
1005
437
  0
TEXT
  5
438
  8
0
 10
389.99999911572058
 20
255.50000052153899
 30
0.0
 40
3.0
  1
数
  7
HZ
1001
ACDBBLOCKREPETAG
1070
     1
1071
      330
1005
438
  0
TEXT
  5
439
  8
0
 10
389.99999911572058
 20
246.50000052153911
 30
0.0
 40
3.0
  1
量
  7
HZ
1001
ACDBBLOCKREPETAG
1070
     1
1071
      331
1005
439
  0
TEXT
  5
43A
  8
0
 10
407.99999911572058
 20
267.50000052153911
 30
0.0
 40
3.0
  1
间隔棒
  7
HZ
1001
ACDBBLOCKREPETAG
1070
     1
1071
      332
1005
43A
  0
TEXT
  5
43B
  8
0
 10
398.99999911572058
 20
255.50000052153899
 30
0.0
 40
3.0
  1
安装距离
  7
HZ
1001
ACDBBLOCKREPETAG
1070
     1
1071
      333
1005
43B
  0
TEXT
  5
43C
  8
0
 10
408.99999911572041
 20
246.50000052153911
 30
0.0
 40
3.0
  1
(米)
  7
HZ
1001
ACDBBLOCKREPETAG
1070
     1
1071
      334
1005
43C
  0
TEXT
  5
43D
  8
0
 10
424.99999911572053
 20
255.50000052153899
 30
0.0
 40
3.0
  1
数
  7
HZ
1001
ACDBBLOCKREPETAG
1070
     1
1071
      335
1005
43D
  0
TEXT
  5
43E
  8
0
 10
424.99999911572053
 20
246.50000052153911
 30
0.0
 40
3.0
  1
量
  7
HZ
1001
ACDBBLOCKREPETAG
1070
     1
1071
      336
1005
43E
  0
TEXT
  5
43F
  8
0
 10
443.99999911572058
 20
271.00000052153911
 30
0.0
 40
3.0
  1
防振锤
  7
HZ
1001
ACDBBLOCKREPETAG
1070
     1
1071
      337
1005
43F
  0
TEXT
  5
440
  8
0
 10
435.99999911572058
 20
263.00000052153911
 30
0.0
 40
3.0
  1
导线
  7
HZ
1001
ACDBBLOCKREPETAG
1070
     1
1071
      338
1005
440
  0
TEXT
  5
441
  8
0
 10
457.99999911572058
 20
263.00000052153911
 30
0.0
 40
3.0
  1
地线
  7
HZ
1001
ACDBBLOCKREPETAG
1070
     1
1071
      339
1005
441
  0
TEXT
  5
442
  8
0
 10
430.19999911572052
 20
254.50000052153911
 30
0.0
 40
3.0
  1
安
  7
HZ
1001
ACDBBLOCKREPETAG
1070
     1
1071
      340
1005
442
  0
TEXT
  5
443
  8
0
 10
433.69999911572052
 20
254.50000052153911
 30
0.0
 40
3.0
  1
装
  7
HZ
1001
ACDBBLOCKREPETAG
1070
     1
1071
      341
1005
443
  0
TEXT
  5
444
  8
0
 10
437.1999991157204
 20
254.50000052153911
 30
0.0
 40
3.0
  1
距
  7
HZ
1001
ACDBBLOCKREPETAG
1070
     1
1071
      342
1005
444
  0
TEXT
  5
445
  8
0
 10
440.69999911572052
 20
254.50000052153911
 30
0.0
 40
3.0
  1
离
  7
HZ
1001
ACDBBLOCKREPETAG
1070
     1
1071
      343
1005
445
  0
TEXT
  5
446
  8
0
 10
453.19999911572052
 20
254.50000052153911
 30
0.0
 40
3.0
  1
安
  7
HZ
1001
ACDBBLOCKREPETAG
1070
     1
1071
      344
1005
446
  0
TEXT
  5
447
  8
0
 10
456.69999911572057
 20
254.50000052153911
 30
0.0
 40
3.0
  1
装
  7
HZ
1001
ACDBBLOCKREPETAG
1070
     1
1071
      345
1005
447
  0
TEXT
  5
448
  8
0
 10
460.19999911572057
 20
254.50000052153911
 30
0.0
 40
3.0
  1
距
  7
HZ
1001
ACDBBLOCKREPETAG
1070
     1
1071
      346
1005
448
  0
TEXT
  5
449
  8
0
 10
463.69999911572052
 20
254.50000052153911
 30
0.0
 40
3.0
  1
离
  7
HZ
1001
ACDBBLOCKREPETAG
1070
     1
1071
      347
1005
449
  0
TEXT
  5
44A
  8
0
 10
431.09999911572049
 20
246.50000052153911
 30
0.0
 40
3.0
  1
(毫米)
  7
HZ
1001
ACDBBLOCKREPETAG
1070
     1
1071
      348
1005
44A
  0
TEXT
  5
44B
  8
0
 10
454.09999911572061
 20
246.50000052153911
 30
0.0
 40
3.0
  1
(毫米)
  7
HZ
1001
ACDBBLOCKREPETAG
1070
     1
1071
      349
1005
44B
  0
TEXT
  5
44C
  8
0
 10
446.49999911572053
 20
254.50000052153911
 30
0.0
 40
3.0
  1
数
  7
HZ
1001
ACDBBLOCKREPETAG
1070
     1
1071
      350
1005
44C
  0
TEXT
  5
44D
  8
0
 10
446.49999911572053
 20
246.50000052153911
 30
0.0
 40
3.0
  1
量
  7
HZ
1001
ACDBBLOCKREPETAG
1070
     1
1071
      351
1005
44D
  0
TEXT
  5
44E
  8
0
 10
469.49999911572058
 20
254.50000052153911
 30
0.0
 40
3.0
  1
数
  7
HZ
1001
ACDBBLOCKREPETAG
1070
     1
1071
      352
1005
44E
  0
TEXT
  5
44F
  8
0
 10
469.49999911572058
 20
246.50000052153911
 30
0.0
 40
3.0
  1
量
  7
HZ
1001
ACDBBLOCKREPETAG
1070
     1
1071
      353
1005
44F
  0
LINE
  5
450
  8
0
 62
     1
 10
429.99999911572053
 20
268.00000052153899
 30
0.0
 11
475.99999911572053
 21
268.00000052153899
 31
0.0
1001
ACDBBLOCKREPETAG
1070
     1
1071
      354
1005
450
  0
LINE
  5
451
  8
0
 62
     1
 10
289.99999911572058
 20
261.00000052153911
 30
0.0
 11
475.99999911572053
 21
261.00000052153911
 31
0.0
1001
ACDBBLOCKREPETAG
1070
     1
1071
      355
1005
451
  0
TEXT
  5
452
  8
0
 10
488.49999911572053
 20
258.50000052153911
 30
0.0
 40
3.0
  1
交 叉 跨 越 情 况
  7
HZ
1001
ACDBBLOCKREPETAG
1070
     1
1071
      356
1005
452
  0
TEXT
  5
453
  8
0
 10
563.49999911572036
 20
262.50000052153888
 30
0.0
 40
3.0
  1
备            注
  7
HZ
1001
ACDBBLOCKREPETAG
1070
     1
1071
      357
1005
453
  0
TEXT
  5
454
  8
0
 10
563.49999911572036
 20
255.50000052153899
 30
0.0
 40
3.0
  1
(处理意见及其他)
  7
HZ
1001
ACDBBLOCKREPETAG
1070
     1
1071
      358
1005
454
  0
TEXT
  5
455
  8
0
 10
350.49999911572058
 20
280.50000052153899
 30
0.0
 40
5.0
  1
(杆塔明细表)
  7
HZ
1001
ACDBBLOCKREPETAG
1070
     1
1071
      359
1005
455
  0
LINE
  5
456
  8
0
 62
     1
 10
445.49999911572058
 20
5.0000005215390493
 30
0.0
 11
445.49999911572058
 21
45.00000052153905
 31
0.0
1001
ACDBBLOCKREPETAG
1070
     1
1071
      360
1005
456
  0
LINE
  5
457
  8
0
 62
     1
 10
445.49999911572058
 20
45.00000052153905
 30
0.0
 11
625.49999911572036
 21
45.00000052153905
 31
0.0
1001
ACDBBLOCKREPETAG
1070
     1
1071
      361
1005
457
  0
LINE
  5
458
  8
0
 62
     1
 10
445.59999911572061
 20
5.0000005215390493
 30
0.0
 11
445.59999911572061
 21
44.900000521539013
 31
0.0
1001
ACDBBLOCKREPETAG
1070
     1
1071
      362
1005
458
  0
LINE
  5
459
  8
0
 62
     1
 10
445.59999911572061
 20
44.900000521539013
 30
0.0
 11
625.49999911572036
 21
44.900000521539013
 31
0.0
1001
ACDBBLOCKREPETAG
1070
     1
1071
      363
1005
459
  0
LINE
  5
45A
  8
0
 62
     1
 10
445.6999991157204
 20
5.0000005215390493
 30
0.0
 11
445.6999991157204
 21
44.800000521538998
 31
0.0
1001
ACDBBLOCKREPETAG
1070
     1
1071
      364
1005
45A
  0
LINE
  5
45B
  8
0
 62
     1
 10
445.6999991157204
 20
44.800000521538998
 30
0.0
 11
625.49999911572036
 21
44.800000521538998
 31
0.0
1001
ACDBBLOCKREPETAG
1070
     1
1071
      365
1005
45B
  0
LINE
  5
45C
  8
0
 62
     1
 10
445.7999991157206
 20
5.0000005215390493
 30
0.0
 11
445.7999991157206
 21
44.700000521539089
 31
0.0
1001
ACDBBLOCKREPETAG
1070
     1
1071
      366
1005
45C
  0
LINE
  5
45D
  8
0
 62
     1
 10
445.7999991157206
 20
44.700000521539089
 30
0.0
 11
625.49999911572036
 21
44.700000521539089
 31
0.0
1001
ACDBBLOCKREPETAG
1070
     1
1071
      367
1005
45D
  0
LINE
  5
45E
  8
0
 62
     1
 10
445.49999911572058
 20
12.00000052153905
 30
0.0
 11
625.49999911572036
 21
12.00000052153905
 31
0.0
1001
ACDBBLOCKREPETAG
1070
     1
1071
      368
1005
45E
  0
LINE
  5
45F
  8
0
 62
     1
 10
445.49999911572058
 20
33.00000052153905
 30
0.0
 11
625.49999911572036
 21
33.00000052153905
 31
0.0
1001
ACDBBLOCKREPETAG
1070
     1
1071
      369
1005
45F
  0
LINE
  5
460
  8
0
 62
     1
 10
465.49999911572058
 20
5.0000005215390493
 30
0.0
 11
465.49999911572058
 21
33.00000052153905
 31
0.0
1001
ACDBBLOCKREPETAG
1070
     1
1071
      370
1005
460
  0
LINE
  5
461
  8
0
 62
     1
 10
490.49999911572058
 20
5.0000005215390493
 30
0.0
 11
490.49999911572058
 21
33.00000052153905
 31
0.0
1001
ACDBBLOCKREPETAG
1070
     1
1071
      371
1005
461
  0
LINE
  5
462
  8
0
 62
     1
 10
510.49999911572058
 20
5.0000005215390493
 30
0.0
 11
510.49999911572058
 21
33.00000052153905
 31
0.0
1001
ACDBBLOCKREPETAG
1070
     1
1071
      372
1005
462
  0
LINE
  5
463
  8
0
 62
     1
 10
535.49999911572058
 20
5.0000005215390493
 30
0.0
 11
535.49999911572058
 21
45.00000052153905
 31
0.0
1001
ACDBBLOCKREPETAG
1070
     1
1071
      373
1005
463
  0
LINE
  5
464
  8
0
 62
     1
 10
555.49999911572036
 20
5.0000005215390493
 30
0.0
 11
555.49999911572036
 21
12.00000052153905
 31
0.0
1001
ACDBBLOCKREPETAG
1070
     1
1071
      374
1005
464
  0
LINE
  5
465
  8
0
 62
     1
 10
445.49999911572058
 20
12.00000052153905
 30
0.0
 11
625.49999911572036
 21
12.00000052153905
 31
0.0
1001
ACDBBLOCKREPETAG
1070
     1
1071
      375
1005
465
  0
LINE
  5
466
  8
0
 62
     1
 10
465.49999911572058
 20
19.00000052153905
 30
0.0
 11
535.49999911572058
 21
19.00000052153905
 31
0.0
1001
ACDBBLOCKREPETAG
1070
     1
1071
      376
1005
466
  0
LINE
  5
467
  8
0
 62
     1
 10
445.49999911572058
 20
26.00000052153905
 30
0.0
 11
535.49999911572058
 21
26.00000052153905
 31
0.0
1001
ACDBBLOCKREPETAG
1070
     1
1071
      377
1005
467
  0
LINE
  5
468
  8
0
 62
     1
 10
445.49999911572058
 20
33.00000052153905
 30
0.0
 11
625.49999911572036
 21
33.00000052153905
 31
0.0
1001
ACDBBLOCKREPETAG
1070
     1
1071
      378
1005
468
  0
TEXT
  5
469
  8
0
 10
467.49999911572053
 20
35.00000052153905
 30
0.0
 40
4.0
  1
青海省电力设计院
  7
HZ
1001
ACDBBLOCKREPETAG
1070
     1
1071
      379
1005
469
  0
TEXT
  5
46A
  8
0
 10
589.49999911572036
 20
36.50000052153905
 30
0.0
 40
3.0
  1
工程
  7
HZ
1001
ACDBBLOCKREPETAG
1070
     1
1071
      380
1005
46A
  0
TEXT
  5
46B
  8
0
 10
616.49999911572047
 20
40.50000052153905
 30
0.0
 40
3.0
  1
设计
  7
HZ
1001
ACDBBLOCKREPETAG
1070
     1
1071
      381
1005
46B
  0
TEXT
  5
46C
  8
0
 10
616.49999911572047
 20
34.50000052153905
 30
0.0
 40
3.0
  1
阶段
  7
HZ
1001
ACDBBLOCKREPETAG
1070
     1
1071
      382
1005
46C
  0
TEXT
  5
46D
  8
0
 10
448.49999911572058
 20
28.50000052153905
 30
0.0
 40
3.0
  1
批   准
  7
HZ
1001
ACDBBLOCKREPETAG
1070
     1
1071
      383
1005
46D
  0
TEXT
  5
46E
  8
0
 10
448.49999911572058
 20
18.50000052153905
 30
0.0
 40
3.0
  1
审   核
  7
HZ
1001
ACDBBLOCKREPETAG
1070
     1
1071
      384
1005
46E
  0
TEXT
  5
46F
  8
0
 10
448.49999911572058
 20
7.5000005215390493
 30
0.0
 40
3.0
  1
校   核
  7
HZ
1001
ACDBBLOCKREPETAG
1070
     1
1071
      385
1005
46F
  0
TEXT
  5
470
  8
0
 10
492.99999911572053
 20
28.50000052153905
 30
0.0
 40
3.0
  1
设   计
  7
HZ
1001
ACDBBLOCKREPETAG
1070
     1
1071
      386
1005
470
  0
TEXT
  5
471
  8
0
 10
492.99999911572053
 20
20.50000052153905
 30
0.0
 40
3.0
  1
CAD制图
  7
HZ
1001
ACDBBLOCKREPETAG
1070
     1
1071
      387
1005
471
  0
TEXT
  5
472
  8
0
 10
492.99999911572053
 20
14.50000052153905
 30
0.0
 40
3.0
  1
比   例
  7
HZ
1001
ACDBBLOCKREPETAG
1070
     1
1071
      388
1005
472
  0
TEXT
  5
473
  8
0
 10
492.99999911572053
 20
7.5000005215390493
 30
0.0
 40
3.0
  1
日   期
  7
HZ
1001
ACDBBLOCKREPETAG
1070
     1
1071
      389
1005
473
  0
TEXT
  5
474
  8
0
 10
537.49999911572047
 20
7.5000005215390493
 30
0.0
 40
3.0
  1
图   号
  7
HZ
1001
ACDBBLOCKREPETAG
1070
     1
1071
      390
1005
474
  0
ENDBLK
  5
281
  8
0
  0
ENDSEC
  0
SECTION
  2
ENTITIES
  0
INSERT
  5
283
  8
0
  2
青海院
 10
100.0000008842794
 20
199.99999947846089
 30
0.0
  0
ENDSEC
  0
EOF
